<?xml version="1.0" encoding="UTF-8" standalone="no"?>
<svg width="57px" height="17px" viewBox="0 0 57 17" version="1.1" xmlns="http://www.w3.org/2000/svg" xmlns:xlink="http://www.w3.org/1999/xlink" xmlns:sketch="http://www.bohemiancoding.com/sketch/ns">
    <!-- Generator: Sketch 3.2.2 (9983) - http://www.bohemiancoding.com/sketch -->
    <title>delete</title>
    <desc>Created with Sketch.</desc>
    <defs></defs>
    <g id="Page-1" stroke="none" stroke-width="1" fill="none" fill-rule="evenodd" sketch:type="MSPage">
        <g id="delete" sketch:type="MSArtboardGroup" fill="#FFFFFF">
            <path d="M8.6,10.62 C8.6,11.0733356 8.5500005,11.5299977 8.45,11.99 C8.3499995,12.4500023 8.1833345,12.8699981 7.95,13.25 C7.7166655,13.6300019 7.4166685,13.9399988 7.05,14.18 C6.6833315,14.4200012 6.2266694,14.54 5.68,14.54 C5.146664,14.54 4.6933352,14.4200012 4.32,14.18 C3.9466648,13.9399988 3.6433345,13.6300019 3.41,13.25 C3.1766655,12.8699981 3.0100005,12.4500023 2.91,11.99 C2.8099995,11.5299977 2.76,11.0733356 2.76,10.62 C2.76,10.1666644 2.8099995,9.7100023 2.91,9.25 C3.0100005,8.7899977 3.1766655,8.3700019 3.41,7.99 C3.6433345,7.6099981 3.9466648,7.3000012 4.32,7.06 C4.6933352,6.8199988 5.146664,6.7 5.68,6.7 C6.2266694,6.7 6.6833315,6.8199988 7.05,7.06 C7.4166685,7.3000012 7.7166655,7.6099981 7.95,7.99 C8.1833345,8.3700019 8.3499995,8.7899977 8.45,9.25 C8.5500005,9.7100023 8.6,10.1666644 8.6,10.62 L8.6,10.62 Z M8.42,15.12 C8.42,15.4133348 8.4999992,15.6433325 8.66,15.81 C8.8200008,15.9766675 9.033332,16.06 9.3,16.06 C9.566668,16.06 9.7799992,15.9766675 9.94,15.81 C10.1000008,15.6433325 10.18,15.4133348 10.18,15.12 L10.18,1.44 C10.18,1.1466652 10.1000008,0.9166675 9.94,0.75 C9.7799992,0.5833325 9.566668,0.5 9.3,0.5 C9.033332,0.5 8.8200008,0.5833325 8.66,0.75 C8.4999992,0.9166675 8.42,1.1466652 8.42,1.44 L8.42,6.62 L8.38,6.62 C8.2599994,6.4599992 8.1133342,6.2933342 7.94,6.12 C7.7666658,5.9466658 7.5600012,5.7900007 7.32,5.65 C7.0799988,5.5099993 6.8100015,5.3966671 6.51,5.31 C6.2099985,5.2233329 5.8866684,5.18 5.54,5.18 C4.8199964,5.18 4.1800028,5.3299985 3.62,5.63 C3.0599972,5.9300015 2.5833353,6.3333308 2.19,6.84 C1.7966647,7.3466692 1.500001,7.9266634 1.3,8.58 C1.099999,9.2333366 1,9.9133298 1,10.62 C1,11.3266702 1.099999,12.0066634 1.3,12.66 C1.500001,13.3133366 1.7966647,13.8933308 2.19,14.4 C2.5833353,14.9066692 3.0599972,15.3099985 3.62,15.61 C4.1800028,15.9100015 4.8199964,16.06 5.54,16.06 C6.9266736,16.06 7.8733308,15.5733382 8.38,14.6 L8.42,14.6 L8.42,15.12 Z M21.2052459,11.3 C21.5919145,11.3 21.8519119,11.2200008 21.9852459,11.06 C22.1185799,10.8999992 22.1852459,10.6666682 22.1852459,10.36 C22.1852459,9.7199968 22.0819136,9.0900031 21.8752459,8.47 C21.6685782,7.8499969 21.3719145,7.2966691 20.9852459,6.81 C20.5985773,6.3233309 20.1185821,5.9300015 19.5452459,5.63 C18.9719097,5.3299985 18.3252495,5.18 17.6052459,5.18 C16.8585755,5.18 16.1885822,5.3266652 15.5952459,5.62 C15.0019096,5.9133348 14.5019146,6.3099975 14.0952459,6.81 C13.6885772,7.3100025 13.375247,7.8899967 13.1552459,8.55 C12.9352448,9.2100033 12.8252459,9.8999964 12.8252459,10.62 C12.8252459,11.3266702 12.9185783,12.0066634 13.1052459,12.66 C13.2919135,13.3133366 13.5852439,13.8933308 13.9852459,14.4 C14.3852479,14.9066692 14.8919095,15.3099985 15.5052459,15.61 C16.1185823,15.9100015 16.8519083,16.06 17.7052459,16.06 C18.2252485,16.06 18.7385767,15.9866674 19.2452459,15.84 C19.7519151,15.6933326 20.2085772,15.5100011 20.6152459,15.29 C21.0219146,15.0699989 21.348578,14.8333346 21.5952459,14.58 C21.8419138,14.3266654 21.9652459,14.0933344 21.9652459,13.88 C21.9652459,13.6266654 21.8985799,13.433334 21.7652459,13.3 C21.6319119,13.166666 21.4852467,13.1 21.3252459,13.1 C21.1652451,13.1 20.9952468,13.1733326 20.8152459,13.32 C20.635245,13.4666674 20.4152472,13.6299991 20.1552459,13.81 C19.8952446,13.9900009 19.5719145,14.1566659 19.1852459,14.31 C18.7985773,14.4633341 18.3119155,14.54 17.7252459,14.54 C17.2319101,14.54 16.7919145,14.4566675 16.4052459,14.29 C16.0185773,14.1233325 15.6885806,13.8933348 15.4152459,13.6 C15.1419112,13.3066652 14.9352466,12.9633353 14.7952459,12.57 C14.6552452,12.1766647 14.5852459,11.7533356 14.5852459,11.3 L21.2052459,11.3 Z M14.5852459,9.98 C14.5985793,9.579998 14.661912,9.180002 14.7752459,8.78 C14.8885798,8.379998 15.0652447,8.0233349 15.3052459,7.71 C15.5452471,7.3966651 15.8519107,7.1433343 16.2252459,6.95 C16.5985811,6.7566657 17.0585765,6.6733332 17.6052459,6.7 C18.0852483,6.7 18.5052441,6.799999 18.8652459,7 C19.2252477,7.200001 19.5185781,7.4566651 19.7452459,7.77 C19.9719137,8.0833349 20.141912,8.4333314 20.2552459,8.82 C20.3685798,9.2066686 20.4252459,9.5933314 20.4252459,9.98 L14.5852459,9.98 Z M26.5104918,1.44 C26.5104918,1.1466652 26.4304926,0.9166675 26.2704918,0.75 C26.110491,0.5833325 25.8971598,0.5 25.6304918,0.5 C25.3638238,0.5 25.1504926,0.5833325 24.9904918,0.75 C24.830491,0.9166675 24.7504918,1.1466652 24.7504918,1.44 L24.7504918,15.12 C24.7504918,15.4133348 24.830491,15.6433325 24.9904918,15.81 C25.1504926,15.9766675 25.3638238,16.06 25.6304918,16.06 C25.8971598,16.06 26.110491,15.9766675 26.2704918,15.81 C26.4304926,15.6433325 26.5104918,15.4133348 26.5104918,15.12 L26.5104918,1.44 Z M37.4557378,11.3 C37.8424064,11.3 38.1024038,11.2200008 38.2357378,11.06 C38.3690718,10.8999992 38.4357378,10.6666682 38.4357378,10.36 C38.4357378,9.7199968 38.3324055,9.0900031 38.1257378,8.47 C37.9190701,7.8499969 37.6224064,7.2966691 37.2357378,6.81 C36.8490692,6.3233309 36.369074,5.9300015 35.7957378,5.63 C35.2224016,5.3299985 34.5757414,5.18 33.8557378,5.18 C33.1090674,5.18 32.4390741,5.3266652 31.8457378,5.62 C31.2524015,5.9133348 30.7524065,6.3099975 30.3457378,6.81 C29.9390691,7.3100025 29.6257389,7.8899967 29.4057378,8.55 C29.1857367,9.2100033 29.0757378,9.8999964 29.0757378,10.62 C29.0757378,11.3266702 29.1690702,12.0066634 29.3557378,12.66 C29.5424054,13.3133366 29.8357358,13.8933308 30.2357378,14.4 C30.6357398,14.9066692 31.1424014,15.3099985 31.7557378,15.61 C32.3690742,15.9100015 33.1024002,16.06 33.9557378,16.06 C34.4757404,16.06 34.9890686,15.9866674 35.4957378,15.84 C36.002407,15.6933326 36.4590691,15.5100011 36.8657378,15.29 C37.2724065,15.0699989 37.5990699,14.8333346 37.8457378,14.58 C38.0924057,14.3266654 38.2157378,14.0933344 38.2157378,13.88 C38.2157378,13.6266654 38.1490718,13.433334 38.0157378,13.3 C37.8824038,13.166666 37.7357386,13.1 37.5757378,13.1 C37.415737,13.1 37.2457387,13.1733326 37.0657378,13.32 C36.8857369,13.4666674 36.6657391,13.6299991 36.4057378,13.81 C36.1457365,13.9900009 35.8224064,14.1566659 35.4357378,14.31 C35.0490692,14.4633341 34.5624074,14.54 33.9757378,14.54 C33.482402,14.54 33.0424064,14.4566675 32.6557378,14.29 C32.2690692,14.1233325 31.9390725,13.8933348 31.6657378,13.6 C31.3924031,13.3066652 31.1857385,12.9633353 31.0457378,12.57 C30.9057371,12.1766647 30.8357378,11.7533356 30.8357378,11.3 L37.4557378,11.3 Z M30.8357378,9.98 C30.8490712,9.579998 30.9124039,9.180002 31.0257378,8.78 C31.1390717,8.379998 31.3157366,8.0233349 31.5557378,7.71 C31.795739,7.3966651 32.1024026,7.1433343 32.4757378,6.95 C32.849073,6.7566657 33.3090684,6.6733332 33.8557378,6.7 C34.3357402,6.7 34.755736,6.799999 35.1157378,7 C35.4757396,7.200001 35.76907,7.4566651 35.9957378,7.77 C36.2224056,8.0833349 36.3924039,8.4333314 36.5057378,8.82 C36.6190717,9.2066686 36.6757378,9.5933314 36.6757378,9.98 L30.8357378,9.98 Z M41.5609837,5.3 L40.8409837,5.3 C40.2543141,5.3 39.9609837,5.5533308 39.9609837,6.06 C39.9609837,6.5666692 40.2543141,6.82 40.8409837,6.82 L41.5609837,6.82 L41.5609837,15.12 C41.5609837,15.4133348 41.6409829,15.6433325 41.8009837,15.81 C41.9609845,15.9766675 42.1743157,16.06 42.4409837,16.06 C42.7076517,16.06 42.9209829,15.9766675 43.0809837,15.81 C43.2409845,15.6433325 43.3209837,15.4133348 43.3209837,15.12 L43.3209837,6.82 L44.0409837,6.82 C44.6276533,6.82 44.9209837,6.5666692 44.9209837,6.06 C44.9209837,5.5533308 44.6276533,5.3 44.0409837,5.3 L43.3209837,5.3 L43.3209837,3 C43.3209837,2.7066652 43.2409845,2.4766675 43.0809837,2.31 C42.9209829,2.1433325 42.7076517,2.06 42.4409837,2.06 C42.1743157,2.06 41.9609845,2.1433325 41.8009837,2.31 C41.6409829,2.4766675 41.5609837,2.7066652 41.5609837,3 L41.5609837,5.3 Z M54.8262296,11.3 C55.2128982,11.3 55.4728956,11.2200008 55.6062296,11.06 C55.7395636,10.8999992 55.8062296,10.6666682 55.8062296,10.36 C55.8062296,9.7199968 55.7028973,9.0900031 55.4962296,8.47 C55.2895619,7.8499969 54.9928982,7.2966691 54.6062296,6.81 C54.219561,6.3233309 53.7395658,5.9300015 53.1662296,5.63 C52.5928934,5.3299985 51.9462332,5.18 51.2262296,5.18 C50.4795592,5.18 49.8095659,5.3266652 49.2162296,5.62 C48.6228933,5.9133348 48.1228983,6.3099975 47.7162296,6.81 C47.3095609,7.3100025 46.9962307,7.8899967 46.7762296,8.55 C46.5562285,9.2100033 46.4462296,9.8999964 46.4462296,10.62 C46.4462296,11.3266702 46.539562,12.0066634 46.7262296,12.66 C46.9128972,13.3133366 47.2062276,13.8933308 47.6062296,14.4 C48.0062316,14.9066692 48.5128932,15.3099985 49.1262296,15.61 C49.739566,15.9100015 50.472892,16.06 51.3262296,16.06 C51.8462322,16.06 52.3595604,15.9866674 52.8662296,15.84 C53.3728988,15.6933326 53.8295609,15.5100011 54.2362296,15.29 C54.6428983,15.0699989 54.9695617,14.8333346 55.2162296,14.58 C55.4628975,14.3266654 55.5862296,14.0933344 55.5862296,13.88 C55.5862296,13.6266654 55.5195636,13.433334 55.3862296,13.3 C55.2528956,13.166666 55.1062304,13.1 54.9462296,13.1 C54.7862288,13.1 54.6162305,13.1733326 54.4362296,13.32 C54.2562287,13.4666674 54.0362309,13.6299991 53.7762296,13.81 C53.5162283,13.9900009 53.1928982,14.1566659 52.8062296,14.31 C52.419561,14.4633341 51.9328992,14.54 51.3462296,14.54 C50.8528938,14.54 50.4128982,14.4566675 50.0262296,14.29 C49.639561,14.1233325 49.3095643,13.8933348 49.0362296,13.6 C48.7628949,13.3066652 48.5562303,12.9633353 48.4162296,12.57 C48.2762289,12.1766647 48.2062296,11.7533356 48.2062296,11.3 L54.8262296,11.3 Z M48.2062296,9.98 C48.219563,9.579998 48.2828957,9.180002 48.3962296,8.78 C48.5095635,8.379998 48.6862284,8.0233349 48.9262296,7.71 C49.1662308,7.3966651 49.4728944,7.1433343 49.8462296,6.95 C50.2195648,6.7566657 50.6795602,6.6733332 51.2262296,6.7 C51.706232,6.7 52.1262278,6.799999 52.4862296,7 C52.8462314,7.200001 53.1395618,7.4566651 53.3662296,7.77 C53.5928974,8.0833349 53.7628957,8.4333314 53.8762296,8.82 C53.9895635,9.2066686 54.0462296,9.5933314 54.0462296,9.98 L48.2062296,9.98 Z" sketch:type="MSShapeGroup"></path>
        </g>
    </g>
</svg>