<?xml version="1.0" encoding="UTF-8" standalone="no"?>
<svg width="120px" height="850px" viewBox="0 0 120 850" version="1.1" xmlns="http://www.w3.org/2000/svg" xmlns:xlink="http://www.w3.org/1999/xlink" xmlns:sketch="http://www.bohemiancoding.com/sketch/ns">
    <!-- Generator: Sketch 3.2.2 (9983) - http://www.bohemiancoding.com/sketch -->
    <title>keys</title>
    <desc>Created with Sketch.</desc>
    <defs></defs>
    <g id="Page-1" stroke="none" stroke-width="1" fill="none" fill-rule="evenodd" sketch:type="MSPage">
        <g id="keys" sketch:type="MSArtboardGroup">
            <path d="M56.21,530.97 L64.79,530.97 L65.986,534.298 C66.0726671,534.540668 66.2026658,534.744333 66.376,534.909 C66.5493342,535.073667 66.7919984,535.156 67.104,535.156 C67.3986681,535.156 67.6543322,535.069334 67.871,534.896 C68.0876678,534.722666 68.196,534.488668 68.196,534.194 C68.196,534.037999 68.1526671,533.838668 68.066,533.596 C67.9793329,533.353332 67.9186668,533.171334 67.884,533.05 L62.138,517.736 C61.9993326,517.337331 61.8043346,517.003668 61.553,516.735 C61.3016654,516.466332 60.9506689,516.332 60.5,516.332 C60.0493311,516.332 59.6983346,516.466332 59.447,516.735 C59.1956654,517.003668 59.0006674,517.337331 58.862,517.736 L53.116,533.05 C53.0813332,533.171334 53.0206671,533.353332 52.934,533.596 C52.8473329,533.838668 52.804,534.037999 52.804,534.194 C52.804,534.488668 52.9123322,534.722666 53.129,534.896 C53.3456678,535.069334 53.6013319,535.156 53.896,535.156 C54.2080016,535.156 54.4506658,535.073667 54.624,534.909 C54.7973342,534.744333 54.9273329,534.540668 55.014,534.298 L56.21,530.97 Z M64.088,528.994 L56.912,528.994 L60.474,518.984 L60.526,518.984 L64.088,528.994 Z M56.041,575.744 C56.041,574.859996 56.1493323,573.976004 56.366,573.092 C56.5826677,572.207996 56.9249977,571.41067 57.393,570.7 C57.8610023,569.98933 58.4633296,569.413002 59.2,568.971 C59.9366703,568.528998 60.8163282,568.308 61.839,568.308 C62.5496702,568.308 63.1303311,568.403332 63.581,568.594 C64.0316689,568.784668 64.4129984,568.992666 64.725,569.218 C65.0370016,569.443334 65.3056655,569.651332 65.531,569.842 C65.7563345,570.032668 65.9989987,570.128 66.259,570.128 C66.5536681,570.128 66.7833325,570.019668 66.948,569.803 C67.1126675,569.586332 67.195,569.330668 67.195,569.036 C67.195,568.793332 67.0693346,568.520335 66.818,568.217 C66.5666654,567.913665 66.2070023,567.619001 65.739,567.333 C65.2709977,567.046999 64.70767,566.808668 64.049,566.618 C63.39033,566.427332 62.6536707,566.332 61.839,566.332 C60.4696598,566.332 59.2693385,566.596331 58.238,567.125 C57.2066615,567.653669 56.3486701,568.355662 55.664,569.231 C54.9793299,570.106338 54.4636684,571.111661 54.117,572.247 C53.7703316,573.382339 53.597,574.547994 53.597,575.744 C53.597,576.940006 53.7703316,578.105661 54.117,579.241 C54.4636684,580.376339 54.9749966,581.381662 55.651,582.257 C56.3270034,583.132338 57.1719949,583.834331 58.186,584.363 C59.2000051,584.891669 60.3743267,585.156 61.709,585.156 C62.5236707,585.156 63.2863298,585.078001 63.997,584.922 C64.7076702,584.765999 65.331664,584.562335 65.869,584.311 C66.406336,584.059665 66.8266651,583.782335 67.13,583.479 C67.4333348,583.175665 67.585,582.876668 67.585,582.582 C67.585,582.252665 67.5026675,581.992668 67.338,581.802 C67.1733325,581.611332 66.9523347,581.516 66.675,581.516 C66.4323321,581.516 66.1680014,581.602666 65.882,581.776 C65.5959986,581.949334 65.2580019,582.139999 64.868,582.348 C64.477998,582.556001 64.0273359,582.746666 63.516,582.92 C63.0046641,583.093334 62.4023368,583.18 61.709,583.18 C60.7209951,583.18 59.8716702,582.959002 59.161,582.517 C58.4503298,582.074998 57.8653356,581.49867 57.406,580.788 C56.9466644,580.07733 56.6043345,579.280004 56.379,578.396 C56.1536655,577.511996 56.041,576.628004 56.041,575.744 L56.041,575.744 Z M53.948,633.752 C53.948,634.098668 54.0433324,634.393332 54.234,634.636 C54.4246676,634.878668 54.7366645,635 55.17,635 L59.98,635 C61.2280062,635 62.3416618,634.770336 63.321,634.311 C64.3003382,633.851664 65.1279966,633.210337 65.804,632.387 C66.4800034,631.563663 66.9956649,630.580006 67.351,629.436 C67.7063351,628.291994 67.884,627.026674 67.884,625.64 C67.884,624.409327 67.7150017,623.243672 67.377,622.143 C67.0389983,621.042328 66.5276701,620.071671 65.843,619.231 C65.1583299,618.390329 64.3046718,617.723002 63.282,617.229 C62.2593282,616.734998 61.0546736,616.488 59.668,616.488 L55.17,616.488 C54.7366645,616.488 54.4246676,616.609332 54.234,616.852 C54.0433324,617.094668 53.948,617.389332 53.948,617.736 L53.948,633.752 Z M56.236,618.464 L59.356,618.464 C60.4480055,618.464 61.3796628,618.658998 62.151,619.049 C62.9223372,619.439002 63.5506642,619.96333 64.036,620.622 C64.5213358,621.28067 64.8766655,622.043329 65.102,622.91 C65.3273345,623.776671 65.44,624.686662 65.44,625.64 C65.44,626.576005 65.3316678,627.490329 65.115,628.383 C64.8983322,629.275671 64.5560023,630.06433 64.088,630.749 C63.6199977,631.43367 63.0090038,631.983998 62.255,632.4 C61.5009962,632.816002 60.586672,633.024 59.512,633.024 L56.236,633.024 L56.236,618.464 Z M60.526,681.308 L60.474,681.308 L55.794,667.814 C55.6553326,667.415331 55.4993342,667.068668 55.326,666.774 C55.1526658,666.479332 54.8406689,666.332 54.39,666.332 C54.0779984,666.332 53.8310009,666.427332 53.649,666.618 C53.4669991,666.808668 53.376,667.025332 53.376,667.268 C53.376,667.545335 53.4279995,667.839998 53.532,668.152 L59.174,683.908 C59.3126674,684.289335 59.4686658,684.592666 59.642,684.818 C59.8153342,685.043334 60.1013313,685.156 60.5,685.156 C60.8986687,685.156 61.1846658,685.043334 61.358,684.818 C61.5313342,684.592666 61.6873326,684.289335 61.826,683.908 L67.468,668.152 C67.5720005,667.839998 67.624,667.545335 67.624,667.268 C67.624,667.025332 67.5330009,666.808668 67.351,666.618 C67.1689991,666.427332 66.9220016,666.332 66.61,666.332 C66.1593311,666.332 65.8473342,666.479332 65.674,666.774 C65.5006658,667.068668 65.3446674,667.415331 65.206,667.814 L60.526,681.308 Z M60.5,726.862 L65.804,734.428 C66.0466679,734.757335 66.2503325,734.961 66.415,735.039 C66.5796675,735.117 66.7573324,735.156 66.948,735.156 C67.2080013,735.156 67.4463322,735.065001 67.663,734.883 C67.8796678,734.700999 67.988,734.471335 67.988,734.194 C67.988,734.003332 67.9490004,733.830001 67.871,733.674 C67.7929996,733.517999 67.7106671,733.379334 67.624,733.258 L61.826,725.068 L66.662,718.23 C66.9046679,717.883332 67.026,717.571335 67.026,717.294 C67.026,716.999332 66.9263343,716.765334 66.727,716.592 C66.5276657,716.418666 66.2893347,716.332 66.012,716.332 C65.8213324,716.332 65.6350009,716.375333 65.453,716.462 C65.2709991,716.548667 65.0673345,716.747998 64.842,717.06 L60.5,723.404 L56.158,717.06 C55.9326655,716.747998 55.7290009,716.548667 55.547,716.462 C55.3649991,716.375333 55.1786676,716.332 54.988,716.332 C54.7106653,716.332 54.4723343,716.418666 54.273,716.592 C54.0736657,716.765334 53.974,716.999332 53.974,717.294 C53.974,717.571335 54.0953321,717.883332 54.338,718.23 L59.174,725.068 L53.376,733.258 C53.2893329,733.379334 53.2070004,733.517999 53.129,733.674 C53.0509996,733.830001 53.012,734.003332 53.012,734.194 C53.012,734.471335 53.1203323,734.700999 53.337,734.883 C53.5536678,735.065001 53.7919987,735.156 54.052,735.156 C54.2426676,735.156 54.4203325,735.117 54.585,735.039 C54.7496675,734.961 54.9533321,734.757335 55.196,734.428 L60.5,726.862 Z M59.356,783.934 C59.356,784.315335 59.459999,784.614332 59.668,784.831 C59.876001,785.047668 60.1533316,785.156 60.5,785.156 C60.8466684,785.156 61.123999,785.047668 61.332,784.831 C61.540001,784.614332 61.644,784.315335 61.644,783.934 L61.644,776.316 L66.61,768.23 C66.8526679,767.848665 66.974,767.528001 66.974,767.268 C66.974,766.973332 66.8743343,766.743667 66.675,766.579 C66.4756657,766.414333 66.2286681,766.332 65.934,766.332 C65.725999,766.332 65.5266676,766.379666 65.336,766.475 C65.1453324,766.570334 64.9633342,766.765332 64.79,767.06 L60.5,774.054 L56.21,767.06 C56.0366658,766.765332 55.8546676,766.570334 55.664,766.475 C55.4733324,766.379666 55.274001,766.332 55.066,766.332 C54.7713319,766.332 54.5243343,766.414333 54.325,766.579 C54.1256657,766.743667 54.026,766.973332 54.026,767.268 C54.026,767.528001 54.1473321,767.848665 54.39,768.23 L59.356,776.316 L59.356,783.934 Z M54.338,832.738 C54.1473324,833.015335 54.0260003,833.240666 53.974,833.414 C53.9219997,833.587334 53.896,833.769332 53.896,833.96 C53.896,834.289335 53.999999,834.544999 54.208,834.727 C54.416001,834.909001 54.7626642,835 55.248,835 L65.986,835 C66.315335,835 66.583999,834.917667 66.792,834.753 C67.000001,834.588333 67.104,834.341335 67.104,834.012 C67.104,833.682665 67.000001,833.435667 66.792,833.271 C66.583999,833.106333 66.315335,833.024 65.986,833.024 L56.652,833.024 L66.194,818.75 C66.4366679,818.403332 66.5926663,818.134668 66.662,817.944 C66.7313337,817.753332 66.766,817.536668 66.766,817.294 C66.766,817.085999 66.662001,816.899667 66.454,816.735 C66.245999,816.570333 65.9513352,816.488 65.57,816.488 L55.456,816.488 C55.126665,816.488 54.858001,816.570333 54.65,816.735 C54.441999,816.899667 54.338,817.146665 54.338,817.476 C54.338,817.805335 54.441999,818.052333 54.65,818.217 C54.858001,818.381667 55.126665,818.464 55.456,818.464 L63.854,818.464 L54.338,832.738 Z" id="letter" fill="#FFFFFF" sketch:type="MSShapeGroup"></path>
            <path d="M18.9,285.36 C19.2866686,285.36 19.546666,285.280001 19.68,285.12 C19.813334,284.959999 19.88,284.726668 19.88,284.42 C19.88,283.779997 19.7766677,283.150003 19.57,282.53 C19.3633323,281.909997 19.0666686,281.356669 18.68,280.87 C18.2933314,280.383331 17.8133362,279.990002 17.24,279.69 C16.6666638,279.389998 16.0200036,279.24 15.3,279.24 C14.5533296,279.24 13.8833363,279.386665 13.29,279.68 C12.6966637,279.973335 12.1966687,280.369998 11.79,280.87 C11.3833313,281.370002 11.0700011,281.949997 10.85,282.61 C10.6299989,283.270003 10.52,283.959996 10.52,284.68 C10.52,285.38667 10.6133324,286.066663 10.8,286.72 C10.9866676,287.373337 11.279998,287.953331 11.68,288.46 C12.080002,288.966669 12.5866636,289.369999 13.2,289.67 C13.8133364,289.970002 14.5466624,290.12 15.4,290.12 C15.9200026,290.12 16.4333308,290.046667 16.94,289.9 C17.4466692,289.753333 17.9033313,289.570001 18.31,289.35 C18.7166687,289.129999 19.0433321,288.893335 19.29,288.64 C19.5366679,288.386665 19.66,288.153334 19.66,287.94 C19.66,287.686665 19.593334,287.493334 19.46,287.36 C19.326666,287.226666 19.1800008,287.16 19.02,287.16 C18.8599992,287.16 18.6900009,287.233333 18.51,287.38 C18.3299991,287.526667 18.1100013,287.689999 17.85,287.87 C17.5899987,288.050001 17.2666686,288.216666 16.88,288.37 C16.4933314,288.523334 16.0066696,288.6 15.42,288.6 C14.9266642,288.6 14.4866686,288.516667 14.1,288.35 C13.7133314,288.183333 13.3833347,287.953335 13.11,287.66 C12.8366653,287.366665 12.6300007,287.023335 12.49,286.63 C12.3499993,286.236665 12.28,285.813336 12.28,285.36 L18.9,285.36 Z M12.28,284.04 C12.2933334,283.639998 12.3566661,283.240002 12.47,282.84 C12.5833339,282.439998 12.7599988,282.083335 13,281.77 C13.2400012,281.456665 13.5466648,281.203334 13.92,281.01 C14.2933352,280.816666 14.7533306,280.733333 15.3,280.76 C15.7800024,280.76 16.1999982,280.859999 16.56,281.06 C16.9200018,281.260001 17.2133322,281.516665 17.44,281.83 C17.6666678,282.143335 17.8366661,282.493331 17.95,282.88 C18.0633339,283.266669 18.12,283.653331 18.12,284.04 L12.28,284.04 Z M22.1366672,282.24 C22.1366672,282.733336 22.2766658,283.149998 22.5566672,283.49 C22.8366686,283.830002 23.1866651,284.123332 23.6066672,284.37 C24.0266693,284.616668 24.4833314,284.836666 24.9766672,285.03 C25.470003,285.223334 25.9266651,285.419999 26.3466672,285.62 C26.7666693,285.820001 27.1166658,286.039999 27.3966672,286.28 C27.6766686,286.520001 27.8166672,286.813332 27.8166672,287.16 C27.8166672,287.520002 27.6333357,287.849998 27.2666672,288.15 C26.8999987,288.450001 26.3966704,288.6 25.7566672,288.6 C25.2766648,288.6 24.8700022,288.533334 24.5366672,288.4 C24.2033322,288.266666 23.9100018,288.116668 23.6566672,287.95 C23.4033326,287.783332 23.1833348,287.633334 22.9966672,287.5 C22.8099996,287.366666 22.6166682,287.3 22.4166672,287.3 C22.2299996,287.3 22.0633346,287.373333 21.9166672,287.52 C21.7699998,287.666667 21.6966672,287.859999 21.6966672,288.1 C21.6966672,288.326668 21.7999995,288.559999 22.0066672,288.8 C22.2133349,289.040001 22.4966654,289.256666 22.8566672,289.45 C23.216669,289.643334 23.6399981,289.803333 24.1266672,289.93 C24.6133363,290.056667 25.1366644,290.12 25.6966672,290.12 C26.190003,290.12 26.6699982,290.053334 27.1366672,289.92 C27.6033362,289.786666 28.0166654,289.583335 28.3766672,289.31 C28.736669,289.036665 29.0266661,288.696669 29.2466672,288.29 C29.4666683,287.883331 29.5766672,287.400003 29.5766672,286.84 C29.5766672,286.319997 29.4366686,285.886668 29.1566672,285.54 C28.8766658,285.193332 28.5266693,284.896668 28.1066672,284.65 C27.6866651,284.403332 27.230003,284.190001 26.7366672,284.01 C26.2433314,283.829999 25.7866693,283.650001 25.3666672,283.47 C24.9466651,283.289999 24.5966686,283.093334 24.3166672,282.88 C24.0366658,282.666666 23.8966672,282.406668 23.8966672,282.1 C23.8966672,281.646664 24.0799987,281.310001 24.4466672,281.09 C24.8133357,280.869999 25.249998,280.76 25.7566672,280.76 C26.183336,280.76 26.5299992,280.816666 26.7966672,280.93 C27.0633352,281.043334 27.2899996,281.166666 27.4766672,281.3 C27.6633348,281.433334 27.8333331,281.556666 27.9866672,281.67 C28.1400013,281.783334 28.3099996,281.84 28.4966672,281.84 C28.7633352,281.84 28.9633332,281.766667 29.0966672,281.62 C29.2300012,281.473333 29.2966672,281.306668 29.2966672,281.12 C29.2966672,280.839999 29.1800017,280.586668 28.9466672,280.36 C28.7133327,280.133332 28.4233356,279.936667 28.0766672,279.77 C27.7299988,279.603332 27.3466693,279.473334 26.9266672,279.38 C26.5066651,279.286666 26.116669,279.24 25.7566672,279.24 C25.316665,279.24 24.8800027,279.303333 24.4466672,279.43 C24.0133317,279.556667 23.6266689,279.746665 23.2866672,280 C22.9466655,280.253335 22.6700016,280.566665 22.4566672,280.94 C22.2433328,281.313335 22.1366672,281.746664 22.1366672,282.24 L22.1366672,282.24 Z M31.6133344,284.68 C31.6133344,285.38667 31.7100001,286.066663 31.9033344,286.72 C32.0966687,287.373337 32.3933324,287.953331 32.7933344,288.46 C33.1933364,288.966669 33.6933314,289.369999 34.2933344,289.67 C34.8933374,289.970002 35.599997,290.12 36.4133344,290.12 C37.333339,290.12 38.0299987,289.973335 38.5033344,289.68 C38.9766701,289.386665 39.2133344,289.073335 39.2133344,288.74 C39.2133344,288.499999 39.1500017,288.316667 39.0233344,288.19 C38.8966671,288.063333 38.7333354,288 38.5333344,288 C38.4000004,288 38.2700017,288.03 38.1433344,288.09 C38.0166671,288.15 37.8766685,288.22 37.7233344,288.3 C37.5700003,288.38 37.3900021,288.45 37.1833344,288.51 C36.9766667,288.57 36.7200026,288.6 36.4133344,288.6 C35.866665,288.6 35.400003,288.480001 35.0133344,288.24 C34.6266658,287.999999 34.3133356,287.690002 34.0733344,287.31 C33.8333332,286.929998 33.6566683,286.510002 33.5433344,286.05 C33.4300005,285.589998 33.3733344,285.133336 33.3733344,284.68 C33.3733344,284.226664 33.4300005,283.770002 33.5433344,283.31 C33.6566683,282.849998 33.8333332,282.430002 34.0733344,282.05 C34.3133356,281.669998 34.6266658,281.360001 35.0133344,281.12 C35.400003,280.879999 35.866665,280.76 36.4133344,280.76 C36.7200026,280.76 36.9700001,280.79 37.1633344,280.85 C37.3566687,280.91 37.5300003,280.973333 37.6833344,281.04 C37.8366685,281.106667 37.9766671,281.17 38.1033344,281.23 C38.2300017,281.29 38.3800002,281.32 38.5533344,281.32 C38.7666688,281.32 38.9400004,281.243334 39.0733344,281.09 C39.2066684,280.936666 39.2733344,280.766668 39.2733344,280.58 C39.2733344,280.219998 39.0233369,279.906668 38.5233344,279.64 C38.0233319,279.373332 37.3200056,279.24 36.4133344,279.24 C35.599997,279.24 34.8933374,279.389998 34.2933344,279.69 C33.6933314,279.990002 33.1933364,280.393331 32.7933344,280.9 C32.3933324,281.406669 32.0966687,281.986663 31.9033344,282.64 C31.7100001,283.293337 31.6133344,283.97333 31.6133344,284.68 L31.6133344,284.68 Z M11.72,329.36 L11,329.36 C10.4133304,329.36 10.12,329.613331 10.12,330.12 C10.12,330.626669 10.4133304,330.88 11,330.88 L11.72,330.88 L11.72,339.18 C11.72,339.473335 11.7999992,339.703332 11.96,339.87 C12.1200008,340.036668 12.333332,340.12 12.6,340.12 C12.866668,340.12 13.0799992,340.036668 13.24,339.87 C13.4000008,339.703332 13.48,339.473335 13.48,339.18 L13.48,330.88 L14.2,330.88 C14.7866696,330.88 15.08,330.626669 15.08,330.12 C15.08,329.613331 14.7866696,329.36 14.2,329.36 L13.48,329.36 L13.48,327.06 C13.48,326.766665 13.4000008,326.536668 13.24,326.37 C13.0799992,326.203332 12.866668,326.12 12.6,326.12 C12.333332,326.12 12.1200008,326.203332 11.96,326.37 C11.7999992,326.536668 11.72,326.766665 11.72,327.06 L11.72,329.36 Z M25.9766672,330.1 C25.9766672,329.793332 25.8833348,329.573334 25.6966672,329.44 C25.5099996,329.306666 25.3300014,329.24 25.1566672,329.24 C24.9699996,329.24 24.7866681,329.306666 24.6066672,329.44 C24.4266663,329.573334 24.3366672,329.793332 24.3366672,330.1 L24.3366672,330.66 L24.2966672,330.66 C23.8833318,330.206664 23.4500028,329.856668 22.9966672,329.61 C22.5433316,329.363332 22.0100036,329.24 21.3966672,329.24 C20.6499968,329.24 19.9866701,329.389999 19.4066672,329.69 C18.8266643,329.990002 18.3366692,330.393331 17.9366672,330.9 C17.5366652,331.406669 17.2333349,331.986663 17.0266672,332.64 C16.8199995,333.293337 16.7166672,333.97333 16.7166672,334.68 C16.7166672,335.38667 16.8199995,336.066663 17.0266672,336.72 C17.2333349,337.373337 17.5366652,337.953331 17.9366672,338.46 C18.3366692,338.966669 18.8266643,339.369999 19.4066672,339.67 C19.9866701,339.970001 20.6499968,340.12 21.3966672,340.12 C21.9700034,340.12 22.4999981,339.990001 22.9866672,339.73 C23.4733363,339.469999 23.9099986,339.066669 24.2966672,338.52 L24.3366672,338.52 L24.3366672,339.26 C24.3366672,339.566668 24.4266663,339.786666 24.6066672,339.92 C24.7866681,340.053334 24.9699996,340.12 25.1566672,340.12 C25.3300014,340.12 25.5099996,340.053334 25.6966672,339.92 C25.8833348,339.786666 25.9766672,339.566668 25.9766672,339.26 L25.9766672,330.1 Z M18.4766672,334.68 C18.4766672,334.226664 18.5266667,333.770002 18.6266672,333.31 C18.7266677,332.849998 18.8933327,332.430002 19.1266672,332.05 C19.3600017,331.669998 19.663332,331.360001 20.0366672,331.12 C20.4100024,330.879999 20.8633312,330.76 21.3966672,330.76 C21.9433366,330.76 22.3999987,330.879999 22.7666672,331.12 C23.1333357,331.360001 23.4333327,331.669998 23.6666672,332.05 C23.9000017,332.430002 24.0666667,332.849998 24.1666672,333.31 C24.2666677,333.770002 24.3166672,334.226664 24.3166672,334.68 C24.3166672,335.133336 24.2666677,335.589998 24.1666672,336.05 C24.0666667,336.510002 23.9000017,336.929998 23.6666672,337.31 C23.4333327,337.690002 23.1333357,337.999999 22.7666672,338.24 C22.3999987,338.480001 21.9433366,338.6 21.3966672,338.6 C20.8633312,338.6 20.4100024,338.480001 20.0366672,338.24 C19.663332,337.999999 19.3600017,337.690002 19.1266672,337.31 C18.8933327,336.929998 18.7266677,336.510002 18.6266672,336.05 C18.5266667,335.589998 18.4766672,335.133336 18.4766672,334.68 L18.4766672,334.68 Z M30.7733344,334.68 C30.7733344,334.226664 30.8233339,333.770002 30.9233344,333.31 C31.0233349,332.849998 31.1899999,332.430002 31.4233344,332.05 C31.6566689,331.669998 31.9599992,331.360001 32.3333344,331.12 C32.7066696,330.879999 33.1599984,330.76 33.6933344,330.76 C34.2400038,330.76 34.6966659,330.879999 35.0633344,331.12 C35.4300029,331.360001 35.7299999,331.669998 35.9633344,332.05 C36.1966689,332.430002 36.3633339,332.849998 36.4633344,333.31 C36.5633349,333.770002 36.6133344,334.226664 36.6133344,334.68 C36.6133344,335.133336 36.5633349,335.589998 36.4633344,336.05 C36.3633339,336.510002 36.1966689,336.929998 35.9633344,337.31 C35.7299999,337.690002 35.4300029,337.999999 35.0633344,338.24 C34.6966659,338.480001 34.2400038,338.6 33.6933344,338.6 C33.1599984,338.6 32.7066696,338.480001 32.3333344,338.24 C31.9599992,337.999999 31.6566689,337.690002 31.4233344,337.31 C31.1899999,336.929998 31.0233349,336.510002 30.9233344,336.05 C30.8233339,335.589998 30.7733344,335.133336 30.7733344,334.68 L30.7733344,334.68 Z M29.1933344,339.18 C29.1933344,339.473335 29.2733336,339.703332 29.4333344,339.87 C29.5933352,340.036668 29.8066664,340.12 30.0733344,340.12 C30.3400024,340.12 30.5533336,340.036668 30.7133344,339.87 C30.8733352,339.703332 30.9533344,339.473335 30.9533344,339.18 L30.9533344,338.66 L30.9933344,338.66 C31.5000036,339.633338 32.4466608,340.12 33.8333344,340.12 C34.553338,340.12 35.1933316,339.970001 35.7533344,339.67 C36.3133372,339.369999 36.7899991,338.966669 37.1833344,338.46 C37.5766697,337.953331 37.8733334,337.373337 38.0733344,336.72 C38.2733354,336.066663 38.3733344,335.38667 38.3733344,334.68 C38.3733344,333.97333 38.2733354,333.293337 38.0733344,332.64 C37.8733334,331.986663 37.5766697,331.406669 37.1833344,330.9 C36.7899991,330.393331 36.3133372,329.990002 35.7533344,329.69 C35.1933316,329.389999 34.553338,329.24 33.8333344,329.24 C33.486666,329.24 33.1633359,329.283333 32.8633344,329.37 C32.5633329,329.456667 32.2933356,329.569999 32.0533344,329.71 C31.8133332,329.850001 31.6066686,330.006666 31.4333344,330.18 C31.2600002,330.353334 31.113335,330.519999 30.9933344,330.68 L30.9533344,330.68 L30.9533344,325.5 C30.9533344,325.206665 30.8733352,324.976668 30.7133344,324.81 C30.5533336,324.643332 30.3400024,324.56 30.0733344,324.56 C29.8066664,324.56 29.5933352,324.643332 29.4333344,324.81 C29.2733336,324.976668 29.1933344,325.206665 29.1933344,325.5 L29.1933344,339.18 Z M18.3,384.68 C18.3,385.133336 18.2500005,385.589998 18.15,386.05 C18.0499995,386.510002 17.8833345,386.929998 17.65,387.31 C17.4166655,387.690002 17.1166685,387.999999 16.75,388.24 C16.3833315,388.480001 15.9266694,388.6 15.38,388.6 C14.846664,388.6 14.3933352,388.480001 14.02,388.24 C13.6466648,387.999999 13.3433345,387.690002 13.11,387.31 C12.8766655,386.929998 12.7100005,386.510002 12.61,386.05 C12.5099995,385.589998 12.46,385.133336 12.46,384.68 C12.46,384.226664 12.5099995,383.770002 12.61,383.31 C12.7100005,382.849998 12.8766655,382.430002 13.11,382.05 C13.3433345,381.669998 13.6466648,381.360001 14.02,381.12 C14.3933352,380.879999 14.846664,380.76 15.38,380.76 C15.9266694,380.76 16.3833315,380.879999 16.75,381.12 C17.1166685,381.360001 17.4166655,381.669998 17.65,382.05 C17.8833345,382.430002 18.0499995,382.849998 18.15,383.31 C18.2500005,383.770002 18.3,384.226664 18.3,384.68 L18.3,384.68 Z M18.12,389.18 C18.12,389.473335 18.1999992,389.703332 18.36,389.87 C18.5200008,390.036668 18.733332,390.12 19,390.12 C19.266668,390.12 19.4799992,390.036668 19.64,389.87 C19.8000008,389.703332 19.88,389.473335 19.88,389.18 L19.88,375.5 C19.88,375.206665 19.8000008,374.976668 19.64,374.81 C19.4799992,374.643332 19.266668,374.56 19,374.56 C18.733332,374.56 18.5200008,374.643332 18.36,374.81 C18.1999992,374.976668 18.12,375.206665 18.12,375.5 L18.12,380.68 L18.08,380.68 C17.9599994,380.519999 17.8133342,380.353334 17.64,380.18 C17.4666658,380.006666 17.2600012,379.850001 17.02,379.71 C16.7799988,379.569999 16.5100015,379.456667 16.21,379.37 C15.9099985,379.283333 15.5866684,379.24 15.24,379.24 C14.5199964,379.24 13.8800028,379.389998 13.32,379.69 C12.7599972,379.990002 12.2833353,380.393331 11.89,380.9 C11.4966647,381.406669 11.200001,381.986663 11,382.64 C10.799999,383.293337 10.7,383.97333 10.7,384.68 C10.7,385.38667 10.799999,386.066663 11,386.72 C11.200001,387.373337 11.4966647,387.953331 11.89,388.46 C12.2833353,388.966669 12.7599972,389.369999 13.32,389.67 C13.8800028,389.970001 14.5199964,390.12 15.24,390.12 C16.6266736,390.12 17.5733308,389.633338 18.08,388.66 L18.12,388.66 L18.12,389.18 Z M30.82,385.36 C31.2066686,385.36 31.466666,385.280001 31.6,385.12 C31.733334,384.959999 31.8,384.726668 31.8,384.42 C31.8,383.779997 31.6966677,383.150003 31.49,382.53 C31.2833323,381.909997 30.9866686,381.356669 30.6,380.87 C30.2133314,380.383331 29.7333362,379.990002 29.16,379.69 C28.5866638,379.389998 27.9400036,379.24 27.22,379.24 C26.4733296,379.24 25.8033363,379.386665 25.21,379.68 C24.6166637,379.973335 24.1166687,380.369998 23.71,380.87 C23.3033313,381.370002 22.9900011,381.949997 22.77,382.61 C22.5499989,383.270003 22.44,383.959996 22.44,384.68 C22.44,385.38667 22.5333324,386.066663 22.72,386.72 C22.9066676,387.373337 23.199998,387.953331 23.6,388.46 C24.000002,388.966669 24.5066636,389.369999 25.12,389.67 C25.7333364,389.970001 26.4666624,390.12 27.32,390.12 C27.8400026,390.12 28.3533308,390.046667 28.86,389.9 C29.3666692,389.753333 29.8233313,389.570001 30.23,389.35 C30.6366687,389.129999 30.9633321,388.893335 31.21,388.64 C31.4566679,388.386665 31.58,388.153334 31.58,387.94 C31.58,387.686665 31.513334,387.493334 31.38,387.36 C31.246666,387.226666 31.1000008,387.16 30.94,387.16 C30.7799992,387.16 30.6100009,387.233333 30.43,387.38 C30.2499991,387.526667 30.0300013,387.689999 29.77,387.87 C29.5099987,388.050001 29.1866686,388.216666 28.8,388.37 C28.4133314,388.523334 27.9266696,388.6 27.34,388.6 C26.8466642,388.6 26.4066686,388.516667 26.02,388.35 C25.6333314,388.183333 25.3033347,387.953335 25.03,387.66 C24.7566653,387.366665 24.5500007,387.023335 24.41,386.63 C24.2699993,386.236665 24.2,385.813336 24.2,385.36 L30.82,385.36 Z M24.2,384.04 C24.2133334,383.639998 24.2766661,383.240002 24.39,382.84 C24.5033339,382.439998 24.6799988,382.083335 24.92,381.77 C25.1600012,381.456665 25.4666648,381.203334 25.84,381.01 C26.2133352,380.816666 26.6733306,380.733333 27.22,380.76 C27.7000024,380.76 28.1199982,380.859999 28.48,381.06 C28.8400018,381.260001 29.1333322,381.516665 29.36,381.83 C29.5866678,382.143335 29.7566661,382.493331 29.87,382.88 C29.9833339,383.266669 30.04,383.653331 30.04,384.04 L24.2,384.04 Z M36.04,375.5 C36.04,375.206665 35.9600008,374.976668 35.8,374.81 C35.6399992,374.643332 35.426668,374.56 35.16,374.56 C34.893332,374.56 34.6800008,374.643332 34.52,374.81 C34.3599992,374.976668 34.28,375.206665 34.28,375.5 L34.28,389.18 C34.28,389.473335 34.3599992,389.703332 34.52,389.87 C34.6800008,390.036668 34.893332,390.12 35.16,390.12 C35.426668,390.12 35.6399992,390.036668 35.8,389.87 C35.9600008,389.703332 36.04,389.473335 36.04,389.18 L36.04,375.5 Z M46.9,385.36 C47.2866686,385.36 47.546666,385.280001 47.68,385.12 C47.813334,384.959999 47.88,384.726668 47.88,384.42 C47.88,383.779997 47.7766677,383.150003 47.57,382.53 C47.3633323,381.909997 47.0666686,381.356669 46.68,380.87 C46.2933314,380.383331 45.8133362,379.990002 45.24,379.69 C44.6666638,379.389998 44.0200036,379.24 43.3,379.24 C42.5533296,379.24 41.8833363,379.386665 41.29,379.68 C40.6966637,379.973335 40.1966687,380.369998 39.79,380.87 C39.3833313,381.370002 39.0700011,381.949997 38.85,382.61 C38.6299989,383.270003 38.52,383.959996 38.52,384.68 C38.52,385.38667 38.6133324,386.066663 38.8,386.72 C38.9866676,387.373337 39.279998,387.953331 39.68,388.46 C40.080002,388.966669 40.5866636,389.369999 41.2,389.67 C41.8133364,389.970001 42.5466624,390.12 43.4,390.12 C43.9200026,390.12 44.4333308,390.046667 44.94,389.9 C45.4466692,389.753333 45.9033313,389.570001 46.31,389.35 C46.7166687,389.129999 47.0433321,388.893335 47.29,388.64 C47.5366679,388.386665 47.66,388.153334 47.66,387.94 C47.66,387.686665 47.593334,387.493334 47.46,387.36 C47.326666,387.226666 47.1800008,387.16 47.02,387.16 C46.8599992,387.16 46.6900009,387.233333 46.51,387.38 C46.3299991,387.526667 46.1100013,387.689999 45.85,387.87 C45.5899987,388.050001 45.2666686,388.216666 44.88,388.37 C44.4933314,388.523334 44.0066696,388.6 43.42,388.6 C42.9266642,388.6 42.4866686,388.516667 42.1,388.35 C41.7133314,388.183333 41.3833347,387.953335 41.11,387.66 C40.8366653,387.366665 40.6300007,387.023335 40.49,386.63 C40.3499993,386.236665 40.28,385.813336 40.28,385.36 L46.9,385.36 Z M40.28,384.04 C40.2933334,383.639998 40.3566661,383.240002 40.47,382.84 C40.5833339,382.439998 40.7599988,382.083335 41,381.77 C41.2400012,381.456665 41.5466648,381.203334 41.92,381.01 C42.2933352,380.816666 42.7533306,380.733333 43.3,380.76 C43.7800024,380.76 44.1999982,380.859999 44.56,381.06 C44.9200018,381.260001 45.2133322,381.516665 45.44,381.83 C45.6666678,382.143335 45.8366661,382.493331 45.95,382.88 C46.0633339,383.266669 46.12,383.653331 46.12,384.04 L40.28,384.04 Z M50.92,379.36 L50.2,379.36 C49.6133304,379.36 49.32,379.613331 49.32,380.12 C49.32,380.626669 49.6133304,380.88 50.2,380.88 L50.92,380.88 L50.92,389.18 C50.92,389.473335 50.9999992,389.703332 51.16,389.87 C51.3200008,390.036668 51.533332,390.12 51.8,390.12 C52.066668,390.12 52.2799992,390.036668 52.44,389.87 C52.6000008,389.703332 52.68,389.473335 52.68,389.18 L52.68,380.88 L53.4,380.88 C53.9866696,380.88 54.28,380.626669 54.28,380.12 C54.28,379.613331 53.9866696,379.36 53.4,379.36 L52.68,379.36 L52.68,377.06 C52.68,376.766665 52.6000008,376.536668 52.44,376.37 C52.2799992,376.203332 52.066668,376.12 51.8,376.12 C51.533332,376.12 51.3200008,376.203332 51.16,376.37 C50.9999992,376.536668 50.92,376.766665 50.92,377.06 L50.92,379.36 Z M64.1,385.36 C64.4866686,385.36 64.746666,385.280001 64.88,385.12 C65.013334,384.959999 65.08,384.726668 65.08,384.42 C65.08,383.779997 64.9766677,383.150003 64.77,382.53 C64.5633323,381.909997 64.2666686,381.356669 63.88,380.87 C63.4933314,380.383331 63.0133362,379.990002 62.44,379.69 C61.8666638,379.389998 61.2200036,379.24 60.5,379.24 C59.7533296,379.24 59.0833363,379.386665 58.49,379.68 C57.8966637,379.973335 57.3966687,380.369998 56.99,380.87 C56.5833313,381.370002 56.2700011,381.949997 56.05,382.61 C55.8299989,383.270003 55.72,383.959996 55.72,384.68 C55.72,385.38667 55.8133324,386.066663 56,386.72 C56.1866676,387.373337 56.479998,387.953331 56.88,388.46 C57.280002,388.966669 57.7866636,389.369999 58.4,389.67 C59.0133364,389.970001 59.7466624,390.12 60.6,390.12 C61.1200026,390.12 61.6333308,390.046667 62.14,389.9 C62.6466692,389.753333 63.1033313,389.570001 63.51,389.35 C63.9166687,389.129999 64.2433321,388.893335 64.49,388.64 C64.7366679,388.386665 64.86,388.153334 64.86,387.94 C64.86,387.686665 64.793334,387.493334 64.66,387.36 C64.526666,387.226666 64.3800008,387.16 64.22,387.16 C64.0599992,387.16 63.8900009,387.233333 63.71,387.38 C63.5299991,387.526667 63.3100013,387.689999 63.05,387.87 C62.7899987,388.050001 62.4666686,388.216666 62.08,388.37 C61.6933314,388.523334 61.2066696,388.6 60.62,388.6 C60.1266642,388.6 59.6866686,388.516667 59.3,388.35 C58.9133314,388.183333 58.5833347,387.953335 58.31,387.66 C58.0366653,387.366665 57.8300007,387.023335 57.69,386.63 C57.5499993,386.236665 57.48,385.813336 57.48,385.36 L64.1,385.36 Z M57.48,384.04 C57.4933334,383.639998 57.5566661,383.240002 57.67,382.84 C57.7833339,382.439998 57.9599988,382.083335 58.2,381.77 C58.4400012,381.456665 58.7466648,381.203334 59.12,381.01 C59.4933352,380.816666 59.9533306,380.733333 60.5,380.76 C60.9800024,380.76 61.3999982,380.859999 61.76,381.06 C62.1200018,381.260001 62.4133322,381.516665 62.64,381.83 C62.8666678,382.143335 63.0366661,382.493331 63.15,382.88 C63.2633339,383.266669 63.32,383.653331 63.32,384.04 L57.48,384.04 Z M11.16,439.18 C11.16,439.473335 11.2399992,439.703332 11.4,439.87 C11.5600008,440.036668 11.773332,440.12 12.04,440.12 C12.306668,440.12 12.5199992,440.036668 12.68,439.87 C12.8400008,439.703332 12.92,439.473335 12.92,439.18 L12.92,434.12 C12.92,433.599997 12.9933326,433.160002 13.14,432.8 C13.2866674,432.439998 13.4699989,432.140001 13.69,431.9 C13.9100011,431.659999 14.1599986,431.476667 14.44,431.35 C14.7200014,431.223333 14.9866654,431.14 15.24,431.1 C15.973337,430.966666 16.34,430.646669 16.34,430.14 C16.34,429.886665 16.2533342,429.673334 16.08,429.5 C15.9066658,429.326666 15.6666682,429.24 15.36,429.24 C15.1066654,429.24 14.8566679,429.296666 14.61,429.41 C14.3633321,429.523334 14.1366677,429.669999 13.93,429.85 C13.7233323,430.030001 13.5366675,430.229999 13.37,430.45 C13.2033325,430.670001 13.0666672,430.879999 12.96,431.08 L12.92,431.08 L12.92,430.18 C12.92,429.886665 12.8400008,429.656668 12.68,429.49 C12.5199992,429.323332 12.306668,429.24 12.04,429.24 C11.773332,429.24 11.5600008,429.323332 11.4,429.49 C11.2399992,429.656668 11.16,429.886665 11.16,430.18 L11.16,439.18 Z M26,435.36 C26.3866686,435.36 26.646666,435.280001 26.78,435.12 C26.913334,434.959999 26.98,434.726668 26.98,434.42 C26.98,433.779997 26.8766677,433.150003 26.67,432.53 C26.4633323,431.909997 26.1666686,431.356669 25.78,430.87 C25.3933314,430.383331 24.9133362,429.990002 24.34,429.69 C23.7666638,429.389998 23.1200036,429.24 22.4,429.24 C21.6533296,429.24 20.9833363,429.386665 20.39,429.68 C19.7966637,429.973335 19.2966687,430.369998 18.89,430.87 C18.4833313,431.370002 18.1700011,431.949997 17.95,432.61 C17.7299989,433.270003 17.62,433.959996 17.62,434.68 C17.62,435.38667 17.7133324,436.066663 17.9,436.72 C18.0866676,437.373337 18.379998,437.953331 18.78,438.46 C19.180002,438.966669 19.6866636,439.369999 20.3,439.67 C20.9133364,439.970002 21.6466624,440.12 22.5,440.12 C23.0200026,440.12 23.5333308,440.046667 24.04,439.9 C24.5466692,439.753333 25.0033313,439.570001 25.41,439.35 C25.8166687,439.129999 26.1433321,438.893335 26.39,438.64 C26.6366679,438.386665 26.76,438.153334 26.76,437.94 C26.76,437.686665 26.693334,437.493334 26.56,437.36 C26.426666,437.226666 26.2800008,437.16 26.12,437.16 C25.9599992,437.16 25.7900009,437.233333 25.61,437.38 C25.4299991,437.526667 25.2100013,437.689999 24.95,437.87 C24.6899987,438.050001 24.3666686,438.216666 23.98,438.37 C23.5933314,438.523334 23.1066696,438.6 22.52,438.6 C22.0266642,438.6 21.5866686,438.516667 21.2,438.35 C20.8133314,438.183333 20.4833347,437.953335 20.21,437.66 C19.9366653,437.366665 19.7300007,437.023335 19.59,436.63 C19.4499993,436.236665 19.38,435.813336 19.38,435.36 L26,435.36 Z M19.38,434.04 C19.3933334,433.639998 19.4566661,433.240002 19.57,432.84 C19.6833339,432.439998 19.8599988,432.083335 20.1,431.77 C20.3400012,431.456665 20.6466648,431.203334 21.02,431.01 C21.3933352,430.816666 21.8533306,430.733333 22.4,430.76 C22.8800024,430.76 23.2999982,430.859999 23.66,431.06 C24.0200018,431.260001 24.3133322,431.516665 24.54,431.83 C24.7666678,432.143335 24.9366661,432.493331 25.05,432.88 C25.1633339,433.266669 25.22,433.653331 25.22,434.04 L19.38,434.04 Z M30.02,429.36 L29.3,429.36 C28.7133304,429.36 28.42,429.613331 28.42,430.12 C28.42,430.626669 28.7133304,430.88 29.3,430.88 L30.02,430.88 L30.02,439.18 C30.02,439.473335 30.0999992,439.703332 30.26,439.87 C30.4200008,440.036668 30.633332,440.12 30.9,440.12 C31.166668,440.12 31.3799992,440.036668 31.54,439.87 C31.7000008,439.703332 31.78,439.473335 31.78,439.18 L31.78,430.88 L32.5,430.88 C33.0866696,430.88 33.38,430.626669 33.38,430.12 C33.38,429.613331 33.0866696,429.36 32.5,429.36 L31.78,429.36 L31.78,427.06 C31.78,426.766665 31.7000008,426.536668 31.54,426.37 C31.3799992,426.203332 31.166668,426.12 30.9,426.12 C30.633332,426.12 30.4200008,426.203332 30.26,426.37 C30.0999992,426.536668 30.02,426.766665 30.02,427.06 L30.02,429.36 Z M35.46,435.88 C35.46,436.653337 35.5799988,437.309997 35.82,437.85 C36.0600012,438.390003 36.3766647,438.829998 36.77,439.17 C37.1633353,439.510002 37.6133308,439.753333 38.12,439.9 C38.6266692,440.046667 39.146664,440.12 39.68,440.12 C40.213336,440.12 40.7333308,440.046667 41.24,439.9 C41.7466692,439.753333 42.1966647,439.510002 42.59,439.17 C42.9833353,438.829998 43.2999988,438.390003 43.54,437.85 C43.7800012,437.309997 43.9,436.653337 43.9,435.88 L43.9,430.18 C43.9,429.886665 43.8200008,429.656668 43.66,429.49 C43.4999992,429.323332 43.286668,429.24 43.02,429.24 C42.753332,429.24 42.5400008,429.323332 42.38,429.49 C42.2199992,429.656668 42.14,429.886665 42.14,430.18 L42.14,435.82 C42.14,437.673343 41.3200082,438.6 39.68,438.6 C38.0399918,438.6 37.22,437.673343 37.22,435.82 L37.22,430.18 C37.22,429.886665 37.1400008,429.656668 36.98,429.49 C36.8199992,429.323332 36.606668,429.24 36.34,429.24 C36.073332,429.24 35.8600008,429.323332 35.7,429.49 C35.5399992,429.656668 35.46,429.886665 35.46,430.18 L35.46,435.88 Z M47.02,439.18 C47.02,439.473335 47.0999992,439.703332 47.26,439.87 C47.4200008,440.036668 47.633332,440.12 47.9,440.12 C48.166668,440.12 48.3799992,440.036668 48.54,439.87 C48.7000008,439.703332 48.78,439.473335 48.78,439.18 L48.78,434.12 C48.78,433.599997 48.8533326,433.160002 49,432.8 C49.1466674,432.439998 49.3299989,432.140001 49.55,431.9 C49.7700011,431.659999 50.0199986,431.476667 50.3,431.35 C50.5800014,431.223333 50.8466654,431.14 51.1,431.1 C51.833337,430.966666 52.2,430.646669 52.2,430.14 C52.2,429.886665 52.1133342,429.673334 51.94,429.5 C51.7666658,429.326666 51.5266682,429.24 51.22,429.24 C50.9666654,429.24 50.7166679,429.296666 50.47,429.41 C50.2233321,429.523334 49.9966677,429.669999 49.79,429.85 C49.5833323,430.030001 49.3966675,430.229999 49.23,430.45 C49.0633325,430.670001 48.9266672,430.879999 48.82,431.08 L48.78,431.08 L48.78,430.18 C48.78,429.886665 48.7000008,429.656668 48.54,429.49 C48.3799992,429.323332 48.166668,429.24 47.9,429.24 C47.633332,429.24 47.4200008,429.323332 47.26,429.49 C47.0999992,429.656668 47.02,429.886665 47.02,430.18 L47.02,439.18 Z M54.12,439.18 C54.12,439.473335 54.1999992,439.703332 54.36,439.87 C54.5200008,440.036668 54.733332,440.12 55,440.12 C55.266668,440.12 55.4799992,440.036668 55.64,439.87 C55.8000008,439.703332 55.88,439.473335 55.88,439.18 L55.88,433.38 C55.88,432.913331 55.9533326,432.513335 56.1,432.18 C56.2466674,431.846665 56.4366655,431.576668 56.67,431.37 C56.9033345,431.163332 57.1666652,431.01 57.46,430.91 C57.7533348,430.81 58.0466652,430.76 58.34,430.76 C58.6333348,430.76 58.9266652,430.81 59.22,430.91 C59.5133348,431.01 59.7766655,431.163332 60.01,431.37 C60.2433345,431.576668 60.4333326,431.846665 60.58,432.18 C60.7266674,432.513335 60.8,432.913331 60.8,433.38 L60.8,439.18 C60.8,439.473335 60.8799992,439.703332 61.04,439.87 C61.2000008,440.036668 61.413332,440.12 61.68,440.12 C61.946668,440.12 62.1599992,440.036668 62.32,439.87 C62.4800008,439.703332 62.56,439.473335 62.56,439.18 L62.56,433.28 C62.56,432.53333 62.4433345,431.903336 62.21,431.39 C61.9766655,430.876664 61.6800018,430.460002 61.32,430.14 C60.9599982,429.819998 60.5633355,429.590001 60.13,429.45 C59.6966645,429.309999 59.2733354,429.24 58.86,429.24 C58.326664,429.24 57.8000026,429.346666 57.28,429.56 C56.7599974,429.773334 56.3066686,430.133331 55.92,430.64 L55.88,430.6 L55.88,430.18 C55.88,429.886665 55.8000008,429.656668 55.64,429.49 C55.4799992,429.323332 55.266668,429.24 55,429.24 C54.733332,429.24 54.5200008,429.323332 54.36,429.49 C54.1999992,429.656668 54.12,429.886665 54.12,430.18 L54.12,439.18 Z M12.92,483.7 L16.62,483.7 C16.8733346,483.7 17.0799992,483.633334 17.24,483.5 C17.4000008,483.366666 17.48,483.160001 17.48,482.88 C17.48,482.599999 17.4000008,482.393334 17.24,482.26 C17.0799992,482.126666 16.8733346,482.06 16.62,482.06 L12.92,482.06 L12.92,477.4 L17.1,477.4 C17.3533346,477.4 17.5599992,477.333334 17.72,477.2 C17.8800008,477.066666 17.96,476.860001 17.96,476.58 C17.96,476.299999 17.8800008,476.093334 17.72,475.96 C17.5599992,475.826666 17.3533346,475.76 17.1,475.76 L12.1,475.76 C11.766665,475.76 11.5266674,475.853332 11.38,476.04 C11.2333326,476.226668 11.16,476.453332 11.16,476.72 L11.16,489.18 C11.16,489.473335 11.2399992,489.703332 11.4,489.87 C11.5600008,490.036668 11.773332,490.12 12.04,490.12 C12.306668,490.12 12.5199992,490.036668 12.68,489.87 C12.8400008,489.703332 12.92,489.473335 12.92,489.18 L12.92,483.7 Z M23.78,488.48 L28.56,482.12 C28.7866678,481.813332 28.966666,481.526668 29.1,481.26 C29.233334,480.993332 29.333333,480.740001 29.4,480.5 C29.466667,480.259999 29.5066666,480.030001 29.52,479.81 C29.5333334,479.589999 29.54,479.380001 29.54,479.18 C29.54,478.713331 29.4500009,478.270002 29.27,477.85 C29.0899991,477.429998 28.833335,477.053335 28.5,476.72 C28.166665,476.386665 27.7633357,476.123334 27.29,475.93 C26.8166643,475.736666 26.2866696,475.64 25.7,475.64 C24.966663,475.64 24.3166695,475.759999 23.75,476 C23.1833305,476.240001 22.7100019,476.566665 22.33,476.98 C21.9499981,477.393335 21.660001,477.869997 21.46,478.41 C21.259999,478.950003 21.16,479.51333 21.16,480.1 C21.16,480.820004 21.4466638,481.18 22.02,481.18 C22.2066676,481.18 22.3833325,481.123334 22.55,481.01 C22.7166675,480.896666 22.8,480.686668 22.8,480.38 C22.8,479.939998 22.8566661,479.523335 22.97,479.13 C23.0833339,478.736665 23.2499989,478.393335 23.47,478.1 C23.6900011,477.806665 23.9599984,477.576667 24.28,477.41 C24.6000016,477.243333 24.9733312,477.16 25.4,477.16 C26.0400032,477.16 26.5766645,477.366665 27.01,477.78 C27.4433355,478.193335 27.66,478.726663 27.66,479.38 C27.66,479.806669 27.5633343,480.236664 27.37,480.67 C27.1766657,481.103336 26.9266682,481.513331 26.62,481.9 L21.7,488.48 C21.5533326,488.693334 21.4533336,488.853333 21.4,488.96 C21.3466664,489.066667 21.32,489.173333 21.32,489.28 C21.32,489.426667 21.386666,489.583332 21.52,489.75 C21.653334,489.916668 21.9066648,490 22.28,490 L29.18,490 C29.3933344,490 29.5733326,489.926667 29.72,489.78 C29.8666674,489.633333 29.94,489.453334 29.94,489.24 C29.94,489.026666 29.8666674,488.846667 29.72,488.7 C29.5733326,488.553333 29.3933344,488.48 29.18,488.48 L23.78,488.48 Z" id="func" fill="#FFFFFF" sketch:type="MSShapeGroup"></path>
            <path d="M10.92,31.24 C10.92,31.7333358 11.0599986,32.1499983 11.34,32.49 C11.6200014,32.8300017 11.9699979,33.1233321 12.39,33.37 C12.8100021,33.6166679 13.2666642,33.8366657 13.76,34.03 C14.2533358,34.2233343 14.7099979,34.419999 15.13,34.62 C15.5500021,34.820001 15.8999986,35.0399988 16.18,35.28 C16.4600014,35.5200012 16.6,35.8133316 16.6,36.16 C16.6,36.5200018 16.4166685,36.8499985 16.05,37.15 C15.6833315,37.4500015 15.1800032,37.6 14.54,37.6 C14.0599976,37.6 13.653335,37.533334 13.32,37.4 C12.986665,37.266666 12.6933346,37.1166675 12.44,36.95 C12.1866654,36.7833325 11.9666676,36.633334 11.78,36.5 C11.5933324,36.366666 11.400001,36.3 11.2,36.3 C11.0133324,36.3 10.8466674,36.3733326 10.7,36.52 C10.5533326,36.6666674 10.48,36.8599988 10.48,37.1 C10.48,37.3266678 10.5833323,37.5599988 10.79,37.8 C10.9966677,38.0400012 11.2799982,38.2566657 11.64,38.45 C12.0000018,38.6433343 12.4233309,38.8033327 12.91,38.93 C13.3966691,39.0566673 13.9199972,39.12 14.48,39.12 C14.9733358,39.12 15.453331,39.053334 15.92,38.92 C16.386669,38.786666 16.7999982,38.5833347 17.16,38.31 C17.5200018,38.0366653 17.8099989,37.6966687 18.03,37.29 C18.2500011,36.8833313 18.36,36.4000028 18.36,35.84 C18.36,35.3199974 18.2200014,34.8866684 17.94,34.54 C17.6599986,34.1933316 17.3100021,33.8966679 16.89,33.65 C16.4699979,33.4033321 16.0133358,33.1900009 15.52,33.01 C15.0266642,32.8299991 14.5700021,32.6500009 14.15,32.47 C13.7299979,32.2899991 13.3800014,32.0933344 13.1,31.88 C12.8199986,31.6666656 12.68,31.4066682 12.68,31.1 C12.68,30.6466644 12.8633315,30.3100011 13.23,30.09 C13.5966685,29.8699989 14.0333308,29.76 14.54,29.76 C14.9666688,29.76 15.313332,29.8166661 15.58,29.93 C15.846668,30.0433339 16.0733324,30.166666 16.26,30.3 C16.4466676,30.433334 16.6166659,30.5566661 16.77,30.67 C16.9233341,30.7833339 17.0933324,30.84 17.28,30.84 C17.546668,30.84 17.746666,30.7666674 17.88,30.62 C18.013334,30.4733326 18.08,30.3066676 18.08,30.12 C18.08,29.8399986 17.9633345,29.5866678 17.73,29.36 C17.4966655,29.1333322 17.2066684,28.9366675 16.86,28.77 C16.5133316,28.6033325 16.1300021,28.4733338 15.71,28.38 C15.2899979,28.2866662 14.9000018,28.24 14.54,28.24 C14.0999978,28.24 13.6633355,28.3033327 13.23,28.43 C12.7966645,28.5566673 12.4100017,28.7466654 12.07,29 C11.7299983,29.2533346 11.4533344,29.5666648 11.24,29.94 C11.0266656,30.3133352 10.92,30.7466642 10.92,31.24 L10.92,31.24 Z M27.5366672,38.18 C27.5366672,38.4733348 27.6166664,38.7033325 27.7766672,38.87 C27.936668,39.0366675 28.1499992,39.12 28.4166672,39.12 C28.6833352,39.12 28.8966664,39.0366675 29.0566672,38.87 C29.216668,38.7033325 29.2966672,38.4733348 29.2966672,38.18 L29.2966672,32.28 C29.2966672,31.5333296 29.1800017,30.9033359 28.9466672,30.39 C28.7133327,29.8766641 28.416669,29.4600016 28.0566672,29.14 C27.6966654,28.8199984 27.3000027,28.5900007 26.8666672,28.45 C26.4333317,28.3099993 26.0100026,28.24 25.5966672,28.24 C25.0633312,28.24 24.5366698,28.3466656 24.0166672,28.56 C23.4966646,28.7733344 23.0433358,29.1333308 22.6566672,29.64 L22.6166672,29.6 L22.6166672,24.5 C22.6166672,24.2066652 22.536668,23.9766675 22.3766672,23.81 C22.2166664,23.6433325 22.0033352,23.56 21.7366672,23.56 C21.4699992,23.56 21.256668,23.6433325 21.0966672,23.81 C20.9366664,23.9766675 20.8566672,24.2066652 20.8566672,24.5 L20.8566672,38.18 C20.8566672,38.4733348 20.9366664,38.7033325 21.0966672,38.87 C21.256668,39.0366675 21.4699992,39.12 21.7366672,39.12 C22.0033352,39.12 22.2166664,39.0366675 22.3766672,38.87 C22.536668,38.7033325 22.6166672,38.4733348 22.6166672,38.18 L22.6166672,32.38 C22.6166672,31.913331 22.6899998,31.513335 22.8366672,31.18 C22.9833346,30.846665 23.1733327,30.5766677 23.4066672,30.37 C23.6400017,30.1633323 23.9033324,30.0100005 24.1966672,29.91 C24.490002,29.8099995 24.7833324,29.76 25.0766672,29.76 C25.370002,29.76 25.6633324,29.8099995 25.9566672,29.91 C26.250002,30.0100005 26.5133327,30.1633323 26.7466672,30.37 C26.9800017,30.5766677 27.1699998,30.846665 27.3166672,31.18 C27.4633346,31.513335 27.5366672,31.913331 27.5366672,32.38 L27.5366672,38.18 Z M34.1933344,29.18 C34.1933344,28.8866652 34.1133352,28.6566675 33.9533344,28.49 C33.7933336,28.3233325 33.5800024,28.24 33.3133344,28.24 C33.0466664,28.24 32.8333352,28.3233325 32.6733344,28.49 C32.5133336,28.6566675 32.4333344,28.8866652 32.4333344,29.18 L32.4333344,38.18 C32.4333344,38.4733348 32.5133336,38.7033325 32.6733344,38.87 C32.8333352,39.0366675 33.0466664,39.12 33.3133344,39.12 C33.5800024,39.12 33.7933336,39.0366675 33.9533344,38.87 C34.1133352,38.7033325 34.1933344,38.4733348 34.1933344,38.18 L34.1933344,29.18 Z M32.2333344,25.72 C32.2333344,26.0266682 32.3366667,26.2833323 32.5433344,26.49 C32.7500021,26.6966677 33.0066662,26.8 33.3133344,26.8 C33.6200026,26.8 33.8766667,26.6966677 34.0833344,26.49 C34.2900021,26.2833323 34.3933344,26.0266682 34.3933344,25.72 C34.3933344,25.4133318 34.2900021,25.1566677 34.0833344,24.95 C33.8766667,24.7433323 33.6200026,24.64 33.3133344,24.64 C33.0066662,24.64 32.7500021,24.7433323 32.5433344,24.95 C32.3366667,25.1566677 32.2333344,25.4133318 32.2333344,25.72 L32.2333344,25.72 Z M39.6500016,29.88 L40.7500016,29.88 C41.3366712,29.88 41.6300016,29.6266692 41.6300016,29.12 C41.6300016,28.6133308 41.3366712,28.36 40.7500016,28.36 L39.6500016,28.36 L39.6500016,25.78 C39.6500016,25.5533322 39.7033344,25.3800006 39.8100016,25.26 C39.9166688,25.1399994 40.1033336,25.08 40.3700016,25.08 L40.8100016,25.08 C41.4500048,25.08 41.7700016,24.8266692 41.7700016,24.32 C41.7700016,24.0799988 41.6600027,23.893334 41.4400016,23.76 C41.2200005,23.626666 40.9966694,23.56 40.7700016,23.56 L40.2300016,23.56 C39.5899984,23.56 39.0400039,23.7499981 38.5800016,24.13 C38.1199993,24.5100019 37.8900016,25.0866628 37.8900016,25.86 L37.8900016,28.36 L37.1700016,28.36 C36.583332,28.36 36.2900016,28.6133308 36.2900016,29.12 C36.2900016,29.6266692 36.583332,29.88 37.1700016,29.88 L37.8900016,29.88 L37.8900016,38.18 C37.8900016,38.4733348 37.9700008,38.7033325 38.1300016,38.87 C38.2900024,39.0366675 38.5033336,39.12 38.7700016,39.12 C39.0366696,39.12 39.2500008,39.0366675 39.4100016,38.87 C39.5700024,38.7033325 39.6500016,38.4733348 39.6500016,38.18 L39.6500016,29.88 Z M43.8866688,28.36 L43.1666688,28.36 C42.5799992,28.36 42.2866688,28.6133308 42.2866688,29.12 C42.2866688,29.6266692 42.5799992,29.88 43.1666688,29.88 L43.8866688,29.88 L43.8866688,38.18 C43.8866688,38.4733348 43.966668,38.7033325 44.1266688,38.87 C44.2866696,39.0366675 44.5000008,39.12 44.7666688,39.12 C45.0333368,39.12 45.246668,39.0366675 45.4066688,38.87 C45.5666696,38.7033325 45.6466688,38.4733348 45.6466688,38.18 L45.6466688,29.88 L46.3666688,29.88 C46.9533384,29.88 47.2466688,29.6266692 47.2466688,29.12 C47.2466688,28.6133308 46.9533384,28.36 46.3666688,28.36 L45.6466688,28.36 L45.6466688,26.06 C45.6466688,25.7666652 45.5666696,25.5366675 45.4066688,25.37 C45.246668,25.2033325 45.0333368,25.12 44.7666688,25.12 C44.5000008,25.12 44.2866696,25.2033325 44.1266688,25.37 C43.966668,25.5366675 43.8866688,25.7666652 43.8866688,26.06 L43.8866688,28.36 Z M10.7,83.68 C10.7,84.3866702 10.7966657,85.0666634 10.99,85.72 C11.1833343,86.3733366 11.479998,86.9533308 11.88,87.46 C12.280002,87.9666692 12.779997,88.3699985 13.38,88.67 C13.980003,88.9700015 14.6866626,89.12 15.5,89.12 C16.4200046,89.12 17.1166643,88.9733348 17.59,88.68 C18.0633357,88.3866652 18.3,88.073335 18.3,87.74 C18.3,87.4999988 18.2366673,87.3166673 18.11,87.19 C17.9833327,87.0633327 17.820001,87 17.62,87 C17.486666,87 17.3566673,87.0299997 17.23,87.09 C17.1033327,87.1500003 16.9633341,87.2199996 16.81,87.3 C16.6566659,87.3800004 16.4766677,87.4499997 16.27,87.51 C16.0633323,87.5700003 15.8066682,87.6 15.5,87.6 C14.9533306,87.6 14.4866686,87.4800012 14.1,87.24 C13.7133314,86.9999988 13.4000012,86.6900019 13.16,86.31 C12.9199988,85.9299981 12.7433339,85.5100023 12.63,85.05 C12.5166661,84.5899977 12.46,84.1333356 12.46,83.68 C12.46,83.2266644 12.5166661,82.7700023 12.63,82.31 C12.7433339,81.8499977 12.9199988,81.4300019 13.16,81.05 C13.4000012,80.6699981 13.7133314,80.3600012 14.1,80.12 C14.4866686,79.8799988 14.9533306,79.76 15.5,79.76 C15.8066682,79.76 16.0566657,79.7899997 16.25,79.85 C16.4433343,79.9100003 16.6166659,79.973333 16.77,80.04 C16.9233341,80.106667 17.0633327,80.1699997 17.19,80.23 C17.3166673,80.2900003 17.4666658,80.32 17.64,80.32 C17.8533344,80.32 18.026666,80.2433341 18.16,80.09 C18.293334,79.9366659 18.36,79.7666676 18.36,79.58 C18.36,79.2199982 18.1100025,78.906668 17.61,78.64 C17.1099975,78.373332 16.4066712,78.24 15.5,78.24 C14.6866626,78.24 13.980003,78.3899985 13.38,78.69 C12.779997,78.9900015 12.280002,79.3933308 11.88,79.9 C11.479998,80.4066692 11.1833343,80.9866634 10.99,81.64 C10.7966657,82.2933366 10.7,82.9733298 10.7,83.68 L10.7,83.68 Z M20.3966672,83.68 C20.3966672,84.3866702 20.4999995,85.0666634 20.7066672,85.72 C20.9133349,86.3733366 21.2166652,86.9533308 21.6166672,87.46 C22.0166692,87.9666692 22.5066643,88.3699985 23.0866672,88.67 C23.6666701,88.9700015 24.3299968,89.12 25.0766672,89.12 C25.8233376,89.12 26.4866643,88.9700015 27.0666672,88.67 C27.6466701,88.3699985 28.1366652,87.9666692 28.5366672,87.46 C28.9366692,86.9533308 29.2399995,86.3733366 29.4466672,85.72 C29.6533349,85.0666634 29.7566672,84.3866702 29.7566672,83.68 C29.7566672,82.9733298 29.6533349,82.2933366 29.4466672,81.64 C29.2399995,80.9866634 28.9366692,80.4066692 28.5366672,79.9 C28.1366652,79.3933308 27.6466701,78.9900015 27.0666672,78.69 C26.4866643,78.3899985 25.8233376,78.24 25.0766672,78.24 C24.3299968,78.24 23.6666701,78.3899985 23.0866672,78.69 C22.5066643,78.9900015 22.0166692,79.3933308 21.6166672,79.9 C21.2166652,80.4066692 20.9133349,80.9866634 20.7066672,81.64 C20.4999995,82.2933366 20.3966672,82.9733298 20.3966672,83.68 L20.3966672,83.68 Z M22.1566672,83.68 C22.1566672,83.2266644 22.2066667,82.7700023 22.3066672,82.31 C22.4066677,81.8499977 22.5733327,81.4300019 22.8066672,81.05 C23.0400017,80.6699981 23.343332,80.3600012 23.7166672,80.12 C24.0900024,79.8799988 24.5433312,79.76 25.0766672,79.76 C25.6233366,79.76 26.0799987,79.8799988 26.4466672,80.12 C26.8133357,80.3600012 27.1133327,80.6699981 27.3466672,81.05 C27.5800017,81.4300019 27.7466667,81.8499977 27.8466672,82.31 C27.9466677,82.7700023 27.9966672,83.2266644 27.9966672,83.68 C27.9966672,84.1333356 27.9466677,84.5899977 27.8466672,85.05 C27.7466667,85.5100023 27.5800017,85.9299981 27.3466672,86.31 C27.1133327,86.6900019 26.8133357,86.9999988 26.4466672,87.24 C26.0799987,87.4800012 25.6233366,87.6 25.0766672,87.6 C24.5433312,87.6 24.0900024,87.4800012 23.7166672,87.24 C23.343332,86.9999988 23.0400017,86.6900019 22.8066672,86.31 C22.5733327,85.9299981 22.4066677,85.5100023 22.3066672,85.05 C22.2066667,84.5899977 22.1566672,84.1333356 22.1566672,83.68 L22.1566672,83.68 Z M32.4333344,88.18 C32.4333344,88.4733348 32.5133336,88.7033325 32.6733344,88.87 C32.8333352,89.0366675 33.0466664,89.12 33.3133344,89.12 C33.5800024,89.12 33.7933336,89.0366675 33.9533344,88.87 C34.1133352,88.7033325 34.1933344,88.4733348 34.1933344,88.18 L34.1933344,82.38 C34.1933344,81.913331 34.266667,81.513335 34.4133344,81.18 C34.5600018,80.846665 34.7499999,80.5766677 34.9833344,80.37 C35.2166689,80.1633323 35.4799996,80.0100005 35.7733344,79.91 C36.0666692,79.8099995 36.3599996,79.76 36.6533344,79.76 C36.9466692,79.76 37.2399996,79.8099995 37.5333344,79.91 C37.8266692,80.0100005 38.0899999,80.1633323 38.3233344,80.37 C38.5566689,80.5766677 38.746667,80.846665 38.8933344,81.18 C39.0400018,81.513335 39.1133344,81.913331 39.1133344,82.38 L39.1133344,88.18 C39.1133344,88.4733348 39.1933336,88.7033325 39.3533344,88.87 C39.5133352,89.0366675 39.7266664,89.12 39.9933344,89.12 C40.2600024,89.12 40.4733336,89.0366675 40.6333344,88.87 C40.7933352,88.7033325 40.8733344,88.4733348 40.8733344,88.18 L40.8733344,82.28 C40.8733344,81.5333296 40.7566689,80.9033359 40.5233344,80.39 C40.2899999,79.8766641 39.9933362,79.4600016 39.6333344,79.14 C39.2733326,78.8199984 38.8766699,78.5900007 38.4433344,78.45 C38.0099989,78.3099993 37.5866698,78.24 37.1733344,78.24 C36.6399984,78.24 36.113337,78.3466656 35.5933344,78.56 C35.0733318,78.7733344 34.620003,79.1333308 34.2333344,79.64 L34.1933344,79.6 L34.1933344,79.18 C34.1933344,78.8866652 34.1133352,78.6566675 33.9533344,78.49 C33.7933336,78.3233325 33.5800024,78.24 33.3133344,78.24 C33.0466664,78.24 32.8333352,78.3233325 32.6733344,78.49 C32.5133336,78.6566675 32.4333344,78.8866652 32.4333344,79.18 L32.4333344,88.18 Z M44.5700016,78.36 L43.8500016,78.36 C43.263332,78.36 42.9700016,78.6133308 42.9700016,79.12 C42.9700016,79.6266692 43.263332,79.88 43.8500016,79.88 L44.5700016,79.88 L44.5700016,88.18 C44.5700016,88.4733348 44.6500008,88.7033325 44.8100016,88.87 C44.9700024,89.0366675 45.1833336,89.12 45.4500016,89.12 C45.7166696,89.12 45.9300008,89.0366675 46.0900016,88.87 C46.2500024,88.7033325 46.3300016,88.4733348 46.3300016,88.18 L46.3300016,79.88 L47.0500016,79.88 C47.6366712,79.88 47.9300016,79.6266692 47.9300016,79.12 C47.9300016,78.6133308 47.6366712,78.36 47.0500016,78.36 L46.3300016,78.36 L46.3300016,76.06 C46.3300016,75.7666652 46.2500024,75.5366675 46.0900016,75.37 C45.9300008,75.2033325 45.7166696,75.12 45.4500016,75.12 C45.1833336,75.12 44.9700024,75.2033325 44.8100016,75.37 C44.6500008,75.5366675 44.5700016,75.7666652 44.5700016,76.06 L44.5700016,78.36 Z M50.0266688,88.18 C50.0266688,88.4733348 50.106668,88.7033325 50.2666688,88.87 C50.4266696,89.0366675 50.6400008,89.12 50.9066688,89.12 C51.1733368,89.12 51.386668,89.0366675 51.5466688,88.87 C51.7066696,88.7033325 51.7866688,88.4733348 51.7866688,88.18 L51.7866688,83.12 C51.7866688,82.5999974 51.8600014,82.1600018 52.0066688,81.8 C52.1533362,81.4399982 52.3366677,81.1400012 52.5566688,80.9 C52.7766699,80.6599988 53.0266674,80.4766673 53.3066688,80.35 C53.5866702,80.2233327 53.8533342,80.1400002 54.1066688,80.1 C54.8400058,79.966666 55.2066688,79.6466692 55.2066688,79.14 C55.2066688,78.8866654 55.120003,78.6733342 54.9466688,78.5 C54.7733346,78.3266658 54.533337,78.24 54.2266688,78.24 C53.9733342,78.24 53.7233367,78.2966661 53.4766688,78.41 C53.2300009,78.5233339 53.0033365,78.6699991 52.7966688,78.85 C52.5900011,79.0300009 52.4033363,79.2299989 52.2366688,79.45 C52.0700013,79.6700011 51.933336,79.879999 51.8266688,80.08 L51.7866688,80.08 L51.7866688,79.18 C51.7866688,78.8866652 51.7066696,78.6566675 51.5466688,78.49 C51.386668,78.3233325 51.1733368,78.24 50.9066688,78.24 C50.6400008,78.24 50.4266696,78.3233325 50.2666688,78.49 C50.106668,78.6566675 50.0266688,78.8866652 50.0266688,79.18 L50.0266688,88.18 Z M56.683336,83.68 C56.683336,84.3866702 56.7866683,85.0666634 56.993336,85.72 C57.2000037,86.3733366 57.503334,86.9533308 57.903336,87.46 C58.303338,87.9666692 58.7933331,88.3699985 59.373336,88.67 C59.9533389,88.9700015 60.6166656,89.12 61.363336,89.12 C62.1100064,89.12 62.7733331,88.9700015 63.353336,88.67 C63.9333389,88.3699985 64.423334,87.9666692 64.823336,87.46 C65.223338,86.9533308 65.5266683,86.3733366 65.733336,85.72 C65.9400037,85.0666634 66.043336,84.3866702 66.043336,83.68 C66.043336,82.9733298 65.9400037,82.2933366 65.733336,81.64 C65.5266683,80.9866634 65.223338,80.4066692 64.823336,79.9 C64.423334,79.3933308 63.9333389,78.9900015 63.353336,78.69 C62.7733331,78.3899985 62.1100064,78.24 61.363336,78.24 C60.6166656,78.24 59.9533389,78.3899985 59.373336,78.69 C58.7933331,78.9900015 58.303338,79.3933308 57.903336,79.9 C57.503334,80.4066692 57.2000037,80.9866634 56.993336,81.64 C56.7866683,82.2933366 56.683336,82.9733298 56.683336,83.68 L56.683336,83.68 Z M58.443336,83.68 C58.443336,83.2266644 58.4933355,82.7700023 58.593336,82.31 C58.6933365,81.8499977 58.8600015,81.4300019 59.093336,81.05 C59.3266705,80.6699981 59.6300008,80.3600012 60.003336,80.12 C60.3766712,79.8799988 60.83,79.76 61.363336,79.76 C61.9100054,79.76 62.3666675,79.8799988 62.733336,80.12 C63.1000045,80.3600012 63.4000015,80.6699981 63.633336,81.05 C63.8666705,81.4300019 64.0333355,81.8499977 64.133336,82.31 C64.2333365,82.7700023 64.283336,83.2266644 64.283336,83.68 C64.283336,84.1333356 64.2333365,84.5899977 64.133336,85.05 C64.0333355,85.5100023 63.8666705,85.9299981 63.633336,86.31 C63.4000015,86.6900019 63.1000045,86.9999988 62.733336,87.24 C62.3666675,87.4800012 61.9100054,87.6 61.363336,87.6 C60.83,87.6 60.3766712,87.4800012 60.003336,87.24 C59.6300008,86.9999988 59.3266705,86.6900019 59.093336,86.31 C58.8600015,85.9299981 58.6933365,85.5100023 58.593336,85.05 C58.4933355,84.5899977 58.443336,84.1333356 58.443336,83.68 L58.443336,83.68 Z M70.4800032,74.5 C70.4800032,74.2066652 70.400004,73.9766675 70.2400032,73.81 C70.0800024,73.6433325 69.8666712,73.56 69.6000032,73.56 C69.3333352,73.56 69.120004,73.6433325 68.9600032,73.81 C68.8000024,73.9766675 68.7200032,74.2066652 68.7200032,74.5 L68.7200032,88.18 C68.7200032,88.4733348 68.8000024,88.7033325 68.9600032,88.87 C69.120004,89.0366675 69.3333352,89.12 69.6000032,89.12 C69.8666712,89.12 70.0800024,89.0366675 70.2400032,88.87 C70.400004,88.7033325 70.4800032,88.4733348 70.4800032,88.18 L70.4800032,74.5 Z M10.7,133.68 C10.7,134.38667 10.7966657,135.066663 10.99,135.72 C11.1833343,136.373337 11.479998,136.953331 11.88,137.46 C12.280002,137.966669 12.779997,138.369999 13.38,138.67 C13.980003,138.970001 14.6866626,139.12 15.5,139.12 C16.4200046,139.12 17.1166643,138.973335 17.59,138.68 C18.0633357,138.386665 18.3,138.073335 18.3,137.74 C18.3,137.499999 18.2366673,137.316667 18.11,137.19 C17.9833327,137.063333 17.820001,137 17.62,137 C17.486666,137 17.3566673,137.03 17.23,137.09 C17.1033327,137.15 16.9633341,137.22 16.81,137.3 C16.6566659,137.38 16.4766677,137.45 16.27,137.51 C16.0633323,137.57 15.8066682,137.6 15.5,137.6 C14.9533306,137.6 14.4866686,137.480001 14.1,137.24 C13.7133314,136.999999 13.4000012,136.690002 13.16,136.31 C12.9199988,135.929998 12.7433339,135.510002 12.63,135.05 C12.5166661,134.589998 12.46,134.133336 12.46,133.68 C12.46,133.226664 12.5166661,132.770002 12.63,132.31 C12.7433339,131.849998 12.9199988,131.430002 13.16,131.05 C13.4000012,130.669998 13.7133314,130.360001 14.1,130.12 C14.4866686,129.879999 14.9533306,129.76 15.5,129.76 C15.8066682,129.76 16.0566657,129.79 16.25,129.85 C16.4433343,129.91 16.6166659,129.973333 16.77,130.04 C16.9233341,130.106667 17.0633327,130.17 17.19,130.23 C17.3166673,130.29 17.4666658,130.32 17.64,130.32 C17.8533344,130.32 18.026666,130.243334 18.16,130.09 C18.293334,129.936666 18.36,129.766668 18.36,129.58 C18.36,129.219998 18.1100025,128.906668 17.61,128.64 C17.1099975,128.373332 16.4066712,128.24 15.5,128.24 C14.6866626,128.24 13.980003,128.389998 13.38,128.69 C12.779997,128.990002 12.280002,129.393331 11.88,129.9 C11.479998,130.406669 11.1833343,130.986663 10.99,131.64 C10.7966657,132.293337 10.7,132.97333 10.7,133.68 L10.7,133.68 Z M20.38,133.68 C20.38,134.38667 20.4833323,135.066663 20.69,135.72 C20.8966677,136.373337 21.199998,136.953331 21.6,137.46 C22.000002,137.966669 22.4899971,138.369999 23.07,138.67 C23.6500029,138.970001 24.3133296,139.12 25.06,139.12 C25.8066704,139.12 26.4699971,138.970001 27.05,138.67 C27.6300029,138.369999 28.119998,137.966669 28.52,137.46 C28.920002,136.953331 29.2233323,136.373337 29.43,135.72 C29.6366677,135.066663 29.74,134.38667 29.74,133.68 C29.74,132.97333 29.6366677,132.293337 29.43,131.64 C29.2233323,130.986663 28.920002,130.406669 28.52,129.9 C28.119998,129.393331 27.6300029,128.990002 27.05,128.69 C26.4699971,128.389998 25.8066704,128.24 25.06,128.24 C24.3133296,128.24 23.6500029,128.389998 23.07,128.69 C22.4899971,128.990002 22.000002,129.393331 21.6,129.9 C21.199998,130.406669 20.8966677,130.986663 20.69,131.64 C20.4833323,132.293337 20.38,132.97333 20.38,133.68 L20.38,133.68 Z M22.14,133.68 C22.14,133.226664 22.1899995,132.770002 22.29,132.31 C22.3900005,131.849998 22.5566655,131.430002 22.79,131.05 C23.0233345,130.669998 23.3266648,130.360001 23.7,130.12 C24.0733352,129.879999 24.526664,129.76 25.06,129.76 C25.6066694,129.76 26.0633315,129.879999 26.43,130.12 C26.7966685,130.360001 27.0966655,130.669998 27.33,131.05 C27.5633345,131.430002 27.7299995,131.849998 27.83,132.31 C27.9300005,132.770002 27.98,133.226664 27.98,133.68 C27.98,134.133336 27.9300005,134.589998 27.83,135.05 C27.7299995,135.510002 27.5633345,135.929998 27.33,136.31 C27.0966655,136.690002 26.7966685,136.999999 26.43,137.24 C26.0633315,137.480001 25.6066694,137.6 25.06,137.6 C24.526664,137.6 24.0733352,137.480001 23.7,137.24 C23.3266648,136.999999 23.0233345,136.690002 22.79,136.31 C22.5566655,135.929998 22.3900005,135.510002 22.29,135.05 C22.1899995,134.589998 22.14,134.133336 22.14,133.68 L22.14,133.68 Z M38.7,138.18 C38.7,138.473335 38.7799992,138.703332 38.94,138.87 C39.1000008,139.036668 39.313332,139.12 39.58,139.12 C39.846668,139.12 40.0599992,139.036668 40.22,138.87 C40.3800008,138.703332 40.46,138.473335 40.46,138.18 L40.46,132.22 C40.46,131.459996 40.6566647,130.860002 41.05,130.42 C41.4433353,129.979998 41.9999964,129.76 42.72,129.76 C43.4400036,129.76 43.999998,129.979998 44.4,130.42 C44.800002,130.860002 45,131.459996 45,132.22 L45,138.18 C45,138.473335 45.0799992,138.703332 45.24,138.87 C45.4000008,139.036668 45.613332,139.12 45.88,139.12 C46.146668,139.12 46.3599992,139.036668 46.52,138.87 C46.6800008,138.703332 46.76,138.473335 46.76,138.18 L46.76,132.28 C46.76,131.53333 46.6433345,130.903336 46.41,130.39 C46.1766655,129.876664 45.8800018,129.460002 45.52,129.14 C45.1599982,128.819998 44.7633355,128.590001 44.33,128.45 C43.8966645,128.309999 43.4733354,128.24 43.06,128.24 C42.2866628,128.24 41.6466692,128.399998 41.14,128.72 C40.6333308,129.040002 40.1866686,129.479997 39.8,130.04 C39.399998,129.359997 38.9433359,128.890001 38.43,128.63 C37.9166641,128.369999 37.4000026,128.24 36.88,128.24 C36.479998,128.24 36.1366681,128.283333 35.85,128.37 C35.5633319,128.456667 35.3133344,128.563333 35.1,128.69 C34.8866656,128.816667 34.7100007,128.956666 34.57,129.11 C34.4299993,129.263334 34.3066672,129.406666 34.2,129.54 L34.16,129.5 L34.16,129.18 C34.16,128.886665 34.0800008,128.656668 33.92,128.49 C33.7599992,128.323332 33.546668,128.24 33.28,128.24 C33.013332,128.24 32.8000008,128.323332 32.64,128.49 C32.4799992,128.656668 32.4,128.886665 32.4,129.18 L32.4,138.18 C32.4,138.473335 32.4799992,138.703332 32.64,138.87 C32.8000008,139.036668 33.013332,139.12 33.28,139.12 C33.546668,139.12 33.7599992,139.036668 33.92,138.87 C34.0800008,138.703332 34.16,138.473335 34.16,138.18 L34.16,132.22 C34.16,131.459996 34.3566647,130.860002 34.75,130.42 C35.1433353,129.979998 35.6999964,129.76 36.42,129.76 C37.1400036,129.76 37.699998,129.979998 38.1,130.42 C38.500002,130.860002 38.7,131.459996 38.7,132.22 L38.7,138.18 Z M56.18,138.18 C56.18,138.473335 56.2599992,138.703332 56.42,138.87 C56.5800008,139.036668 56.793332,139.12 57.06,139.12 C57.326668,139.12 57.5399992,139.036668 57.7,138.87 C57.8600008,138.703332 57.94,138.473335 57.94,138.18 L57.94,132.22 C57.94,131.459996 58.1366647,130.860002 58.53,130.42 C58.9233353,129.979998 59.4799964,129.76 60.2,129.76 C60.9200036,129.76 61.479998,129.979998 61.88,130.42 C62.280002,130.860002 62.48,131.459996 62.48,132.22 L62.48,138.18 C62.48,138.473335 62.5599992,138.703332 62.72,138.87 C62.8800008,139.036668 63.093332,139.12 63.36,139.12 C63.626668,139.12 63.8399992,139.036668 64,138.87 C64.1600008,138.703332 64.24,138.473335 64.24,138.18 L64.24,132.28 C64.24,131.53333 64.1233345,130.903336 63.89,130.39 C63.6566655,129.876664 63.3600018,129.460002 63,129.14 C62.6399982,128.819998 62.2433355,128.590001 61.81,128.45 C61.3766645,128.309999 60.9533354,128.24 60.54,128.24 C59.7666628,128.24 59.1266692,128.399998 58.62,128.72 C58.1133308,129.040002 57.6666686,129.479997 57.28,130.04 C56.879998,129.359997 56.4233359,128.890001 55.91,128.63 C55.3966641,128.369999 54.8800026,128.24 54.36,128.24 C53.959998,128.24 53.6166681,128.283333 53.33,128.37 C53.0433319,128.456667 52.7933344,128.563333 52.58,128.69 C52.3666656,128.816667 52.1900007,128.956666 52.05,129.11 C51.9099993,129.263334 51.7866672,129.406666 51.68,129.54 L51.64,129.5 L51.64,129.18 C51.64,128.886665 51.5600008,128.656668 51.4,128.49 C51.2399992,128.323332 51.026668,128.24 50.76,128.24 C50.493332,128.24 50.2800008,128.323332 50.12,128.49 C49.9599992,128.656668 49.88,128.886665 49.88,129.18 L49.88,138.18 C49.88,138.473335 49.9599992,138.703332 50.12,138.87 C50.2800008,139.036668 50.493332,139.12 50.76,139.12 C51.026668,139.12 51.2399992,139.036668 51.4,138.87 C51.5600008,138.703332 51.64,138.473335 51.64,138.18 L51.64,132.22 C51.64,131.459996 51.8366647,130.860002 52.23,130.42 C52.6233353,129.979998 53.1799964,129.76 53.9,129.76 C54.6200036,129.76 55.179998,129.979998 55.58,130.42 C55.980002,130.860002 56.18,131.459996 56.18,132.22 L56.18,138.18 Z M76.16,129.1 C76.16,128.793332 76.0666676,128.573334 75.88,128.44 C75.6933324,128.306666 75.5133342,128.24 75.34,128.24 C75.1533324,128.24 74.9700009,128.306666 74.79,128.44 C74.6099991,128.573334 74.52,128.793332 74.52,129.1 L74.52,129.66 L74.48,129.66 C74.0666646,129.206664 73.6333356,128.856668 73.18,128.61 C72.7266644,128.363332 72.1933364,128.24 71.58,128.24 C70.8333296,128.24 70.1700029,128.389998 69.59,128.69 C69.0099971,128.990002 68.520002,129.393331 68.12,129.9 C67.719998,130.406669 67.4166677,130.986663 67.21,131.64 C67.0033323,132.293337 66.9,132.97333 66.9,133.68 C66.9,134.38667 67.0033323,135.066663 67.21,135.72 C67.4166677,136.373337 67.719998,136.953331 68.12,137.46 C68.520002,137.966669 69.0099971,138.369999 69.59,138.67 C70.1700029,138.970001 70.8333296,139.12 71.58,139.12 C72.1533362,139.12 72.6833309,138.990001 73.17,138.73 C73.6566691,138.469999 74.0933314,138.066669 74.48,137.52 L74.52,137.52 L74.52,138.26 C74.52,138.566668 74.6099991,138.786666 74.79,138.92 C74.9700009,139.053334 75.1533324,139.12 75.34,139.12 C75.5133342,139.12 75.6933324,139.053334 75.88,138.92 C76.0666676,138.786666 76.16,138.566668 76.16,138.26 L76.16,129.1 Z M68.66,133.68 C68.66,133.226664 68.7099995,132.770002 68.81,132.31 C68.9100005,131.849998 69.0766655,131.430002 69.31,131.05 C69.5433345,130.669998 69.8466648,130.360001 70.22,130.12 C70.5933352,129.879999 71.046664,129.76 71.58,129.76 C72.1266694,129.76 72.5833315,129.879999 72.95,130.12 C73.3166685,130.360001 73.6166655,130.669998 73.85,131.05 C74.0833345,131.430002 74.2499995,131.849998 74.35,132.31 C74.4500005,132.770002 74.5,133.226664 74.5,133.68 C74.5,134.133336 74.4500005,134.589998 74.35,135.05 C74.2499995,135.510002 74.0833345,135.929998 73.85,136.31 C73.6166655,136.690002 73.3166685,136.999999 72.95,137.24 C72.5833315,137.480001 72.1266694,137.6 71.58,137.6 C71.046664,137.6 70.5933352,137.480001 70.22,137.24 C69.8466648,136.999999 69.5433345,136.690002 69.31,136.31 C69.0766655,135.929998 68.9100005,135.510002 68.81,135.05 C68.7099995,134.589998 68.66,134.133336 68.66,133.68 L68.66,133.68 Z M79.28,138.18 C79.28,138.473335 79.3599992,138.703332 79.52,138.87 C79.6800008,139.036668 79.893332,139.12 80.16,139.12 C80.426668,139.12 80.6399992,139.036668 80.8,138.87 C80.9600008,138.703332 81.04,138.473335 81.04,138.18 L81.04,132.38 C81.04,131.913331 81.1133326,131.513335 81.26,131.18 C81.4066674,130.846665 81.5966655,130.576668 81.83,130.37 C82.0633345,130.163332 82.3266652,130.01 82.62,129.91 C82.9133348,129.81 83.2066652,129.76 83.5,129.76 C83.7933348,129.76 84.0866652,129.81 84.38,129.91 C84.6733348,130.01 84.9366655,130.163332 85.17,130.37 C85.4033345,130.576668 85.5933326,130.846665 85.74,131.18 C85.8866674,131.513335 85.96,131.913331 85.96,132.38 L85.96,138.18 C85.96,138.473335 86.0399992,138.703332 86.2,138.87 C86.3600008,139.036668 86.573332,139.12 86.84,139.12 C87.106668,139.12 87.3199992,139.036668 87.48,138.87 C87.6400008,138.703332 87.72,138.473335 87.72,138.18 L87.72,132.28 C87.72,131.53333 87.6033345,130.903336 87.37,130.39 C87.1366655,129.876664 86.8400018,129.460002 86.48,129.14 C86.1199982,128.819998 85.7233355,128.590001 85.29,128.45 C84.8566645,128.309999 84.4333354,128.24 84.02,128.24 C83.486664,128.24 82.9600026,128.346666 82.44,128.56 C81.9199974,128.773334 81.4666686,129.133331 81.08,129.64 L81.04,129.6 L81.04,129.18 C81.04,128.886665 80.9600008,128.656668 80.8,128.49 C80.6399992,128.323332 80.426668,128.24 80.16,128.24 C79.893332,128.24 79.6800008,128.323332 79.52,128.49 C79.3599992,128.656668 79.28,128.886665 79.28,129.18 L79.28,138.18 Z M97.98,133.68 C97.98,134.133336 97.9300005,134.589998 97.83,135.05 C97.7299995,135.510002 97.5633345,135.929998 97.33,136.31 C97.0966655,136.690002 96.7966685,136.999999 96.43,137.24 C96.0633315,137.480001 95.6066694,137.6 95.06,137.6 C94.526664,137.6 94.0733352,137.480001 93.7,137.24 C93.3266648,136.999999 93.0233345,136.690002 92.79,136.31 C92.5566655,135.929998 92.3900005,135.510002 92.29,135.05 C92.1899995,134.589998 92.14,134.133336 92.14,133.68 C92.14,133.226664 92.1899995,132.770002 92.29,132.31 C92.3900005,131.849998 92.5566655,131.430002 92.79,131.05 C93.0233345,130.669998 93.3266648,130.360001 93.7,130.12 C94.0733352,129.879999 94.526664,129.76 95.06,129.76 C95.6066694,129.76 96.0633315,129.879999 96.43,130.12 C96.7966685,130.360001 97.0966655,130.669998 97.33,131.05 C97.5633345,131.430002 97.7299995,131.849998 97.83,132.31 C97.9300005,132.770002 97.98,133.226664 97.98,133.68 L97.98,133.68 Z M97.8,138.18 C97.8,138.473335 97.8799992,138.703332 98.04,138.87 C98.2000008,139.036668 98.413332,139.12 98.68,139.12 C98.946668,139.12 99.1599992,139.036668 99.32,138.87 C99.4800008,138.703332 99.56,138.473335 99.56,138.18 L99.56,124.5 C99.56,124.206665 99.4800008,123.976668 99.32,123.81 C99.1599992,123.643332 98.946668,123.56 98.68,123.56 C98.413332,123.56 98.2000008,123.643332 98.04,123.81 C97.8799992,123.976668 97.8,124.206665 97.8,124.5 L97.8,129.68 L97.76,129.68 C97.6399994,129.519999 97.4933342,129.353334 97.32,129.18 C97.1466658,129.006666 96.9400012,128.850001 96.7,128.71 C96.4599988,128.569999 96.1900015,128.456667 95.89,128.37 C95.5899985,128.283333 95.2666684,128.24 94.92,128.24 C94.1999964,128.24 93.5600028,128.389998 93,128.69 C92.4399972,128.990002 91.9633353,129.393331 91.57,129.9 C91.1766647,130.406669 90.880001,130.986663 90.68,131.64 C90.479999,132.293337 90.38,132.97333 90.38,133.68 C90.38,134.38667 90.479999,135.066663 90.68,135.72 C90.880001,136.373337 91.1766647,136.953331 91.57,137.46 C91.9633353,137.966669 92.4399972,138.369999 93,138.67 C93.5600028,138.970001 94.1999964,139.12 94.92,139.12 C96.3066736,139.12 97.2533308,138.633338 97.76,137.66 L97.8,137.66 L97.8,138.18 Z M19.96,179.1 C19.96,178.793332 19.8666676,178.573334 19.68,178.44 C19.4933324,178.306666 19.3133342,178.24 19.14,178.24 C18.9533324,178.24 18.7700009,178.306666 18.59,178.44 C18.4099991,178.573334 18.32,178.793332 18.32,179.1 L18.32,179.66 L18.28,179.66 C17.8666646,179.206664 17.4333356,178.856668 16.98,178.61 C16.5266644,178.363332 15.9933364,178.24 15.38,178.24 C14.6333296,178.24 13.9700029,178.389998 13.39,178.69 C12.8099971,178.990002 12.320002,179.393331 11.92,179.9 C11.519998,180.406669 11.2166677,180.986663 11.01,181.64 C10.8033323,182.293337 10.7,182.97333 10.7,183.68 C10.7,184.38667 10.8033323,185.066663 11.01,185.72 C11.2166677,186.373337 11.519998,186.953331 11.92,187.46 C12.320002,187.966669 12.8099971,188.369999 13.39,188.67 C13.9700029,188.970002 14.6333296,189.12 15.38,189.12 C15.9533362,189.12 16.4833309,188.990001 16.97,188.73 C17.4566691,188.469999 17.8933314,188.066669 18.28,187.52 L18.32,187.52 L18.32,188.26 C18.32,188.566668 18.4099991,188.786666 18.59,188.92 C18.7700009,189.053334 18.9533324,189.12 19.14,189.12 C19.3133342,189.12 19.4933324,189.053334 19.68,188.92 C19.8666676,188.786666 19.96,188.566668 19.96,188.26 L19.96,179.1 Z M12.46,183.68 C12.46,183.226664 12.5099995,182.770002 12.61,182.31 C12.7100005,181.849998 12.8766655,181.430002 13.11,181.05 C13.3433345,180.669998 13.6466648,180.360001 14.02,180.12 C14.3933352,179.879999 14.846664,179.76 15.38,179.76 C15.9266694,179.76 16.3833315,179.879999 16.75,180.12 C17.1166685,180.360001 17.4166655,180.669998 17.65,181.05 C17.8833345,181.430002 18.0499995,181.849998 18.15,182.31 C18.2500005,182.770002 18.3,183.226664 18.3,183.68 C18.3,184.133336 18.2500005,184.589998 18.15,185.05 C18.0499995,185.510002 17.8833345,185.929998 17.65,186.31 C17.4166655,186.690002 17.1166685,186.999999 16.75,187.24 C16.3833315,187.480001 15.9266694,187.6 15.38,187.6 C14.846664,187.6 14.3933352,187.480001 14.02,187.24 C13.6466648,186.999999 13.3433345,186.690002 13.11,186.31 C12.8766655,185.929998 12.7100005,185.510002 12.61,185.05 C12.5099995,184.589998 12.46,184.133336 12.46,183.68 L12.46,183.68 Z M24.8566672,174.5 C24.8566672,174.206665 24.776668,173.976667 24.6166672,173.81 C24.4566664,173.643333 24.2433352,173.56 23.9766672,173.56 C23.7099992,173.56 23.496668,173.643333 23.3366672,173.81 C23.1766664,173.976667 23.0966672,174.206665 23.0966672,174.5 L23.0966672,188.18 C23.0966672,188.473335 23.1766664,188.703332 23.3366672,188.87 C23.496668,189.036668 23.7099992,189.12 23.9766672,189.12 C24.2433352,189.12 24.4566664,189.036668 24.6166672,188.87 C24.776668,188.703332 24.8566672,188.473335 24.8566672,188.18 L24.8566672,174.5 Z M28.5533344,178.36 L27.8333344,178.36 C27.2466648,178.36 26.9533344,178.613331 26.9533344,179.12 C26.9533344,179.626669 27.2466648,179.88 27.8333344,179.88 L28.5533344,179.88 L28.5533344,188.18 C28.5533344,188.473335 28.6333336,188.703332 28.7933344,188.87 C28.9533352,189.036668 29.1666664,189.12 29.4333344,189.12 C29.7000024,189.12 29.9133336,189.036668 30.0733344,188.87 C30.2333352,188.703332 30.3133344,188.473335 30.3133344,188.18 L30.3133344,179.88 L31.0333344,179.88 C31.620004,179.88 31.9133344,179.626669 31.9133344,179.12 C31.9133344,178.613331 31.620004,178.36 31.0333344,178.36 L30.3133344,178.36 L30.3133344,176.06 C30.3133344,175.766665 30.2333352,175.536668 30.0733344,175.37 C29.9133336,175.203333 29.7000024,175.12 29.4333344,175.12 C29.1666664,175.12 28.9533352,175.203333 28.7933344,175.37 C28.6333336,175.536668 28.5533344,175.766665 28.5533344,176.06 L28.5533344,178.36 Z M10.7,233.68 C10.7,234.38667 10.8033323,235.066663 11.01,235.72 C11.2166677,236.373337 11.519998,236.953331 11.92,237.46 C12.320002,237.966669 12.8099971,238.369999 13.39,238.67 C13.9700029,238.970001 14.6333296,239.12 15.38,239.12 C16.1266704,239.12 16.7899971,238.970001 17.37,238.67 C17.9500029,238.369999 18.439998,237.966669 18.84,237.46 C19.240002,236.953331 19.5433323,236.373337 19.75,235.72 C19.9566677,235.066663 20.06,234.38667 20.06,233.68 C20.06,232.97333 19.9566677,232.293337 19.75,231.64 C19.5433323,230.986663 19.240002,230.406669 18.84,229.9 C18.439998,229.393331 17.9500029,228.990002 17.37,228.69 C16.7899971,228.389998 16.1266704,228.24 15.38,228.24 C14.6333296,228.24 13.9700029,228.389998 13.39,228.69 C12.8099971,228.990002 12.320002,229.393331 11.92,229.9 C11.519998,230.406669 11.2166677,230.986663 11.01,231.64 C10.8033323,232.293337 10.7,232.97333 10.7,233.68 L10.7,233.68 Z M12.46,233.68 C12.46,233.226664 12.5099995,232.770002 12.61,232.31 C12.7100005,231.849998 12.8766655,231.430002 13.11,231.05 C13.3433345,230.669998 13.6466648,230.360001 14.02,230.12 C14.3933352,229.879999 14.846664,229.76 15.38,229.76 C15.9266694,229.76 16.3833315,229.879999 16.75,230.12 C17.1166685,230.360001 17.4166655,230.669998 17.65,231.05 C17.8833345,231.430002 18.0499995,231.849998 18.15,232.31 C18.2500005,232.770002 18.3,233.226664 18.3,233.68 C18.3,234.133336 18.2500005,234.589998 18.15,235.05 C18.0499995,235.510002 17.8833345,235.929998 17.65,236.31 C17.4166655,236.690002 17.1166685,236.999999 16.75,237.24 C16.3833315,237.480001 15.9266694,237.6 15.38,237.6 C14.846664,237.6 14.3933352,237.480001 14.02,237.24 C13.6466648,236.999999 13.3433345,236.690002 13.11,236.31 C12.8766655,235.929998 12.7100005,235.510002 12.61,235.05 C12.5099995,234.589998 12.46,234.133336 12.46,233.68 L12.46,233.68 Z M24.3966672,233.68 C24.3966672,233.226664 24.4466667,232.770002 24.5466672,232.31 C24.6466677,231.849998 24.8133327,231.430002 25.0466672,231.05 C25.2800017,230.669998 25.583332,230.360001 25.9566672,230.12 C26.3300024,229.879999 26.7833312,229.76 27.3166672,229.76 C27.8633366,229.76 28.3199987,229.879999 28.6866672,230.12 C29.0533357,230.360001 29.3533327,230.669998 29.5866672,231.05 C29.8200017,231.430002 29.9866667,231.849998 30.0866672,232.31 C30.1866677,232.770002 30.2366672,233.226664 30.2366672,233.68 C30.2366672,234.133336 30.1866677,234.589998 30.0866672,235.05 C29.9866667,235.510002 29.8200017,235.929998 29.5866672,236.31 C29.3533327,236.690002 29.0533357,236.999999 28.6866672,237.24 C28.3199987,237.480001 27.8633366,237.6 27.3166672,237.6 C26.7833312,237.6 26.3300024,237.480001 25.9566672,237.24 C25.583332,236.999999 25.2800017,236.690002 25.0466672,236.31 C24.8133327,235.929998 24.6466677,235.510002 24.5466672,235.05 C24.4466667,234.589998 24.3966672,234.133336 24.3966672,233.68 L24.3966672,233.68 Z M22.8166672,242.38 C22.8166672,242.673335 22.8966664,242.903333 23.0566672,243.07 C23.216668,243.236668 23.4299992,243.32 23.6966672,243.32 C23.9633352,243.32 24.1766664,243.236668 24.3366672,243.07 C24.496668,242.903333 24.5766672,242.673335 24.5766672,242.38 L24.5766672,237.68 L24.6166672,237.68 C24.7366678,237.840001 24.883333,238.006666 25.0566672,238.18 C25.2300014,238.353334 25.436666,238.509999 25.6766672,238.65 C25.9166684,238.790001 26.1866657,238.903333 26.4866672,238.99 C26.7866687,239.076667 27.1099988,239.12 27.4566672,239.12 C28.1766708,239.12 28.8166644,238.970001 29.3766672,238.67 C29.93667,238.369999 30.4133319,237.966669 30.8066672,237.46 C31.2000025,236.953331 31.4966662,236.373337 31.6966672,235.72 C31.8966682,235.066663 31.9966672,234.38667 31.9966672,233.68 C31.9966672,232.97333 31.8966682,232.293337 31.6966672,231.64 C31.4966662,230.986663 31.2000025,230.406669 30.8066672,229.9 C30.4133319,229.393331 29.93667,228.990002 29.3766672,228.69 C28.8166644,228.389998 28.1766708,228.24 27.4566672,228.24 C26.0699936,228.24 25.1233364,228.726662 24.6166672,229.7 L24.5766672,229.7 L24.5766672,229.18 C24.5766672,228.886665 24.496668,228.656667 24.3366672,228.49 C24.1766664,228.323332 23.9633352,228.24 23.6966672,228.24 C23.4299992,228.24 23.216668,228.323332 23.0566672,228.49 C22.8966664,228.656667 22.8166672,228.886665 22.8166672,229.18 L22.8166672,242.38 Z M35.2333344,228.36 L34.5133344,228.36 C33.9266648,228.36 33.6333344,228.613331 33.6333344,229.12 C33.6333344,229.626669 33.9266648,229.88 34.5133344,229.88 L35.2333344,229.88 L35.2333344,238.18 C35.2333344,238.473335 35.3133336,238.703332 35.4733344,238.87 C35.6333352,239.036667 35.8466664,239.12 36.1133344,239.12 C36.3800024,239.12 36.5933336,239.036667 36.7533344,238.87 C36.9133352,238.703332 36.9933344,238.473335 36.9933344,238.18 L36.9933344,229.88 L37.7133344,229.88 C38.300004,229.88 38.5933344,229.626669 38.5933344,229.12 C38.5933344,228.613331 38.300004,228.36 37.7133344,228.36 L36.9933344,228.36 L36.9933344,226.06 C36.9933344,225.766665 36.9133352,225.536667 36.7533344,225.37 C36.5933336,225.203332 36.3800024,225.12 36.1133344,225.12 C35.8466664,225.12 35.6333352,225.203332 35.4733344,225.37 C35.3133336,225.536667 35.2333344,225.766665 35.2333344,226.06 L35.2333344,228.36 Z M42.4500016,229.18 C42.4500016,228.886665 42.3700024,228.656667 42.2100016,228.49 C42.0500008,228.323332 41.8366696,228.24 41.5700016,228.24 C41.3033336,228.24 41.0900024,228.323332 40.9300016,228.49 C40.7700008,228.656667 40.6900016,228.886665 40.6900016,229.18 L40.6900016,238.18 C40.6900016,238.473335 40.7700008,238.703332 40.9300016,238.87 C41.0900024,239.036667 41.3033336,239.12 41.5700016,239.12 C41.8366696,239.12 42.0500008,239.036667 42.2100016,238.87 C42.3700024,238.703332 42.4500016,238.473335 42.4500016,238.18 L42.4500016,229.18 Z M40.4900016,225.72 C40.4900016,226.026668 40.5933339,226.283332 40.8000016,226.49 C41.0066693,226.696668 41.2633334,226.8 41.5700016,226.8 C41.8766698,226.8 42.1333339,226.696668 42.3400016,226.49 C42.5466693,226.283332 42.6500016,226.026668 42.6500016,225.72 C42.6500016,225.413332 42.5466693,225.156668 42.3400016,224.95 C42.1333339,224.743332 41.8766698,224.64 41.5700016,224.64 C41.2633334,224.64 41.0066693,224.743332 40.8000016,224.95 C40.5933339,225.156668 40.4900016,225.413332 40.4900016,225.72 L40.4900016,225.72 Z M45.1266688,233.68 C45.1266688,234.38667 45.2300011,235.066663 45.4366688,235.72 C45.6433365,236.373337 45.9466668,236.953331 46.3466688,237.46 C46.7466708,237.966669 47.2366659,238.369999 47.8166688,238.67 C48.3966717,238.970001 49.0599984,239.12 49.8066688,239.12 C50.5533392,239.12 51.2166659,238.970001 51.7966688,238.67 C52.3766717,238.369999 52.8666668,237.966669 53.2666688,237.46 C53.6666708,236.953331 53.9700011,236.373337 54.1766688,235.72 C54.3833365,235.066663 54.4866688,234.38667 54.4866688,233.68 C54.4866688,232.97333 54.3833365,232.293337 54.1766688,231.64 C53.9700011,230.986663 53.6666708,230.406669 53.2666688,229.9 C52.8666668,229.393331 52.3766717,228.990002 51.7966688,228.69 C51.2166659,228.389998 50.5533392,228.24 49.8066688,228.24 C49.0599984,228.24 48.3966717,228.389998 47.8166688,228.69 C47.2366659,228.990002 46.7466708,229.393331 46.3466688,229.9 C45.9466668,230.406669 45.6433365,230.986663 45.4366688,231.64 C45.2300011,232.293337 45.1266688,232.97333 45.1266688,233.68 L45.1266688,233.68 Z M46.8866688,233.68 C46.8866688,233.226664 46.9366683,232.770002 47.0366688,232.31 C47.1366693,231.849998 47.3033343,231.430002 47.5366688,231.05 C47.7700033,230.669998 48.0733336,230.360001 48.4466688,230.12 C48.820004,229.879999 49.2733328,229.76 49.8066688,229.76 C50.3533382,229.76 50.8100003,229.879999 51.1766688,230.12 C51.5433373,230.360001 51.8433343,230.669998 52.0766688,231.05 C52.3100033,231.430002 52.4766683,231.849998 52.5766688,232.31 C52.6766693,232.770002 52.7266688,233.226664 52.7266688,233.68 C52.7266688,234.133336 52.6766693,234.589998 52.5766688,235.05 C52.4766683,235.510002 52.3100033,235.929998 52.0766688,236.31 C51.8433343,236.690002 51.5433373,236.999999 51.1766688,237.24 C50.8100003,237.480001 50.3533382,237.6 49.8066688,237.6 C49.2733328,237.6 48.820004,237.480001 48.4466688,237.24 C48.0733336,236.999999 47.7700033,236.690002 47.5366688,236.31 C47.3033343,235.929998 47.1366693,235.510002 47.0366688,235.05 C46.9366683,234.589998 46.8866688,234.133336 46.8866688,233.68 L46.8866688,233.68 Z M57.163336,238.18 C57.163336,238.473335 57.2433352,238.703332 57.403336,238.87 C57.5633368,239.036667 57.776668,239.12 58.043336,239.12 C58.310004,239.12 58.5233352,239.036667 58.683336,238.87 C58.8433368,238.703332 58.923336,238.473335 58.923336,238.18 L58.923336,232.38 C58.923336,231.913331 58.9966686,231.513335 59.143336,231.18 C59.2900034,230.846665 59.4800015,230.576668 59.713336,230.37 C59.9466705,230.163332 60.2100012,230.01 60.503336,229.91 C60.7966708,229.81 61.0900012,229.76 61.383336,229.76 C61.6766708,229.76 61.9700012,229.81 62.263336,229.91 C62.5566708,230.01 62.8200015,230.163332 63.053336,230.37 C63.2866705,230.576668 63.4766686,230.846665 63.623336,231.18 C63.7700034,231.513335 63.843336,231.913331 63.843336,232.38 L63.843336,238.18 C63.843336,238.473335 63.9233352,238.703332 64.083336,238.87 C64.2433368,239.036667 64.456668,239.12 64.723336,239.12 C64.990004,239.12 65.2033352,239.036667 65.363336,238.87 C65.5233368,238.703332 65.603336,238.473335 65.603336,238.18 L65.603336,232.28 C65.603336,231.53333 65.4866705,230.903336 65.253336,230.39 C65.0200015,229.876664 64.7233378,229.460002 64.363336,229.14 C64.0033342,228.819998 63.6066715,228.590001 63.173336,228.45 C62.7400005,228.309999 62.3166714,228.24 61.903336,228.24 C61.37,228.24 60.8433386,228.346666 60.323336,228.56 C59.8033334,228.773334 59.3500046,229.133331 58.963336,229.64 L58.923336,229.6 L58.923336,229.18 C58.923336,228.886665 58.8433368,228.656667 58.683336,228.49 C58.5233352,228.323332 58.310004,228.24 58.043336,228.24 C57.776668,228.24 57.5633368,228.323332 57.403336,228.49 C57.2433352,228.656667 57.163336,228.886665 57.163336,229.18 L57.163336,238.18 Z" id="mod" fill="#000000" sketch:type="MSShapeGroup"></path>
        </g>
    </g>
</svg>