<?xml version="1.0" encoding="UTF-8" standalone="no"?>
<svg width="120px" height="1050px" viewBox="0 0 120 1050" version="1.1" xmlns="http://www.w3.org/2000/svg" xmlns:xlink="http://www.w3.org/1999/xlink" xmlns:sketch="http://www.bohemiancoding.com/sketch/ns">
    <!-- Generator: Sketch 3.2.2 (9983) - http://www.bohemiancoding.com/sketch -->
    <title>keys</title>
    <desc>Created with Sketch.</desc>
    <defs></defs>
    <g id="Page-1" stroke="none" stroke-width="1" fill="none" fill-rule="evenodd" sketch:type="MSPage">
        <g id="keys" sketch:type="MSArtboardGroup">
            <g id="letter" sketch:type="MSLayerGroup" transform="translate(52.000000, 711.000000)" fill="#FFFFFF">
                <path d="M4.21,19.97 L12.79,19.97 L13.986,23.298 C14.0726671,23.5406679 14.2026658,23.7443325 14.376,23.909 C14.5493342,24.0736675 14.7919984,24.156 15.104,24.156 C15.3986681,24.156 15.6543323,24.0693342 15.871,23.896 C16.0876678,23.7226658 16.196,23.4886681 16.196,23.194 C16.196,23.0379992 16.1526671,22.8386679 16.066,22.596 C15.9793329,22.3533321 15.9186668,22.1713339 15.884,22.05 L10.138,6.736 C9.99933264,6.33733134 9.80433459,6.00366801 9.553,5.735 C9.30166541,5.46633199 8.95066892,5.332 8.5,5.332 C8.04933108,5.332 7.69833459,5.46633199 7.447,5.735 C7.19566541,6.00366801 7.00066736,6.33733134 6.862,6.736 L1.116,22.05 C1.08133316,22.1713339 1.0206671,22.3533321 0.934,22.596 C0.8473329,22.8386679 0.804,23.0379992 0.804,23.194 C0.804,23.4886681 0.91233225,23.7226658 1.129,23.896 C1.34566775,24.0693342 1.60133186,24.156 1.896,24.156 C2.20800156,24.156 2.4506658,24.0736675 2.624,23.909 C2.7973342,23.7443325 2.9273329,23.5406679 3.014,23.298 L4.21,19.97 Z M12.088,17.994 L4.912,17.994 L8.474,7.984 L8.526,7.984 L12.088,17.994 Z M4.041,64.744 C4.041,63.8599956 4.14933225,62.9760044 4.366,62.092 C4.58266775,61.2079956 4.92499766,60.4106702 5.393,59.7 C5.86100234,58.9893298 6.46332965,58.4130022 7.2,57.971 C7.93667035,57.5289978 8.81632822,57.308 9.839,57.308 C10.5496702,57.308 11.1303311,57.4033324 11.581,57.594 C12.0316689,57.7846676 12.4129984,57.9926655 12.725,58.218 C13.0370016,58.4433345 13.3056655,58.6513324 13.531,58.842 C13.7563345,59.0326676 13.9989987,59.128 14.259,59.128 C14.5536681,59.128 14.7833325,59.0196677 14.948,58.803 C15.1126675,58.5863322 15.195,58.3306681 15.195,58.036 C15.195,57.7933321 15.0693346,57.5203349 14.818,57.217 C14.5666654,56.9136651 14.2070023,56.6190014 13.739,56.333 C13.2709977,56.0469986 12.70767,55.8086676 12.049,55.618 C11.39033,55.4273324 10.6536707,55.332 9.839,55.332 C8.46965982,55.332 7.26933849,55.5963307 6.238,56.125 C5.20666151,56.6536693 4.34867009,57.3556623 3.664,58.231 C2.97932991,59.1063377 2.4636684,60.111661 2.117,61.247 C1.7703316,62.382339 1.597,63.547994 1.597,64.744 C1.597,65.940006 1.7703316,67.105661 2.117,68.241 C2.4636684,69.376339 2.97499662,70.3816623 3.651,71.257 C4.32700338,72.1323377 5.17199493,72.8343307 6.186,73.363 C7.20000507,73.8916693 8.37432666,74.156 9.709,74.156 C10.5236707,74.156 11.2863298,74.0780008 11.997,73.922 C12.7076702,73.7659992 13.331664,73.5623346 13.869,73.311 C14.406336,73.0596654 14.8266652,72.7823348 15.13,72.479 C15.4333349,72.1756651 15.585,71.8766681 15.585,71.582 C15.585,71.252665 15.5026675,70.9926676 15.338,70.802 C15.1733325,70.6113324 14.9523347,70.516 14.675,70.516 C14.4323321,70.516 14.1680014,70.6026658 13.882,70.776 C13.5959986,70.9493342 13.258002,71.139999 12.868,71.348 C12.4779981,71.556001 12.0273359,71.7466658 11.516,71.92 C11.0046641,72.0933342 10.4023368,72.18 9.709,72.18 C8.72099506,72.18 7.87167022,71.9590022 7.161,71.517 C6.45032978,71.0749978 5.86533563,70.4986702 5.406,69.788 C4.94666437,69.0773298 4.60433446,68.2800044 4.379,67.396 C4.15366554,66.5119956 4.041,65.6280044 4.041,64.744 L4.041,64.744 Z M1.948,122.752 C1.948,123.098668 2.04333238,123.393332 2.234,123.636 C2.42466762,123.878668 2.7366645,124 3.17,124 L7.98,124 C9.22800624,124 10.3416618,123.770336 11.321,123.311 C12.3003382,122.851664 13.1279966,122.210337 13.804,121.387 C14.4800034,120.563663 14.9956649,119.580006 15.351,118.436 C15.7063351,117.291994 15.884,116.026674 15.884,114.64 C15.884,113.409327 15.7150017,112.243672 15.377,111.143 C15.0389983,110.042328 14.5276701,109.071671 13.843,108.231 C13.1583299,107.390329 12.3046718,106.723002 11.282,106.229 C10.2593282,105.734998 9.0546736,105.488 7.668,105.488 L3.17,105.488 C2.7366645,105.488 2.42466762,105.609332 2.234,105.852 C2.04333238,106.094668 1.948,106.389332 1.948,106.736 L1.948,122.752 Z M4.236,107.464 L7.356,107.464 C8.44800546,107.464 9.37966281,107.658998 10.151,108.049 C10.9223372,108.439002 11.5506642,108.96333 12.036,109.622 C12.5213358,110.28067 12.8766655,111.043329 13.102,111.91 C13.3273345,112.776671 13.44,113.686662 13.44,114.64 C13.44,115.576005 13.3316678,116.490329 13.115,117.383 C12.8983323,118.275671 12.5560023,119.06433 12.088,119.749 C11.6199977,120.43367 11.0090038,120.983998 10.255,121.4 C9.50099623,121.816002 8.58667204,122.024 7.512,122.024 L4.236,122.024 L4.236,107.464 Z M8.526,170.308 L8.474,170.308 L3.794,156.814 C3.65533264,156.415331 3.4993342,156.068668 3.326,155.774 C3.1526658,155.479332 2.84066892,155.332 2.39,155.332 C2.07799844,155.332 1.83100091,155.427332 1.649,155.618 C1.46699909,155.808668 1.376,156.025332 1.376,156.268 C1.376,156.545335 1.42799948,156.839998 1.532,157.152 L7.174,172.908 C7.31266736,173.289335 7.4686658,173.592666 7.642,173.818 C7.8153342,174.043334 8.10133134,174.156 8.5,174.156 C8.89866866,174.156 9.1846658,174.043334 9.358,173.818 C9.5313342,173.592666 9.68733264,173.289335 9.826,172.908 L15.468,157.152 C15.5720005,156.839998 15.624,156.545335 15.624,156.268 C15.624,156.025332 15.5330009,155.808668 15.351,155.618 C15.1689991,155.427332 14.9220016,155.332 14.61,155.332 C14.1593311,155.332 13.8473342,155.479332 13.674,155.774 C13.5006658,156.068668 13.3446674,156.415331 13.206,156.814 L8.526,170.308 Z M8.5,215.862 L13.804,223.428 C14.0466679,223.757335 14.2503325,223.961 14.415,224.039 C14.5796675,224.117 14.7573324,224.156 14.948,224.156 C15.2080013,224.156 15.4463323,224.065001 15.663,223.883 C15.8796678,223.700999 15.988,223.471335 15.988,223.194 C15.988,223.003332 15.9490004,222.830001 15.871,222.674 C15.7929996,222.517999 15.7106671,222.379334 15.624,222.258 L9.826,214.068 L14.662,207.23 C14.9046679,206.883332 15.026,206.571335 15.026,206.294 C15.026,205.999332 14.9263343,205.765334 14.727,205.592 C14.5276657,205.418666 14.2893347,205.332 14.012,205.332 C13.8213324,205.332 13.6350009,205.375333 13.453,205.462 C13.2709991,205.548667 13.0673345,205.747998 12.842,206.06 L8.5,212.404 L4.158,206.06 C3.93266554,205.747998 3.72900091,205.548667 3.547,205.462 C3.36499909,205.375333 3.17866762,205.332 2.988,205.332 C2.71066528,205.332 2.47233433,205.418666 2.273,205.592 C2.07366567,205.765334 1.974,205.999332 1.974,206.294 C1.974,206.571335 2.09533212,206.883332 2.338,207.23 L7.174,214.068 L1.376,222.258 C1.2893329,222.379334 1.20700039,222.517999 1.129,222.674 C1.05099961,222.830001 1.012,223.003332 1.012,223.194 C1.012,223.471335 1.12033225,223.700999 1.337,223.883 C1.55366775,224.065001 1.7919987,224.156 2.052,224.156 C2.24266762,224.156 2.42033251,224.117 2.585,224.039 C2.74966749,223.961 2.95333212,223.757335 3.196,223.428 L8.5,215.862 Z M7.356,272.934 C7.356,273.315335 7.45999896,273.614332 7.668,273.831 C7.87600104,274.047668 8.1533316,274.156 8.5,274.156 C8.8466684,274.156 9.12399896,274.047668 9.332,273.831 C9.54000104,273.614332 9.644,273.315335 9.644,272.934 L9.644,265.316 L14.61,257.23 C14.8526679,256.848665 14.974,256.528001 14.974,256.268 C14.974,255.973332 14.8743343,255.743667 14.675,255.579 C14.4756657,255.414333 14.2286681,255.332 13.934,255.332 C13.725999,255.332 13.5266676,255.379666 13.336,255.475 C13.1453324,255.570334 12.9633342,255.765332 12.79,256.06 L8.5,263.054 L4.21,256.06 C4.0366658,255.765332 3.85466762,255.570334 3.664,255.475 C3.47333238,255.379666 3.27400104,255.332 3.066,255.332 C2.77133186,255.332 2.52433433,255.414333 2.325,255.579 C2.12566567,255.743667 2.026,255.973332 2.026,256.268 C2.026,256.528001 2.14733212,256.848665 2.39,257.23 L7.356,265.316 L7.356,272.934 Z M2.338,321.738 C2.14733238,322.015335 2.02600026,322.240666 1.974,322.414 C1.92199974,322.587334 1.896,322.769332 1.896,322.96 C1.896,323.289335 1.99999896,323.544999 2.208,323.727 C2.41600104,323.909001 2.76266424,324 3.248,324 L13.986,324 C14.315335,324 14.583999,323.917667 14.792,323.753 C15.000001,323.588333 15.104,323.341335 15.104,323.012 C15.104,322.682665 15.000001,322.435667 14.792,322.271 C14.583999,322.106333 14.315335,322.024 13.986,322.024 L4.652,322.024 L14.194,307.75 C14.4366679,307.403332 14.5926663,307.134668 14.662,306.944 C14.7313337,306.753332 14.766,306.536668 14.766,306.294 C14.766,306.085999 14.662001,305.899667 14.454,305.735 C14.245999,305.570333 13.9513352,305.488 13.57,305.488 L3.456,305.488 C3.12666502,305.488 2.85800104,305.570333 2.65,305.735 C2.44199896,305.899667 2.338,306.146665 2.338,306.476 C2.338,306.805335 2.44199896,307.052333 2.65,307.217 C2.85800104,307.381667 3.12666502,307.464 3.456,307.464 L11.854,307.464 L2.338,321.738 Z" id="letter-2" sketch:type="MSShapeGroup"></path>
            </g>
            <g id="arrows" sketch:type="MSLayerGroup" transform="translate(30.000000, 500.000000)" fill="#FFFFFF">
                <polygon id="left" sketch:type="MSShapeGroup" transform="translate(29.500000, 162.000000) scale(-1, 1) rotate(90.000000) translate(-29.500000, -162.000000) " points="29.5 158.5 32.5 165.5 26.5 165.5 "></polygon>
                <polygon id="bottom" sketch:type="MSShapeGroup" transform="translate(30.000000, 113.500000) scale(1, -1) translate(-30.000000, -113.500000) " points="30 110 33 117 27 117 "></polygon>
                <polygon id="right" sketch:type="MSShapeGroup" transform="translate(30.500000, 62.000000) rotate(90.000000) translate(-30.500000, -62.000000) " points="30.5 58.5 33.5 65.5 27.5 65.5 "></polygon>
                <polygon id="top" sketch:type="MSShapeGroup" points="30 7 33 14 27 14 "></polygon>
            </g>
            <g id="func" sketch:type="MSLayerGroup" transform="translate(10.000000, 272.000000)" fill="#FFFFFF">
                <path d="M8.9,13.36 C9.2866686,13.36 9.546666,13.2800008 9.68,13.12 C9.813334,12.9599992 9.88,12.7266682 9.88,12.42 C9.88,11.7799968 9.7766677,11.1500031 9.57,10.53 C9.3633323,9.9099969 9.0666686,9.3566691 8.68,8.87 C8.2933314,8.3833309 7.8133362,7.9900015 7.24,7.69 C6.6666638,7.3899985 6.0200036,7.24 5.3,7.24 C4.5533296,7.24 3.8833363,7.3866652 3.29,7.68 C2.6966637,7.9733348 2.1966687,8.3699975 1.79,8.87 C1.3833313,9.3700025 1.0700011,9.9499967 0.85,10.61 C0.6299989,11.2700033 0.52,11.9599964 0.52,12.68 C0.52,13.3866702 0.6133324,14.0666634 0.8,14.72 C0.9866676,15.3733366 1.279998,15.9533308 1.68,16.46 C2.080002,16.9666692 2.5866636,17.3699985 3.2,17.67 C3.8133364,17.9700015 4.5466624,18.12 5.4,18.12 C5.9200026,18.12 6.4333308,18.0466674 6.94,17.9 C7.4466692,17.7533326 7.9033313,17.5700011 8.31,17.35 C8.7166687,17.1299989 9.0433321,16.8933346 9.29,16.64 C9.5366679,16.3866654 9.66,16.1533344 9.66,15.94 C9.66,15.6866654 9.593334,15.493334 9.46,15.36 C9.326666,15.226666 9.1800008,15.16 9.02,15.16 C8.8599992,15.16 8.6900009,15.2333326 8.51,15.38 C8.3299991,15.5266674 8.1100013,15.6899991 7.85,15.87 C7.5899987,16.0500009 7.2666686,16.2166659 6.88,16.37 C6.4933314,16.5233341 6.0066696,16.6 5.42,16.6 C4.9266642,16.6 4.4866686,16.5166675 4.1,16.35 C3.7133314,16.1833325 3.3833347,15.9533348 3.11,15.66 C2.8366653,15.3666652 2.6300007,15.0233353 2.49,14.63 C2.3499993,14.2366647 2.28,13.8133356 2.28,13.36 L8.9,13.36 Z M2.28,12.04 C2.2933334,11.639998 2.3566661,11.240002 2.47,10.84 C2.5833339,10.439998 2.7599988,10.0833349 3,9.77 C3.2400012,9.4566651 3.5466648,9.2033343 3.92,9.01 C4.2933352,8.8166657 4.7533306,8.7333332 5.3,8.76 C5.7800024,8.76 6.1999982,8.859999 6.56,9.06 C6.9200018,9.260001 7.2133322,9.5166651 7.44,9.83 C7.6666678,10.1433349 7.8366661,10.4933314 7.95,10.88 C8.0633339,11.2666686 8.12,11.6533314 8.12,12.04 L2.28,12.04 Z M12.1366672,10.24 C12.1366672,10.7333358 12.2766658,11.1499983 12.5566672,11.49 C12.8366686,11.8300017 13.1866651,12.1233321 13.6066672,12.37 C14.0266693,12.6166679 14.4833314,12.8366657 14.9766672,13.03 C15.470003,13.2233343 15.9266651,13.419999 16.3466672,13.62 C16.7666693,13.820001 17.1166658,14.0399988 17.3966672,14.28 C17.6766686,14.5200012 17.8166672,14.8133316 17.8166672,15.16 C17.8166672,15.5200018 17.6333357,15.8499985 17.2666672,16.15 C16.8999987,16.4500015 16.3966704,16.6 15.7566672,16.6 C15.2766648,16.6 14.8700022,16.533334 14.5366672,16.4 C14.2033322,16.266666 13.9100018,16.1166675 13.6566672,15.95 C13.4033326,15.7833325 13.1833348,15.633334 12.9966672,15.5 C12.8099996,15.366666 12.6166682,15.3 12.4166672,15.3 C12.2299996,15.3 12.0633346,15.3733326 11.9166672,15.52 C11.7699998,15.6666674 11.6966672,15.8599988 11.6966672,16.1 C11.6966672,16.3266678 11.7999995,16.5599988 12.0066672,16.8 C12.2133349,17.0400012 12.4966654,17.2566657 12.8566672,17.45 C13.216669,17.6433343 13.6399981,17.8033327 14.1266672,17.93 C14.6133363,18.0566673 15.1366644,18.12 15.6966672,18.12 C16.190003,18.12 16.6699982,18.053334 17.1366672,17.92 C17.6033362,17.786666 18.0166654,17.5833347 18.3766672,17.31 C18.736669,17.0366653 19.0266661,16.6966687 19.2466672,16.29 C19.4666683,15.8833313 19.5766672,15.4000028 19.5766672,14.84 C19.5766672,14.3199974 19.4366686,13.8866684 19.1566672,13.54 C18.8766658,13.1933316 18.5266693,12.8966679 18.1066672,12.65 C17.6866651,12.4033321 17.230003,12.1900009 16.7366672,12.01 C16.2433314,11.8299991 15.7866693,11.6500009 15.3666672,11.47 C14.9466651,11.2899991 14.5966686,11.0933344 14.3166672,10.88 C14.0366658,10.6666656 13.8966672,10.4066682 13.8966672,10.1 C13.8966672,9.6466644 14.0799987,9.3100011 14.4466672,9.09 C14.8133357,8.8699989 15.249998,8.76 15.7566672,8.76 C16.183336,8.76 16.5299992,8.8166661 16.7966672,8.93 C17.0633352,9.0433339 17.2899996,9.166666 17.4766672,9.3 C17.6633348,9.433334 17.8333331,9.5566661 17.9866672,9.67 C18.1400013,9.7833339 18.3099996,9.84 18.4966672,9.84 C18.7633352,9.84 18.9633332,9.7666674 19.0966672,9.62 C19.2300012,9.4733326 19.2966672,9.3066676 19.2966672,9.12 C19.2966672,8.8399986 19.1800017,8.5866678 18.9466672,8.36 C18.7133327,8.1333322 18.4233356,7.9366675 18.0766672,7.77 C17.7299988,7.6033325 17.3466693,7.4733338 16.9266672,7.38 C16.5066651,7.2866662 16.116669,7.24 15.7566672,7.24 C15.316665,7.24 14.8800027,7.3033327 14.4466672,7.43 C14.0133317,7.5566673 13.6266689,7.7466654 13.2866672,8 C12.9466655,8.2533346 12.6700016,8.5666648 12.4566672,8.94 C12.2433328,9.3133352 12.1366672,9.7466642 12.1366672,10.24 L12.1366672,10.24 Z M21.6133344,12.68 C21.6133344,13.3866702 21.7100001,14.0666634 21.9033344,14.72 C22.0966687,15.3733366 22.3933324,15.9533308 22.7933344,16.46 C23.1933364,16.9666692 23.6933314,17.3699985 24.2933344,17.67 C24.8933374,17.9700015 25.599997,18.12 26.4133344,18.12 C27.333339,18.12 28.0299987,17.9733348 28.5033344,17.68 C28.9766701,17.3866652 29.2133344,17.073335 29.2133344,16.74 C29.2133344,16.4999988 29.1500017,16.3166673 29.0233344,16.19 C28.8966671,16.0633327 28.7333354,16 28.5333344,16 C28.4000004,16 28.2700017,16.0299997 28.1433344,16.09 C28.0166671,16.1500003 27.8766685,16.2199996 27.7233344,16.3 C27.5700003,16.3800004 27.3900021,16.4499997 27.1833344,16.51 C26.9766667,16.5700003 26.7200026,16.6 26.4133344,16.6 C25.866665,16.6 25.400003,16.4800012 25.0133344,16.24 C24.6266658,15.9999988 24.3133356,15.6900019 24.0733344,15.31 C23.8333332,14.9299981 23.6566683,14.5100023 23.5433344,14.05 C23.4300005,13.5899977 23.3733344,13.1333356 23.3733344,12.68 C23.3733344,12.2266644 23.4300005,11.7700023 23.5433344,11.31 C23.6566683,10.8499977 23.8333332,10.4300019 24.0733344,10.05 C24.3133356,9.6699981 24.6266658,9.3600012 25.0133344,9.12 C25.400003,8.8799988 25.866665,8.76 26.4133344,8.76 C26.7200026,8.76 26.9700001,8.7899997 27.1633344,8.85 C27.3566687,8.9100003 27.5300003,8.973333 27.6833344,9.04 C27.8366685,9.106667 27.9766671,9.1699997 28.1033344,9.23 C28.2300017,9.2900003 28.3800002,9.32 28.5533344,9.32 C28.7666688,9.32 28.9400004,9.2433341 29.0733344,9.09 C29.2066684,8.9366659 29.2733344,8.7666676 29.2733344,8.58 C29.2733344,8.2199982 29.0233369,7.906668 28.5233344,7.64 C28.0233319,7.373332 27.3200056,7.24 26.4133344,7.24 C25.599997,7.24 24.8933374,7.3899985 24.2933344,7.69 C23.6933314,7.9900015 23.1933364,8.3933308 22.7933344,8.9 C22.3933324,9.4066692 22.0966687,9.9866634 21.9033344,10.64 C21.7100001,11.2933366 21.6133344,11.9733298 21.6133344,12.68 L21.6133344,12.68 Z M1.72,57.36 L1,57.36 C0.4133304,57.36 0.12,57.6133308 0.12,58.12 C0.12,58.6266692 0.4133304,58.88 1,58.88 L1.72,58.88 L1.72,67.18 C1.72,67.4733348 1.7999992,67.7033325 1.96,67.87 C2.1200008,68.0366675 2.333332,68.12 2.6,68.12 C2.866668,68.12 3.0799992,68.0366675 3.24,67.87 C3.4000008,67.7033325 3.48,67.4733348 3.48,67.18 L3.48,58.88 L4.2,58.88 C4.7866696,58.88 5.08,58.6266692 5.08,58.12 C5.08,57.6133308 4.7866696,57.36 4.2,57.36 L3.48,57.36 L3.48,55.06 C3.48,54.7666652 3.4000008,54.5366675 3.24,54.37 C3.0799992,54.2033325 2.866668,54.12 2.6,54.12 C2.333332,54.12 2.1200008,54.2033325 1.96,54.37 C1.7999992,54.5366675 1.72,54.7666652 1.72,55.06 L1.72,57.36 Z M15.9766672,58.1 C15.9766672,57.7933318 15.8833348,57.573334 15.6966672,57.44 C15.5099996,57.306666 15.3300014,57.24 15.1566672,57.24 C14.9699996,57.24 14.7866681,57.306666 14.6066672,57.44 C14.4266663,57.573334 14.3366672,57.7933318 14.3366672,58.1 L14.3366672,58.66 L14.2966672,58.66 C13.8833318,58.2066644 13.4500028,57.8566679 12.9966672,57.61 C12.5433316,57.3633321 12.0100036,57.24 11.3966672,57.24 C10.6499968,57.24 9.9866701,57.3899985 9.4066672,57.69 C8.8266643,57.9900015 8.3366692,58.3933308 7.9366672,58.9 C7.5366652,59.4066692 7.2333349,59.9866634 7.0266672,60.64 C6.8199995,61.2933366 6.7166672,61.9733298 6.7166672,62.68 C6.7166672,63.3866702 6.8199995,64.0666634 7.0266672,64.72 C7.2333349,65.3733366 7.5366652,65.9533308 7.9366672,66.46 C8.3366692,66.9666692 8.8266643,67.3699985 9.4066672,67.67 C9.9866701,67.9700015 10.6499968,68.12 11.3966672,68.12 C11.9700034,68.12 12.4999981,67.9900013 12.9866672,67.73 C13.4733363,67.4699987 13.9099986,67.0666694 14.2966672,66.52 L14.3366672,66.52 L14.3366672,67.26 C14.3366672,67.5666682 14.4266663,67.786666 14.6066672,67.92 C14.7866681,68.053334 14.9699996,68.12 15.1566672,68.12 C15.3300014,68.12 15.5099996,68.053334 15.6966672,67.92 C15.8833348,67.786666 15.9766672,67.5666682 15.9766672,67.26 L15.9766672,58.1 Z M8.4766672,62.68 C8.4766672,62.2266644 8.5266667,61.7700023 8.6266672,61.31 C8.7266677,60.8499977 8.8933327,60.4300019 9.1266672,60.05 C9.3600017,59.6699981 9.663332,59.3600012 10.0366672,59.12 C10.4100024,58.8799988 10.8633312,58.76 11.3966672,58.76 C11.9433366,58.76 12.3999987,58.8799988 12.7666672,59.12 C13.1333357,59.3600012 13.4333327,59.6699981 13.6666672,60.05 C13.9000017,60.4300019 14.0666667,60.8499977 14.1666672,61.31 C14.2666677,61.7700023 14.3166672,62.2266644 14.3166672,62.68 C14.3166672,63.1333356 14.2666677,63.5899977 14.1666672,64.05 C14.0666667,64.5100023 13.9000017,64.9299981 13.6666672,65.31 C13.4333327,65.6900019 13.1333357,65.9999988 12.7666672,66.24 C12.3999987,66.4800012 11.9433366,66.6 11.3966672,66.6 C10.8633312,66.6 10.4100024,66.4800012 10.0366672,66.24 C9.663332,65.9999988 9.3600017,65.6900019 9.1266672,65.31 C8.8933327,64.9299981 8.7266677,64.5100023 8.6266672,64.05 C8.5266667,63.5899977 8.4766672,63.1333356 8.4766672,62.68 L8.4766672,62.68 Z M20.7733344,62.68 C20.7733344,62.2266644 20.8233339,61.7700023 20.9233344,61.31 C21.0233349,60.8499977 21.1899999,60.4300019 21.4233344,60.05 C21.6566689,59.6699981 21.9599992,59.3600012 22.3333344,59.12 C22.7066696,58.8799988 23.1599984,58.76 23.6933344,58.76 C24.2400038,58.76 24.6966659,58.8799988 25.0633344,59.12 C25.4300029,59.3600012 25.7299999,59.6699981 25.9633344,60.05 C26.1966689,60.4300019 26.3633339,60.8499977 26.4633344,61.31 C26.5633349,61.7700023 26.6133344,62.2266644 26.6133344,62.68 C26.6133344,63.1333356 26.5633349,63.5899977 26.4633344,64.05 C26.3633339,64.5100023 26.1966689,64.9299981 25.9633344,65.31 C25.7299999,65.6900019 25.4300029,65.9999988 25.0633344,66.24 C24.6966659,66.4800012 24.2400038,66.6 23.6933344,66.6 C23.1599984,66.6 22.7066696,66.4800012 22.3333344,66.24 C21.9599992,65.9999988 21.6566689,65.6900019 21.4233344,65.31 C21.1899999,64.9299981 21.0233349,64.5100023 20.9233344,64.05 C20.8233339,63.5899977 20.7733344,63.1333356 20.7733344,62.68 L20.7733344,62.68 Z M19.1933344,67.18 C19.1933344,67.4733348 19.2733336,67.7033325 19.4333344,67.87 C19.5933352,68.0366675 19.8066664,68.12 20.0733344,68.12 C20.3400024,68.12 20.5533336,68.0366675 20.7133344,67.87 C20.8733352,67.7033325 20.9533344,67.4733348 20.9533344,67.18 L20.9533344,66.66 L20.9933344,66.66 C21.5000036,67.6333382 22.4466608,68.12 23.8333344,68.12 C24.553338,68.12 25.1933316,67.9700015 25.7533344,67.67 C26.3133372,67.3699985 26.7899991,66.9666692 27.1833344,66.46 C27.5766697,65.9533308 27.8733334,65.3733366 28.0733344,64.72 C28.2733354,64.0666634 28.3733344,63.3866702 28.3733344,62.68 C28.3733344,61.9733298 28.2733354,61.2933366 28.0733344,60.64 C27.8733334,59.9866634 27.5766697,59.4066692 27.1833344,58.9 C26.7899991,58.3933308 26.3133372,57.9900015 25.7533344,57.69 C25.1933316,57.3899985 24.553338,57.24 23.8333344,57.24 C23.486666,57.24 23.1633359,57.2833329 22.8633344,57.37 C22.5633329,57.4566671 22.2933356,57.5699993 22.0533344,57.71 C21.8133332,57.8500007 21.6066686,58.0066658 21.4333344,58.18 C21.2600002,58.3533342 21.113335,58.5199992 20.9933344,58.68 L20.9533344,58.68 L20.9533344,53.5 C20.9533344,53.2066652 20.8733352,52.9766675 20.7133344,52.81 C20.5533336,52.6433325 20.3400024,52.56 20.0733344,52.56 C19.8066664,52.56 19.5933352,52.6433325 19.4333344,52.81 C19.2733336,52.9766675 19.1933344,53.2066652 19.1933344,53.5 L19.1933344,67.18 Z M8.3,112.68 C8.3,113.133336 8.2500005,113.589998 8.15,114.05 C8.0499995,114.510002 7.8833345,114.929998 7.65,115.31 C7.4166655,115.690002 7.1166685,115.999999 6.75,116.24 C6.3833315,116.480001 5.9266694,116.6 5.38,116.6 C4.846664,116.6 4.3933352,116.480001 4.02,116.24 C3.6466648,115.999999 3.3433345,115.690002 3.11,115.31 C2.8766655,114.929998 2.7100005,114.510002 2.61,114.05 C2.5099995,113.589998 2.46,113.133336 2.46,112.68 C2.46,112.226664 2.5099995,111.770002 2.61,111.31 C2.7100005,110.849998 2.8766655,110.430002 3.11,110.05 C3.3433345,109.669998 3.6466648,109.360001 4.02,109.12 C4.3933352,108.879999 4.846664,108.76 5.38,108.76 C5.9266694,108.76 6.3833315,108.879999 6.75,109.12 C7.1166685,109.360001 7.4166655,109.669998 7.65,110.05 C7.8833345,110.430002 8.0499995,110.849998 8.15,111.31 C8.2500005,111.770002 8.3,112.226664 8.3,112.68 L8.3,112.68 Z M8.12,117.18 C8.12,117.473335 8.1999992,117.703332 8.36,117.87 C8.5200008,118.036668 8.733332,118.12 9,118.12 C9.266668,118.12 9.4799992,118.036668 9.64,117.87 C9.8000008,117.703332 9.88,117.473335 9.88,117.18 L9.88,103.5 C9.88,103.206665 9.8000008,102.976668 9.64,102.81 C9.4799992,102.643332 9.266668,102.56 9,102.56 C8.733332,102.56 8.5200008,102.643332 8.36,102.81 C8.1999992,102.976668 8.12,103.206665 8.12,103.5 L8.12,108.68 L8.08,108.68 C7.9599994,108.519999 7.8133342,108.353334 7.64,108.18 C7.4666658,108.006666 7.2600012,107.850001 7.02,107.71 C6.7799988,107.569999 6.5100015,107.456667 6.21,107.37 C5.9099985,107.283333 5.5866684,107.24 5.24,107.24 C4.5199964,107.24 3.8800028,107.389998 3.32,107.69 C2.7599972,107.990002 2.2833353,108.393331 1.89,108.9 C1.4966647,109.406669 1.200001,109.986663 1,110.64 C0.799999,111.293337 0.7,111.97333 0.7,112.68 C0.7,113.38667 0.799999,114.066663 1,114.72 C1.200001,115.373337 1.4966647,115.953331 1.89,116.46 C2.2833353,116.966669 2.7599972,117.369999 3.32,117.67 C3.8800028,117.970001 4.5199964,118.12 5.24,118.12 C6.6266736,118.12 7.5733308,117.633338 8.08,116.66 L8.12,116.66 L8.12,117.18 Z M20.82,113.36 C21.2066686,113.36 21.466666,113.280001 21.6,113.12 C21.733334,112.959999 21.8,112.726668 21.8,112.42 C21.8,111.779997 21.6966677,111.150003 21.49,110.53 C21.2833323,109.909997 20.9866686,109.356669 20.6,108.87 C20.2133314,108.383331 19.7333362,107.990002 19.16,107.69 C18.5866638,107.389998 17.9400036,107.24 17.22,107.24 C16.4733296,107.24 15.8033363,107.386665 15.21,107.68 C14.6166637,107.973335 14.1166687,108.369998 13.71,108.87 C13.3033313,109.370002 12.9900011,109.949997 12.77,110.61 C12.5499989,111.270003 12.44,111.959996 12.44,112.68 C12.44,113.38667 12.5333324,114.066663 12.72,114.72 C12.9066676,115.373337 13.199998,115.953331 13.6,116.46 C14.000002,116.966669 14.5066636,117.369999 15.12,117.67 C15.7333364,117.970001 16.4666624,118.12 17.32,118.12 C17.8400026,118.12 18.3533308,118.046667 18.86,117.9 C19.3666692,117.753333 19.8233313,117.570001 20.23,117.35 C20.6366687,117.129999 20.9633321,116.893335 21.21,116.64 C21.4566679,116.386665 21.58,116.153334 21.58,115.94 C21.58,115.686665 21.513334,115.493334 21.38,115.36 C21.246666,115.226666 21.1000008,115.16 20.94,115.16 C20.7799992,115.16 20.6100009,115.233333 20.43,115.38 C20.2499991,115.526667 20.0300013,115.689999 19.77,115.87 C19.5099987,116.050001 19.1866686,116.216666 18.8,116.37 C18.4133314,116.523334 17.9266696,116.6 17.34,116.6 C16.8466642,116.6 16.4066686,116.516667 16.02,116.35 C15.6333314,116.183333 15.3033347,115.953335 15.03,115.66 C14.7566653,115.366665 14.5500007,115.023335 14.41,114.63 C14.2699993,114.236665 14.2,113.813336 14.2,113.36 L20.82,113.36 Z M14.2,112.04 C14.2133334,111.639998 14.2766661,111.240002 14.39,110.84 C14.5033339,110.439998 14.6799988,110.083335 14.92,109.77 C15.1600012,109.456665 15.4666648,109.203334 15.84,109.01 C16.2133352,108.816666 16.6733306,108.733333 17.22,108.76 C17.7000024,108.76 18.1199982,108.859999 18.48,109.06 C18.8400018,109.260001 19.1333322,109.516665 19.36,109.83 C19.5866678,110.143335 19.7566661,110.493331 19.87,110.88 C19.9833339,111.266669 20.04,111.653331 20.04,112.04 L14.2,112.04 Z M26.04,103.5 C26.04,103.206665 25.9600008,102.976668 25.8,102.81 C25.6399992,102.643332 25.426668,102.56 25.16,102.56 C24.893332,102.56 24.6800008,102.643332 24.52,102.81 C24.3599992,102.976668 24.28,103.206665 24.28,103.5 L24.28,117.18 C24.28,117.473335 24.3599992,117.703332 24.52,117.87 C24.6800008,118.036668 24.893332,118.12 25.16,118.12 C25.426668,118.12 25.6399992,118.036668 25.8,117.87 C25.9600008,117.703332 26.04,117.473335 26.04,117.18 L26.04,103.5 Z M36.9,113.36 C37.2866686,113.36 37.546666,113.280001 37.68,113.12 C37.813334,112.959999 37.88,112.726668 37.88,112.42 C37.88,111.779997 37.7766677,111.150003 37.57,110.53 C37.3633323,109.909997 37.0666686,109.356669 36.68,108.87 C36.2933314,108.383331 35.8133362,107.990002 35.24,107.69 C34.6666638,107.389998 34.0200036,107.24 33.3,107.24 C32.5533296,107.24 31.8833363,107.386665 31.29,107.68 C30.6966637,107.973335 30.1966687,108.369998 29.79,108.87 C29.3833313,109.370002 29.0700011,109.949997 28.85,110.61 C28.6299989,111.270003 28.52,111.959996 28.52,112.68 C28.52,113.38667 28.6133324,114.066663 28.8,114.72 C28.9866676,115.373337 29.279998,115.953331 29.68,116.46 C30.080002,116.966669 30.5866636,117.369999 31.2,117.67 C31.8133364,117.970001 32.5466624,118.12 33.4,118.12 C33.9200026,118.12 34.4333308,118.046667 34.94,117.9 C35.4466692,117.753333 35.9033313,117.570001 36.31,117.35 C36.7166687,117.129999 37.0433321,116.893335 37.29,116.64 C37.5366679,116.386665 37.66,116.153334 37.66,115.94 C37.66,115.686665 37.593334,115.493334 37.46,115.36 C37.326666,115.226666 37.1800008,115.16 37.02,115.16 C36.8599992,115.16 36.6900009,115.233333 36.51,115.38 C36.3299991,115.526667 36.1100013,115.689999 35.85,115.87 C35.5899987,116.050001 35.2666686,116.216666 34.88,116.37 C34.4933314,116.523334 34.0066696,116.6 33.42,116.6 C32.9266642,116.6 32.4866686,116.516667 32.1,116.35 C31.7133314,116.183333 31.3833347,115.953335 31.11,115.66 C30.8366653,115.366665 30.6300007,115.023335 30.49,114.63 C30.3499993,114.236665 30.28,113.813336 30.28,113.36 L36.9,113.36 Z M30.28,112.04 C30.2933334,111.639998 30.3566661,111.240002 30.47,110.84 C30.5833339,110.439998 30.7599988,110.083335 31,109.77 C31.2400012,109.456665 31.5466648,109.203334 31.92,109.01 C32.2933352,108.816666 32.7533306,108.733333 33.3,108.76 C33.7800024,108.76 34.1999982,108.859999 34.56,109.06 C34.9200018,109.260001 35.2133322,109.516665 35.44,109.83 C35.6666678,110.143335 35.8366661,110.493331 35.95,110.88 C36.0633339,111.266669 36.12,111.653331 36.12,112.04 L30.28,112.04 Z M40.92,107.36 L40.2,107.36 C39.6133304,107.36 39.32,107.613331 39.32,108.12 C39.32,108.626669 39.6133304,108.88 40.2,108.88 L40.92,108.88 L40.92,117.18 C40.92,117.473335 40.9999992,117.703332 41.16,117.87 C41.3200008,118.036668 41.533332,118.12 41.8,118.12 C42.066668,118.12 42.2799992,118.036668 42.44,117.87 C42.6000008,117.703332 42.68,117.473335 42.68,117.18 L42.68,108.88 L43.4,108.88 C43.9866696,108.88 44.28,108.626669 44.28,108.12 C44.28,107.613331 43.9866696,107.36 43.4,107.36 L42.68,107.36 L42.68,105.06 C42.68,104.766665 42.6000008,104.536668 42.44,104.37 C42.2799992,104.203332 42.066668,104.12 41.8,104.12 C41.533332,104.12 41.3200008,104.203332 41.16,104.37 C40.9999992,104.536668 40.92,104.766665 40.92,105.06 L40.92,107.36 Z M54.1,113.36 C54.4866686,113.36 54.746666,113.280001 54.88,113.12 C55.013334,112.959999 55.08,112.726668 55.08,112.42 C55.08,111.779997 54.9766677,111.150003 54.77,110.53 C54.5633323,109.909997 54.2666686,109.356669 53.88,108.87 C53.4933314,108.383331 53.0133362,107.990002 52.44,107.69 C51.8666638,107.389998 51.2200036,107.24 50.5,107.24 C49.7533296,107.24 49.0833363,107.386665 48.49,107.68 C47.8966637,107.973335 47.3966687,108.369998 46.99,108.87 C46.5833313,109.370002 46.2700011,109.949997 46.05,110.61 C45.8299989,111.270003 45.72,111.959996 45.72,112.68 C45.72,113.38667 45.8133324,114.066663 46,114.72 C46.1866676,115.373337 46.479998,115.953331 46.88,116.46 C47.280002,116.966669 47.7866636,117.369999 48.4,117.67 C49.0133364,117.970001 49.7466624,118.12 50.6,118.12 C51.1200026,118.12 51.6333308,118.046667 52.14,117.9 C52.6466692,117.753333 53.1033313,117.570001 53.51,117.35 C53.9166687,117.129999 54.2433321,116.893335 54.49,116.64 C54.7366679,116.386665 54.86,116.153334 54.86,115.94 C54.86,115.686665 54.793334,115.493334 54.66,115.36 C54.526666,115.226666 54.3800008,115.16 54.22,115.16 C54.0599992,115.16 53.8900009,115.233333 53.71,115.38 C53.5299991,115.526667 53.3100013,115.689999 53.05,115.87 C52.7899987,116.050001 52.4666686,116.216666 52.08,116.37 C51.6933314,116.523334 51.2066696,116.6 50.62,116.6 C50.1266642,116.6 49.6866686,116.516667 49.3,116.35 C48.9133314,116.183333 48.5833347,115.953335 48.31,115.66 C48.0366653,115.366665 47.8300007,115.023335 47.69,114.63 C47.5499993,114.236665 47.48,113.813336 47.48,113.36 L54.1,113.36 Z M47.48,112.04 C47.4933334,111.639998 47.5566661,111.240002 47.67,110.84 C47.7833339,110.439998 47.9599988,110.083335 48.2,109.77 C48.4400012,109.456665 48.7466648,109.203334 49.12,109.01 C49.4933352,108.816666 49.9533306,108.733333 50.5,108.76 C50.9800024,108.76 51.3999982,108.859999 51.76,109.06 C52.1200018,109.260001 52.4133322,109.516665 52.64,109.83 C52.8666678,110.143335 53.0366661,110.493331 53.15,110.88 C53.2633339,111.266669 53.32,111.653331 53.32,112.04 L47.48,112.04 Z M1.16,167.18 C1.16,167.473335 1.2399992,167.703332 1.4,167.87 C1.5600008,168.036668 1.773332,168.12 2.04,168.12 C2.306668,168.12 2.5199992,168.036668 2.68,167.87 C2.8400008,167.703332 2.92,167.473335 2.92,167.18 L2.92,162.12 C2.92,161.599997 2.9933326,161.160002 3.14,160.8 C3.2866674,160.439998 3.4699989,160.140001 3.69,159.9 C3.9100011,159.659999 4.1599986,159.476667 4.44,159.35 C4.7200014,159.223333 4.9866654,159.14 5.24,159.1 C5.973337,158.966666 6.34,158.646669 6.34,158.14 C6.34,157.886665 6.2533342,157.673334 6.08,157.5 C5.9066658,157.326666 5.6666682,157.24 5.36,157.24 C5.1066654,157.24 4.8566679,157.296666 4.61,157.41 C4.3633321,157.523334 4.1366677,157.669999 3.93,157.85 C3.7233323,158.030001 3.5366675,158.229999 3.37,158.45 C3.2033325,158.670001 3.0666672,158.879999 2.96,159.08 L2.92,159.08 L2.92,158.18 C2.92,157.886665 2.8400008,157.656667 2.68,157.49 C2.5199992,157.323332 2.306668,157.24 2.04,157.24 C1.773332,157.24 1.5600008,157.323332 1.4,157.49 C1.2399992,157.656667 1.16,157.886665 1.16,158.18 L1.16,167.18 Z M16,163.36 C16.3866686,163.36 16.646666,163.280001 16.78,163.12 C16.913334,162.959999 16.98,162.726668 16.98,162.42 C16.98,161.779997 16.8766677,161.150003 16.67,160.53 C16.4633323,159.909997 16.1666686,159.356669 15.78,158.87 C15.3933314,158.383331 14.9133362,157.990002 14.34,157.69 C13.7666638,157.389998 13.1200036,157.24 12.4,157.24 C11.6533296,157.24 10.9833363,157.386665 10.39,157.68 C9.7966637,157.973335 9.2966687,158.369998 8.89,158.87 C8.4833313,159.370002 8.1700011,159.949997 7.95,160.61 C7.7299989,161.270003 7.62,161.959996 7.62,162.68 C7.62,163.38667 7.7133324,164.066663 7.9,164.72 C8.0866676,165.373337 8.379998,165.953331 8.78,166.46 C9.180002,166.966669 9.6866636,167.369999 10.3,167.67 C10.9133364,167.970002 11.6466624,168.12 12.5,168.12 C13.0200026,168.12 13.5333308,168.046667 14.04,167.9 C14.5466692,167.753333 15.0033313,167.570001 15.41,167.35 C15.8166687,167.129999 16.1433321,166.893335 16.39,166.64 C16.6366679,166.386665 16.76,166.153334 16.76,165.94 C16.76,165.686665 16.693334,165.493334 16.56,165.36 C16.426666,165.226666 16.2800008,165.16 16.12,165.16 C15.9599992,165.16 15.7900009,165.233333 15.61,165.38 C15.4299991,165.526667 15.2100013,165.689999 14.95,165.87 C14.6899987,166.050001 14.3666686,166.216666 13.98,166.37 C13.5933314,166.523334 13.1066696,166.6 12.52,166.6 C12.0266642,166.6 11.5866686,166.516667 11.2,166.35 C10.8133314,166.183333 10.4833347,165.953335 10.21,165.66 C9.9366653,165.366665 9.7300007,165.023335 9.59,164.63 C9.4499993,164.236665 9.38,163.813336 9.38,163.36 L16,163.36 Z M9.38,162.04 C9.3933334,161.639998 9.4566661,161.240002 9.57,160.84 C9.6833339,160.439998 9.8599988,160.083335 10.1,159.77 C10.3400012,159.456665 10.6466648,159.203334 11.02,159.01 C11.3933352,158.816666 11.8533306,158.733333 12.4,158.76 C12.8800024,158.76 13.2999982,158.859999 13.66,159.06 C14.0200018,159.260001 14.3133322,159.516665 14.54,159.83 C14.7666678,160.143335 14.9366661,160.493331 15.05,160.88 C15.1633339,161.266669 15.22,161.653331 15.22,162.04 L9.38,162.04 Z M20.02,157.36 L19.3,157.36 C18.7133304,157.36 18.42,157.613331 18.42,158.12 C18.42,158.626669 18.7133304,158.88 19.3,158.88 L20.02,158.88 L20.02,167.18 C20.02,167.473335 20.0999992,167.703332 20.26,167.87 C20.4200008,168.036668 20.633332,168.12 20.9,168.12 C21.166668,168.12 21.3799992,168.036668 21.54,167.87 C21.7000008,167.703332 21.78,167.473335 21.78,167.18 L21.78,158.88 L22.5,158.88 C23.0866696,158.88 23.38,158.626669 23.38,158.12 C23.38,157.613331 23.0866696,157.36 22.5,157.36 L21.78,157.36 L21.78,155.06 C21.78,154.766665 21.7000008,154.536668 21.54,154.37 C21.3799992,154.203333 21.166668,154.12 20.9,154.12 C20.633332,154.12 20.4200008,154.203333 20.26,154.37 C20.0999992,154.536668 20.02,154.766665 20.02,155.06 L20.02,157.36 Z M25.46,163.88 C25.46,164.653337 25.5799988,165.309997 25.82,165.85 C26.0600012,166.390003 26.3766647,166.829998 26.77,167.17 C27.1633353,167.510002 27.6133308,167.753333 28.12,167.9 C28.6266692,168.046667 29.146664,168.12 29.68,168.12 C30.213336,168.12 30.7333308,168.046667 31.24,167.9 C31.7466692,167.753333 32.1966647,167.510002 32.59,167.17 C32.9833353,166.829998 33.2999988,166.390003 33.54,165.85 C33.7800012,165.309997 33.9,164.653337 33.9,163.88 L33.9,158.18 C33.9,157.886665 33.8200008,157.656667 33.66,157.49 C33.4999992,157.323332 33.286668,157.24 33.02,157.24 C32.753332,157.24 32.5400008,157.323332 32.38,157.49 C32.2199992,157.656667 32.14,157.886665 32.14,158.18 L32.14,163.82 C32.14,165.673343 31.3200082,166.6 29.68,166.6 C28.0399918,166.6 27.22,165.673343 27.22,163.82 L27.22,158.18 C27.22,157.886665 27.1400008,157.656667 26.98,157.49 C26.8199992,157.323332 26.606668,157.24 26.34,157.24 C26.073332,157.24 25.8600008,157.323332 25.7,157.49 C25.5399992,157.656667 25.46,157.886665 25.46,158.18 L25.46,163.88 Z M37.02,167.18 C37.02,167.473335 37.0999992,167.703332 37.26,167.87 C37.4200008,168.036668 37.633332,168.12 37.9,168.12 C38.166668,168.12 38.3799992,168.036668 38.54,167.87 C38.7000008,167.703332 38.78,167.473335 38.78,167.18 L38.78,162.12 C38.78,161.599997 38.8533326,161.160002 39,160.8 C39.1466674,160.439998 39.3299989,160.140001 39.55,159.9 C39.7700011,159.659999 40.0199986,159.476667 40.3,159.35 C40.5800014,159.223333 40.8466654,159.14 41.1,159.1 C41.833337,158.966666 42.2,158.646669 42.2,158.14 C42.2,157.886665 42.1133342,157.673334 41.94,157.5 C41.7666658,157.326666 41.5266682,157.24 41.22,157.24 C40.9666654,157.24 40.7166679,157.296666 40.47,157.41 C40.2233321,157.523334 39.9966677,157.669999 39.79,157.85 C39.5833323,158.030001 39.3966675,158.229999 39.23,158.45 C39.0633325,158.670001 38.9266672,158.879999 38.82,159.08 L38.78,159.08 L38.78,158.18 C38.78,157.886665 38.7000008,157.656667 38.54,157.49 C38.3799992,157.323332 38.166668,157.24 37.9,157.24 C37.633332,157.24 37.4200008,157.323332 37.26,157.49 C37.0999992,157.656667 37.02,157.886665 37.02,158.18 L37.02,167.18 Z M44.12,167.18 C44.12,167.473335 44.1999992,167.703332 44.36,167.87 C44.5200008,168.036668 44.733332,168.12 45,168.12 C45.266668,168.12 45.4799992,168.036668 45.64,167.87 C45.8000008,167.703332 45.88,167.473335 45.88,167.18 L45.88,161.38 C45.88,160.913331 45.9533326,160.513335 46.1,160.18 C46.2466674,159.846665 46.4366655,159.576668 46.67,159.37 C46.9033345,159.163332 47.1666652,159.01 47.46,158.91 C47.7533348,158.81 48.0466652,158.76 48.34,158.76 C48.6333348,158.76 48.9266652,158.81 49.22,158.91 C49.5133348,159.01 49.7766655,159.163332 50.01,159.37 C50.2433345,159.576668 50.4333326,159.846665 50.58,160.18 C50.7266674,160.513335 50.8,160.913331 50.8,161.38 L50.8,167.18 C50.8,167.473335 50.8799992,167.703332 51.04,167.87 C51.2000008,168.036668 51.413332,168.12 51.68,168.12 C51.946668,168.12 52.1599992,168.036668 52.32,167.87 C52.4800008,167.703332 52.56,167.473335 52.56,167.18 L52.56,161.28 C52.56,160.53333 52.4433345,159.903336 52.21,159.39 C51.9766655,158.876664 51.6800018,158.460002 51.32,158.14 C50.9599982,157.819998 50.5633355,157.590001 50.13,157.45 C49.6966645,157.309999 49.2733354,157.24 48.86,157.24 C48.326664,157.24 47.8000026,157.346666 47.28,157.56 C46.7599974,157.773334 46.3066686,158.133331 45.92,158.64 L45.88,158.6 L45.88,158.18 C45.88,157.886665 45.8000008,157.656667 45.64,157.49 C45.4799992,157.323332 45.266668,157.24 45,157.24 C44.733332,157.24 44.5200008,157.323332 44.36,157.49 C44.1999992,157.656667 44.12,157.886665 44.12,158.18 L44.12,167.18 Z M2.92,211.7 L6.62,211.7 C6.8733346,211.7 7.0799992,211.633334 7.24,211.5 C7.4000008,211.366666 7.48,211.160001 7.48,210.88 C7.48,210.599999 7.4000008,210.393334 7.24,210.26 C7.0799992,210.126666 6.8733346,210.06 6.62,210.06 L2.92,210.06 L2.92,205.4 L7.1,205.4 C7.3533346,205.4 7.5599992,205.333334 7.72,205.2 C7.8800008,205.066666 7.96,204.860001 7.96,204.58 C7.96,204.299999 7.8800008,204.093334 7.72,203.96 C7.5599992,203.826666 7.3533346,203.76 7.1,203.76 L2.1,203.76 C1.766665,203.76 1.5266674,203.853332 1.38,204.04 C1.2333326,204.226668 1.16,204.453332 1.16,204.72 L1.16,217.18 C1.16,217.473335 1.2399992,217.703332 1.4,217.87 C1.5600008,218.036667 1.773332,218.12 2.04,218.12 C2.306668,218.12 2.5199992,218.036667 2.68,217.87 C2.8400008,217.703332 2.92,217.473335 2.92,217.18 L2.92,211.7 Z M13.78,216.48 L18.56,210.12 C18.7866678,209.813332 18.966666,209.526668 19.1,209.26 C19.233334,208.993332 19.333333,208.740001 19.4,208.5 C19.466667,208.259999 19.5066666,208.030001 19.52,207.81 C19.5333334,207.589999 19.54,207.380001 19.54,207.18 C19.54,206.713331 19.4500009,206.270002 19.27,205.85 C19.0899991,205.429998 18.833335,205.053335 18.5,204.72 C18.166665,204.386665 17.7633357,204.123334 17.29,203.93 C16.8166643,203.736666 16.2866696,203.64 15.7,203.64 C14.966663,203.64 14.3166695,203.759999 13.75,204 C13.1833305,204.240001 12.7100019,204.566665 12.33,204.98 C11.9499981,205.393335 11.660001,205.869997 11.46,206.41 C11.259999,206.950003 11.16,207.51333 11.16,208.1 C11.16,208.820004 11.4466638,209.18 12.02,209.18 C12.2066676,209.18 12.3833325,209.123334 12.55,209.01 C12.7166675,208.896666 12.8,208.686668 12.8,208.38 C12.8,207.939998 12.8566661,207.523335 12.97,207.13 C13.0833339,206.736665 13.2499989,206.393335 13.47,206.1 C13.6900011,205.806665 13.9599984,205.576667 14.28,205.41 C14.6000016,205.243333 14.9733312,205.16 15.4,205.16 C16.0400032,205.16 16.5766645,205.366665 17.01,205.78 C17.4433355,206.193335 17.66,206.726663 17.66,207.38 C17.66,207.806669 17.5633343,208.236664 17.37,208.67 C17.1766657,209.103336 16.9266682,209.513331 16.62,209.9 L11.7,216.48 C11.5533326,216.693334 11.4533336,216.853333 11.4,216.96 C11.3466664,217.066667 11.32,217.173333 11.32,217.28 C11.32,217.426667 11.386666,217.583332 11.52,217.75 C11.653334,217.916668 11.9066648,218 12.28,218 L19.18,218 C19.3933344,218 19.5733326,217.926667 19.72,217.78 C19.8666674,217.633333 19.94,217.453334 19.94,217.24 C19.94,217.026666 19.8666674,216.846667 19.72,216.7 C19.5733326,216.553333 19.3933344,216.48 19.18,216.48 L13.78,216.48 Z" id="func-2" sketch:type="MSShapeGroup"></path>
            </g>
            <g id="mod" sketch:type="MSLayerGroup" transform="translate(10.000000, 21.000000)" fill="#000000">
                <path d="M0.92,10.24 C0.92,10.7333358 1.0599986,11.1499983 1.34,11.49 C1.6200014,11.8300017 1.9699979,12.1233321 2.39,12.37 C2.8100021,12.6166679 3.2666642,12.8366657 3.76,13.03 C4.2533358,13.2233343 4.7099979,13.419999 5.13,13.62 C5.5500021,13.820001 5.8999986,14.0399988 6.18,14.28 C6.4600014,14.5200012 6.6,14.8133316 6.6,15.16 C6.6,15.5200018 6.4166685,15.8499985 6.05,16.15 C5.6833315,16.4500015 5.1800032,16.6 4.54,16.6 C4.0599976,16.6 3.653335,16.533334 3.32,16.4 C2.986665,16.266666 2.6933346,16.1166675 2.44,15.95 C2.1866654,15.7833325 1.9666676,15.633334 1.78,15.5 C1.5933324,15.366666 1.400001,15.3 1.2,15.3 C1.0133324,15.3 0.8466674,15.3733326 0.7,15.52 C0.5533326,15.6666674 0.48,15.8599988 0.48,16.1 C0.48,16.3266678 0.5833323,16.5599988 0.79,16.8 C0.9966677,17.0400012 1.2799982,17.2566657 1.64,17.45 C2.0000018,17.6433343 2.4233309,17.8033327 2.91,17.93 C3.3966691,18.0566673 3.9199972,18.12 4.48,18.12 C4.9733358,18.12 5.453331,18.053334 5.92,17.92 C6.386669,17.786666 6.7999982,17.5833347 7.16,17.31 C7.5200018,17.0366653 7.8099989,16.6966687 8.03,16.29 C8.2500011,15.8833313 8.36,15.4000028 8.36,14.84 C8.36,14.3199974 8.2200014,13.8866684 7.94,13.54 C7.6599986,13.1933316 7.3100021,12.8966679 6.89,12.65 C6.4699979,12.4033321 6.0133358,12.1900009 5.52,12.01 C5.0266642,11.8299991 4.5700021,11.6500009 4.15,11.47 C3.7299979,11.2899991 3.3800014,11.0933344 3.1,10.88 C2.8199986,10.6666656 2.68,10.4066682 2.68,10.1 C2.68,9.6466644 2.8633315,9.3100011 3.23,9.09 C3.5966685,8.8699989 4.0333308,8.76 4.54,8.76 C4.9666688,8.76 5.313332,8.8166661 5.58,8.93 C5.846668,9.0433339 6.0733324,9.166666 6.26,9.3 C6.4466676,9.433334 6.6166659,9.5566661 6.77,9.67 C6.9233341,9.7833339 7.0933324,9.84 7.28,9.84 C7.546668,9.84 7.746666,9.7666674 7.88,9.62 C8.013334,9.4733326 8.08,9.3066676 8.08,9.12 C8.08,8.8399986 7.9633345,8.5866678 7.73,8.36 C7.4966655,8.1333322 7.2066684,7.9366675 6.86,7.77 C6.5133316,7.6033325 6.1300021,7.4733338 5.71,7.38 C5.2899979,7.2866662 4.9000018,7.24 4.54,7.24 C4.0999978,7.24 3.6633355,7.3033327 3.23,7.43 C2.7966645,7.5566673 2.4100017,7.7466654 2.07,8 C1.7299983,8.2533346 1.4533344,8.5666648 1.24,8.94 C1.0266656,9.3133352 0.92,9.7466642 0.92,10.24 L0.92,10.24 Z M17.5366672,17.18 C17.5366672,17.4733348 17.6166664,17.7033325 17.7766672,17.87 C17.936668,18.0366675 18.1499992,18.12 18.4166672,18.12 C18.6833352,18.12 18.8966664,18.0366675 19.0566672,17.87 C19.216668,17.7033325 19.2966672,17.4733348 19.2966672,17.18 L19.2966672,11.28 C19.2966672,10.5333296 19.1800017,9.9033359 18.9466672,9.39 C18.7133327,8.8766641 18.416669,8.4600016 18.0566672,8.14 C17.6966654,7.8199984 17.3000027,7.5900007 16.8666672,7.45 C16.4333317,7.3099993 16.0100026,7.24 15.5966672,7.24 C15.0633312,7.24 14.5366698,7.3466656 14.0166672,7.56 C13.4966646,7.7733344 13.0433358,8.1333308 12.6566672,8.64 L12.6166672,8.6 L12.6166672,3.5 C12.6166672,3.2066652 12.536668,2.9766675 12.3766672,2.81 C12.2166664,2.6433325 12.0033352,2.56 11.7366672,2.56 C11.4699992,2.56 11.256668,2.6433325 11.0966672,2.81 C10.9366664,2.9766675 10.8566672,3.2066652 10.8566672,3.5 L10.8566672,17.18 C10.8566672,17.4733348 10.9366664,17.7033325 11.0966672,17.87 C11.256668,18.0366675 11.4699992,18.12 11.7366672,18.12 C12.0033352,18.12 12.2166664,18.0366675 12.3766672,17.87 C12.536668,17.7033325 12.6166672,17.4733348 12.6166672,17.18 L12.6166672,11.38 C12.6166672,10.913331 12.6899998,10.513335 12.8366672,10.18 C12.9833346,9.846665 13.1733327,9.5766677 13.4066672,9.37 C13.6400017,9.1633323 13.9033324,9.0100005 14.1966672,8.91 C14.490002,8.8099995 14.7833324,8.76 15.0766672,8.76 C15.370002,8.76 15.6633324,8.8099995 15.9566672,8.91 C16.250002,9.0100005 16.5133327,9.1633323 16.7466672,9.37 C16.9800017,9.5766677 17.1699998,9.846665 17.3166672,10.18 C17.4633346,10.513335 17.5366672,10.913331 17.5366672,11.38 L17.5366672,17.18 Z M24.1933344,8.18 C24.1933344,7.8866652 24.1133352,7.6566675 23.9533344,7.49 C23.7933336,7.3233325 23.5800024,7.24 23.3133344,7.24 C23.0466664,7.24 22.8333352,7.3233325 22.6733344,7.49 C22.5133336,7.6566675 22.4333344,7.8866652 22.4333344,8.18 L22.4333344,17.18 C22.4333344,17.4733348 22.5133336,17.7033325 22.6733344,17.87 C22.8333352,18.0366675 23.0466664,18.12 23.3133344,18.12 C23.5800024,18.12 23.7933336,18.0366675 23.9533344,17.87 C24.1133352,17.7033325 24.1933344,17.4733348 24.1933344,17.18 L24.1933344,8.18 Z M22.2333344,4.72 C22.2333344,5.0266682 22.3366667,5.2833323 22.5433344,5.49 C22.7500021,5.6966677 23.0066662,5.8 23.3133344,5.8 C23.6200026,5.8 23.8766667,5.6966677 24.0833344,5.49 C24.2900021,5.2833323 24.3933344,5.0266682 24.3933344,4.72 C24.3933344,4.4133318 24.2900021,4.1566677 24.0833344,3.95 C23.8766667,3.7433323 23.6200026,3.64 23.3133344,3.64 C23.0066662,3.64 22.7500021,3.7433323 22.5433344,3.95 C22.3366667,4.1566677 22.2333344,4.4133318 22.2333344,4.72 L22.2333344,4.72 Z M29.6500016,8.88 L30.7500016,8.88 C31.3366712,8.88 31.6300016,8.6266692 31.6300016,8.12 C31.6300016,7.6133308 31.3366712,7.36 30.7500016,7.36 L29.6500016,7.36 L29.6500016,4.78 C29.6500016,4.5533322 29.7033344,4.3800006 29.8100016,4.26 C29.9166688,4.1399994 30.1033336,4.08 30.3700016,4.08 L30.8100016,4.08 C31.4500048,4.08 31.7700016,3.8266692 31.7700016,3.32 C31.7700016,3.0799988 31.6600027,2.893334 31.4400016,2.76 C31.2200005,2.626666 30.9966694,2.56 30.7700016,2.56 L30.2300016,2.56 C29.5899984,2.56 29.0400039,2.7499981 28.5800016,3.13 C28.1199993,3.5100019 27.8900016,4.0866628 27.8900016,4.86 L27.8900016,7.36 L27.1700016,7.36 C26.583332,7.36 26.2900016,7.6133308 26.2900016,8.12 C26.2900016,8.6266692 26.583332,8.88 27.1700016,8.88 L27.8900016,8.88 L27.8900016,17.18 C27.8900016,17.4733348 27.9700008,17.7033325 28.1300016,17.87 C28.2900024,18.0366675 28.5033336,18.12 28.7700016,18.12 C29.0366696,18.12 29.2500008,18.0366675 29.4100016,17.87 C29.5700024,17.7033325 29.6500016,17.4733348 29.6500016,17.18 L29.6500016,8.88 Z M33.8866688,7.36 L33.1666688,7.36 C32.5799992,7.36 32.2866688,7.6133308 32.2866688,8.12 C32.2866688,8.6266692 32.5799992,8.88 33.1666688,8.88 L33.8866688,8.88 L33.8866688,17.18 C33.8866688,17.4733348 33.966668,17.7033325 34.1266688,17.87 C34.2866696,18.0366675 34.5000008,18.12 34.7666688,18.12 C35.0333368,18.12 35.246668,18.0366675 35.4066688,17.87 C35.5666696,17.7033325 35.6466688,17.4733348 35.6466688,17.18 L35.6466688,8.88 L36.3666688,8.88 C36.9533384,8.88 37.2466688,8.6266692 37.2466688,8.12 C37.2466688,7.6133308 36.9533384,7.36 36.3666688,7.36 L35.6466688,7.36 L35.6466688,5.06 C35.6466688,4.7666652 35.5666696,4.5366675 35.4066688,4.37 C35.246668,4.2033325 35.0333368,4.12 34.7666688,4.12 C34.5000008,4.12 34.2866696,4.2033325 34.1266688,4.37 C33.966668,4.5366675 33.8866688,4.7666652 33.8866688,5.06 L33.8866688,7.36 Z M0.7,62.68 C0.7,63.3866702 0.7966657,64.0666634 0.99,64.72 C1.1833343,65.3733366 1.479998,65.9533308 1.88,66.46 C2.280002,66.9666692 2.779997,67.3699985 3.38,67.67 C3.980003,67.9700015 4.6866626,68.12 5.5,68.12 C6.4200046,68.12 7.1166643,67.9733348 7.59,67.68 C8.0633357,67.3866652 8.3,67.073335 8.3,66.74 C8.3,66.4999988 8.2366673,66.3166673 8.11,66.19 C7.9833327,66.0633327 7.820001,66 7.62,66 C7.486666,66 7.3566673,66.0299997 7.23,66.09 C7.1033327,66.1500003 6.9633341,66.2199996 6.81,66.3 C6.6566659,66.3800004 6.4766677,66.4499997 6.27,66.51 C6.0633323,66.5700003 5.8066682,66.6 5.5,66.6 C4.9533306,66.6 4.4866686,66.4800012 4.1,66.24 C3.7133314,65.9999988 3.4000012,65.6900019 3.16,65.31 C2.9199988,64.9299981 2.7433339,64.5100023 2.63,64.05 C2.5166661,63.5899977 2.46,63.1333356 2.46,62.68 C2.46,62.2266644 2.5166661,61.7700023 2.63,61.31 C2.7433339,60.8499977 2.9199988,60.4300019 3.16,60.05 C3.4000012,59.6699981 3.7133314,59.3600012 4.1,59.12 C4.4866686,58.8799988 4.9533306,58.76 5.5,58.76 C5.8066682,58.76 6.0566657,58.7899997 6.25,58.85 C6.4433343,58.9100003 6.6166659,58.973333 6.77,59.04 C6.9233341,59.106667 7.0633327,59.1699997 7.19,59.23 C7.3166673,59.2900003 7.4666658,59.32 7.64,59.32 C7.8533344,59.32 8.026666,59.2433341 8.16,59.09 C8.293334,58.9366659 8.36,58.7666676 8.36,58.58 C8.36,58.2199982 8.1100025,57.906668 7.61,57.64 C7.1099975,57.373332 6.4066712,57.24 5.5,57.24 C4.6866626,57.24 3.980003,57.3899985 3.38,57.69 C2.779997,57.9900015 2.280002,58.3933308 1.88,58.9 C1.479998,59.4066692 1.1833343,59.9866634 0.99,60.64 C0.7966657,61.2933366 0.7,61.9733298 0.7,62.68 L0.7,62.68 Z M10.3966672,62.68 C10.3966672,63.3866702 10.4999995,64.0666634 10.7066672,64.72 C10.9133349,65.3733366 11.2166652,65.9533308 11.6166672,66.46 C12.0166692,66.9666692 12.5066643,67.3699985 13.0866672,67.67 C13.6666701,67.9700015 14.3299968,68.12 15.0766672,68.12 C15.8233376,68.12 16.4866643,67.9700015 17.0666672,67.67 C17.6466701,67.3699985 18.1366652,66.9666692 18.5366672,66.46 C18.9366692,65.9533308 19.2399995,65.3733366 19.4466672,64.72 C19.6533349,64.0666634 19.7566672,63.3866702 19.7566672,62.68 C19.7566672,61.9733298 19.6533349,61.2933366 19.4466672,60.64 C19.2399995,59.9866634 18.9366692,59.4066692 18.5366672,58.9 C18.1366652,58.3933308 17.6466701,57.9900015 17.0666672,57.69 C16.4866643,57.3899985 15.8233376,57.24 15.0766672,57.24 C14.3299968,57.24 13.6666701,57.3899985 13.0866672,57.69 C12.5066643,57.9900015 12.0166692,58.3933308 11.6166672,58.9 C11.2166652,59.4066692 10.9133349,59.9866634 10.7066672,60.64 C10.4999995,61.2933366 10.3966672,61.9733298 10.3966672,62.68 L10.3966672,62.68 Z M12.1566672,62.68 C12.1566672,62.2266644 12.2066667,61.7700023 12.3066672,61.31 C12.4066677,60.8499977 12.5733327,60.4300019 12.8066672,60.05 C13.0400017,59.6699981 13.343332,59.3600012 13.7166672,59.12 C14.0900024,58.8799988 14.5433312,58.76 15.0766672,58.76 C15.6233366,58.76 16.0799987,58.8799988 16.4466672,59.12 C16.8133357,59.3600012 17.1133327,59.6699981 17.3466672,60.05 C17.5800017,60.4300019 17.7466667,60.8499977 17.8466672,61.31 C17.9466677,61.7700023 17.9966672,62.2266644 17.9966672,62.68 C17.9966672,63.1333356 17.9466677,63.5899977 17.8466672,64.05 C17.7466667,64.5100023 17.5800017,64.9299981 17.3466672,65.31 C17.1133327,65.6900019 16.8133357,65.9999988 16.4466672,66.24 C16.0799987,66.4800012 15.6233366,66.6 15.0766672,66.6 C14.5433312,66.6 14.0900024,66.4800012 13.7166672,66.24 C13.343332,65.9999988 13.0400017,65.6900019 12.8066672,65.31 C12.5733327,64.9299981 12.4066677,64.5100023 12.3066672,64.05 C12.2066667,63.5899977 12.1566672,63.1333356 12.1566672,62.68 L12.1566672,62.68 Z M22.4333344,67.18 C22.4333344,67.4733348 22.5133336,67.7033325 22.6733344,67.87 C22.8333352,68.0366675 23.0466664,68.12 23.3133344,68.12 C23.5800024,68.12 23.7933336,68.0366675 23.9533344,67.87 C24.1133352,67.7033325 24.1933344,67.4733348 24.1933344,67.18 L24.1933344,61.38 C24.1933344,60.913331 24.266667,60.513335 24.4133344,60.18 C24.5600018,59.846665 24.7499999,59.5766677 24.9833344,59.37 C25.2166689,59.1633323 25.4799996,59.0100005 25.7733344,58.91 C26.0666692,58.8099995 26.3599996,58.76 26.6533344,58.76 C26.9466692,58.76 27.2399996,58.8099995 27.5333344,58.91 C27.8266692,59.0100005 28.0899999,59.1633323 28.3233344,59.37 C28.5566689,59.5766677 28.746667,59.846665 28.8933344,60.18 C29.0400018,60.513335 29.1133344,60.913331 29.1133344,61.38 L29.1133344,67.18 C29.1133344,67.4733348 29.1933336,67.7033325 29.3533344,67.87 C29.5133352,68.0366675 29.7266664,68.12 29.9933344,68.12 C30.2600024,68.12 30.4733336,68.0366675 30.6333344,67.87 C30.7933352,67.7033325 30.8733344,67.4733348 30.8733344,67.18 L30.8733344,61.28 C30.8733344,60.5333296 30.7566689,59.9033359 30.5233344,59.39 C30.2899999,58.8766641 29.9933362,58.4600016 29.6333344,58.14 C29.2733326,57.8199984 28.8766699,57.5900007 28.4433344,57.45 C28.0099989,57.3099993 27.5866698,57.24 27.1733344,57.24 C26.6399984,57.24 26.113337,57.3466656 25.5933344,57.56 C25.0733318,57.7733344 24.620003,58.1333308 24.2333344,58.64 L24.1933344,58.6 L24.1933344,58.18 C24.1933344,57.8866652 24.1133352,57.6566675 23.9533344,57.49 C23.7933336,57.3233325 23.5800024,57.24 23.3133344,57.24 C23.0466664,57.24 22.8333352,57.3233325 22.6733344,57.49 C22.5133336,57.6566675 22.4333344,57.8866652 22.4333344,58.18 L22.4333344,67.18 Z M34.5700016,57.36 L33.8500016,57.36 C33.263332,57.36 32.9700016,57.6133308 32.9700016,58.12 C32.9700016,58.6266692 33.263332,58.88 33.8500016,58.88 L34.5700016,58.88 L34.5700016,67.18 C34.5700016,67.4733348 34.6500008,67.7033325 34.8100016,67.87 C34.9700024,68.0366675 35.1833336,68.12 35.4500016,68.12 C35.7166696,68.12 35.9300008,68.0366675 36.0900016,67.87 C36.2500024,67.7033325 36.3300016,67.4733348 36.3300016,67.18 L36.3300016,58.88 L37.0500016,58.88 C37.6366712,58.88 37.9300016,58.6266692 37.9300016,58.12 C37.9300016,57.6133308 37.6366712,57.36 37.0500016,57.36 L36.3300016,57.36 L36.3300016,55.06 C36.3300016,54.7666652 36.2500024,54.5366675 36.0900016,54.37 C35.9300008,54.2033325 35.7166696,54.12 35.4500016,54.12 C35.1833336,54.12 34.9700024,54.2033325 34.8100016,54.37 C34.6500008,54.5366675 34.5700016,54.7666652 34.5700016,55.06 L34.5700016,57.36 Z M40.0266688,67.18 C40.0266688,67.4733348 40.106668,67.7033325 40.2666688,67.87 C40.4266696,68.0366675 40.6400008,68.12 40.9066688,68.12 C41.1733368,68.12 41.386668,68.0366675 41.5466688,67.87 C41.7066696,67.7033325 41.7866688,67.4733348 41.7866688,67.18 L41.7866688,62.12 C41.7866688,61.5999974 41.8600014,61.1600018 42.0066688,60.8 C42.1533362,60.4399982 42.3366677,60.1400012 42.5566688,59.9 C42.7766699,59.6599988 43.0266674,59.4766673 43.3066688,59.35 C43.5866702,59.2233327 43.8533342,59.1400002 44.1066688,59.1 C44.8400058,58.966666 45.2066688,58.6466692 45.2066688,58.14 C45.2066688,57.8866654 45.120003,57.6733342 44.9466688,57.5 C44.7733346,57.3266658 44.533337,57.24 44.2266688,57.24 C43.9733342,57.24 43.7233367,57.2966661 43.4766688,57.41 C43.2300009,57.5233339 43.0033365,57.6699991 42.7966688,57.85 C42.5900011,58.0300009 42.4033363,58.2299989 42.2366688,58.45 C42.0700013,58.6700011 41.933336,58.879999 41.8266688,59.08 L41.7866688,59.08 L41.7866688,58.18 C41.7866688,57.8866652 41.7066696,57.6566675 41.5466688,57.49 C41.386668,57.3233325 41.1733368,57.24 40.9066688,57.24 C40.6400008,57.24 40.4266696,57.3233325 40.2666688,57.49 C40.106668,57.6566675 40.0266688,57.8866652 40.0266688,58.18 L40.0266688,67.18 Z M46.683336,62.68 C46.683336,63.3866702 46.7866683,64.0666634 46.993336,64.72 C47.2000037,65.3733366 47.503334,65.9533308 47.903336,66.46 C48.303338,66.9666692 48.7933331,67.3699985 49.373336,67.67 C49.9533389,67.9700015 50.6166656,68.12 51.363336,68.12 C52.1100064,68.12 52.7733331,67.9700015 53.353336,67.67 C53.9333389,67.3699985 54.423334,66.9666692 54.823336,66.46 C55.223338,65.9533308 55.5266683,65.3733366 55.733336,64.72 C55.9400037,64.0666634 56.043336,63.3866702 56.043336,62.68 C56.043336,61.9733298 55.9400037,61.2933366 55.733336,60.64 C55.5266683,59.9866634 55.223338,59.4066692 54.823336,58.9 C54.423334,58.3933308 53.9333389,57.9900015 53.353336,57.69 C52.7733331,57.3899985 52.1100064,57.24 51.363336,57.24 C50.6166656,57.24 49.9533389,57.3899985 49.373336,57.69 C48.7933331,57.9900015 48.303338,58.3933308 47.903336,58.9 C47.503334,59.4066692 47.2000037,59.9866634 46.993336,60.64 C46.7866683,61.2933366 46.683336,61.9733298 46.683336,62.68 L46.683336,62.68 Z M48.443336,62.68 C48.443336,62.2266644 48.4933355,61.7700023 48.593336,61.31 C48.6933365,60.8499977 48.8600015,60.4300019 49.093336,60.05 C49.3266705,59.6699981 49.6300008,59.3600012 50.003336,59.12 C50.3766712,58.8799988 50.83,58.76 51.363336,58.76 C51.9100054,58.76 52.3666675,58.8799988 52.733336,59.12 C53.1000045,59.3600012 53.4000015,59.6699981 53.633336,60.05 C53.8666705,60.4300019 54.0333355,60.8499977 54.133336,61.31 C54.2333365,61.7700023 54.283336,62.2266644 54.283336,62.68 C54.283336,63.1333356 54.2333365,63.5899977 54.133336,64.05 C54.0333355,64.5100023 53.8666705,64.9299981 53.633336,65.31 C53.4000015,65.6900019 53.1000045,65.9999988 52.733336,66.24 C52.3666675,66.4800012 51.9100054,66.6 51.363336,66.6 C50.83,66.6 50.3766712,66.4800012 50.003336,66.24 C49.6300008,65.9999988 49.3266705,65.6900019 49.093336,65.31 C48.8600015,64.9299981 48.6933365,64.5100023 48.593336,64.05 C48.4933355,63.5899977 48.443336,63.1333356 48.443336,62.68 L48.443336,62.68 Z M60.4800032,53.5 C60.4800032,53.2066652 60.400004,52.9766675 60.2400032,52.81 C60.0800024,52.6433325 59.8666712,52.56 59.6000032,52.56 C59.3333352,52.56 59.120004,52.6433325 58.9600032,52.81 C58.8000024,52.9766675 58.7200032,53.2066652 58.7200032,53.5 L58.7200032,67.18 C58.7200032,67.4733348 58.8000024,67.7033325 58.9600032,67.87 C59.120004,68.0366675 59.3333352,68.12 59.6000032,68.12 C59.8666712,68.12 60.0800024,68.0366675 60.2400032,67.87 C60.400004,67.7033325 60.4800032,67.4733348 60.4800032,67.18 L60.4800032,53.5 Z M0.7,112.68 C0.7,113.38667 0.7966657,114.066663 0.99,114.72 C1.1833343,115.373337 1.479998,115.953331 1.88,116.46 C2.280002,116.966669 2.779997,117.369999 3.38,117.67 C3.980003,117.970001 4.6866626,118.12 5.5,118.12 C6.4200046,118.12 7.1166643,117.973335 7.59,117.68 C8.0633357,117.386665 8.3,117.073335 8.3,116.74 C8.3,116.499999 8.2366673,116.316667 8.11,116.19 C7.9833327,116.063333 7.820001,116 7.62,116 C7.486666,116 7.3566673,116.03 7.23,116.09 C7.1033327,116.15 6.9633341,116.22 6.81,116.3 C6.6566659,116.38 6.4766677,116.45 6.27,116.51 C6.0633323,116.57 5.8066682,116.6 5.5,116.6 C4.9533306,116.6 4.4866686,116.480001 4.1,116.24 C3.7133314,115.999999 3.4000012,115.690002 3.16,115.31 C2.9199988,114.929998 2.7433339,114.510002 2.63,114.05 C2.5166661,113.589998 2.46,113.133336 2.46,112.68 C2.46,112.226664 2.5166661,111.770002 2.63,111.31 C2.7433339,110.849998 2.9199988,110.430002 3.16,110.05 C3.4000012,109.669998 3.7133314,109.360001 4.1,109.12 C4.4866686,108.879999 4.9533306,108.76 5.5,108.76 C5.8066682,108.76 6.0566657,108.79 6.25,108.85 C6.4433343,108.91 6.6166659,108.973333 6.77,109.04 C6.9233341,109.106667 7.0633327,109.17 7.19,109.23 C7.3166673,109.29 7.4666658,109.32 7.64,109.32 C7.8533344,109.32 8.026666,109.243334 8.16,109.09 C8.293334,108.936666 8.36,108.766668 8.36,108.58 C8.36,108.219998 8.1100025,107.906668 7.61,107.64 C7.1099975,107.373332 6.4066712,107.24 5.5,107.24 C4.6866626,107.24 3.980003,107.389998 3.38,107.69 C2.779997,107.990002 2.280002,108.393331 1.88,108.9 C1.479998,109.406669 1.1833343,109.986663 0.99,110.64 C0.7966657,111.293337 0.7,111.97333 0.7,112.68 L0.7,112.68 Z M10.38,112.68 C10.38,113.38667 10.4833323,114.066663 10.69,114.72 C10.8966677,115.373337 11.199998,115.953331 11.6,116.46 C12.000002,116.966669 12.4899971,117.369999 13.07,117.67 C13.6500029,117.970001 14.3133296,118.12 15.06,118.12 C15.8066704,118.12 16.4699971,117.970001 17.05,117.67 C17.6300029,117.369999 18.119998,116.966669 18.52,116.46 C18.920002,115.953331 19.2233323,115.373337 19.43,114.72 C19.6366677,114.066663 19.74,113.38667 19.74,112.68 C19.74,111.97333 19.6366677,111.293337 19.43,110.64 C19.2233323,109.986663 18.920002,109.406669 18.52,108.9 C18.119998,108.393331 17.6300029,107.990002 17.05,107.69 C16.4699971,107.389998 15.8066704,107.24 15.06,107.24 C14.3133296,107.24 13.6500029,107.389998 13.07,107.69 C12.4899971,107.990002 12.000002,108.393331 11.6,108.9 C11.199998,109.406669 10.8966677,109.986663 10.69,110.64 C10.4833323,111.293337 10.38,111.97333 10.38,112.68 L10.38,112.68 Z M12.14,112.68 C12.14,112.226664 12.1899995,111.770002 12.29,111.31 C12.3900005,110.849998 12.5566655,110.430002 12.79,110.05 C13.0233345,109.669998 13.3266648,109.360001 13.7,109.12 C14.0733352,108.879999 14.526664,108.76 15.06,108.76 C15.6066694,108.76 16.0633315,108.879999 16.43,109.12 C16.7966685,109.360001 17.0966655,109.669998 17.33,110.05 C17.5633345,110.430002 17.7299995,110.849998 17.83,111.31 C17.9300005,111.770002 17.98,112.226664 17.98,112.68 C17.98,113.133336 17.9300005,113.589998 17.83,114.05 C17.7299995,114.510002 17.5633345,114.929998 17.33,115.31 C17.0966655,115.690002 16.7966685,115.999999 16.43,116.24 C16.0633315,116.480001 15.6066694,116.6 15.06,116.6 C14.526664,116.6 14.0733352,116.480001 13.7,116.24 C13.3266648,115.999999 13.0233345,115.690002 12.79,115.31 C12.5566655,114.929998 12.3900005,114.510002 12.29,114.05 C12.1899995,113.589998 12.14,113.133336 12.14,112.68 L12.14,112.68 Z M28.7,117.18 C28.7,117.473335 28.7799992,117.703332 28.94,117.87 C29.1000008,118.036668 29.313332,118.12 29.58,118.12 C29.846668,118.12 30.0599992,118.036668 30.22,117.87 C30.3800008,117.703332 30.46,117.473335 30.46,117.18 L30.46,111.22 C30.46,110.459996 30.6566647,109.860002 31.05,109.42 C31.4433353,108.979998 31.9999964,108.76 32.72,108.76 C33.4400036,108.76 33.999998,108.979998 34.4,109.42 C34.800002,109.860002 35,110.459996 35,111.22 L35,117.18 C35,117.473335 35.0799992,117.703332 35.24,117.87 C35.4000008,118.036668 35.613332,118.12 35.88,118.12 C36.146668,118.12 36.3599992,118.036668 36.52,117.87 C36.6800008,117.703332 36.76,117.473335 36.76,117.18 L36.76,111.28 C36.76,110.53333 36.6433345,109.903336 36.41,109.39 C36.1766655,108.876664 35.8800018,108.460002 35.52,108.14 C35.1599982,107.819998 34.7633355,107.590001 34.33,107.45 C33.8966645,107.309999 33.4733354,107.24 33.06,107.24 C32.2866628,107.24 31.6466692,107.399998 31.14,107.72 C30.6333308,108.040002 30.1866686,108.479997 29.8,109.04 C29.399998,108.359997 28.9433359,107.890001 28.43,107.63 C27.9166641,107.369999 27.4000026,107.24 26.88,107.24 C26.479998,107.24 26.1366681,107.283333 25.85,107.37 C25.5633319,107.456667 25.3133344,107.563333 25.1,107.69 C24.8866656,107.816667 24.7100007,107.956666 24.57,108.11 C24.4299993,108.263334 24.3066672,108.406666 24.2,108.54 L24.16,108.5 L24.16,108.18 C24.16,107.886665 24.0800008,107.656668 23.92,107.49 C23.7599992,107.323332 23.546668,107.24 23.28,107.24 C23.013332,107.24 22.8000008,107.323332 22.64,107.49 C22.4799992,107.656668 22.4,107.886665 22.4,108.18 L22.4,117.18 C22.4,117.473335 22.4799992,117.703332 22.64,117.87 C22.8000008,118.036668 23.013332,118.12 23.28,118.12 C23.546668,118.12 23.7599992,118.036668 23.92,117.87 C24.0800008,117.703332 24.16,117.473335 24.16,117.18 L24.16,111.22 C24.16,110.459996 24.3566647,109.860002 24.75,109.42 C25.1433353,108.979998 25.6999964,108.76 26.42,108.76 C27.1400036,108.76 27.699998,108.979998 28.1,109.42 C28.500002,109.860002 28.7,110.459996 28.7,111.22 L28.7,117.18 Z M46.18,117.18 C46.18,117.473335 46.2599992,117.703332 46.42,117.87 C46.5800008,118.036668 46.793332,118.12 47.06,118.12 C47.326668,118.12 47.5399992,118.036668 47.7,117.87 C47.8600008,117.703332 47.94,117.473335 47.94,117.18 L47.94,111.22 C47.94,110.459996 48.1366647,109.860002 48.53,109.42 C48.9233353,108.979998 49.4799964,108.76 50.2,108.76 C50.9200036,108.76 51.479998,108.979998 51.88,109.42 C52.280002,109.860002 52.48,110.459996 52.48,111.22 L52.48,117.18 C52.48,117.473335 52.5599992,117.703332 52.72,117.87 C52.8800008,118.036668 53.093332,118.12 53.36,118.12 C53.626668,118.12 53.8399992,118.036668 54,117.87 C54.1600008,117.703332 54.24,117.473335 54.24,117.18 L54.24,111.28 C54.24,110.53333 54.1233345,109.903336 53.89,109.39 C53.6566655,108.876664 53.3600018,108.460002 53,108.14 C52.6399982,107.819998 52.2433355,107.590001 51.81,107.45 C51.3766645,107.309999 50.9533354,107.24 50.54,107.24 C49.7666628,107.24 49.1266692,107.399998 48.62,107.72 C48.1133308,108.040002 47.6666686,108.479997 47.28,109.04 C46.879998,108.359997 46.4233359,107.890001 45.91,107.63 C45.3966641,107.369999 44.8800026,107.24 44.36,107.24 C43.959998,107.24 43.6166681,107.283333 43.33,107.37 C43.0433319,107.456667 42.7933344,107.563333 42.58,107.69 C42.3666656,107.816667 42.1900007,107.956666 42.05,108.11 C41.9099993,108.263334 41.7866672,108.406666 41.68,108.54 L41.64,108.5 L41.64,108.18 C41.64,107.886665 41.5600008,107.656668 41.4,107.49 C41.2399992,107.323332 41.026668,107.24 40.76,107.24 C40.493332,107.24 40.2800008,107.323332 40.12,107.49 C39.9599992,107.656668 39.88,107.886665 39.88,108.18 L39.88,117.18 C39.88,117.473335 39.9599992,117.703332 40.12,117.87 C40.2800008,118.036668 40.493332,118.12 40.76,118.12 C41.026668,118.12 41.2399992,118.036668 41.4,117.87 C41.5600008,117.703332 41.64,117.473335 41.64,117.18 L41.64,111.22 C41.64,110.459996 41.8366647,109.860002 42.23,109.42 C42.6233353,108.979998 43.1799964,108.76 43.9,108.76 C44.6200036,108.76 45.179998,108.979998 45.58,109.42 C45.980002,109.860002 46.18,110.459996 46.18,111.22 L46.18,117.18 Z M66.16,108.1 C66.16,107.793332 66.0666676,107.573334 65.88,107.44 C65.6933324,107.306666 65.5133342,107.24 65.34,107.24 C65.1533324,107.24 64.9700009,107.306666 64.79,107.44 C64.6099991,107.573334 64.52,107.793332 64.52,108.1 L64.52,108.66 L64.48,108.66 C64.0666646,108.206664 63.6333356,107.856668 63.18,107.61 C62.7266644,107.363332 62.1933364,107.24 61.58,107.24 C60.8333296,107.24 60.1700029,107.389998 59.59,107.69 C59.0099971,107.990002 58.520002,108.393331 58.12,108.9 C57.719998,109.406669 57.4166677,109.986663 57.21,110.64 C57.0033323,111.293337 56.9,111.97333 56.9,112.68 C56.9,113.38667 57.0033323,114.066663 57.21,114.72 C57.4166677,115.373337 57.719998,115.953331 58.12,116.46 C58.520002,116.966669 59.0099971,117.369999 59.59,117.67 C60.1700029,117.970001 60.8333296,118.12 61.58,118.12 C62.1533362,118.12 62.6833309,117.990001 63.17,117.73 C63.6566691,117.469999 64.0933314,117.066669 64.48,116.52 L64.52,116.52 L64.52,117.26 C64.52,117.566668 64.6099991,117.786666 64.79,117.92 C64.9700009,118.053334 65.1533324,118.12 65.34,118.12 C65.5133342,118.12 65.6933324,118.053334 65.88,117.92 C66.0666676,117.786666 66.16,117.566668 66.16,117.26 L66.16,108.1 Z M58.66,112.68 C58.66,112.226664 58.7099995,111.770002 58.81,111.31 C58.9100005,110.849998 59.0766655,110.430002 59.31,110.05 C59.5433345,109.669998 59.8466648,109.360001 60.22,109.12 C60.5933352,108.879999 61.046664,108.76 61.58,108.76 C62.1266694,108.76 62.5833315,108.879999 62.95,109.12 C63.3166685,109.360001 63.6166655,109.669998 63.85,110.05 C64.0833345,110.430002 64.2499995,110.849998 64.35,111.31 C64.4500005,111.770002 64.5,112.226664 64.5,112.68 C64.5,113.133336 64.4500005,113.589998 64.35,114.05 C64.2499995,114.510002 64.0833345,114.929998 63.85,115.31 C63.6166655,115.690002 63.3166685,115.999999 62.95,116.24 C62.5833315,116.480001 62.1266694,116.6 61.58,116.6 C61.046664,116.6 60.5933352,116.480001 60.22,116.24 C59.8466648,115.999999 59.5433345,115.690002 59.31,115.31 C59.0766655,114.929998 58.9100005,114.510002 58.81,114.05 C58.7099995,113.589998 58.66,113.133336 58.66,112.68 L58.66,112.68 Z M69.28,117.18 C69.28,117.473335 69.3599992,117.703332 69.52,117.87 C69.6800008,118.036668 69.893332,118.12 70.16,118.12 C70.426668,118.12 70.6399992,118.036668 70.8,117.87 C70.9600008,117.703332 71.04,117.473335 71.04,117.18 L71.04,111.38 C71.04,110.913331 71.1133326,110.513335 71.26,110.18 C71.4066674,109.846665 71.5966655,109.576668 71.83,109.37 C72.0633345,109.163332 72.3266652,109.01 72.62,108.91 C72.9133348,108.81 73.2066652,108.76 73.5,108.76 C73.7933348,108.76 74.0866652,108.81 74.38,108.91 C74.6733348,109.01 74.9366655,109.163332 75.17,109.37 C75.4033345,109.576668 75.5933326,109.846665 75.74,110.18 C75.8866674,110.513335 75.96,110.913331 75.96,111.38 L75.96,117.18 C75.96,117.473335 76.0399992,117.703332 76.2,117.87 C76.3600008,118.036668 76.573332,118.12 76.84,118.12 C77.106668,118.12 77.3199992,118.036668 77.48,117.87 C77.6400008,117.703332 77.72,117.473335 77.72,117.18 L77.72,111.28 C77.72,110.53333 77.6033345,109.903336 77.37,109.39 C77.1366655,108.876664 76.8400018,108.460002 76.48,108.14 C76.1199982,107.819998 75.7233355,107.590001 75.29,107.45 C74.8566645,107.309999 74.4333354,107.24 74.02,107.24 C73.486664,107.24 72.9600026,107.346666 72.44,107.56 C71.9199974,107.773334 71.4666686,108.133331 71.08,108.64 L71.04,108.6 L71.04,108.18 C71.04,107.886665 70.9600008,107.656668 70.8,107.49 C70.6399992,107.323332 70.426668,107.24 70.16,107.24 C69.893332,107.24 69.6800008,107.323332 69.52,107.49 C69.3599992,107.656668 69.28,107.886665 69.28,108.18 L69.28,117.18 Z M87.98,112.68 C87.98,113.133336 87.9300005,113.589998 87.83,114.05 C87.7299995,114.510002 87.5633345,114.929998 87.33,115.31 C87.0966655,115.690002 86.7966685,115.999999 86.43,116.24 C86.0633315,116.480001 85.6066694,116.6 85.06,116.6 C84.526664,116.6 84.0733352,116.480001 83.7,116.24 C83.3266648,115.999999 83.0233345,115.690002 82.79,115.31 C82.5566655,114.929998 82.3900005,114.510002 82.29,114.05 C82.1899995,113.589998 82.14,113.133336 82.14,112.68 C82.14,112.226664 82.1899995,111.770002 82.29,111.31 C82.3900005,110.849998 82.5566655,110.430002 82.79,110.05 C83.0233345,109.669998 83.3266648,109.360001 83.7,109.12 C84.0733352,108.879999 84.526664,108.76 85.06,108.76 C85.6066694,108.76 86.0633315,108.879999 86.43,109.12 C86.7966685,109.360001 87.0966655,109.669998 87.33,110.05 C87.5633345,110.430002 87.7299995,110.849998 87.83,111.31 C87.9300005,111.770002 87.98,112.226664 87.98,112.68 L87.98,112.68 Z M87.8,117.18 C87.8,117.473335 87.8799992,117.703332 88.04,117.87 C88.2000008,118.036668 88.413332,118.12 88.68,118.12 C88.946668,118.12 89.1599992,118.036668 89.32,117.87 C89.4800008,117.703332 89.56,117.473335 89.56,117.18 L89.56,103.5 C89.56,103.206665 89.4800008,102.976668 89.32,102.81 C89.1599992,102.643332 88.946668,102.56 88.68,102.56 C88.413332,102.56 88.2000008,102.643332 88.04,102.81 C87.8799992,102.976668 87.8,103.206665 87.8,103.5 L87.8,108.68 L87.76,108.68 C87.6399994,108.519999 87.4933342,108.353334 87.32,108.18 C87.1466658,108.006666 86.9400012,107.850001 86.7,107.71 C86.4599988,107.569999 86.1900015,107.456667 85.89,107.37 C85.5899985,107.283333 85.2666684,107.24 84.92,107.24 C84.1999964,107.24 83.5600028,107.389998 83,107.69 C82.4399972,107.990002 81.9633353,108.393331 81.57,108.9 C81.1766647,109.406669 80.880001,109.986663 80.68,110.64 C80.479999,111.293337 80.38,111.97333 80.38,112.68 C80.38,113.38667 80.479999,114.066663 80.68,114.72 C80.880001,115.373337 81.1766647,115.953331 81.57,116.46 C81.9633353,116.966669 82.4399972,117.369999 83,117.67 C83.5600028,117.970001 84.1999964,118.12 84.92,118.12 C86.3066736,118.12 87.2533308,117.633338 87.76,116.66 L87.8,116.66 L87.8,117.18 Z M9.96,158.1 C9.96,157.793332 9.8666676,157.573334 9.68,157.44 C9.4933324,157.306666 9.3133342,157.24 9.14,157.24 C8.9533324,157.24 8.7700009,157.306666 8.59,157.44 C8.4099991,157.573334 8.32,157.793332 8.32,158.1 L8.32,158.66 L8.28,158.66 C7.8666646,158.206664 7.4333356,157.856668 6.98,157.61 C6.5266644,157.363332 5.9933364,157.24 5.38,157.24 C4.6333296,157.24 3.9700029,157.389998 3.39,157.69 C2.8099971,157.990002 2.320002,158.393331 1.92,158.9 C1.519998,159.406669 1.2166677,159.986663 1.01,160.64 C0.8033323,161.293337 0.7,161.97333 0.7,162.68 C0.7,163.38667 0.8033323,164.066663 1.01,164.72 C1.2166677,165.373337 1.519998,165.953331 1.92,166.46 C2.320002,166.966669 2.8099971,167.369999 3.39,167.67 C3.9700029,167.970002 4.6333296,168.12 5.38,168.12 C5.9533362,168.12 6.4833309,167.990001 6.97,167.73 C7.4566691,167.469999 7.8933314,167.066669 8.28,166.52 L8.32,166.52 L8.32,167.26 C8.32,167.566668 8.4099991,167.786666 8.59,167.92 C8.7700009,168.053334 8.9533324,168.12 9.14,168.12 C9.3133342,168.12 9.4933324,168.053334 9.68,167.92 C9.8666676,167.786666 9.96,167.566668 9.96,167.26 L9.96,158.1 Z M2.46,162.68 C2.46,162.226664 2.5099995,161.770002 2.61,161.31 C2.7100005,160.849998 2.8766655,160.430002 3.11,160.05 C3.3433345,159.669998 3.6466648,159.360001 4.02,159.12 C4.3933352,158.879999 4.846664,158.76 5.38,158.76 C5.9266694,158.76 6.3833315,158.879999 6.75,159.12 C7.1166685,159.360001 7.4166655,159.669998 7.65,160.05 C7.8833345,160.430002 8.0499995,160.849998 8.15,161.31 C8.2500005,161.770002 8.3,162.226664 8.3,162.68 C8.3,163.133336 8.2500005,163.589998 8.15,164.05 C8.0499995,164.510002 7.8833345,164.929998 7.65,165.31 C7.4166655,165.690002 7.1166685,165.999999 6.75,166.24 C6.3833315,166.480001 5.9266694,166.6 5.38,166.6 C4.846664,166.6 4.3933352,166.480001 4.02,166.24 C3.6466648,165.999999 3.3433345,165.690002 3.11,165.31 C2.8766655,164.929998 2.7100005,164.510002 2.61,164.05 C2.5099995,163.589998 2.46,163.133336 2.46,162.68 L2.46,162.68 Z M14.8566672,153.5 C14.8566672,153.206665 14.776668,152.976667 14.6166672,152.81 C14.4566664,152.643333 14.2433352,152.56 13.9766672,152.56 C13.7099992,152.56 13.496668,152.643333 13.3366672,152.81 C13.1766664,152.976667 13.0966672,153.206665 13.0966672,153.5 L13.0966672,167.18 C13.0966672,167.473335 13.1766664,167.703332 13.3366672,167.87 C13.496668,168.036668 13.7099992,168.12 13.9766672,168.12 C14.2433352,168.12 14.4566664,168.036668 14.6166672,167.87 C14.776668,167.703332 14.8566672,167.473335 14.8566672,167.18 L14.8566672,153.5 Z M18.5533344,157.36 L17.8333344,157.36 C17.2466648,157.36 16.9533344,157.613331 16.9533344,158.12 C16.9533344,158.626669 17.2466648,158.88 17.8333344,158.88 L18.5533344,158.88 L18.5533344,167.18 C18.5533344,167.473335 18.6333336,167.703332 18.7933344,167.87 C18.9533352,168.036668 19.1666664,168.12 19.4333344,168.12 C19.7000024,168.12 19.9133336,168.036668 20.0733344,167.87 C20.2333352,167.703332 20.3133344,167.473335 20.3133344,167.18 L20.3133344,158.88 L21.0333344,158.88 C21.620004,158.88 21.9133344,158.626669 21.9133344,158.12 C21.9133344,157.613331 21.620004,157.36 21.0333344,157.36 L20.3133344,157.36 L20.3133344,155.06 C20.3133344,154.766665 20.2333352,154.536668 20.0733344,154.37 C19.9133336,154.203333 19.7000024,154.12 19.4333344,154.12 C19.1666664,154.12 18.9533352,154.203333 18.7933344,154.37 C18.6333336,154.536668 18.5533344,154.766665 18.5533344,155.06 L18.5533344,157.36 Z M0.7,212.68 C0.7,213.38667 0.8033323,214.066663 1.01,214.72 C1.2166677,215.373337 1.519998,215.953331 1.92,216.46 C2.320002,216.966669 2.8099971,217.369999 3.39,217.67 C3.9700029,217.970001 4.6333296,218.12 5.38,218.12 C6.1266704,218.12 6.7899971,217.970001 7.37,217.67 C7.9500029,217.369999 8.439998,216.966669 8.84,216.46 C9.240002,215.953331 9.5433323,215.373337 9.75,214.72 C9.9566677,214.066663 10.06,213.38667 10.06,212.68 C10.06,211.97333 9.9566677,211.293337 9.75,210.64 C9.5433323,209.986663 9.240002,209.406669 8.84,208.9 C8.439998,208.393331 7.9500029,207.990002 7.37,207.69 C6.7899971,207.389998 6.1266704,207.24 5.38,207.24 C4.6333296,207.24 3.9700029,207.389998 3.39,207.69 C2.8099971,207.990002 2.320002,208.393331 1.92,208.9 C1.519998,209.406669 1.2166677,209.986663 1.01,210.64 C0.8033323,211.293337 0.7,211.97333 0.7,212.68 L0.7,212.68 Z M2.46,212.68 C2.46,212.226664 2.5099995,211.770002 2.61,211.31 C2.7100005,210.849998 2.8766655,210.430002 3.11,210.05 C3.3433345,209.669998 3.6466648,209.360001 4.02,209.12 C4.3933352,208.879999 4.846664,208.76 5.38,208.76 C5.9266694,208.76 6.3833315,208.879999 6.75,209.12 C7.1166685,209.360001 7.4166655,209.669998 7.65,210.05 C7.8833345,210.430002 8.0499995,210.849998 8.15,211.31 C8.2500005,211.770002 8.3,212.226664 8.3,212.68 C8.3,213.133336 8.2500005,213.589998 8.15,214.05 C8.0499995,214.510002 7.8833345,214.929998 7.65,215.31 C7.4166655,215.690002 7.1166685,215.999999 6.75,216.24 C6.3833315,216.480001 5.9266694,216.6 5.38,216.6 C4.846664,216.6 4.3933352,216.480001 4.02,216.24 C3.6466648,215.999999 3.3433345,215.690002 3.11,215.31 C2.8766655,214.929998 2.7100005,214.510002 2.61,214.05 C2.5099995,213.589998 2.46,213.133336 2.46,212.68 L2.46,212.68 Z M14.3966672,212.68 C14.3966672,212.226664 14.4466667,211.770002 14.5466672,211.31 C14.6466677,210.849998 14.8133327,210.430002 15.0466672,210.05 C15.2800017,209.669998 15.583332,209.360001 15.9566672,209.12 C16.3300024,208.879999 16.7833312,208.76 17.3166672,208.76 C17.8633366,208.76 18.3199987,208.879999 18.6866672,209.12 C19.0533357,209.360001 19.3533327,209.669998 19.5866672,210.05 C19.8200017,210.430002 19.9866667,210.849998 20.0866672,211.31 C20.1866677,211.770002 20.2366672,212.226664 20.2366672,212.68 C20.2366672,213.133336 20.1866677,213.589998 20.0866672,214.05 C19.9866667,214.510002 19.8200017,214.929998 19.5866672,215.31 C19.3533327,215.690002 19.0533357,215.999999 18.6866672,216.24 C18.3199987,216.480001 17.8633366,216.6 17.3166672,216.6 C16.7833312,216.6 16.3300024,216.480001 15.9566672,216.24 C15.583332,215.999999 15.2800017,215.690002 15.0466672,215.31 C14.8133327,214.929998 14.6466677,214.510002 14.5466672,214.05 C14.4466667,213.589998 14.3966672,213.133336 14.3966672,212.68 L14.3966672,212.68 Z M12.8166672,221.38 C12.8166672,221.673335 12.8966664,221.903333 13.0566672,222.07 C13.216668,222.236668 13.4299992,222.32 13.6966672,222.32 C13.9633352,222.32 14.1766664,222.236668 14.3366672,222.07 C14.496668,221.903333 14.5766672,221.673335 14.5766672,221.38 L14.5766672,216.68 L14.6166672,216.68 C14.7366678,216.840001 14.883333,217.006666 15.0566672,217.18 C15.2300014,217.353334 15.436666,217.509999 15.6766672,217.65 C15.9166684,217.790001 16.1866657,217.903333 16.4866672,217.99 C16.7866687,218.076667 17.1099988,218.12 17.4566672,218.12 C18.1766708,218.12 18.8166644,217.970001 19.3766672,217.67 C19.93667,217.369999 20.4133319,216.966669 20.8066672,216.46 C21.2000025,215.953331 21.4966662,215.373337 21.6966672,214.72 C21.8966682,214.066663 21.9966672,213.38667 21.9966672,212.68 C21.9966672,211.97333 21.8966682,211.293337 21.6966672,210.64 C21.4966662,209.986663 21.2000025,209.406669 20.8066672,208.9 C20.4133319,208.393331 19.93667,207.990002 19.3766672,207.69 C18.8166644,207.389998 18.1766708,207.24 17.4566672,207.24 C16.0699936,207.24 15.1233364,207.726662 14.6166672,208.7 L14.5766672,208.7 L14.5766672,208.18 C14.5766672,207.886665 14.496668,207.656667 14.3366672,207.49 C14.1766664,207.323332 13.9633352,207.24 13.6966672,207.24 C13.4299992,207.24 13.216668,207.323332 13.0566672,207.49 C12.8966664,207.656667 12.8166672,207.886665 12.8166672,208.18 L12.8166672,221.38 Z M25.2333344,207.36 L24.5133344,207.36 C23.9266648,207.36 23.6333344,207.613331 23.6333344,208.12 C23.6333344,208.626669 23.9266648,208.88 24.5133344,208.88 L25.2333344,208.88 L25.2333344,217.18 C25.2333344,217.473335 25.3133336,217.703332 25.4733344,217.87 C25.6333352,218.036667 25.8466664,218.12 26.1133344,218.12 C26.3800024,218.12 26.5933336,218.036667 26.7533344,217.87 C26.9133352,217.703332 26.9933344,217.473335 26.9933344,217.18 L26.9933344,208.88 L27.7133344,208.88 C28.300004,208.88 28.5933344,208.626669 28.5933344,208.12 C28.5933344,207.613331 28.300004,207.36 27.7133344,207.36 L26.9933344,207.36 L26.9933344,205.06 C26.9933344,204.766665 26.9133352,204.536667 26.7533344,204.37 C26.5933336,204.203332 26.3800024,204.12 26.1133344,204.12 C25.8466664,204.12 25.6333352,204.203332 25.4733344,204.37 C25.3133336,204.536667 25.2333344,204.766665 25.2333344,205.06 L25.2333344,207.36 Z M32.4500016,208.18 C32.4500016,207.886665 32.3700024,207.656667 32.2100016,207.49 C32.0500008,207.323332 31.8366696,207.24 31.5700016,207.24 C31.3033336,207.24 31.0900024,207.323332 30.9300016,207.49 C30.7700008,207.656667 30.6900016,207.886665 30.6900016,208.18 L30.6900016,217.18 C30.6900016,217.473335 30.7700008,217.703332 30.9300016,217.87 C31.0900024,218.036667 31.3033336,218.12 31.5700016,218.12 C31.8366696,218.12 32.0500008,218.036667 32.2100016,217.87 C32.3700024,217.703332 32.4500016,217.473335 32.4500016,217.18 L32.4500016,208.18 Z M30.4900016,204.72 C30.4900016,205.026668 30.5933339,205.283332 30.8000016,205.49 C31.0066693,205.696668 31.2633334,205.8 31.5700016,205.8 C31.8766698,205.8 32.1333339,205.696668 32.3400016,205.49 C32.5466693,205.283332 32.6500016,205.026668 32.6500016,204.72 C32.6500016,204.413332 32.5466693,204.156668 32.3400016,203.95 C32.1333339,203.743332 31.8766698,203.64 31.5700016,203.64 C31.2633334,203.64 31.0066693,203.743332 30.8000016,203.95 C30.5933339,204.156668 30.4900016,204.413332 30.4900016,204.72 L30.4900016,204.72 Z M35.1266688,212.68 C35.1266688,213.38667 35.2300011,214.066663 35.4366688,214.72 C35.6433365,215.373337 35.9466668,215.953331 36.3466688,216.46 C36.7466708,216.966669 37.2366659,217.369999 37.8166688,217.67 C38.3966717,217.970001 39.0599984,218.12 39.8066688,218.12 C40.5533392,218.12 41.2166659,217.970001 41.7966688,217.67 C42.3766717,217.369999 42.8666668,216.966669 43.2666688,216.46 C43.6666708,215.953331 43.9700011,215.373337 44.1766688,214.72 C44.3833365,214.066663 44.4866688,213.38667 44.4866688,212.68 C44.4866688,211.97333 44.3833365,211.293337 44.1766688,210.64 C43.9700011,209.986663 43.6666708,209.406669 43.2666688,208.9 C42.8666668,208.393331 42.3766717,207.990002 41.7966688,207.69 C41.2166659,207.389998 40.5533392,207.24 39.8066688,207.24 C39.0599984,207.24 38.3966717,207.389998 37.8166688,207.69 C37.2366659,207.990002 36.7466708,208.393331 36.3466688,208.9 C35.9466668,209.406669 35.6433365,209.986663 35.4366688,210.64 C35.2300011,211.293337 35.1266688,211.97333 35.1266688,212.68 L35.1266688,212.68 Z M36.8866688,212.68 C36.8866688,212.226664 36.9366683,211.770002 37.0366688,211.31 C37.1366693,210.849998 37.3033343,210.430002 37.5366688,210.05 C37.7700033,209.669998 38.0733336,209.360001 38.4466688,209.12 C38.820004,208.879999 39.2733328,208.76 39.8066688,208.76 C40.3533382,208.76 40.8100003,208.879999 41.1766688,209.12 C41.5433373,209.360001 41.8433343,209.669998 42.0766688,210.05 C42.3100033,210.430002 42.4766683,210.849998 42.5766688,211.31 C42.6766693,211.770002 42.7266688,212.226664 42.7266688,212.68 C42.7266688,213.133336 42.6766693,213.589998 42.5766688,214.05 C42.4766683,214.510002 42.3100033,214.929998 42.0766688,215.31 C41.8433343,215.690002 41.5433373,215.999999 41.1766688,216.24 C40.8100003,216.480001 40.3533382,216.6 39.8066688,216.6 C39.2733328,216.6 38.820004,216.480001 38.4466688,216.24 C38.0733336,215.999999 37.7700033,215.690002 37.5366688,215.31 C37.3033343,214.929998 37.1366693,214.510002 37.0366688,214.05 C36.9366683,213.589998 36.8866688,213.133336 36.8866688,212.68 L36.8866688,212.68 Z M47.163336,217.18 C47.163336,217.473335 47.2433352,217.703332 47.403336,217.87 C47.5633368,218.036667 47.776668,218.12 48.043336,218.12 C48.310004,218.12 48.5233352,218.036667 48.683336,217.87 C48.8433368,217.703332 48.923336,217.473335 48.923336,217.18 L48.923336,211.38 C48.923336,210.913331 48.9966686,210.513335 49.143336,210.18 C49.2900034,209.846665 49.4800015,209.576668 49.713336,209.37 C49.9466705,209.163332 50.2100012,209.01 50.503336,208.91 C50.7966708,208.81 51.0900012,208.76 51.383336,208.76 C51.6766708,208.76 51.9700012,208.81 52.263336,208.91 C52.5566708,209.01 52.8200015,209.163332 53.053336,209.37 C53.2866705,209.576668 53.4766686,209.846665 53.623336,210.18 C53.7700034,210.513335 53.843336,210.913331 53.843336,211.38 L53.843336,217.18 C53.843336,217.473335 53.9233352,217.703332 54.083336,217.87 C54.2433368,218.036667 54.456668,218.12 54.723336,218.12 C54.990004,218.12 55.2033352,218.036667 55.363336,217.87 C55.5233368,217.703332 55.603336,217.473335 55.603336,217.18 L55.603336,211.28 C55.603336,210.53333 55.4866705,209.903336 55.253336,209.39 C55.0200015,208.876664 54.7233378,208.460002 54.363336,208.14 C54.0033342,207.819998 53.6066715,207.590001 53.173336,207.45 C52.7400005,207.309999 52.3166714,207.24 51.903336,207.24 C51.37,207.24 50.8433386,207.346666 50.323336,207.56 C49.8033334,207.773334 49.3500046,208.133331 48.963336,208.64 L48.923336,208.6 L48.923336,208.18 C48.923336,207.886665 48.8433368,207.656667 48.683336,207.49 C48.5233352,207.323332 48.310004,207.24 48.043336,207.24 C47.776668,207.24 47.5633368,207.323332 47.403336,207.49 C47.2433352,207.656667 47.163336,207.886665 47.163336,208.18 L47.163336,217.18 Z" id="mod-2" sketch:type="MSShapeGroup"></path>
            </g>
        </g>
    </g>
</svg>