<svg width="120" height="1050" viewBox="0 0 120 1050" xmlns="http://www.w3.org/2000/svg"><title>keys</title><g fill="none" fill-rule="evenodd"><path d="M56.865 721.055h6.27l.874 2.432c.062.177.157.326.284.447.127.12.304.18.532.18.215 0 .402-.063.56-.19.16-.127.238-.298.238-.513 0-.113-.032-.26-.095-.436-.064-.177-.11-.31-.134-.4l-4.2-11.19c-.1-.29-.243-.535-.426-.732-.184-.196-.44-.294-.77-.294s-.586.098-.77.295c-.183.196-.326.44-.427.73l-4.2 11.192c-.024.09-.07.222-.132.4-.062.176-.094.322-.094.436 0 .216.08.387.238.514.158.127.345.19.56.19.228 0 .405-.06.532-.18s.222-.27.285-.447l.875-2.432zm5.757-1.444h-5.244l2.603-7.314h.04l2.602 7.315zm-5.88 47.626c0-.646.08-1.292.237-1.938.157-.646.407-1.23.75-1.748.342-.52.782-.94 1.32-1.264.538-.323 1.18-.484 1.928-.484.52 0 .944.07 1.273.21.33.138.61.29.837.455.23.165.425.317.59.456.164.14.34.21.532.21.214 0 .382-.08.502-.24.12-.157.18-.344.18-.56 0-.176-.09-.376-.275-.598-.184-.22-.446-.436-.79-.646-.34-.21-.752-.384-1.233-.523-.482-.14-1.02-.21-1.616-.21-1 0-1.877.194-2.63.58-.755.387-1.382.9-1.882 1.54s-.877 1.374-1.13 2.204c-.254.83-.38 1.682-.38 2.556 0 .874.126 1.726.38 2.555.253.83.626 1.566 1.12 2.205.495.64 1.112 1.153 1.853 1.54.74.386 1.598.58 2.573.58.596 0 1.153-.058 1.672-.172.52-.114.976-.263 1.368-.447.393-.183.7-.386.922-.608.222-.22.332-.44.332-.655 0-.24-.06-.43-.18-.57-.12-.14-.282-.21-.484-.21-.178 0-.37.064-.58.19-.21.128-.456.267-.74.42-.286.15-.615.29-.99.417-.373.127-.813.19-1.32.19-.722 0-1.342-.16-1.86-.484-.52-.324-.948-.745-1.284-1.264-.337-.52-.587-1.102-.752-1.748-.164-.646-.246-1.292-.246-1.938zm-1.53 55.852c0 .253.07.47.21.646.138.177.366.266.683.266h3.515c.912 0 1.726-.168 2.442-.504.715-.335 1.32-.804 1.814-1.406.494-.6.87-1.32 1.13-2.156.26-.836.39-1.76.39-2.774 0-.9-.123-1.75-.37-2.556-.248-.804-.62-1.513-1.12-2.128-.502-.614-1.126-1.1-1.873-1.463-.747-.36-1.628-.54-2.64-.54h-3.288c-.317 0-.545.088-.684.265-.138.177-.208.393-.208.646v11.704zm1.672-11.172h2.28c.798 0 1.48.142 2.042.427.564.286 1.023.67 1.378 1.15.355.48.614 1.04.78 1.672.164.633.246 1.298.246 1.995 0 .684-.08 1.352-.237 2.005-.16.652-.41 1.228-.75 1.73-.343.5-.79.9-1.34 1.205-.552.304-1.22.456-2.005.456h-2.394v-10.64zm3.135 59.386h-.04l-3.42-9.86c-.1-.292-.214-.546-.34-.76-.128-.216-.356-.324-.685-.324-.228 0-.408.07-.54.21-.135.138-.2.297-.2.474 0 .203.037.418.113.646l4.123 11.514c.102.28.216.5.343.665.127.165.336.247.627.247.29 0 .5-.082.627-.247.127-.165.24-.386.342-.665l4.122-11.514c.076-.228.114-.443.114-.646 0-.177-.066-.336-.2-.475-.133-.14-.313-.21-.54-.21-.33 0-.558.11-.685.324-.126.216-.24.47-.34.76l-3.42 9.862zm-.02 46.75l3.876 5.53c.177.24.326.39.447.446.12.057.25.086.39.086.19 0 .363-.066.522-.2.158-.133.237-.3.237-.503 0-.138-.028-.265-.085-.38-.058-.113-.118-.214-.18-.303l-4.238-5.985 3.533-4.997c.177-.253.266-.48.266-.684 0-.214-.074-.385-.22-.512-.145-.127-.32-.19-.522-.19-.14 0-.275.032-.41.095-.132.063-.28.21-.445.437L60 915.526l-3.173-4.636c-.165-.228-.313-.374-.447-.437-.133-.063-.27-.095-.408-.095-.203 0-.377.063-.523.19-.146.127-.22.298-.22.513 0 .204.09.432.267.685l3.534 4.997-4.236 5.985c-.063.09-.123.19-.18.304-.058.115-.086.242-.086.38 0 .204.08.37.238.504.158.134.332.2.522.2.14 0 .27-.03.39-.085.12-.058.27-.207.446-.448l3.876-5.53zm-.836 55.17c0 .278.076.496.228.654.152.16.355.238.608.238s.456-.08.608-.238c.152-.158.228-.376.228-.655v-5.566l3.63-5.91c.176-.278.265-.512.265-.702 0-.215-.072-.383-.218-.504-.145-.12-.326-.18-.54-.18-.153 0-.3.035-.438.104-.14.07-.272.213-.4.428L60 966l-3.135-5.11c-.127-.215-.26-.358-.4-.428-.138-.07-.284-.104-.436-.104-.216 0-.397.06-.543.18-.145.12-.218.29-.218.504 0 .19.088.424.265.703l3.63 5.91v5.566zm-3.667 49.125c-.14.203-.228.367-.266.494-.037.128-.056.26-.056.4 0 .24.076.427.228.56.152.134.405.2.76.2h7.847c.24 0 .436-.06.588-.18.152-.12.228-.3.228-.542 0-.24-.076-.42-.228-.542-.152-.12-.348-.18-.59-.18h-6.82l6.973-10.43c.178-.254.292-.45.343-.59.05-.14.076-.298.076-.475 0-.15-.077-.287-.23-.408-.15-.12-.366-.18-.645-.18h-7.39c-.242 0-.438.06-.59.18-.152.12-.228.3-.228.542 0 .24.076.42.228.54.152.122.348.182.59.182h6.136l-6.953 10.43z" fill="#FFF"/><g fill="#FFF"><path d="M57 658l5-2v4M60 611l2-5h-4M63 558l-5 2v-4M60 505l2 5h-4"/></g><path d="M13.675 273.52c.29 0 .485-.06.585-.18.1-.12.15-.295.15-.525 0-.48-.077-.952-.232-1.417-.156-.466-.378-.88-.668-1.246-.29-.365-.65-.66-1.08-.885-.43-.225-.915-.337-1.455-.337-.56 0-1.062.11-1.507.33-.446.22-.82.517-1.125.893-.306.375-.54.81-.705 1.304-.166.496-.248 1.013-.248 1.553 0 .53.07 1.04.21 1.53.14.49.36.925.66 1.305.3.38.68.682 1.14.907.46.226 1.01.338 1.65.338.39 0 .775-.055 1.155-.165.38-.11.722-.247 1.028-.413.305-.165.55-.342.735-.532.185-.19.277-.365.277-.525 0-.19-.05-.335-.15-.435-.1-.1-.21-.15-.33-.15-.12 0-.247.055-.382.165-.136.11-.3.232-.495.367-.196.136-.438.26-.728.375-.29.116-.655.173-1.095.173-.37 0-.7-.062-.99-.188-.29-.125-.537-.297-.742-.517-.206-.22-.36-.477-.465-.772-.106-.296-.158-.613-.158-.953h4.965zm-4.965-.99c.01-.3.057-.6.143-.9.085-.3.217-.567.397-.803.18-.235.41-.424.69-.57.28-.145.625-.207 1.035-.187.36 0 .675.075.945.225.27.15.49.342.66.577.17.236.297.498.383.788.085.29.127.58.127.87H8.71zm7.39-1.35c0 .37.105.682.315.937.21.256.472.475.788.66.315.186.657.35 1.027.495.37.146.712.293 1.027.443.316.15.578.315.788.495.21.18.315.4.315.66 0 .27-.137.517-.412.743-.276.225-.653.337-1.133.337-.36 0-.665-.05-.915-.15-.25-.1-.47-.212-.66-.338-.19-.125-.355-.237-.495-.337-.14-.1-.285-.15-.435-.15-.14 0-.265.055-.375.165-.11.11-.165.255-.165.435 0 .17.077.345.233.525.155.18.367.342.637.488.27.145.587.264.952.36.366.095.758.142 1.178.142.37 0 .73-.05 1.08-.15.35-.1.66-.252.93-.457.27-.206.487-.46.652-.765.166-.306.248-.668.248-1.088 0-.39-.105-.715-.315-.975-.21-.26-.472-.482-.788-.667-.315-.186-.657-.345-1.027-.48-.37-.136-.712-.27-1.028-.405-.315-.136-.577-.283-.787-.443-.21-.16-.315-.355-.315-.585 0-.34.137-.592.412-.757.276-.166.603-.248.983-.248.32 0 .58.042.78.128.2.085.37.177.51.277.14.1.267.192.382.278.116.085.243.127.383.127.2 0 .35-.055.45-.165.1-.11.15-.235.15-.375 0-.21-.087-.4-.263-.57-.175-.17-.392-.317-.652-.442-.26-.126-.547-.223-.863-.293-.315-.07-.607-.105-.877-.105-.33 0-.657.047-.983.143-.325.095-.614.237-.87.427-.255.19-.462.425-.622.705-.16.28-.24.605-.24.975zm7.105 1.83c0 .53.072 1.04.218 1.53.145.49.367.925.667 1.305.3.38.675.682 1.125.907.45.226.98.338 1.59.338.69 0 1.212-.11 1.567-.33.356-.22.533-.455.533-.705 0-.18-.047-.317-.143-.413-.095-.095-.217-.142-.367-.142-.1 0-.197.022-.293.067-.095.046-.2.098-.314.158-.116.06-.25.112-.405.157-.156.046-.348.068-.578.068-.41 0-.76-.09-1.05-.27-.29-.18-.525-.412-.705-.698-.18-.285-.312-.6-.398-.945-.085-.345-.127-.687-.127-1.027 0-.34.042-.682.128-1.027.085-.346.217-.66.397-.945.18-.286.415-.518.705-.698.29-.18.64-.27 1.05-.27.23 0 .417.022.563.068.145.045.274.092.39.142.115.05.22.097.315.143.095.045.207.067.337.067.16 0 .29-.057.39-.173.1-.115.15-.242.15-.382 0-.27-.187-.505-.563-.705-.375-.2-.902-.3-1.582-.3-.61 0-1.14.112-1.59.338-.45.225-.825.527-1.125.907-.3.38-.522.815-.668 1.305-.145.49-.217 1-.217 1.53zM8.29 319.02h-.54c-.44 0-.66.19-.66.57 0 .38.22.57.66.57h.54v6.225c0 .22.06.392.18.517.12.126.28.188.48.188.2 0 .36-.062.48-.188.12-.125.18-.297.18-.517v-6.225h.54c.44 0 .66-.19.66-.57 0-.38-.22-.57-.66-.57h-.54v-1.725c0-.22-.06-.392-.18-.518-.12-.125-.28-.187-.48-.187-.2 0-.36.062-.48.187-.12.126-.18.298-.18.518v1.725zm10.69.555c0-.23-.07-.395-.21-.495-.14-.1-.275-.15-.405-.15-.14 0-.277.05-.412.15-.136.1-.203.265-.203.495v.42h-.03c-.31-.34-.635-.602-.975-.788-.34-.185-.74-.277-1.2-.277-.56 0-1.057.112-1.492.337-.436.226-.803.528-1.103.908-.3.38-.527.815-.682 1.305-.156.49-.233 1-.233 1.53s.077 1.04.233 1.53c.155.49.382.925.682 1.305.3.38.667.682 1.103.907.435.226.932.338 1.492.338.43 0 .827-.097 1.193-.293.365-.195.692-.497.982-.907h.03v.555c0 .23.067.395.203.495.135.1.272.15.412.15.13 0 .265-.05.405-.15.14-.1.21-.265.21-.495v-6.87zm-5.625 3.435c0-.34.037-.682.113-1.028.075-.345.2-.66.375-.945.175-.285.402-.517.682-.697.28-.18.62-.27 1.02-.27.41 0 .752.09 1.028.27.275.18.5.412.675.697.175.286.3.6.375.945.075.346.112.688.112 1.028 0 .34-.037.682-.112 1.027-.076.346-.2.66-.375.945-.176.286-.4.518-.675.698-.276.18-.618.27-1.028.27-.4 0-.74-.09-1.02-.27-.28-.18-.507-.412-.682-.698-.176-.285-.3-.6-.375-.945-.076-.345-.113-.687-.113-1.027zm9.22 0c0-.34.037-.682.113-1.028.075-.345.2-.66.375-.945.175-.285.402-.517.682-.697.28-.18.62-.27 1.02-.27.41 0 .752.09 1.027.27.276.18.5.412.675.697.176.286.3.6.376.945.075.346.112.688.112 1.028 0 .34-.037.682-.112 1.027-.076.346-.2.66-.375.945-.176.286-.4.518-.675.698-.276.18-.618.27-1.028.27-.4 0-.74-.09-1.02-.27-.28-.18-.507-.412-.683-.698-.175-.285-.3-.6-.375-.945-.075-.345-.112-.687-.112-1.027zm-1.185 3.375c0 .22.06.392.18.517.12.126.28.188.48.188.2 0 .36-.062.48-.188.12-.125.18-.297.18-.517v-.39h.03c.38.73 1.09 1.095 2.13 1.095.54 0 1.02-.112 1.44-.338.42-.225.777-.527 1.073-.907.295-.38.517-.815.667-1.305.15-.49.225-1 .225-1.53s-.075-1.04-.225-1.53c-.15-.49-.372-.925-.667-1.305-.296-.38-.653-.682-1.073-.908-.42-.225-.9-.337-1.44-.337-.26 0-.502.032-.727.097-.226.066-.428.15-.608.255-.18.106-.335.223-.465.353-.13.13-.24.255-.33.375h-.03v-3.885c0-.22-.06-.392-.18-.517-.12-.126-.28-.188-.48-.188-.2 0-.36.062-.48.188-.12.125-.18.297-.18.517v10.26zm-8.165 46.625c0 .34-.037.682-.112 1.027-.076.346-.2.66-.375.945-.176.286-.4.518-.675.698-.276.18-.618.27-1.028.27-.4 0-.74-.09-1.02-.27-.28-.18-.507-.412-.683-.698-.175-.285-.3-.6-.375-.945-.075-.345-.112-.687-.112-1.027 0-.34.037-.682.112-1.028.076-.345.2-.66.375-.945.176-.285.403-.517.683-.697.28-.18.62-.27 1.02-.27.41 0 .752.09 1.027.27.276.18.5.412.676.697.175.286.3.6.375.945.075.346.112.688.112 1.028zm-.135 3.375c0 .22.06.392.18.517.12.126.28.188.48.188.2 0 .36-.062.48-.188.12-.125.18-.297.18-.517v-10.26c0-.22-.06-.392-.18-.518-.12-.125-.28-.187-.48-.187-.2 0-.36.062-.48.187-.12.126-.18.298-.18.518v3.885h-.03c-.09-.12-.2-.245-.33-.375s-.285-.247-.465-.353c-.18-.105-.382-.19-.607-.255-.226-.065-.468-.097-.728-.097-.54 0-1.02.112-1.44.337-.42.226-.777.528-1.072.908-.296.38-.518.815-.668 1.305-.15.49-.225 1-.225 1.53s.075 1.04.225 1.53c.15.49.372.925.668 1.305.295.38.652.682 1.072.907.42.226.9.338 1.44.338 1.04 0 1.75-.365 2.13-1.095h.03v.39zm9.535-2.865c.29 0 .485-.06.585-.18.1-.12.15-.295.15-.525 0-.48-.077-.952-.232-1.418-.156-.465-.378-.88-.668-1.245-.29-.365-.65-.66-1.08-.885-.43-.225-.915-.337-1.455-.337-.56 0-1.062.11-1.507.33-.446.22-.82.517-1.125.892-.306.376-.54.81-.705 1.305-.166.496-.248 1.013-.248 1.553 0 .53.07 1.04.21 1.53.14.49.36.925.66 1.305.3.38.68.682 1.14.907.46.226 1.01.338 1.65.338.39 0 .775-.055 1.155-.165.38-.11.722-.247 1.028-.413.305-.165.55-.342.735-.532.185-.19.277-.365.277-.525 0-.19-.05-.335-.15-.435-.1-.1-.21-.15-.33-.15-.12 0-.247.055-.382.165-.136.11-.3.232-.495.367-.196.136-.438.26-.728.375-.29.116-.655.173-1.095.173-.37 0-.7-.062-.99-.188-.29-.125-.537-.297-.742-.517-.206-.22-.36-.477-.465-.773-.106-.295-.158-.612-.158-.952h4.965zm-4.965-.99c.01-.3.057-.6.143-.9.085-.3.217-.567.397-.803.18-.235.41-.424.69-.57.28-.145.625-.207 1.035-.187.36 0 .675.075.945.225.27.15.49.342.66.577.17.236.297.498.383.788.085.29.127.58.127.87h-4.38zm8.89-6.405c0-.22-.06-.392-.18-.518-.12-.125-.28-.187-.48-.187-.2 0-.36.062-.48.187-.12.126-.18.298-.18.518v10.26c0 .22.06.392.18.517.12.126.28.188.48.188.2 0 .36-.062.48-.188.12-.125.18-.297.18-.517v-10.26zm8.155 7.395c.29 0 .485-.06.585-.18.1-.12.15-.295.15-.525 0-.48-.077-.952-.233-1.418-.155-.465-.377-.88-.667-1.245-.29-.365-.65-.66-1.08-.885-.43-.225-.915-.337-1.455-.337-.56 0-1.062.11-1.508.33-.445.22-.82.517-1.125.892-.305.376-.54.81-.705 1.305-.165.496-.247 1.013-.247 1.553 0 .53.07 1.04.21 1.53.14.49.36.925.66 1.305.3.38.68.682 1.14.907.46.226 1.01.338 1.65.338.39 0 .775-.055 1.155-.165.38-.11.722-.247 1.027-.413.306-.165.55-.342.736-.532.185-.19.277-.365.277-.525 0-.19-.05-.335-.15-.435-.1-.1-.21-.15-.33-.15-.12 0-.247.055-.382.165-.136.11-.3.232-.495.367-.196.136-.438.26-.728.375-.29.116-.655.173-1.095.173-.37 0-.7-.062-.99-.188-.29-.125-.537-.297-.742-.517-.206-.22-.36-.477-.465-.773-.106-.295-.158-.612-.158-.952h4.965zm-4.965-.99c.01-.3.057-.6.143-.9.085-.3.217-.567.397-.803.18-.235.41-.424.69-.57.28-.145.625-.207 1.035-.187.36 0 .675.075.945.225.27.15.49.342.66.577.17.236.297.498.383.788.085.29.127.58.127.87h-4.38zm7.99-3.51h-.54c-.44 0-.66.19-.66.57 0 .38.22.57.66.57h.54v6.225c0 .22.06.392.18.517.12.126.28.188.48.188.2 0 .36-.062.48-.188.12-.125.18-.297.18-.517v-6.225h.54c.44 0 .66-.19.66-.57 0-.38-.22-.57-.66-.57h-.54v-1.725c0-.22-.06-.392-.18-.518-.12-.125-.28-.187-.48-.187-.2 0-.36.062-.48.187-.12.126-.18.298-.18.518v1.725zm9.895 4.5c.29 0 .485-.06.585-.18.1-.12.15-.295.15-.525 0-.48-.077-.952-.232-1.418-.156-.465-.378-.88-.668-1.245-.29-.365-.65-.66-1.08-.885-.43-.225-.915-.337-1.455-.337-.56 0-1.062.11-1.507.33-.446.22-.82.517-1.125.892-.306.376-.54.81-.705 1.305-.166.496-.248 1.013-.248 1.553 0 .53.07 1.04.21 1.53.14.49.36.925.66 1.305.3.38.68.682 1.14.907.46.226 1.01.338 1.65.338.39 0 .775-.055 1.155-.165.38-.11.722-.247 1.028-.413.305-.165.55-.342.735-.532.185-.19.277-.365.277-.525 0-.19-.05-.335-.15-.435-.1-.1-.21-.15-.33-.15-.12 0-.247.055-.382.165-.136.11-.3.232-.495.367-.196.136-.438.26-.728.375-.29.116-.655.173-1.095.173-.37 0-.7-.062-.99-.188-.29-.125-.537-.297-.742-.517-.206-.22-.36-.477-.465-.773-.106-.295-.158-.612-.158-.952h4.965zm-4.965-.99c.01-.3.057-.6.143-.9.085-.3.217-.567.397-.803.18-.235.41-.424.69-.57.28-.145.625-.207 1.035-.187.36 0 .675.075.945.225.27.15.49.342.66.577.17.236.297.498.383.788.085.29.127.58.127.87h-4.38zM7.87 426.385c0 .22.06.392.18.517.12.126.28.188.48.188.2 0 .36-.062.48-.188.12-.125.18-.297.18-.517v-3.795c0-.39.055-.72.165-.99.11-.27.247-.495.412-.675.166-.18.353-.318.563-.413.21-.095.41-.157.6-.187.55-.1.825-.34.825-.72 0-.19-.065-.35-.195-.48s-.31-.195-.54-.195c-.19 0-.377.042-.563.127-.185.085-.354.195-.51.33-.155.136-.294.285-.42.45-.125.166-.227.323-.307.473h-.03v-.675c0-.22-.06-.392-.18-.518-.12-.125-.28-.187-.48-.187-.2 0-.36.062-.48.187-.12.126-.18.298-.18.518v6.75zm11.14-2.865c.29 0 .485-.06.585-.18.1-.12.15-.295.15-.525 0-.48-.077-.952-.233-1.418-.155-.465-.377-.88-.667-1.245-.29-.365-.65-.66-1.08-.885-.43-.225-.915-.337-1.455-.337-.56 0-1.062.11-1.507.33-.446.22-.82.517-1.125.892-.306.376-.54.81-.705 1.305-.166.496-.248 1.013-.248 1.553 0 .53.07 1.04.21 1.53.14.49.36.925.66 1.305.3.38.68.682 1.14.907.46.226 1.01.338 1.65.338.39 0 .775-.055 1.155-.165.38-.11.722-.247 1.027-.413.306-.165.55-.342.735-.532.186-.19.278-.365.278-.525 0-.19-.05-.335-.15-.435-.1-.1-.21-.15-.33-.15-.12 0-.247.055-.383.165-.135.11-.3.232-.495.367-.195.136-.437.26-.727.375-.29.116-.655.173-1.095.173-.37 0-.7-.062-.99-.188-.29-.125-.537-.297-.742-.517-.206-.22-.36-.477-.465-.773-.106-.295-.158-.612-.158-.952h4.965zm-4.965-.99c.01-.3.057-.6.143-.9.085-.3.217-.567.397-.803.18-.235.41-.424.69-.57.28-.145.625-.207 1.035-.187.36 0 .675.075.945.225.27.15.49.342.66.577.17.236.297.498.382.788.086.29.128.58.128.87h-4.38zm7.99-3.51h-.54c-.44 0-.66.19-.66.57 0 .38.22.57.66.57h.54v6.225c0 .22.06.392.18.517.12.126.28.188.48.188.2 0 .36-.062.48-.188.12-.125.18-.297.18-.517v-6.225h.54c.44 0 .66-.19.66-.57 0-.38-.22-.57-.66-.57h-.54v-1.725c0-.22-.06-.392-.18-.518-.12-.125-.28-.187-.48-.187-.2 0-.36.062-.48.187-.12.126-.18.298-.18.518v1.725zm4.09 4.89c0 .58.09 1.072.27 1.477.18.406.417.735.712.99.296.256.633.438 1.013.548.38.11.77.165 1.17.165.4 0 .79-.055 1.17-.165.38-.11.717-.292 1.012-.548.296-.255.533-.584.713-.99.18-.405.27-.897.27-1.477v-4.275c0-.22-.06-.392-.18-.518-.12-.125-.28-.187-.48-.187-.2 0-.36.062-.48.187-.12.126-.18.298-.18.518v4.23c0 1.39-.615 2.085-1.845 2.085s-1.845-.695-1.845-2.085v-4.23c0-.22-.06-.392-.18-.518-.12-.125-.28-.187-.48-.187-.2 0-.36.062-.48.187-.12.126-.18.298-.18.518v4.275zm8.68 2.475c0 .22.06.392.18.517.12.126.28.188.48.188.2 0 .36-.062.48-.188.12-.125.18-.297.18-.517v-3.795c0-.39.055-.72.165-.99.11-.27.247-.495.413-.675.165-.18.352-.318.562-.413.21-.095.41-.157.6-.187.55-.1.825-.34.825-.72 0-.19-.065-.35-.195-.48s-.31-.195-.54-.195c-.19 0-.377.042-.562.127-.186.085-.355.195-.51.33-.156.136-.295.285-.42.45-.126.166-.228.323-.308.473h-.03v-.675c0-.22-.06-.392-.18-.518-.12-.125-.28-.187-.48-.187-.2 0-.36.062-.48.187-.12.126-.18.298-.18.518v6.75zm5.335 0c0 .22.06.392.18.517.12.126.28.188.48.188.2 0 .36-.062.48-.188.12-.125.18-.297.18-.517v-4.35c0-.35.055-.65.165-.9.11-.25.252-.452.428-.608.175-.155.372-.27.592-.345.22-.075.44-.112.66-.112.22 0 .44.037.66.112.22.075.417.19.593.345.175.156.317.358.427.608.11.25.165.55.165.9v4.35c0 .22.06.392.18.517.12.126.28.188.48.188.2 0 .36-.062.48-.188.12-.125.18-.297.18-.517v-4.425c0-.56-.087-1.032-.262-1.418-.176-.385-.398-.697-.668-.937-.27-.24-.567-.412-.892-.518-.326-.105-.643-.157-.953-.157-.4 0-.795.08-1.185.24-.39.16-.73.43-1.02.81l-.03-.03v-.315c0-.22-.06-.392-.18-.518-.12-.125-.28-.187-.48-.187-.2 0-.36.062-.48.187-.12.126-.18.298-.18.518v6.75zM7.69 471.18c0 .37.105.682.315.937.21.256.472.475.787.66.316.186.658.35 1.028.495.37.146.712.293 1.027.443.316.15.578.315.788.495.21.18.315.4.315.66 0 .27-.137.517-.413.742-.275.226-.652.338-1.132.338-.36 0-.665-.05-.915-.15-.25-.1-.47-.212-.66-.338-.19-.125-.355-.237-.495-.337-.14-.1-.285-.15-.435-.15-.14 0-.265.055-.375.165-.11.11-.165.255-.165.435 0 .17.077.345.232.525.156.18.368.342.638.487.27.146.587.265.952.36.366.095.758.143 1.178.143.37 0 .73-.05 1.08-.15.35-.1.66-.252.93-.458.27-.205.487-.46.652-.765.166-.305.248-.667.248-1.087 0-.39-.105-.715-.315-.975-.21-.26-.472-.482-.788-.667-.315-.186-.657-.345-1.027-.48-.37-.136-.712-.27-1.028-.406-.315-.135-.577-.282-.787-.442-.21-.16-.315-.355-.315-.585 0-.34.137-.592.412-.758.276-.165.603-.247.983-.247.32 0 .58.042.78.127.2.085.37.178.51.278.14.1.267.192.382.277.116.085.243.128.383.128.2 0 .35-.055.45-.165.1-.11.15-.235.15-.375 0-.21-.087-.4-.263-.57-.175-.17-.392-.317-.652-.443-.26-.125-.547-.222-.863-.292-.315-.07-.607-.105-.877-.105-.33 0-.657.047-.983.142-.325.095-.614.238-.87.428-.255.19-.462.425-.622.705-.16.28-.24.605-.24.975zm8.695 1.83c0-.34.037-.682.113-1.028.075-.345.2-.66.375-.945.175-.285.402-.517.682-.697.28-.18.62-.27 1.02-.27.41 0 .752.09 1.027.27.276.18.5.412.675.697.176.286.3.6.375.945.076.346.113.688.113 1.028 0 .34-.037.682-.113 1.027-.075.346-.2.66-.375.945-.175.286-.4.518-.675.698-.275.18-.617.27-1.027.27-.4 0-.74-.09-1.02-.27-.28-.18-.507-.412-.682-.698-.176-.285-.3-.6-.375-.945-.076-.345-.113-.687-.113-1.027zm-1.185 6.525c0 .22.06.392.18.517.12.126.28.188.48.188.2 0 .36-.062.48-.188.12-.125.18-.297.18-.517v-3.525h.03c.09.12.2.245.33.375s.285.247.465.352c.18.106.382.19.607.255.226.065.468.098.728.098.54 0 1.02-.112 1.44-.338.42-.225.777-.527 1.072-.907.296-.38.518-.815.668-1.305.15-.49.225-1 .225-1.53s-.075-1.04-.225-1.53c-.15-.49-.372-.925-.668-1.305-.295-.38-.652-.682-1.072-.908-.42-.225-.9-.337-1.44-.337-1.04 0-1.75.365-2.13 1.095h-.03v-.39c0-.22-.06-.392-.18-.517-.12-.126-.28-.188-.48-.188-.2 0-.36.062-.48.188-.12.125-.18.297-.18.517v9.9zm15.49-9.96c0-.23-.07-.395-.21-.495-.14-.1-.275-.15-.405-.15-.14 0-.277.05-.413.15-.135.1-.202.265-.202.495v.42h-.03c-.31-.34-.635-.602-.975-.788-.34-.185-.74-.277-1.2-.277-.56 0-1.057.112-1.493.337-.435.226-.802.528-1.102.908-.3.38-.527.815-.683 1.305-.155.49-.232 1-.232 1.53s.077 1.04.232 1.53c.156.49.383.925.683 1.305.3.38.667.682 1.102.907.436.226.933.338 1.493.338.43 0 .827-.097 1.192-.293.366-.195.693-.497.983-.907h.03v.555c0 .23.067.395.202.495.136.1.273.15.413.15.13 0 .265-.05.405-.15.14-.1.21-.265.21-.495v-6.87zm-5.625 3.435c0-.34.037-.682.112-1.028.076-.345.2-.66.375-.945.176-.285.403-.517.683-.697.28-.18.62-.27 1.02-.27.41 0 .752.09 1.027.27.276.18.5.412.675.697.176.286.3.6.375.945.076.346.113.688.113 1.028 0 .34-.037.682-.113 1.027-.075.346-.2.66-.375.945-.175.286-.4.518-.675.698-.275.18-.617.27-1.027.27-.4 0-.74-.09-1.02-.27-.28-.18-.507-.412-.683-.698-.175-.285-.3-.6-.375-.945-.075-.345-.112-.687-.112-1.027zm7.63 0c0 .53.072 1.04.217 1.53.146.49.368.925.668 1.305.3.38.675.682 1.125.907.45.226.98.338 1.59.338.69 0 1.212-.11 1.567-.33.356-.22.533-.455.533-.705 0-.18-.047-.318-.143-.413-.095-.095-.217-.142-.367-.142-.1 0-.197.022-.293.067-.095.045-.2.098-.314.158-.116.06-.25.112-.405.157-.156.045-.348.068-.578.068-.41 0-.76-.09-1.05-.27-.29-.18-.525-.412-.705-.698-.18-.285-.312-.6-.397-.945-.086-.345-.128-.687-.128-1.027 0-.34.042-.682.128-1.028.085-.345.217-.66.397-.945.18-.285.415-.517.705-.697.29-.18.64-.27 1.05-.27.23 0 .417.022.563.067.145.045.274.093.39.143.115.05.22.097.315.142.095.045.207.068.337.068.16 0 .29-.057.39-.173.1-.115.15-.242.15-.382 0-.27-.187-.505-.563-.705-.375-.2-.902-.3-1.582-.3-.61 0-1.14.112-1.59.337-.45.226-.825.528-1.125.908-.3.38-.522.815-.667 1.305-.146.49-.218 1-.218 1.53zm13.42.51c.29 0 .485-.06.585-.18.1-.12.15-.295.15-.525 0-.48-.077-.952-.232-1.418-.156-.465-.378-.88-.668-1.245-.29-.365-.65-.66-1.08-.885-.43-.225-.915-.337-1.455-.337-.56 0-1.062.11-1.507.33-.446.22-.82.517-1.125.892-.306.376-.54.81-.705 1.305-.166.496-.248 1.013-.248 1.553 0 .53.07 1.04.21 1.53.14.49.36.925.66 1.305.3.38.68.682 1.14.907.46.226 1.01.338 1.65.338.39 0 .775-.055 1.155-.165.38-.11.722-.247 1.028-.413.305-.165.55-.342.735-.532.185-.19.277-.365.277-.525 0-.19-.05-.335-.15-.435-.1-.1-.21-.15-.33-.15-.12 0-.247.055-.382.165-.136.11-.3.232-.495.367-.196.136-.438.26-.728.375-.29.116-.655.173-1.095.173-.37 0-.7-.062-.99-.188-.29-.125-.537-.297-.742-.517-.206-.22-.36-.477-.465-.773-.106-.295-.158-.612-.158-.952h4.965zm-4.965-.99c.01-.3.057-.6.143-.9.085-.3.217-.567.397-.803.18-.235.41-.424.69-.57.28-.145.625-.207 1.035-.187.36 0 .675.075.945.225.27.15.49.342.66.577.17.236.297.498.383.788.085.29.127.58.127.87h-4.38z" fill="#FFF"/><path d="M7.69 21.18c0 .37.105.682.315.938.21.255.472.474.787.66.316.185.658.35 1.028.495.37.145.712.292 1.027.442.316.15.578.315.788.495.21.18.315.4.315.66 0 .27-.137.517-.413.742-.275.226-.652.338-1.132.338-.36 0-.665-.05-.915-.15-.25-.1-.47-.212-.66-.338-.19-.125-.355-.237-.495-.337-.14-.1-.285-.15-.435-.15-.14 0-.265.055-.375.165-.11.11-.165.255-.165.435 0 .17.077.345.232.525.156.18.368.342.638.488.27.145.587.264.952.36.366.095.758.142 1.178.142.37 0 .73-.05 1.08-.15.35-.1.66-.252.93-.457.27-.206.487-.46.652-.765.166-.306.248-.668.248-1.088 0-.39-.105-.715-.315-.975-.21-.26-.472-.482-.788-.667-.315-.186-.657-.345-1.027-.48-.37-.136-.712-.27-1.028-.405-.315-.136-.577-.283-.787-.443-.21-.16-.315-.355-.315-.585 0-.34.137-.592.412-.757.276-.166.603-.248.983-.248.32 0 .58.042.78.128.2.085.37.177.51.277.14.1.267.192.382.278.116.085.243.127.383.127.2 0 .35-.055.45-.165.1-.11.15-.235.15-.375 0-.21-.087-.4-.263-.57-.175-.17-.392-.317-.652-.442-.26-.126-.547-.223-.863-.293-.315-.07-.607-.105-.877-.105-.33 0-.657.047-.983.143-.325.095-.614.237-.87.427-.255.19-.462.425-.622.705-.16.28-.24.605-.24.975zm12.46 5.205c0 .22.06.392.18.517.12.126.28.188.48.188.2 0 .36-.062.48-.188.12-.125.18-.297.18-.517V21.96c0-.56-.087-1.032-.263-1.418-.175-.385-.397-.697-.667-.937-.27-.24-.567-.412-.893-.518-.325-.105-.642-.157-.952-.157-.4 0-.795.08-1.185.24-.39.16-.73.43-1.02.81l-.03-.03v-3.825c0-.22-.06-.392-.18-.517-.12-.126-.28-.188-.48-.188-.2 0-.36.062-.48.188-.12.125-.18.297-.18.517v10.26c0 .22.06.392.18.518.12.125.28.187.48.187.2 0 .36-.062.48-.187.12-.126.18-.298.18-.518v-4.35c0-.35.055-.65.165-.9.11-.25.252-.452.427-.607.176-.156.373-.27.593-.345.22-.076.44-.113.66-.113.22 0 .44.037.66.113.22.075.417.19.592.345.176.155.318.357.428.607.11.25.165.55.165.9v4.35zm4.99-6.75c0-.22-.06-.392-.18-.518-.12-.125-.28-.187-.48-.187-.2 0-.36.062-.48.188-.12.125-.18.297-.18.517v6.75c0 .22.06.392.18.517.12.126.28.188.48.188.2 0 .36-.062.48-.188.12-.125.18-.297.18-.517v-6.75zm-1.47-2.595c0 .23.077.422.232.577.156.156.348.233.578.233.23 0 .422-.077.578-.232.155-.156.232-.348.232-.578 0-.23-.077-.422-.232-.578-.156-.155-.348-.232-.578-.232-.23 0-.422.077-.578.232-.155.156-.232.348-.232.578zm5.56 3.12h.825c.44 0 .66-.19.66-.57 0-.38-.22-.57-.66-.57h-.825v-1.935c0-.17.04-.3.12-.39.08-.09.22-.135.42-.135h.33c.48 0 .72-.19.72-.57 0-.18-.082-.32-.247-.42-.166-.1-.333-.15-.503-.15h-.405c-.48 0-.892.142-1.238.428-.345.285-.517.717-.517 1.297v1.875h-.54c-.44 0-.66.19-.66.57 0 .38.22.57.66.57h.54v6.225c0 .22.06.392.18.518.12.125.28.187.48.187.2 0 .36-.062.48-.187.12-.126.18-.298.18-.518V20.16zm3.175-1.14h-.54c-.44 0-.66.19-.66.57 0 .38.22.57.66.57h.54v6.225c0 .22.06.392.18.517.12.126.28.188.48.188.2 0 .36-.062.48-.188.12-.125.18-.297.18-.517V20.16h.54c.44 0 .66-.19.66-.57 0-.38-.22-.57-.66-.57h-.54v-1.725c0-.22-.06-.392-.18-.518-.12-.125-.28-.187-.48-.187-.2 0-.36.062-.48.187-.12.126-.18.298-.18.518v1.725zM7.525 73.01c0 .53.072 1.04.217 1.53.146.49.368.925.668 1.305.3.38.675.682 1.125.907.45.226.98.338 1.59.338.69 0 1.212-.11 1.567-.33.356-.22.533-.455.533-.705 0-.18-.047-.317-.143-.413-.095-.095-.217-.142-.367-.142-.1 0-.197.022-.293.067-.095.046-.2.098-.315.158-.115.06-.25.112-.405.157-.155.046-.347.068-.577.068-.41 0-.76-.09-1.05-.27-.29-.18-.525-.412-.705-.698-.18-.285-.312-.6-.398-.945-.085-.345-.127-.687-.127-1.027 0-.34.042-.682.127-1.028.086-.345.218-.66.398-.945.18-.285.415-.517.705-.697.29-.18.64-.27 1.05-.27.23 0 .417.022.562.068.146.045.275.092.39.142.116.05.22.097.315.142.096.046.208.068.338.068.16 0 .29-.057.39-.173.1-.115.15-.242.15-.382 0-.27-.187-.505-.563-.705-.375-.2-.902-.3-1.582-.3-.61 0-1.14.112-1.59.337-.45.226-.825.528-1.125.908-.3.38-.522.815-.668 1.305-.145.49-.217 1-.217 1.53zm7.27 0c0 .53.077 1.04.233 1.53.155.49.382.925.682 1.305.3.38.667.682 1.103.907.435.226.932.338 1.492.338.56 0 1.057-.112 1.492-.338.436-.225.803-.527 1.103-.907.3-.38.527-.815.682-1.305.156-.49.233-1 .233-1.53s-.077-1.04-.233-1.53c-.155-.49-.382-.925-.682-1.305-.3-.38-.667-.682-1.103-.908-.435-.225-.932-.337-1.492-.337-.56 0-1.057.112-1.492.337-.436.226-.803.528-1.103.908-.3.38-.527.815-.682 1.305-.156.49-.233 1-.233 1.53zm1.32 0c0-.34.037-.682.113-1.028.075-.345.2-.66.375-.945.175-.285.402-.517.682-.697.28-.18.62-.27 1.02-.27.41 0 .752.09 1.027.27.276.18.5.412.675.697.176.286.3.6.375.945.076.346.113.688.113 1.028 0 .34-.037.682-.113 1.027-.075.346-.2.66-.375.945-.175.286-.4.518-.675.698-.275.18-.617.27-1.027.27-.4 0-.74-.09-1.02-.27-.28-.18-.507-.412-.682-.698-.176-.285-.3-.6-.375-.945-.076-.345-.113-.687-.113-1.027zm7.705 3.375c0 .22.06.392.18.517.12.126.28.188.48.188.2 0 .36-.062.48-.188.12-.125.18-.297.18-.517v-4.35c0-.35.055-.65.165-.9.11-.25.252-.452.427-.608.176-.155.373-.27.593-.345.22-.075.44-.112.66-.112.22 0 .44.037.66.113.22.075.417.19.592.345.176.155.318.357.428.607.11.25.165.55.165.9v4.35c0 .22.06.392.18.517.12.126.28.188.48.188.2 0 .36-.062.48-.188.12-.125.18-.297.18-.517V71.96c0-.56-.087-1.032-.263-1.418-.175-.385-.397-.697-.667-.937-.27-.24-.567-.412-.893-.518-.325-.105-.642-.157-.952-.157-.4 0-.795.08-1.185.24-.39.16-.73.43-1.02.81l-.03-.03v-.315c0-.22-.06-.392-.18-.518-.12-.125-.28-.187-.48-.187-.2 0-.36.062-.48.187-.12.126-.18.298-.18.518v6.75zm9.1-7.365h-.54c-.44 0-.66.19-.66.57 0 .38.22.57.66.57h.54v6.225c0 .22.06.392.18.517.12.126.28.188.48.188.2 0 .36-.062.48-.188.12-.125.18-.297.18-.517V70.16h.54c.44 0 .66-.19.66-.57 0-.38-.22-.57-.66-.57h-.54v-1.725c0-.22-.06-.392-.18-.517-.12-.126-.28-.188-.48-.188-.2 0-.36.062-.48.188-.12.125-.18.297-.18.517v1.725zm4.09 7.365c0 .22.06.392.18.517.12.126.28.188.48.188.2 0 .36-.062.48-.188.12-.125.18-.297.18-.517V72.59c0-.39.055-.72.165-.99.11-.27.247-.495.413-.675.165-.18.352-.317.562-.413.21-.095.41-.157.6-.187.55-.1.825-.34.825-.72 0-.19-.065-.35-.195-.48s-.31-.195-.54-.195c-.19 0-.377.042-.562.127-.186.086-.355.195-.51.33-.156.136-.295.285-.42.45-.126.166-.228.323-.308.473h-.03v-.675c0-.22-.06-.392-.18-.518-.12-.125-.28-.187-.48-.187-.2 0-.36.062-.48.187-.12.126-.18.298-.18.518v6.75zM42 73.01c0 .53.077 1.04.233 1.53.155.49.382.925.682 1.305.3.38.667.682 1.103.907.435.226.932.338 1.492.338.56 0 1.057-.112 1.493-.338.435-.225.802-.527 1.102-.907.3-.38.527-.815.683-1.305.155-.49.232-1 .232-1.53s-.077-1.04-.232-1.53c-.156-.49-.383-.925-.683-1.305-.3-.38-.667-.682-1.102-.908-.436-.225-.933-.337-1.493-.337s-1.057.112-1.492.337c-.436.226-.803.528-1.103.908-.3.38-.527.815-.682 1.305-.156.49-.233 1-.233 1.53zm1.32 0c0-.34.037-.682.113-1.028.075-.345.2-.66.375-.945.175-.285.402-.517.682-.697.28-.18.62-.27 1.02-.27.41 0 .752.09 1.028.27.275.18.5.412.675.697.175.286.3.6.375.945.075.346.112.688.112 1.028 0 .34-.037.682-.112 1.027-.076.346-.2.66-.375.945-.176.286-.4.518-.675.698-.276.18-.618.27-1.028.27-.4 0-.74-.09-1.02-.27-.28-.18-.507-.412-.682-.698-.176-.285-.3-.6-.375-.945-.076-.345-.113-.687-.113-1.027zm9.025-6.885c0-.22-.06-.392-.18-.517-.12-.126-.28-.188-.48-.188-.2 0-.36.062-.48.188-.12.125-.18.297-.18.517v10.26c0 .22.06.392.18.517.12.126.28.188.48.188.2 0 .36-.062.48-.188.12-.125.18-.297.18-.517v-10.26zM7.525 123.01c0 .53.072 1.04.217 1.53.146.49.368.925.668 1.305.3.38.675.682 1.125.907.45.226.98.338 1.59.338.69 0 1.212-.11 1.567-.33.356-.22.533-.455.533-.705 0-.18-.047-.318-.143-.413-.095-.094-.217-.142-.367-.142-.1 0-.197.022-.293.067-.095.046-.2.098-.315.158-.115.06-.25.113-.405.157-.155.045-.347.068-.577.068-.41 0-.76-.09-1.05-.27-.29-.18-.525-.412-.705-.698-.18-.285-.312-.6-.398-.945-.085-.345-.127-.687-.127-1.027 0-.34.042-.682.127-1.028.086-.345.218-.66.398-.945.18-.285.415-.517.705-.697.29-.18.64-.27 1.05-.27.23 0 .417.023.562.068.146.044.275.092.39.142.116.05.22.097.315.142.096.046.208.068.338.068.16 0 .29-.057.39-.172.1-.116.15-.243.15-.383 0-.27-.187-.505-.563-.705-.375-.2-.902-.3-1.582-.3-.61 0-1.14.112-1.59.337-.45.226-.825.528-1.125.908-.3.38-.522.815-.668 1.305-.145.49-.217 1-.217 1.53zm7.27 0c0 .53.077 1.04.233 1.53.155.49.382.925.682 1.305.3.38.667.682 1.103.907.435.226.932.338 1.492.338.56 0 1.057-.112 1.492-.338.436-.225.803-.527 1.103-.907.3-.38.527-.815.682-1.305.156-.49.233-1 .233-1.53s-.077-1.04-.233-1.53c-.155-.49-.382-.925-.682-1.305-.3-.38-.667-.682-1.103-.907-.435-.226-.932-.338-1.492-.338-.56 0-1.057.112-1.492.337-.436.226-.803.528-1.103.908-.3.38-.527.815-.682 1.305-.156.49-.233 1-.233 1.53zm1.32 0c0-.34.037-.682.113-1.028.075-.345.2-.66.375-.945.175-.285.402-.517.682-.697.28-.18.62-.27 1.02-.27.41 0 .752.09 1.027.27.276.18.5.412.675.697.176.286.3.6.375.945.076.346.113.688.113 1.028 0 .34-.037.682-.113 1.027-.075.346-.2.66-.375.945-.175.286-.4.518-.675.698-.275.18-.617.27-1.027.27-.4 0-.74-.09-1.02-.27-.28-.18-.507-.412-.682-.698-.176-.285-.3-.6-.375-.945-.076-.345-.113-.687-.113-1.027zm12.43 3.375c0 .22.06.392.18.517.12.126.28.188.48.188.2 0 .36-.062.48-.188.12-.125.18-.297.18-.517v-4.47c0-.57.147-1.02.443-1.35.295-.33.712-.495 1.252-.495s.96.165 1.26.495c.3.33.45.78.45 1.35v4.47c0 .22.06.392.18.517.12.126.28.188.48.188.2 0 .36-.062.48-.188.12-.125.18-.297.18-.517v-4.425c0-.56-.087-1.032-.263-1.417-.175-.386-.397-.698-.667-.938s-.567-.412-.893-.517c-.325-.106-.642-.158-.952-.158-.58 0-1.06.12-1.44.36-.38.24-.715.57-1.005.99-.3-.51-.642-.862-1.027-1.058-.386-.195-.773-.292-1.163-.292-.3 0-.557.032-.773.097-.215.066-.402.145-.562.24-.16.096-.292.2-.397.316-.106.115-.198.222-.278.322l-.03-.03v-.24c0-.22-.06-.392-.18-.517-.12-.126-.28-.188-.48-.188-.2 0-.36.062-.48.188-.12.125-.18.297-.18.517v6.75c0 .22.06.392.18.517.12.126.28.188.48.188.2 0 .36-.062.48-.188.12-.125.18-.297.18-.517v-4.47c0-.57.147-1.02.442-1.35.296-.33.713-.495 1.253-.495.54 0 .96.165 1.26.495.3.33.45.78.45 1.35v4.47zm13.12 0c0 .22.06.392.18.517.12.126.28.188.48.188.2 0 .36-.062.48-.188.12-.125.18-.297.18-.517v-4.47c0-.57.147-1.02.443-1.35.295-.33.712-.495 1.252-.495s.96.165 1.26.495c.3.33.45.78.45 1.35v4.47c0 .22.06.392.18.517.12.126.28.188.48.188.2 0 .36-.062.48-.188.12-.125.18-.297.18-.517v-4.425c0-.56-.087-1.032-.263-1.417-.175-.386-.397-.698-.667-.938s-.567-.412-.892-.517c-.326-.106-.643-.158-.953-.158-.58 0-1.06.12-1.44.36-.38.24-.715.57-1.005.99-.3-.51-.642-.862-1.028-1.058-.385-.195-.772-.292-1.162-.292-.3 0-.557.032-.772.097-.216.066-.403.145-.563.24-.16.096-.292.2-.398.316-.105.115-.197.222-.277.322l-.03-.03v-.24c0-.22-.06-.392-.18-.517-.12-.126-.28-.188-.48-.188-.2 0-.36.062-.48.188-.12.125-.18.297-.18.517v6.75c0 .22.06.392.18.517.12.126.28.188.48.188.2 0 .36-.062.48-.188.12-.125.18-.297.18-.517v-4.47c0-.57.147-1.02.443-1.35.295-.33.712-.495 1.252-.495s.96.165 1.26.495c.3.33.45.78.45 1.35v4.47zm14.995-6.81c0-.23-.07-.395-.21-.495-.14-.1-.275-.15-.405-.15-.14 0-.277.05-.412.15-.136.1-.203.265-.203.495v.42h-.03c-.31-.34-.635-.602-.975-.788-.34-.185-.74-.277-1.2-.277-.56 0-1.057.112-1.492.337-.436.226-.803.528-1.103.908-.3.38-.527.815-.682 1.305-.156.49-.233 1-.233 1.53s.077 1.04.233 1.53c.155.49.382.925.682 1.305.3.38.667.682 1.103.907.435.226.932.338 1.492.338.43 0 .827-.097 1.193-.293.365-.195.692-.497.982-.907h.03v.555c0 .23.067.395.203.495.135.1.272.15.412.15.13 0 .265-.05.405-.15.14-.1.21-.265.21-.495v-6.87zm-5.625 3.435c0-.34.037-.682.113-1.028.075-.345.2-.66.375-.945.175-.285.402-.517.682-.697.28-.18.62-.27 1.02-.27.41 0 .752.09 1.028.27.275.18.5.412.675.697.175.286.3.6.375.945.075.346.112.688.112 1.028 0 .34-.037.682-.112 1.027-.076.346-.2.66-.375.945-.176.286-.4.518-.675.698-.276.18-.618.27-1.028.27-.4 0-.74-.09-1.02-.27-.28-.18-.507-.412-.682-.698-.176-.285-.3-.6-.375-.945-.076-.345-.113-.687-.113-1.027zm7.975 3.375c0 .22.06.392.18.517.12.126.28.188.48.188.2 0 .36-.062.48-.188.12-.125.18-.297.18-.517v-4.35c0-.35.055-.65.165-.9.11-.25.252-.452.428-.608.175-.155.372-.27.592-.344.22-.076.44-.113.66-.113.22 0 .44.038.66.113.22.074.417.19.593.344.175.156.317.358.427.608.11.25.165.55.165.9v4.35c0 .22.06.392.18.517.12.126.28.188.48.188.2 0 .36-.062.48-.188.12-.125.18-.297.18-.517v-4.425c0-.56-.087-1.032-.262-1.417-.176-.386-.398-.698-.668-.938s-.567-.412-.892-.517c-.326-.106-.643-.158-.953-.158-.4 0-.795.08-1.185.24-.39.16-.73.43-1.02.81l-.03-.03v-.315c0-.22-.06-.392-.18-.517-.12-.126-.28-.188-.48-.188-.2 0-.36.062-.48.188-.12.125-.18.297-.18.517v6.75zm14.035-3.375c0 .34-.037.682-.112 1.027-.076.346-.2.66-.375.945-.176.286-.4.518-.675.698-.276.18-.618.27-1.028.27-.4 0-.74-.09-1.02-.27-.28-.18-.507-.412-.682-.698-.176-.285-.3-.6-.375-.945-.076-.345-.113-.687-.113-1.027 0-.34.037-.682.113-1.028.075-.345.2-.66.375-.945.175-.285.402-.517.682-.697.28-.18.62-.27 1.02-.27.41 0 .752.09 1.028.27.275.18.5.412.675.697.175.286.3.6.375.945.075.346.112.688.112 1.028zm-.135 3.375c0 .22.06.392.18.517.12.126.28.188.48.188.2 0 .36-.062.48-.188.12-.125.18-.297.18-.517v-10.26c0-.22-.06-.392-.18-.517-.12-.126-.28-.188-.48-.188-.2 0-.36.062-.48.188-.12.125-.18.297-.18.517v3.885h-.03c-.09-.12-.2-.245-.33-.375s-.285-.247-.465-.353c-.18-.105-.382-.19-.607-.254-.226-.066-.468-.098-.728-.098-.54 0-1.02.112-1.44.337-.42.226-.777.528-1.072.908-.296.38-.518.815-.668 1.305-.15.49-.225 1-.225 1.53s.075 1.04.225 1.53c.15.49.372.925.668 1.305.295.38.652.682 1.072.907.42.226.9.338 1.44.338 1.04 0 1.75-.365 2.13-1.095h.03v.39zm-58.44 43.19c0-.23-.07-.395-.21-.495-.14-.1-.275-.15-.405-.15-.14 0-.277.05-.413.15-.135.1-.202.265-.202.495v.42h-.03c-.31-.34-.635-.602-.975-.787-.34-.186-.74-.278-1.2-.278-.56 0-1.057.112-1.493.338-.435.225-.802.527-1.102.907-.3.38-.527.815-.683 1.305-.155.49-.232 1-.232 1.53s.077 1.04.232 1.53c.156.49.383.925.683 1.305.3.38.667.682 1.102.907.436.226.933.338 1.493.338.43 0 .827-.097 1.192-.292.366-.196.693-.498.983-.908h.03v.555c0 .23.067.395.202.495.136.1.273.15.413.15.13 0 .265-.05.405-.15.14-.1.21-.265.21-.495v-6.87zm-5.625 3.435c0-.34.037-.682.112-1.028.076-.345.2-.66.375-.945.176-.285.403-.517.683-.697.28-.18.62-.27 1.02-.27.41 0 .752.09 1.027.27.276.18.5.412.676.697.175.286.3.6.375.945.075.346.112.688.112 1.028 0 .34-.037.682-.112 1.028-.076.345-.2.66-.375.944-.176.286-.4.518-.675.698-.276.18-.618.27-1.028.27-.4 0-.74-.09-1.02-.27-.28-.18-.507-.412-.683-.698-.175-.285-.3-.6-.375-.945-.075-.345-.112-.687-.112-1.027zm9.295-6.885c0-.22-.06-.392-.18-.518-.12-.125-.28-.187-.48-.187-.2 0-.36.062-.48.188-.12.125-.18.297-.18.517v10.26c0 .22.06.392.18.518.12.125.28.187.48.187.2 0 .36-.062.48-.188.12-.125.18-.297.18-.517v-10.26zm2.77 2.895h-.54c-.44 0-.66.19-.66.57 0 .38.22.57.66.57h.54v6.225c0 .22.06.392.18.518.12.125.28.187.48.187.2 0 .36-.062.48-.188.12-.125.18-.297.18-.517v-6.225h.54c.44 0 .66-.19.66-.57 0-.38-.22-.57-.66-.57h-.54v-1.725c0-.22-.06-.392-.18-.517-.12-.126-.28-.188-.48-.188-.2 0-.36.062-.48.188-.12.125-.18.297-.18.517v1.725zM7.525 223.01c0 .53.077 1.04.232 1.53.156.49.383.925.683 1.305.3.38.667.682 1.103.907.435.226.932.338 1.492.338.56 0 1.057-.112 1.492-.338.436-.225.803-.527 1.103-.907.3-.38.527-.815.682-1.305.156-.49.233-1 .233-1.53s-.077-1.04-.232-1.53c-.156-.49-.383-.925-.683-1.305-.3-.38-.667-.682-1.103-.907-.435-.226-.932-.338-1.492-.338-.56 0-1.057.112-1.493.338-.435.225-.802.527-1.102.907-.3.38-.527.815-.682 1.305-.156.49-.233 1-.233 1.53zm1.32 0c0-.34.037-.682.113-1.028.075-.345.2-.66.375-.945.175-.285.402-.517.682-.697.28-.18.62-.27 1.02-.27.41 0 .752.09 1.027.27.276.18.5.412.676.697.175.286.3.6.375.945.075.346.112.688.112 1.028 0 .34-.037.682-.112 1.028-.076.345-.2.66-.375.944-.176.286-.4.518-.675.698-.276.18-.618.27-1.028.27-.4 0-.74-.09-1.02-.27-.28-.18-.507-.412-.683-.698-.175-.285-.3-.6-.375-.945-.075-.345-.112-.687-.112-1.027zm8.95 0c0-.34.037-.682.113-1.028.075-.345.2-.66.375-.945.175-.285.402-.517.682-.697.28-.18.62-.27 1.02-.27.41 0 .752.09 1.028.27.275.18.5.412.675.697.175.286.3.6.375.945.075.346.112.688.112 1.028 0 .34-.037.682-.112 1.028-.076.345-.2.66-.375.944-.176.286-.4.518-.675.698-.276.18-.618.27-1.028.27-.4 0-.74-.09-1.02-.27-.28-.18-.507-.412-.682-.698-.176-.285-.3-.6-.375-.945-.076-.345-.113-.687-.113-1.027zm-1.185 6.525c0 .22.06.392.18.518.12.125.28.187.48.187.2 0 .36-.062.48-.188.12-.125.18-.297.18-.517v-3.525h.03c.09.12.2.245.33.375s.285.247.465.353c.18.105.382.19.608.255.225.065.467.097.727.097.54 0 1.02-.112 1.44-.338.42-.225.777-.527 1.072-.907.296-.38.518-.815.668-1.305.15-.49.225-1 .225-1.53s-.075-1.04-.225-1.53c-.15-.49-.372-.925-.668-1.305-.295-.38-.652-.682-1.072-.907-.42-.226-.9-.338-1.44-.338-1.04 0-1.75.365-2.13 1.095h-.03v-.39c0-.22-.06-.392-.18-.517-.12-.126-.28-.188-.48-.188-.2 0-.36.062-.48.188-.12.125-.18.297-.18.517v9.9zm9.31-10.515h-.54c-.44 0-.66.19-.66.57 0 .38.22.57.66.57h.54v6.225c0 .22.06.392.18.518.12.125.28.187.48.187.2 0 .36-.062.48-.188.12-.125.18-.297.18-.517v-6.225h.54c.44 0 .66-.19.66-.57 0-.38-.22-.57-.66-.57h-.54v-1.725c0-.22-.06-.392-.18-.517-.12-.126-.28-.188-.48-.188-.2 0-.36.062-.48.188-.12.125-.18.297-.18.517v1.725zm5.41.615c0-.22-.06-.392-.18-.517-.12-.126-.28-.188-.48-.188-.2 0-.36.062-.48.188-.12.125-.18.297-.18.517v6.75c0 .22.06.392.18.518.12.125.28.187.48.187.2 0 .36-.062.48-.188.12-.125.18-.297.18-.517v-6.75zm-1.47-2.595c0 .23.077.422.233.578.155.155.347.232.577.232.23 0 .422-.077.577-.232.156-.156.233-.348.233-.578 0-.23-.077-.422-.233-.577-.155-.156-.347-.233-.577-.233-.23 0-.422.077-.578.233-.155.155-.232.347-.232.577zm3.475 5.97c0 .53.077 1.04.233 1.53.155.49.382.925.682 1.305.3.38.667.682 1.103.907.435.226.932.338 1.492.338.56 0 1.057-.112 1.493-.338.435-.225.802-.527 1.102-.907.3-.38.527-.815.683-1.305.155-.49.232-1 .232-1.53s-.077-1.04-.232-1.53c-.156-.49-.383-.925-.683-1.305-.3-.38-.667-.682-1.102-.907-.436-.226-.933-.338-1.493-.338s-1.057.112-1.492.338c-.436.225-.803.527-1.103.907-.3.38-.527.815-.682 1.305-.156.49-.233 1-.233 1.53zm1.32 0c0-.34.037-.682.113-1.028.075-.345.2-.66.375-.945.175-.285.402-.517.682-.697.28-.18.62-.27 1.02-.27.41 0 .752.09 1.028.27.275.18.5.412.675.697.175.286.3.6.375.945.075.346.112.688.112 1.028 0 .34-.037.682-.112 1.028-.076.345-.2.66-.375.944-.176.286-.4.518-.675.698-.276.18-.618.27-1.028.27-.4 0-.74-.09-1.02-.27-.28-.18-.507-.412-.682-.698-.176-.285-.3-.6-.375-.945-.076-.345-.113-.687-.113-1.027zm7.705 3.375c0 .22.06.392.18.518.12.125.28.187.48.187.2 0 .36-.062.48-.188.12-.125.18-.297.18-.517v-4.35c0-.35.055-.65.165-.9.11-.25.252-.452.428-.607.175-.156.372-.27.592-.345.22-.076.44-.113.66-.113.22 0 .44.037.66.113.22.075.417.19.593.345.175.155.317.357.427.607.11.25.165.55.165.9v4.35c0 .22.06.392.18.518.12.125.28.187.48.187.2 0 .36-.062.48-.188.12-.125.18-.297.18-.517v-4.425c0-.56-.087-1.032-.262-1.418-.176-.385-.398-.697-.668-.937-.27-.24-.567-.412-.892-.517-.326-.106-.643-.158-.953-.158-.4 0-.795.08-1.185.24-.39.16-.73.43-1.02.81l-.03-.03v-.315c0-.22-.06-.392-.18-.517-.12-.126-.28-.188-.48-.188-.2 0-.36.062-.48.188-.12.125-.18.297-.18.517v6.75z" fill="#000"/></g></svg>