<?xml version="1.0" encoding="UTF-8" standalone="no"?>
<svg width="120px" height="1050px" viewBox="0 0 120 1050" version="1.1" xmlns="http://www.w3.org/2000/svg" xmlns:xlink="http://www.w3.org/1999/xlink" xmlns:sketch="http://www.bohemiancoding.com/sketch/ns">
    <!-- Generator: Sketch 3.2.2 (9983) - http://www.bohemiancoding.com/sketch -->
    <title>keys</title>
    <desc>Created with Sketch.</desc>
    <defs></defs>
    <g id="Page-1" stroke="none" stroke-width="1" fill="none" fill-rule="evenodd" sketch:type="MSPage">
        <g id="keys" sketch:type="MSArtboardGroup">
            <g id="letter" sketch:type="MSLayerGroup" transform="translate(0.000000, 706.000000)" fill="#FFFFFF">
                <path d="M56.865,15.055 L63.135,15.055 L64.009,17.487 C64.0723337,17.6643342 64.1673327,17.8131661 64.294,17.9335 C64.4206673,18.0538339 64.5979989,18.114 64.826,18.114 C65.0413344,18.114 65.2281659,18.0506673 65.3865,17.924 C65.5448341,17.7973327 65.624,17.6263344 65.624,17.411 C65.624,17.2969994 65.5923337,17.1513342 65.529,16.974 C65.4656664,16.7966658 65.4213335,16.6636671 65.396,16.575 L61.197,5.384 C61.0956662,5.09266521 60.9531676,4.84883431 60.7695,4.6525 C60.5858324,4.45616568 60.329335,4.358 60,4.358 C59.670665,4.358 59.4141676,4.45616568 59.2305,4.6525 C59.0468324,4.84883431 58.9043338,5.09266521 58.803,5.384 L54.604,16.575 C54.5786665,16.6636671 54.5343337,16.7966658 54.471,16.974 C54.4076664,17.1513342 54.376,17.2969994 54.376,17.411 C54.376,17.6263344 54.4551659,17.7973327 54.6135,17.924 C54.7718341,18.0506673 54.9586656,18.114 55.174,18.114 C55.4020011,18.114 55.5793327,18.0538339 55.706,17.9335 C55.8326673,17.8131661 55.9276664,17.6643342 55.991,17.487 L56.865,15.055 Z M62.622,13.611 L57.378,13.611 L59.981,6.296 L60.019,6.296 L62.622,13.611 Z M56.7415,61.236 C56.7415,60.5899968 56.8206659,59.9440032 56.979,59.298 C57.1373341,58.6519968 57.3874983,58.0693359 57.7295,57.55 C58.0715017,57.0306641 58.511664,56.6095016 59.05,56.2865 C59.588336,55.9634984 60.2311629,55.802 60.9785,55.802 C61.4978359,55.802 61.922165,55.871666 62.2515,56.011 C62.580835,56.150334 62.8594989,56.3023325 63.0875,56.467 C63.3155011,56.6316675 63.5118325,56.783666 63.6765,56.923 C63.8411675,57.062334 64.0184991,57.132 64.2085,57.132 C64.4238344,57.132 64.5916661,57.0528341 64.712,56.8945 C64.8323339,56.7361659 64.8925,56.5493344 64.8925,56.334 C64.8925,56.1566658 64.8006676,55.9571678 64.617,55.7355 C64.4333324,55.5138322 64.1705017,55.298501 63.8285,55.0895 C63.4864983,54.880499 63.0748357,54.706334 62.5935,54.567 C62.1121643,54.427666 61.5738363,54.358 60.9785,54.358 C59.9778283,54.358 59.1006704,54.5511647 58.347,54.9375 C57.5933296,55.3238353 56.9663358,55.8368301 56.466,56.4765 C55.9656642,57.1161699 55.5888346,57.8508292 55.3355,58.6805 C55.0821654,59.5101708 54.9555,60.3619956 54.9555,61.236 C54.9555,62.1100044 55.0821654,62.9618292 55.3355,63.7915 C55.5888346,64.6211708 55.9624975,65.3558301 56.4565,65.9955 C56.9505025,66.6351699 57.5679963,67.1481647 58.309,67.5345 C59.0500037,67.9208353 59.9081618,68.114 60.8835,68.114 C61.4788363,68.114 62.0361641,68.0570006 62.5555,67.943 C63.0748359,67.8289994 63.5308314,67.6801676 63.9235,67.4965 C64.3161686,67.3128324 64.6233322,67.1101678 64.845,66.8885 C65.0666678,66.6668322 65.1775,66.4483344 65.1775,66.233 C65.1775,65.9923321 65.1173339,65.802334 64.997,65.663 C64.8766661,65.523666 64.7151677,65.454 64.5125,65.454 C64.3351658,65.454 64.142001,65.5173327 63.933,65.644 C63.723999,65.7706673 63.4770014,65.9099992 63.192,66.062 C62.9069986,66.2140008 62.5776685,66.3533327 62.204,66.48 C61.8303315,66.6066673 61.3901692,66.67 60.8835,66.67 C60.1614964,66.67 59.5408359,66.5085016 59.0215,66.1855 C58.5021641,65.8624984 58.0746683,65.4413359 57.739,64.922 C57.4033317,64.4026641 57.1531675,63.8200032 56.9885,63.174 C56.8238325,62.5279968 56.7415,61.8820032 56.7415,61.236 L56.7415,61.236 Z M55.212,117.088 C55.212,117.341335 55.281666,117.556666 55.421,117.734 C55.560334,117.911334 55.7883318,118 56.105,118 L59.62,118 C60.5320046,118 61.3458298,117.832168 62.0615,117.4965 C62.7771702,117.160832 63.3819975,116.69217 63.876,116.0905 C64.3700025,115.48883 64.746832,114.770004 65.0065,113.934 C65.266168,113.097996 65.396,112.173338 65.396,111.16 C65.396,110.260662 65.2725012,109.408837 65.0255,108.6045 C64.7784988,107.800163 64.4048358,107.090836 63.9045,106.4765 C63.4041642,105.862164 62.7803371,105.374502 62.033,105.0135 C61.2856629,104.652498 60.4053384,104.472 59.392,104.472 L56.105,104.472 C55.7883318,104.472 55.560334,104.560666 55.421,104.738 C55.281666,104.915334 55.212,105.130665 55.212,105.384 L55.212,117.088 Z M56.884,105.916 L59.164,105.916 C59.962004,105.916 60.6428305,106.058499 61.2065,106.3435 C61.7701695,106.628501 62.2293316,107.011664 62.584,107.493 C62.9386684,107.974336 63.1983325,108.531663 63.363,109.165 C63.5276675,109.798336 63.61,110.46333 63.61,111.16 C63.61,111.844003 63.5308341,112.512163 63.3725,113.1645 C63.2141659,113.816837 62.9640017,114.393164 62.622,114.8935 C62.2799983,115.393836 61.8335028,115.795998 61.2825,116.1 C60.7314972,116.404002 60.0633373,116.556 59.278,116.556 L56.884,116.556 L56.884,105.916 Z M60.019,165.302 L59.981,165.302 L56.561,155.441 C56.4596662,155.149665 56.3456673,154.896334 56.219,154.681 C56.0923327,154.465666 55.864335,154.358 55.535,154.358 C55.3069989,154.358 55.1265007,154.427666 54.9935,154.567 C54.8604993,154.706334 54.794,154.864666 54.794,155.042 C54.794,155.244668 54.8319996,155.459999 54.908,155.688 L59.031,167.202 C59.1323338,167.480668 59.2463327,167.702333 59.373,167.867 C59.4996673,168.031667 59.7086652,168.114 60,168.114 C60.2913348,168.114 60.5003327,168.031667 60.627,167.867 C60.7536673,167.702333 60.8676662,167.480668 60.969,167.202 L65.092,155.688 C65.1680004,155.459999 65.206,155.244668 65.206,155.042 C65.206,154.864666 65.1395007,154.706334 65.0065,154.567 C64.8734993,154.427666 64.6930011,154.358 64.465,154.358 C64.135665,154.358 63.9076673,154.465666 63.781,154.681 C63.6543327,154.896334 63.5403338,155.149665 63.439,155.441 L60.019,165.302 Z M60,212.053 L63.876,217.582 C64.0533342,217.822668 64.2021661,217.9715 64.3225,218.0285 C64.4428339,218.0855 64.572666,218.114 64.712,218.114 C64.902001,218.114 65.0761659,218.047501 65.2345,217.9145 C65.3928341,217.781499 65.472,217.613668 65.472,217.411 C65.472,217.271666 65.4435003,217.145001 65.3865,217.031 C65.3294997,216.916999 65.2693337,216.815667 65.206,216.727 L60.969,210.742 L64.503,205.745 C64.6803342,205.491665 64.769,205.263668 64.769,205.061 C64.769,204.845666 64.6961674,204.674667 64.5505,204.548 C64.4048326,204.421333 64.2306677,204.358 64.028,204.358 C63.888666,204.358 63.7525007,204.389666 63.6195,204.453 C63.4864993,204.516334 63.3376675,204.661999 63.173,204.89 L60,209.526 L56.827,204.89 C56.6623325,204.661999 56.5135007,204.516334 56.3805,204.453 C56.2474993,204.389666 56.111334,204.358 55.972,204.358 C55.7693323,204.358 55.5951674,204.421333 55.4495,204.548 C55.3038326,204.674667 55.231,204.845666 55.231,205.061 C55.231,205.263668 55.3196658,205.491665 55.497,205.745 L59.031,210.742 L54.794,216.727 C54.7306664,216.815667 54.6705003,216.916999 54.6135,217.031 C54.5564997,217.145001 54.528,217.271666 54.528,217.411 C54.528,217.613668 54.6071659,217.781499 54.7655,217.9145 C54.9238341,218.047501 55.0979991,218.114 55.288,218.114 C55.427334,218.114 55.5571661,218.0855 55.6775,218.0285 C55.7978339,217.9715 55.9466658,217.822668 56.124,217.582 L60,212.053 Z M59.164,267.221 C59.164,267.499668 59.2399992,267.718166 59.392,267.8765 C59.5440008,268.034834 59.7466654,268.114 60,268.114 C60.2533346,268.114 60.4559992,268.034834 60.608,267.8765 C60.7600008,267.718166 60.836,267.499668 60.836,267.221 L60.836,261.654 L64.465,255.745 C64.6423342,255.466332 64.731,255.232001 64.731,255.042 C64.731,254.826666 64.6581674,254.658834 64.5125,254.5385 C64.3668326,254.418166 64.1863344,254.358 63.971,254.358 C63.8189992,254.358 63.673334,254.392833 63.534,254.4625 C63.394666,254.532167 63.2616673,254.674666 63.135,254.89 L60,260.001 L56.865,254.89 C56.7383327,254.674666 56.605334,254.532167 56.466,254.4625 C56.326666,254.392833 56.1810008,254.358 56.029,254.358 C55.8136656,254.358 55.6331674,254.418166 55.4875,254.5385 C55.3418326,254.658834 55.269,254.826666 55.269,255.042 C55.269,255.232001 55.3576658,255.466332 55.535,255.745 L59.164,261.654 L59.164,267.221 Z M55.497,316.347 C55.357666,316.549668 55.2690002,316.714333 55.231,316.841 C55.1929998,316.967667 55.174,317.100666 55.174,317.24 C55.174,317.480668 55.2499992,317.667499 55.402,317.8005 C55.5540008,317.933501 55.8073316,318 56.162,318 L64.009,318 C64.2496679,318 64.4459992,317.939834 64.598,317.8195 C64.7500008,317.699166 64.826,317.518668 64.826,317.278 C64.826,317.037332 64.7500008,316.856834 64.598,316.7365 C64.4459992,316.616166 64.2496679,316.556 64.009,316.556 L57.188,316.556 L64.161,306.125 C64.3383342,305.871665 64.4523331,305.675334 64.503,305.536 C64.5536669,305.396666 64.579,305.238334 64.579,305.061 C64.579,304.908999 64.5030008,304.772834 64.351,304.6525 C64.1989992,304.532166 63.9836681,304.472 63.705,304.472 L56.314,304.472 C56.0733321,304.472 55.8770008,304.532166 55.725,304.6525 C55.5729992,304.772834 55.497,304.953332 55.497,305.194 C55.497,305.434668 55.5729992,305.615166 55.725,305.7355 C55.8770008,305.855834 56.0733321,305.916 56.314,305.916 L62.451,305.916 L55.497,316.347 Z" id="letter-2" sketch:type="MSShapeGroup"></path>
            </g>
            <g id="arrows" sketch:type="MSLayerGroup" transform="translate(53.000000, 500.000000)" fill="#FFFFFF">
                <polygon id="left" sketch:type="MSShapeGroup" transform="translate(6.500000, 158.000000) rotate(-90.000000) translate(-6.500000, -158.000000) " points="6.5 155.5 8.5 160.5 4.5 160.5 "></polygon>
                <polygon id="bottom" sketch:type="MSShapeGroup" transform="translate(7.000000, 108.500000) scale(1, -1) translate(-7.000000, -108.500000) " points="7 106 9 111 5 111 "></polygon>
                <polygon id="right" sketch:type="MSShapeGroup" transform="translate(7.500000, 58.000000) rotate(90.000000) translate(-7.500000, -58.000000) " points="7.5 55.5 9.5 60.5 5.5 60.5 "></polygon>
                <polygon id="top" sketch:type="MSShapeGroup" points="7 5 9 10 5 10 "></polygon>
            </g>
            <g id="func" sketch:type="MSLayerGroup" transform="translate(7.000000, 263.000000)" fill="#FFFFFF">
                <path d="M6.675,10.52 C6.96500145,10.52 7.1599995,10.4600006 7.26,10.34 C7.3600005,10.2199994 7.41,10.0450012 7.41,9.815 C7.41,9.3349976 7.33250078,8.86250232 7.1775,8.3975 C7.02249923,7.93249767 6.80000145,7.51750183 6.51,7.1525 C6.21999855,6.78749817 5.86000215,6.49250112 5.43,6.2675 C4.99999785,6.04249887 4.5150027,5.93 3.975,5.93 C3.4149972,5.93 2.91250223,6.0399989 2.4675,6.26 C2.02249778,6.4800011 1.64750153,6.77749813 1.3425,7.1525 C1.03749848,7.52750187 0.802500825,7.96249753 0.6375,8.4575 C0.472499175,8.95250247 0.39,9.4699973 0.39,10.01 C0.39,10.5400027 0.4599993,11.0499976 0.6,11.54 C0.7400007,12.0300024 0.9599985,12.4649981 1.26,12.845 C1.5600015,13.2250019 1.9399977,13.5274989 2.4,13.7525 C2.8600023,13.9775011 3.4099968,14.09 4.05,14.09 C4.44000195,14.09 4.8249981,14.0350006 5.205,13.925 C5.5850019,13.8149995 5.92749848,13.6775008 6.2325,13.5125 C6.53750153,13.3474992 6.78249908,13.1700009 6.9675,12.98 C7.15250093,12.7899991 7.245,12.6150008 7.245,12.455 C7.245,12.2649991 7.1950005,12.1200005 7.095,12.02 C6.9949995,11.9199995 6.8850006,11.87 6.765,11.87 C6.6449994,11.87 6.51750068,11.9249994 6.3825,12.035 C6.24749933,12.1450005 6.08250098,12.2674993 5.8875,12.4025 C5.69249903,12.5375007 5.45000145,12.6624994 5.16,12.7775 C4.86999855,12.8925006 4.5050022,12.95 4.065,12.95 C3.69499815,12.95 3.36500145,12.8875006 3.075,12.7625 C2.78499855,12.6374994 2.53750103,12.4650011 2.3325,12.245 C2.12749898,12.0249989 1.97250053,11.7675015 1.8675,11.4725 C1.76249948,11.1774985 1.71,10.8600017 1.71,10.52 L6.675,10.52 Z M1.71,9.53 C1.72000005,9.2299985 1.76749958,8.9300015 1.8525,8.63 C1.93750043,8.3299985 2.0699991,8.06250117 2.25,7.8275 C2.4300009,7.59249882 2.6599986,7.40250072 2.94,7.2575 C3.2200014,7.11249927 3.56499795,7.0499999 3.975,7.07 C4.3350018,7.07 4.64999865,7.14499925 4.92,7.295 C5.19000135,7.44500075 5.40999915,7.63749882 5.58,7.8725 C5.75000085,8.10750118 5.87749958,8.36999855 5.9625,8.66 C6.04750043,8.95000145 6.09,9.23999855 6.09,9.53 L1.71,9.53 Z M9.10000001,8.18 C9.10000001,8.55000185 9.20499896,8.86249872 9.41500001,9.1175 C9.62500106,9.37250127 9.88749844,9.59249907 10.2025,9.7775 C10.5175016,9.96250093 10.8599982,10.1274993 11.23,10.2725 C11.6000019,10.4175007 11.9424984,10.5649992 12.2575,10.715 C12.5725016,10.8650008 12.834999,11.0299991 13.045,11.21 C13.2550011,11.3900009 13.36,11.6099987 13.36,11.87 C13.36,12.1400013 13.2225014,12.3874989 12.9475,12.6125 C12.6724986,12.8375011 12.2950024,12.95 11.815,12.95 C11.4549982,12.95 11.1500013,12.9000005 10.9,12.8 C10.6499988,12.6999995 10.430001,12.5875006 10.24,12.4625 C10.0499991,12.3374994 9.88500071,12.2250005 9.74500001,12.125 C9.60499931,12.0249995 9.46000076,11.975 9.31000001,11.975 C9.16999931,11.975 9.04500056,12.0299994 8.93500001,12.14 C8.82499946,12.2500005 8.77000001,12.3949991 8.77000001,12.575 C8.77000001,12.7450008 8.84749924,12.9199991 9.00250001,13.1 C9.15750079,13.2800009 9.36999866,13.4424993 9.64000001,13.5875 C9.91000136,13.7325007 10.2274982,13.8524995 10.5925,13.9475 C10.9575018,14.0425005 11.3499979,14.09 11.77,14.09 C12.1400019,14.09 12.4999983,14.0400005 12.85,13.94 C13.2000018,13.8399995 13.5099987,13.687501 13.78,13.4825 C14.0500014,13.277499 14.2674992,13.0225015 14.4325,12.7175 C14.5975008,12.4124985 14.68,12.0500021 14.68,11.63 C14.68,11.239998 14.5750011,10.9150013 14.365,10.655 C14.154999,10.3949987 13.8925016,10.1725009 13.5775,9.9875 C13.2624984,9.80249908 12.9200019,9.64250068 12.55,9.5075 C12.1799982,9.37249932 11.8375016,9.23750067 11.5225,9.1025 C11.2074984,8.96749933 10.9450011,8.8200008 10.735,8.66 C10.524999,8.4999992 10.42,8.30500115 10.42,8.075 C10.42,7.7349983 10.5574986,7.48250082 10.8325,7.3175 C11.1075014,7.15249918 11.4349981,7.07 11.815,7.07 C12.1350016,7.07 12.394999,7.11249957 12.595,7.1975 C12.795001,7.28250042 12.9649993,7.3749995 13.105,7.475 C13.2450007,7.5750005 13.3724994,7.66749958 13.4875,7.7525 C13.6025006,7.83750042 13.7299993,7.88 13.87,7.88 C14.070001,7.88 14.2199995,7.82500055 14.32,7.715 C14.4200005,7.60499945 14.47,7.4800007 14.47,7.34 C14.47,7.12999895 14.3825009,6.94000085 14.2075,6.77 C14.0324991,6.59999915 13.8150013,6.45250062 13.555,6.3275 C13.2949987,6.20249938 13.0075016,6.10500035 12.6925,6.035 C12.3774984,5.96499965 12.0850014,5.93 11.815,5.93 C11.4849984,5.93 11.1575016,5.97749952 10.8325,6.0725 C10.5074984,6.16750047 10.2175013,6.30999905 9.96250001,6.5 C9.70749874,6.69000095 9.50000081,6.9249986 9.34000001,7.205 C9.17999921,7.4850014 9.10000001,7.80999815 9.10000001,8.18 L9.10000001,8.18 Z M16.205,10.01 C16.205,10.5400027 16.2774993,11.0499976 16.4225,11.54 C16.5675008,12.0300024 16.7899985,12.4649981 17.09,12.845 C17.3900015,13.2250019 17.7649978,13.5274989 18.215,13.7525 C18.6650023,13.9775011 19.194997,14.09 19.805,14.09 C20.4950035,14.09 21.0174983,13.9800011 21.3725,13.76 C21.7275018,13.5399989 21.905,13.3050013 21.905,13.055 C21.905,12.8749991 21.8575005,12.7375005 21.7625,12.6425 C21.6674996,12.5474995 21.5450008,12.5 21.395,12.5 C21.2949995,12.5 21.1975005,12.5224998 21.1025,12.5675 C21.0074996,12.6125002 20.9025006,12.6649997 20.7875,12.725 C20.6724995,12.7850003 20.5375008,12.8374998 20.3825,12.8825 C20.2274993,12.9275002 20.0350012,12.95 19.805,12.95 C19.394998,12.95 19.0450015,12.8600009 18.755,12.68 C18.4649986,12.4999991 18.2300009,12.2675014 18.05,11.9825 C17.8699991,11.6974986 17.7375005,11.3825017 17.6525,11.0375 C17.5674996,10.6924983 17.525,10.3500017 17.525,10.01 C17.525,9.6699983 17.5674996,9.32750172 17.6525,8.9825 C17.7375005,8.63749828 17.8699991,8.32250143 18.05,8.0375 C18.2300009,7.75249858 18.4649986,7.5200009 18.755,7.34 C19.0450015,7.1599991 19.394998,7.07 19.805,7.07 C20.0350012,7.07 20.2224993,7.09249977 20.3675,7.1375 C20.5125008,7.18250023 20.6424995,7.22999975 20.7575,7.28 C20.8725006,7.33000025 20.9774996,7.37749977 21.0725,7.4225 C21.1675005,7.46750023 21.2799994,7.49 21.41,7.49 C21.5700008,7.49 21.6999995,7.43250058 21.8,7.3175 C21.9000005,7.20249942 21.95,7.0750007 21.95,6.935 C21.95,6.66499865 21.7625019,6.430001 21.3875,6.23 C21.0124982,6.029999 20.4850034,5.93 19.805,5.93 C19.194997,5.93 18.6650023,6.04249887 18.215,6.2675 C17.7649978,6.49250112 17.3900015,6.7949981 17.09,7.175 C16.7899985,7.5550019 16.5675008,7.98999755 16.4225,8.48 C16.2774993,8.97000245 16.205,9.47999735 16.205,10.01 L16.205,10.01 Z M1.29,56.02 L0.75,56.02 C0.3099978,56.02 0.09,56.2099981 0.09,56.59 C0.09,56.9700019 0.3099978,57.16 0.75,57.16 L1.29,57.16 L1.29,63.385 C1.29,63.6050011 1.3499994,63.7774994 1.47,63.9025 C1.5900006,64.0275006 1.749999,64.09 1.95,64.09 C2.150001,64.09 2.3099994,64.0275006 2.43,63.9025 C2.5500006,63.7774994 2.61,63.6050011 2.61,63.385 L2.61,57.16 L3.15,57.16 C3.5900022,57.16 3.81,56.9700019 3.81,56.59 C3.81,56.2099981 3.5900022,56.02 3.15,56.02 L2.61,56.02 L2.61,54.295 C2.61,54.0749989 2.5500006,53.9025006 2.43,53.7775 C2.3099994,53.6524994 2.150001,53.59 1.95,53.59 C1.749999,53.59 1.5900006,53.6524994 1.47,53.7775 C1.3499994,53.9025006 1.29,54.0749989 1.29,54.295 L1.29,56.02 Z M11.98,56.575 C11.98,56.3449988 11.9100007,56.1800005 11.77,56.08 C11.6299993,55.9799995 11.4950007,55.93 11.365,55.93 C11.2249993,55.93 11.0875007,55.9799995 10.9525,56.08 C10.8174993,56.1800005 10.75,56.3449988 10.75,56.575 L10.75,56.995 L10.72,56.995 C10.4099985,56.6549983 10.0850017,56.3925009 9.74500001,56.2075 C9.40499831,56.0224991 9.00500231,55.93 8.54500001,55.93 C7.98499721,55.93 7.48750219,56.0424989 7.05250001,56.2675 C6.61749784,56.4925011 6.25000151,56.7949981 5.95000001,57.175 C5.64999851,57.5550019 5.42250079,57.9899975 5.26750001,58.48 C5.11249924,58.9700024 5.03500001,59.4799973 5.03500001,60.01 C5.03500001,60.5400027 5.11249924,61.0499976 5.26750001,61.54 C5.42250079,62.0300025 5.64999851,62.4649981 5.95000001,62.845 C6.25000151,63.2250019 6.61749784,63.5274989 7.05250001,63.7525 C7.48750219,63.9775011 7.98499721,64.09 8.54500001,64.09 C8.97500216,64.09 9.37249819,63.992501 9.73750001,63.7975 C10.1025018,63.602499 10.4299986,63.300002 10.72,62.89 L10.75,62.89 L10.75,63.445 C10.75,63.6750011 10.8174993,63.8399995 10.9525,63.94 C11.0875007,64.0400005 11.2249993,64.09 11.365,64.09 C11.4950007,64.09 11.6299993,64.0400005 11.77,63.94 C11.9100007,63.8399995 11.98,63.6750011 11.98,63.445 L11.98,56.575 Z M6.35500001,60.01 C6.35500001,59.6699983 6.39249964,59.3275017 6.46750001,58.9825 C6.54250039,58.6374983 6.66749914,58.3225014 6.84250001,58.0375 C7.01750089,57.7524986 7.24499861,57.5200009 7.52500001,57.34 C7.80500141,57.1599991 8.14499801,57.07 8.54500001,57.07 C8.95500206,57.07 9.29749864,57.1599991 9.57250001,57.34 C9.84750139,57.5200009 10.0724991,57.7524986 10.2475,58.0375 C10.4225009,58.3225014 10.5474996,58.6374983 10.6225,58.9825 C10.6975004,59.3275017 10.735,59.6699983 10.735,60.01 C10.735,60.3500017 10.6975004,60.6924983 10.6225,61.0375 C10.5474996,61.3825017 10.4225009,61.6974986 10.2475,61.9825 C10.0724991,62.2675014 9.84750139,62.4999991 9.57250001,62.68 C9.29749864,62.8600009 8.95500206,62.95 8.54500001,62.95 C8.14499801,62.95 7.80500141,62.8600009 7.52500001,62.68 C7.24499861,62.4999991 7.01750089,62.2675014 6.84250001,61.9825 C6.66749914,61.6974986 6.54250039,61.3825017 6.46750001,61.0375 C6.39249964,60.6924983 6.35500001,60.3500017 6.35500001,60.01 L6.35500001,60.01 Z M15.575,60.01 C15.575,59.6699983 15.6124997,59.3275017 15.6875,58.9825 C15.7625004,58.6374983 15.8874992,58.3225014 16.0625,58.0375 C16.2375009,57.7524986 16.4649986,57.5200009 16.745,57.34 C17.0250014,57.1599991 17.364998,57.07 17.765,57.07 C18.1750021,57.07 18.5174987,57.1599991 18.7925,57.34 C19.0675014,57.5200009 19.2924992,57.7524986 19.4675,58.0375 C19.6425009,58.3225014 19.7674997,58.6374983 19.8425,58.9825 C19.9175004,59.3275017 19.955,59.6699983 19.955,60.01 C19.955,60.3500017 19.9175004,60.6924983 19.8425,61.0375 C19.7674997,61.3825017 19.6425009,61.6974986 19.4675,61.9825 C19.2924992,62.2675014 19.0675014,62.4999991 18.7925,62.68 C18.5174987,62.8600009 18.1750021,62.95 17.765,62.95 C17.364998,62.95 17.0250014,62.8600009 16.745,62.68 C16.4649986,62.4999991 16.2375009,62.2675014 16.0625,61.9825 C15.8874992,61.6974986 15.7625004,61.3825017 15.6875,61.0375 C15.6124997,60.6924983 15.575,60.3500017 15.575,60.01 L15.575,60.01 Z M14.39,63.385 C14.39,63.6050011 14.4499994,63.7774994 14.57,63.9025 C14.6900006,64.0275006 14.849999,64.09 15.05,64.09 C15.250001,64.09 15.4099994,64.0275006 15.53,63.9025 C15.6500006,63.7774994 15.71,63.6050011 15.71,63.385 L15.71,62.995 L15.74,62.995 C16.1200019,63.7250036 16.8299948,64.09 17.87,64.09 C18.4100027,64.09 18.8899979,63.9775011 19.31,63.7525 C19.7300021,63.5274989 20.0874986,63.2250019 20.3825,62.845 C20.6775015,62.4649981 20.8999993,62.0300025 21.05,61.54 C21.2000008,61.0499976 21.275,60.5400027 21.275,60.01 C21.275,59.4799973 21.2000008,58.9700024 21.05,58.48 C20.8999993,57.9899975 20.6775015,57.5550019 20.3825,57.175 C20.0874986,56.7949981 19.7300021,56.4925011 19.31,56.2675 C18.8899979,56.0424989 18.4100027,55.93 17.87,55.93 C17.6099987,55.93 17.3675012,55.9624997 17.1425,56.0275 C16.9174989,56.0925003 16.7150009,56.1774995 16.535,56.2825 C16.3549991,56.3875005 16.2000007,56.5049993 16.07,56.635 C15.9399994,56.7650006 15.8300005,56.8899994 15.74,57.01 L15.71,57.01 L15.71,53.125 C15.71,52.9049989 15.6500006,52.7325006 15.53,52.6075 C15.4099994,52.4824994 15.250001,52.42 15.05,52.42 C14.849999,52.42 14.6900006,52.4824994 14.57,52.6075 C14.4499994,52.7325006 14.39,52.9049989 14.39,53.125 L14.39,63.385 Z M6.225,110.01 C6.225,110.350002 6.18750038,110.692498 6.1125,111.0375 C6.03749963,111.382502 5.91250088,111.697499 5.7375,111.9825 C5.56249913,112.267501 5.33750138,112.499999 5.0625,112.68 C4.78749863,112.860001 4.44500205,112.95 4.035,112.95 C3.634998,112.95 3.2950014,112.860001 3.015,112.68 C2.7349986,112.499999 2.50750088,112.267501 2.3325,111.9825 C2.15749913,111.697499 2.03250038,111.382502 1.9575,111.0375 C1.88249963,110.692498 1.845,110.350002 1.845,110.01 C1.845,109.669998 1.88249963,109.327502 1.9575,108.9825 C2.03250038,108.637498 2.15749913,108.322501 2.3325,108.0375 C2.50750088,107.752499 2.7349986,107.520001 3.015,107.34 C3.2950014,107.159999 3.634998,107.07 4.035,107.07 C4.44500205,107.07 4.78749863,107.159999 5.0625,107.34 C5.33750138,107.520001 5.56249913,107.752499 5.7375,108.0375 C5.91250088,108.322501 6.03749963,108.637498 6.1125,108.9825 C6.18750038,109.327502 6.225,109.669998 6.225,110.01 L6.225,110.01 Z M6.09,113.385 C6.09,113.605001 6.1499994,113.777499 6.27,113.9025 C6.3900006,114.027501 6.549999,114.09 6.75,114.09 C6.950001,114.09 7.1099994,114.027501 7.23,113.9025 C7.3500006,113.777499 7.41,113.605001 7.41,113.385 L7.41,103.125 C7.41,102.904999 7.3500006,102.732501 7.23,102.6075 C7.1099994,102.482499 6.950001,102.42 6.75,102.42 C6.549999,102.42 6.3900006,102.482499 6.27,102.6075 C6.1499994,102.732501 6.09,102.904999 6.09,103.125 L6.09,107.01 L6.06,107.01 C5.96999955,106.889999 5.86000065,106.765001 5.73,106.635 C5.59999935,106.504999 5.4450009,106.387501 5.265,106.2825 C5.0849991,106.177499 4.88250113,106.0925 4.6575,106.0275 C4.43249888,105.9625 4.1900013,105.93 3.93,105.93 C3.3899973,105.93 2.9100021,106.042499 2.49,106.2675 C2.0699979,106.492501 1.71250148,106.794998 1.4175,107.175 C1.12249853,107.555002 0.90000075,107.989998 0.75,108.48 C0.59999925,108.970002 0.525,109.479997 0.525,110.01 C0.525,110.540003 0.59999925,111.049998 0.75,111.54 C0.90000075,112.030002 1.12249853,112.464998 1.4175,112.845 C1.71250148,113.225002 2.0699979,113.527499 2.49,113.7525 C2.9100021,113.977501 3.3899973,114.09 3.93,114.09 C4.9700052,114.09 5.6799981,113.725004 6.06,112.995 L6.09,112.995 L6.09,113.385 Z M15.625,110.52 C15.9150015,110.52 16.1099995,110.460001 16.21,110.34 C16.3100005,110.219999 16.36,110.045001 16.36,109.815 C16.36,109.334998 16.2825008,108.862502 16.1275,108.3975 C15.9724992,107.932498 15.7500015,107.517502 15.46,107.1525 C15.1699986,106.787498 14.8100022,106.492501 14.38,106.2675 C13.9499979,106.042499 13.4650027,105.93 12.925,105.93 C12.3649972,105.93 11.8625022,106.039999 11.4175,106.26 C10.9724978,106.480001 10.5975015,106.777498 10.2925,107.1525 C9.98749849,107.527502 9.75250084,107.962498 9.58750001,108.4575 C9.42249919,108.952502 9.34000001,109.469997 9.34000001,110.01 C9.34000001,110.540003 9.40999931,111.049998 9.55000001,111.54 C9.69000071,112.030002 9.90999851,112.464998 10.21,112.845 C10.5100015,113.225002 10.8899977,113.527499 11.35,113.7525 C11.8100023,113.977501 12.3599968,114.09 13,114.09 C13.390002,114.09 13.7749981,114.035001 14.155,113.925 C14.5350019,113.814999 14.8774985,113.677501 15.1825,113.5125 C15.4875015,113.347499 15.7324991,113.170001 15.9175,112.98 C16.1025009,112.789999 16.195,112.615001 16.195,112.455 C16.195,112.264999 16.1450005,112.120001 16.045,112.02 C15.9449995,111.92 15.8350006,111.87 15.715,111.87 C15.5949994,111.87 15.4675007,111.924999 15.3325,112.035 C15.1974993,112.145001 15.032501,112.267499 14.8375,112.4025 C14.642499,112.537501 14.4000015,112.662499 14.11,112.7775 C13.8199986,112.892501 13.4550022,112.95 13.015,112.95 C12.6449982,112.95 12.3150015,112.887501 12.025,112.7625 C11.7349986,112.637499 11.487501,112.465001 11.2825,112.245 C11.077499,112.024999 10.9225005,111.767501 10.8175,111.4725 C10.7124995,111.177499 10.66,110.860002 10.66,110.52 L15.625,110.52 Z M10.66,109.53 C10.6700001,109.229999 10.7174996,108.930002 10.8025,108.63 C10.8875004,108.329999 11.0199991,108.062501 11.2,107.8275 C11.3800009,107.592499 11.6099986,107.402501 11.89,107.2575 C12.1700014,107.112499 12.514998,107.05 12.925,107.07 C13.2850018,107.07 13.5999987,107.144999 13.87,107.295 C14.1400014,107.445001 14.3599992,107.637499 14.53,107.8725 C14.7000009,108.107501 14.8274996,108.369999 14.9125,108.66 C14.9975004,108.950001 15.04,109.239999 15.04,109.53 L10.66,109.53 Z M19.55,103.125 C19.55,102.904999 19.4900006,102.732501 19.37,102.6075 C19.2499994,102.482499 19.090001,102.42 18.89,102.42 C18.689999,102.42 18.5300006,102.482499 18.41,102.6075 C18.2899994,102.732501 18.23,102.904999 18.23,103.125 L18.23,113.385 C18.23,113.605001 18.2899994,113.777499 18.41,113.9025 C18.5300006,114.027501 18.689999,114.09 18.89,114.09 C19.090001,114.09 19.2499994,114.027501 19.37,113.9025 C19.4900006,113.777499 19.55,113.605001 19.55,113.385 L19.55,103.125 Z M27.705,110.52 C27.9950015,110.52 28.1899995,110.460001 28.29,110.34 C28.3900005,110.219999 28.44,110.045001 28.44,109.815 C28.44,109.334998 28.3625008,108.862502 28.2075,108.3975 C28.0524993,107.932498 27.8300015,107.517502 27.54,107.1525 C27.2499986,106.787498 26.8900022,106.492501 26.46,106.2675 C26.0299979,106.042499 25.5450027,105.93 25.005,105.93 C24.4449972,105.93 23.9425023,106.039999 23.4975,106.26 C23.0524978,106.480001 22.6775016,106.777498 22.3725,107.1525 C22.0674985,107.527502 21.8325009,107.962498 21.6675,108.4575 C21.5024992,108.952502 21.42,109.469997 21.42,110.01 C21.42,110.540003 21.4899993,111.049998 21.63,111.54 C21.7700007,112.030002 21.9899985,112.464998 22.29,112.845 C22.5900015,113.225002 22.9699977,113.527499 23.43,113.7525 C23.8900023,113.977501 24.4399968,114.09 25.08,114.09 C25.470002,114.09 25.8549981,114.035001 26.235,113.925 C26.6150019,113.814999 26.9574985,113.677501 27.2625,113.5125 C27.5675016,113.347499 27.8124991,113.170001 27.9975,112.98 C28.182501,112.789999 28.275,112.615001 28.275,112.455 C28.275,112.264999 28.2250005,112.120001 28.125,112.02 C28.0249995,111.92 27.9150006,111.87 27.795,111.87 C27.6749994,111.87 27.5475007,111.924999 27.4125,112.035 C27.2774994,112.145001 27.112501,112.267499 26.9175,112.4025 C26.7224991,112.537501 26.4800015,112.662499 26.19,112.7775 C25.8999986,112.892501 25.5350022,112.95 25.095,112.95 C24.7249982,112.95 24.3950015,112.887501 24.105,112.7625 C23.8149986,112.637499 23.5675011,112.465001 23.3625,112.245 C23.157499,112.024999 23.0025006,111.767501 22.8975,111.4725 C22.7924995,111.177499 22.74,110.860002 22.74,110.52 L27.705,110.52 Z M22.74,109.53 C22.7500001,109.229999 22.7974996,108.930002 22.8825,108.63 C22.9675005,108.329999 23.0999991,108.062501 23.28,107.8275 C23.4600009,107.592499 23.6899986,107.402501 23.97,107.2575 C24.2500014,107.112499 24.594998,107.05 25.005,107.07 C25.3650018,107.07 25.6799987,107.144999 25.95,107.295 C26.2200014,107.445001 26.4399992,107.637499 26.61,107.8725 C26.7800009,108.107501 26.9074996,108.369999 26.9925,108.66 C27.0775005,108.950001 27.12,109.239999 27.12,109.53 L22.74,109.53 Z M30.7300001,106.02 L30.1900001,106.02 C29.7499979,106.02 29.5300001,106.209998 29.5300001,106.59 C29.5300001,106.970002 29.7499979,107.16 30.1900001,107.16 L30.7300001,107.16 L30.7300001,113.385 C30.7300001,113.605001 30.7899995,113.777499 30.9100001,113.9025 C31.0300007,114.027501 31.1899991,114.09 31.3900001,114.09 C31.5900011,114.09 31.7499995,114.027501 31.8700001,113.9025 C31.9900007,113.777499 32.0500001,113.605001 32.0500001,113.385 L32.0500001,107.16 L32.5900001,107.16 C33.0300023,107.16 33.2500001,106.970002 33.2500001,106.59 C33.2500001,106.209998 33.0300023,106.02 32.5900001,106.02 L32.0500001,106.02 L32.0500001,104.295 C32.0500001,104.074999 31.9900007,103.902501 31.8700001,103.7775 C31.7499995,103.652499 31.5900011,103.59 31.3900001,103.59 C31.1899991,103.59 31.0300007,103.652499 30.9100001,103.7775 C30.7899995,103.902501 30.7300001,104.074999 30.7300001,104.295 L30.7300001,106.02 Z M40.6250001,110.52 C40.9150015,110.52 41.1099996,110.460001 41.2100001,110.34 C41.3100006,110.219999 41.3600001,110.045001 41.3600001,109.815 C41.3600001,109.334998 41.2825008,108.862502 41.1275001,108.3975 C40.9724993,107.932498 40.7500015,107.517502 40.4600001,107.1525 C40.1699986,106.787498 39.8100022,106.492501 39.3800001,106.2675 C38.9499979,106.042499 38.4650028,105.93 37.9250001,105.93 C37.3649973,105.93 36.8625023,106.039999 36.4175001,106.26 C35.9724978,106.480001 35.5975016,106.777498 35.2925001,107.1525 C34.9874985,107.527502 34.7525009,107.962498 34.5875001,108.4575 C34.4224992,108.952502 34.3400001,109.469997 34.3400001,110.01 C34.3400001,110.540003 34.4099994,111.049998 34.5500001,111.54 C34.6900008,112.030002 34.9099986,112.464998 35.2100001,112.845 C35.5100016,113.225002 35.8899978,113.527499 36.3500001,113.7525 C36.8100024,113.977501 37.3599969,114.09 38.0000001,114.09 C38.390002,114.09 38.7749982,114.035001 39.1550001,113.925 C39.535002,113.814999 39.8774985,113.677501 40.1825001,113.5125 C40.4875016,113.347499 40.7324991,113.170001 40.9175001,112.98 C41.102501,112.789999 41.1950001,112.615001 41.1950001,112.455 C41.1950001,112.264999 41.1450006,112.120001 41.0450001,112.02 C40.9449996,111.92 40.8350007,111.87 40.7150001,111.87 C40.5949995,111.87 40.4675007,111.924999 40.3325001,112.035 C40.1974994,112.145001 40.032501,112.267499 39.8375001,112.4025 C39.6424991,112.537501 39.4000015,112.662499 39.1100001,112.7775 C38.8199986,112.892501 38.4550023,112.95 38.0150001,112.95 C37.6449982,112.95 37.3150015,112.887501 37.0250001,112.7625 C36.7349986,112.637499 36.4875011,112.465001 36.2825001,112.245 C36.077499,112.024999 35.9225006,111.767501 35.8175001,111.4725 C35.7124995,111.177499 35.6600001,110.860002 35.6600001,110.52 L40.6250001,110.52 Z M35.6600001,109.53 C35.6700001,109.229999 35.7174996,108.930002 35.8025001,108.63 C35.8875005,108.329999 36.0199992,108.062501 36.2000001,107.8275 C36.380001,107.592499 36.6099987,107.402501 36.8900001,107.2575 C37.1700015,107.112499 37.514998,107.05 37.9250001,107.07 C38.2850019,107.07 38.5999987,107.144999 38.8700001,107.295 C39.1400014,107.445001 39.3599992,107.637499 39.5300001,107.8725 C39.7000009,108.107501 39.8274996,108.369999 39.9125001,108.66 C39.9975005,108.950001 40.0400001,109.239999 40.0400001,109.53 L35.6600001,109.53 Z M0.87,163.385 C0.87,163.605001 0.9299994,163.777499 1.05,163.9025 C1.1700006,164.027501 1.329999,164.09 1.53,164.09 C1.730001,164.09 1.8899994,164.027501 2.01,163.9025 C2.1300006,163.777499 2.19,163.605001 2.19,163.385 L2.19,159.59 C2.19,159.199998 2.24499945,158.870001 2.355,158.6 C2.46500055,158.329999 2.60249918,158.105001 2.7675,157.925 C2.93250083,157.744999 3.11999895,157.6075 3.33,157.5125 C3.54000105,157.4175 3.73999905,157.355 3.93,157.325 C4.48000275,157.224999 4.755,156.985002 4.755,156.605 C4.755,156.414999 4.69000065,156.255001 4.56,156.125 C4.42999935,155.994999 4.25000115,155.93 4.02,155.93 C3.82999905,155.93 3.64250093,155.9725 3.4575,156.0575 C3.27249908,156.1425 3.10250078,156.252499 2.9475,156.3875 C2.79249923,156.522501 2.65250063,156.672499 2.5275,156.8375 C2.40249938,157.002501 2.3000004,157.159999 2.22,157.31 L2.19,157.31 L2.19,156.635 C2.19,156.414999 2.1300006,156.242501 2.01,156.1175 C1.8899994,155.992499 1.730001,155.93 1.53,155.93 C1.329999,155.93 1.1700006,155.992499 1.05,156.1175 C0.9299994,156.242501 0.87,156.414999 0.87,156.635 L0.87,163.385 Z M12.01,160.52 C12.3000015,160.52 12.4949995,160.460001 12.595,160.34 C12.6950005,160.219999 12.745,160.045001 12.745,159.815 C12.745,159.334998 12.6675008,158.862502 12.5125,158.3975 C12.3574992,157.932498 12.1350015,157.517502 11.845,157.1525 C11.5549986,156.787498 11.1950022,156.492501 10.765,156.2675 C10.3349979,156.042499 9.85000271,155.93 9.31000001,155.93 C8.74999721,155.93 8.24750224,156.039999 7.80250001,156.26 C7.35749779,156.480001 6.98250154,156.777498 6.67750001,157.1525 C6.37249849,157.527502 6.13750084,157.962498 5.97250001,158.4575 C5.80749919,158.952502 5.72500001,159.469997 5.72500001,160.01 C5.72500001,160.540003 5.79499931,161.049998 5.93500001,161.54 C6.07500071,162.030002 6.29499851,162.464998 6.59500001,162.845 C6.89500151,163.225002 7.27499771,163.527499 7.73500001,163.7525 C8.19500231,163.977501 8.74499681,164.09 9.38500001,164.09 C9.77500196,164.09 10.1599981,164.035001 10.54,163.925 C10.9200019,163.814999 11.2624985,163.677501 11.5675,163.5125 C11.8725015,163.347499 12.1174991,163.170001 12.3025,162.98 C12.4875009,162.789999 12.58,162.615001 12.58,162.455 C12.58,162.264999 12.5300005,162.120001 12.43,162.02 C12.3299995,161.92 12.2200006,161.87 12.1,161.87 C11.9799994,161.87 11.8525007,161.924999 11.7175,162.035 C11.5824993,162.145001 11.417501,162.267499 11.2225,162.4025 C11.027499,162.537501 10.7850015,162.662499 10.495,162.7775 C10.2049986,162.892501 9.84000221,162.95 9.40000001,162.95 C9.02999816,162.95 8.70000146,162.887501 8.41000001,162.7625 C8.11999856,162.637499 7.87250104,162.465001 7.66750001,162.245 C7.46249899,162.024999 7.30750054,161.767501 7.20250001,161.4725 C7.09749949,161.177499 7.04500001,160.860002 7.04500001,160.52 L12.01,160.52 Z M7.04500001,159.53 C7.05500006,159.229998 7.10249959,158.930002 7.18750001,158.63 C7.27250044,158.329998 7.40499911,158.062501 7.58500001,157.8275 C7.76500091,157.592499 7.99499861,157.402501 8.27500001,157.2575 C8.55500141,157.112499 8.89999796,157.05 9.31000001,157.07 C9.67000181,157.07 9.98499866,157.144999 10.255,157.295 C10.5250014,157.445001 10.7449992,157.637499 10.915,157.8725 C11.0850009,158.107501 11.2124996,158.369999 11.2975,158.66 C11.3825004,158.950001 11.425,159.239999 11.425,159.53 L7.04500001,159.53 Z M15.035,156.02 L14.495,156.02 C14.0549978,156.02 13.835,156.209998 13.835,156.59 C13.835,156.970002 14.0549978,157.16 14.495,157.16 L15.035,157.16 L15.035,163.385 C15.035,163.605001 15.0949994,163.777499 15.215,163.9025 C15.3350006,164.027501 15.494999,164.09 15.695,164.09 C15.895001,164.09 16.0549994,164.027501 16.175,163.9025 C16.2950006,163.777499 16.355,163.605001 16.355,163.385 L16.355,157.16 L16.895,157.16 C17.3350022,157.16 17.555,156.970002 17.555,156.59 C17.555,156.209998 17.3350022,156.02 16.895,156.02 L16.355,156.02 L16.355,154.295 C16.355,154.074999 16.2950006,153.902501 16.175,153.7775 C16.0549994,153.652499 15.895001,153.59 15.695,153.59 C15.494999,153.59 15.3350006,153.652499 15.215,153.7775 C15.0949994,153.902501 15.035,154.074999 15.035,154.295 L15.035,156.02 Z M19.125,160.91 C19.125,161.490003 19.2149991,161.982498 19.395,162.3875 C19.5750009,162.792502 19.8124986,163.122499 20.1075,163.3775 C20.4025015,163.632501 20.7399981,163.814999 21.12,163.925 C21.5000019,164.035001 21.889998,164.09 22.29,164.09 C22.690002,164.09 23.0799981,164.035001 23.46,163.925 C23.8400019,163.814999 24.1774986,163.632501 24.4725,163.3775 C24.7675015,163.122499 25.0049991,162.792502 25.185,162.3875 C25.3650009,161.982498 25.455,161.490003 25.455,160.91 L25.455,156.635 C25.455,156.414999 25.3950006,156.242501 25.275,156.1175 C25.1549994,155.992499 24.995001,155.93 24.795,155.93 C24.594999,155.93 24.4350006,155.992499 24.315,156.1175 C24.1949994,156.242501 24.135,156.414999 24.135,156.635 L24.135,160.865 C24.135,162.255007 23.5200062,162.95 22.29,162.95 C21.0599939,162.95 20.445,162.255007 20.445,160.865 L20.445,156.635 C20.445,156.414999 20.3850006,156.242501 20.265,156.1175 C20.1449994,155.992499 19.985001,155.93 19.785,155.93 C19.584999,155.93 19.4250006,155.992499 19.305,156.1175 C19.1849994,156.242501 19.125,156.414999 19.125,156.635 L19.125,160.91 Z M27.8050001,163.385 C27.8050001,163.605001 27.8649995,163.777499 27.9850001,163.9025 C28.1050007,164.027501 28.2649991,164.09 28.4650001,164.09 C28.6650011,164.09 28.8249995,164.027501 28.9450001,163.9025 C29.0650007,163.777499 29.1250001,163.605001 29.1250001,163.385 L29.1250001,159.59 C29.1250001,159.199998 29.1799995,158.870001 29.2900001,158.6 C29.4000006,158.329999 29.5374992,158.105001 29.7025001,157.925 C29.8675009,157.744999 30.054999,157.6075 30.2650001,157.5125 C30.4750011,157.4175 30.6749991,157.355 30.8650001,157.325 C31.4150028,157.224999 31.6900001,156.985002 31.6900001,156.605 C31.6900001,156.414999 31.6250007,156.255001 31.4950001,156.125 C31.3649994,155.994999 31.1850012,155.93 30.9550001,155.93 C30.7649991,155.93 30.577501,155.9725 30.3925001,156.0575 C30.2074991,156.1425 30.0375008,156.252499 29.8825001,156.3875 C29.7274993,156.522501 29.5875007,156.672499 29.4625001,156.8375 C29.3374994,157.002501 29.2350005,157.159999 29.1550001,157.31 L29.1250001,157.31 L29.1250001,156.635 C29.1250001,156.414999 29.0650007,156.242501 28.9450001,156.1175 C28.8249995,155.992499 28.6650011,155.93 28.4650001,155.93 C28.2649991,155.93 28.1050007,155.992499 27.9850001,156.1175 C27.8649995,156.242501 27.8050001,156.414999 27.8050001,156.635 L27.8050001,163.385 Z M33.1400001,163.385 C33.1400001,163.605001 33.1999995,163.777499 33.3200001,163.9025 C33.4400007,164.027501 33.5999991,164.09 33.8000001,164.09 C34.0000011,164.09 34.1599995,164.027501 34.2800001,163.9025 C34.4000007,163.777499 34.4600001,163.605001 34.4600001,163.385 L34.4600001,159.035 C34.4600001,158.684998 34.5149995,158.385001 34.6250001,158.135 C34.7350006,157.884999 34.8774992,157.682501 35.0525001,157.5275 C35.2275009,157.372499 35.424999,157.2575 35.6450001,157.1825 C35.8650012,157.1075 36.084999,157.07 36.3050001,157.07 C36.5250012,157.07 36.744999,157.1075 36.9650001,157.1825 C37.1850012,157.2575 37.3824992,157.372499 37.5575001,157.5275 C37.7325009,157.682501 37.8749995,157.884999 37.9850001,158.135 C38.0950006,158.385001 38.1500001,158.684998 38.1500001,159.035 L38.1500001,163.385 C38.1500001,163.605001 38.2099995,163.777499 38.3300001,163.9025 C38.4500007,164.027501 38.6099991,164.09 38.8100001,164.09 C39.0100011,164.09 39.1699995,164.027501 39.2900001,163.9025 C39.4100007,163.777499 39.4700001,163.605001 39.4700001,163.385 L39.4700001,158.96 C39.4700001,158.399997 39.3825009,157.927502 39.2075001,157.5425 C39.0324992,157.157498 38.8100014,156.845001 38.5400001,156.605 C38.2699987,156.364999 37.9725017,156.192501 37.6475001,156.0875 C37.3224984,155.982499 37.0050016,155.93 36.6950001,155.93 C36.2949981,155.93 35.900002,156.009999 35.5100001,156.17 C35.1199981,156.330001 34.7800015,156.599998 34.4900001,156.98 L34.4600001,156.95 L34.4600001,156.635 C34.4600001,156.414999 34.4000007,156.242501 34.2800001,156.1175 C34.1599995,155.992499 34.0000011,155.93 33.8000001,155.93 C33.5999991,155.93 33.4400007,155.992499 33.3200001,156.1175 C33.1999995,156.242501 33.1400001,156.414999 33.1400001,156.635 L33.1400001,163.385 Z M0.69,208.18 C0.69,208.550002 0.79499895,208.862499 1.005,209.1175 C1.21500105,209.372501 1.47749843,209.592499 1.7925,209.7775 C2.10750158,209.962501 2.44999815,210.127499 2.82,210.2725 C3.19000185,210.417501 3.53249843,210.564999 3.8475,210.715 C4.16250158,210.865001 4.42499895,211.029999 4.635,211.21 C4.84500105,211.390001 4.95,211.609999 4.95,211.87 C4.95,212.140001 4.81250138,212.387499 4.5375,212.6125 C4.26249863,212.837501 3.8850024,212.95 3.405,212.95 C3.0449982,212.95 2.74000125,212.900001 2.49,212.8 C2.23999875,212.699999 2.02000095,212.587501 1.83,212.4625 C1.63999905,212.337499 1.4750007,212.225 1.335,212.125 C1.1949993,212.025 1.05000075,211.975 0.9,211.975 C0.7599993,211.975 0.63500055,212.029999 0.525,212.14 C0.41499945,212.250001 0.36,212.394999 0.36,212.575 C0.36,212.745001 0.437499225,212.919999 0.5925,213.1 C0.747500775,213.280001 0.95999865,213.442499 1.23,213.5875 C1.50000135,213.732501 1.81749818,213.8525 2.1825,213.9475 C2.54750183,214.0425 2.9399979,214.09 3.36,214.09 C3.73000185,214.09 4.08999825,214.040001 4.44,213.94 C4.79000175,213.84 5.09999865,213.687501 5.37,213.4825 C5.64000135,213.277499 5.85749918,213.022502 6.0225,212.7175 C6.18750083,212.412498 6.27,212.050002 6.27,211.63 C6.27,211.239998 6.16500105,210.915001 5.955,210.655 C5.74499895,210.394999 5.48250158,210.172501 5.1675,209.9875 C4.85249843,209.802499 4.51000185,209.642501 4.14,209.5075 C3.76999815,209.372499 3.42750158,209.237501 3.1125,209.1025 C2.79749843,208.967499 2.53500105,208.820001 2.325,208.66 C2.11499895,208.499999 2.01,208.305001 2.01,208.075 C2.01,207.734998 2.14749863,207.482501 2.4225,207.3175 C2.69750138,207.152499 3.0249981,207.07 3.405,207.07 C3.7250016,207.07 3.984999,207.1125 4.185,207.1975 C4.385001,207.2825 4.5549993,207.375 4.695,207.475 C4.8350007,207.575 4.96249943,207.6675 5.0775,207.7525 C5.19250058,207.8375 5.3199993,207.88 5.46,207.88 C5.660001,207.88 5.8099995,207.825001 5.91,207.715 C6.0100005,207.604999 6.06,207.480001 6.06,207.34 C6.06,207.129999 5.97250088,206.940001 5.7975,206.77 C5.62249913,206.599999 5.4050013,206.452501 5.145,206.3275 C4.8849987,206.202499 4.59750158,206.105 4.2825,206.035 C3.96749843,205.965 3.67500135,205.93 3.405,205.93 C3.07499835,205.93 2.74750163,205.9775 2.4225,206.0725 C2.09749838,206.1675 1.80750128,206.309999 1.5525,206.5 C1.29749873,206.690001 1.0900008,206.924999 0.93,207.205 C0.7699992,207.485001 0.69,207.809998 0.69,208.18 L0.69,208.18 Z M9.38500001,210.01 C9.38500001,209.669998 9.42249964,209.327502 9.49750001,208.9825 C9.57250039,208.637498 9.69749914,208.322501 9.87250001,208.0375 C10.0475009,207.752499 10.2749986,207.520001 10.555,207.34 C10.8350014,207.159999 11.174998,207.07 11.575,207.07 C11.9850021,207.07 12.3274986,207.159999 12.6025,207.34 C12.8775014,207.520001 13.1024991,207.752499 13.2775,208.0375 C13.4525009,208.322501 13.5774996,208.637498 13.6525,208.9825 C13.7275004,209.327502 13.765,209.669998 13.765,210.01 C13.765,210.350002 13.7275004,210.692498 13.6525,211.0375 C13.5774996,211.382502 13.4525009,211.697499 13.2775,211.9825 C13.1024991,212.267501 12.8775014,212.499999 12.6025,212.68 C12.3274986,212.860001 11.9850021,212.95 11.575,212.95 C11.174998,212.95 10.8350014,212.860001 10.555,212.68 C10.2749986,212.499999 10.0475009,212.267501 9.87250001,211.9825 C9.69749914,211.697499 9.57250039,211.382502 9.49750001,211.0375 C9.42249964,210.692498 9.38500001,210.350002 9.38500001,210.01 L9.38500001,210.01 Z M8.20000001,216.535 C8.20000001,216.755001 8.25999941,216.927499 8.38000001,217.0525 C8.50000061,217.177501 8.65999901,217.24 8.86000001,217.24 C9.06000101,217.24 9.21999941,217.177501 9.34000001,217.0525 C9.46000061,216.927499 9.52000001,216.755001 9.52000001,216.535 L9.52000001,213.01 L9.55000001,213.01 C9.64000046,213.130001 9.74999936,213.254999 9.88000001,213.385 C10.0100007,213.515001 10.1649991,213.632499 10.345,213.7375 C10.5250009,213.842501 10.7274989,213.9275 10.9525,213.9925 C11.1775011,214.0575 11.4199987,214.09 11.68,214.09 C12.2200027,214.09 12.6999979,213.977501 13.12,213.7525 C13.5400021,213.527499 13.8974985,213.225002 14.1925,212.845 C14.4875015,212.464998 14.7099993,212.030002 14.86,211.54 C15.0100008,211.049998 15.085,210.540003 15.085,210.01 C15.085,209.479997 15.0100008,208.970002 14.86,208.48 C14.7099993,207.989998 14.4875015,207.555002 14.1925,207.175 C13.8974985,206.794998 13.5400021,206.492501 13.12,206.2675 C12.6999979,206.042499 12.2200027,205.93 11.68,205.93 C10.6399948,205.93 9.93000191,206.294996 9.55000001,207.025 L9.52000001,207.025 L9.52000001,206.635 C9.52000001,206.414999 9.46000061,206.242501 9.34000001,206.1175 C9.21999941,205.992499 9.06000101,205.93 8.86000001,205.93 C8.65999901,205.93 8.50000061,205.992499 8.38000001,206.1175 C8.25999941,206.242501 8.20000001,206.414999 8.20000001,206.635 L8.20000001,216.535 Z M23.69,206.575 C23.69,206.344999 23.6200007,206.180001 23.48,206.08 C23.3399993,205.979999 23.2050007,205.93 23.075,205.93 C22.9349993,205.93 22.7975007,205.979999 22.6625,206.08 C22.5274994,206.180001 22.46,206.344999 22.46,206.575 L22.46,206.995 L22.43,206.995 C22.1199985,206.654998 21.7950017,206.392501 21.455,206.2075 C21.1149983,206.022499 20.7150023,205.93 20.255,205.93 C19.6949972,205.93 19.1975022,206.042499 18.7625,206.2675 C18.3274979,206.492501 17.9600015,206.794998 17.66,207.175 C17.3599985,207.555002 17.1325008,207.989998 16.9775,208.48 C16.8224993,208.970002 16.745,209.479997 16.745,210.01 C16.745,210.540003 16.8224993,211.049998 16.9775,211.54 C17.1325008,212.030002 17.3599985,212.464998 17.66,212.845 C17.9600015,213.225002 18.3274979,213.527499 18.7625,213.7525 C19.1975022,213.977501 19.6949972,214.09 20.255,214.09 C20.6850022,214.09 21.0824982,213.992501 21.4475,213.7975 C21.8125019,213.602499 22.1399986,213.300002 22.43,212.89 L22.46,212.89 L22.46,213.445 C22.46,213.675001 22.5274994,213.84 22.6625,213.94 C22.7975007,214.040001 22.9349993,214.09 23.075,214.09 C23.2050007,214.09 23.3399993,214.040001 23.48,213.94 C23.6200007,213.84 23.69,213.675001 23.69,213.445 L23.69,206.575 Z M18.065,210.01 C18.065,209.669998 18.1024997,209.327502 18.1775,208.9825 C18.2525004,208.637498 18.3774992,208.322501 18.5525,208.0375 C18.7275009,207.752499 18.9549986,207.520001 19.235,207.34 C19.5150014,207.159999 19.854998,207.07 20.255,207.07 C20.6650021,207.07 21.0074987,207.159999 21.2825,207.34 C21.5575014,207.520001 21.7824992,207.752499 21.9575,208.0375 C22.1325009,208.322501 22.2574997,208.637498 22.3325,208.9825 C22.4075004,209.327502 22.445,209.669998 22.445,210.01 C22.445,210.350002 22.4075004,210.692498 22.3325,211.0375 C22.2574997,211.382502 22.1325009,211.697499 21.9575,211.9825 C21.7824992,212.267501 21.5575014,212.499999 21.2825,212.68 C21.0074987,212.860001 20.6650021,212.95 20.255,212.95 C19.854998,212.95 19.5150014,212.860001 19.235,212.68 C18.9549986,212.499999 18.7275009,212.267501 18.5525,211.9825 C18.3774992,211.697499 18.2525004,211.382502 18.1775,211.0375 C18.1024997,210.692498 18.065,210.350002 18.065,210.01 L18.065,210.01 Z M25.695,210.01 C25.695,210.540003 25.7674993,211.049998 25.9125,211.54 C26.0575008,212.030002 26.2799985,212.464998 26.58,212.845 C26.8800015,213.225002 27.2549978,213.527499 27.705,213.7525 C28.1550023,213.977501 28.684997,214.09 29.295,214.09 C29.9850035,214.09 30.5074983,213.980001 30.8625,213.76 C31.2175018,213.539999 31.395,213.305001 31.395,213.055 C31.395,212.874999 31.3475005,212.7375 31.2525,212.6425 C31.1574996,212.5475 31.0350008,212.5 30.885,212.5 C30.7849995,212.5 30.6875005,212.5225 30.5925,212.5675 C30.4974996,212.6125 30.3925006,212.665 30.2775,212.725 C30.1624995,212.785 30.0275008,212.8375 29.8725,212.8825 C29.7174993,212.9275 29.5250012,212.95 29.295,212.95 C28.884998,212.95 28.5350015,212.860001 28.245,212.68 C27.9549986,212.499999 27.7200009,212.267501 27.54,211.9825 C27.3599991,211.697499 27.2275005,211.382502 27.1425,211.0375 C27.0574996,210.692498 27.015,210.350002 27.015,210.01 C27.015,209.669998 27.0574996,209.327502 27.1425,208.9825 C27.2275005,208.637498 27.3599991,208.322501 27.54,208.0375 C27.7200009,207.752499 27.9549986,207.520001 28.245,207.34 C28.5350015,207.159999 28.884998,207.07 29.295,207.07 C29.5250012,207.07 29.7124993,207.0925 29.8575,207.1375 C30.0025008,207.1825 30.1324995,207.23 30.2475,207.28 C30.3625006,207.33 30.4674996,207.3775 30.5625,207.4225 C30.6575005,207.4675 30.7699994,207.49 30.9,207.49 C31.0600008,207.49 31.1899995,207.432501 31.29,207.3175 C31.3900005,207.202499 31.44,207.075001 31.44,206.935 C31.44,206.664999 31.2525019,206.430001 30.8775,206.23 C30.5024982,206.029999 29.9750034,205.93 29.295,205.93 C28.684997,205.93 28.1550023,206.042499 27.705,206.2675 C27.2549978,206.492501 26.8800015,206.794998 26.58,207.175 C26.2799985,207.555002 26.0575008,207.989998 25.9125,208.48 C25.7674993,208.970002 25.695,209.479997 25.695,210.01 L25.695,210.01 Z M39.1150001,210.52 C39.4050015,210.52 39.5999996,210.460001 39.7000001,210.34 C39.8000006,210.219999 39.8500001,210.045001 39.8500001,209.815 C39.8500001,209.334998 39.7725008,208.862502 39.6175001,208.3975 C39.4624993,207.932498 39.2400015,207.517502 38.9500001,207.1525 C38.6599986,206.787498 38.3000022,206.492501 37.8700001,206.2675 C37.4399979,206.042499 36.9550028,205.93 36.4150001,205.93 C35.8549973,205.93 35.3525023,206.039999 34.9075001,206.26 C34.4624978,206.480001 34.0875016,206.777498 33.7825001,207.1525 C33.4774985,207.527502 33.2425009,207.962498 33.0775001,208.4575 C32.9124992,208.952502 32.8300001,209.469997 32.8300001,210.01 C32.8300001,210.540003 32.8999994,211.049998 33.0400001,211.54 C33.1800008,212.030002 33.3999986,212.464998 33.7000001,212.845 C34.0000016,213.225002 34.3799978,213.527499 34.8400001,213.7525 C35.3000024,213.977501 35.8499969,214.09 36.4900001,214.09 C36.880002,214.09 37.2649982,214.035001 37.6450001,213.925 C38.025002,213.814999 38.3674985,213.677501 38.6725001,213.5125 C38.9775016,213.347499 39.2224991,213.170001 39.4075001,212.98 C39.592501,212.789999 39.6850001,212.615001 39.6850001,212.455 C39.6850001,212.264999 39.6350006,212.120001 39.5350001,212.02 C39.4349996,211.919999 39.3250007,211.87 39.2050001,211.87 C39.0849995,211.87 38.9575007,211.924999 38.8225001,212.035 C38.6874994,212.145001 38.522501,212.267499 38.3275001,212.4025 C38.1324991,212.537501 37.8900015,212.662499 37.6000001,212.7775 C37.3099986,212.892501 36.9450023,212.95 36.5050001,212.95 C36.1349982,212.95 35.8050015,212.887501 35.5150001,212.7625 C35.2249986,212.637499 34.9775011,212.465001 34.7725001,212.245 C34.567499,212.024999 34.4125006,211.767501 34.3075001,211.4725 C34.2024995,211.177499 34.1500001,210.860002 34.1500001,210.52 L39.1150001,210.52 Z M34.1500001,209.53 C34.1600001,209.229998 34.2074996,208.930002 34.2925001,208.63 C34.3775005,208.329998 34.5099992,208.062501 34.6900001,207.8275 C34.870001,207.592499 35.0999987,207.402501 35.3800001,207.2575 C35.6600015,207.112499 36.004998,207.05 36.4150001,207.07 C36.7750019,207.07 37.0899987,207.144999 37.3600001,207.295 C37.6300014,207.445001 37.8499992,207.637499 38.0200001,207.8725 C38.1900009,208.107501 38.3174996,208.369999 38.4025001,208.66 C38.4875005,208.950001 38.5300001,209.239999 38.5300001,209.53 L34.1500001,209.53 Z" id="func-2" sketch:type="MSShapeGroup"></path>
            </g>
            <g id="mod" sketch:type="MSLayerGroup" transform="translate(7.000000, 13.000000)" fill="#000000">
                <path d="M0.69,8.18 C0.69,8.55000185 0.79499895,8.86249872 1.005,9.1175 C1.21500105,9.37250127 1.47749843,9.59249907 1.7925,9.7775 C2.10750158,9.96250093 2.44999815,10.1274993 2.82,10.2725 C3.19000185,10.4175007 3.53249843,10.5649992 3.8475,10.715 C4.16250158,10.8650007 4.42499895,11.0299991 4.635,11.21 C4.84500105,11.3900009 4.95,11.6099987 4.95,11.87 C4.95,12.1400013 4.81250138,12.3874989 4.5375,12.6125 C4.26249863,12.8375011 3.8850024,12.95 3.405,12.95 C3.0449982,12.95 2.74000125,12.9000005 2.49,12.8 C2.23999875,12.6999995 2.02000095,12.5875006 1.83,12.4625 C1.63999905,12.3374994 1.4750007,12.2250005 1.335,12.125 C1.1949993,12.0249995 1.05000075,11.975 0.9,11.975 C0.7599993,11.975 0.63500055,12.0299994 0.525,12.14 C0.41499945,12.2500005 0.36,12.3949991 0.36,12.575 C0.36,12.7450008 0.437499225,12.9199991 0.5925,13.1 C0.747500775,13.2800009 0.95999865,13.4424993 1.23,13.5875 C1.50000135,13.7325007 1.81749818,13.8524995 2.1825,13.9475 C2.54750183,14.0425005 2.9399979,14.09 3.36,14.09 C3.73000185,14.09 4.08999825,14.0400005 4.44,13.94 C4.79000175,13.8399995 5.09999865,13.687501 5.37,13.4825 C5.64000135,13.277499 5.85749918,13.0225015 6.0225,12.7175 C6.18750083,12.4124985 6.27,12.0500021 6.27,11.63 C6.27,11.239998 6.16500105,10.9150013 5.955,10.655 C5.74499895,10.3949987 5.48250158,10.1725009 5.1675,9.9875 C4.85249843,9.80249907 4.51000185,9.64250067 4.14,9.5075 C3.76999815,9.37249932 3.42750158,9.23750067 3.1125,9.1025 C2.79749843,8.96749932 2.53500105,8.8200008 2.325,8.66 C2.11499895,8.4999992 2.01,8.30500115 2.01,8.075 C2.01,7.7349983 2.14749863,7.48250082 2.4225,7.3175 C2.69750138,7.15249917 3.0249981,7.07 3.405,7.07 C3.7250016,7.07 3.984999,7.11249957 4.185,7.1975 C4.385001,7.28250042 4.5549993,7.3749995 4.695,7.475 C4.8350007,7.5750005 4.96249943,7.66749957 5.0775,7.7525 C5.19250058,7.83750042 5.3199993,7.88 5.46,7.88 C5.660001,7.88 5.8099995,7.82500055 5.91,7.715 C6.0100005,7.60499945 6.06,7.4800007 6.06,7.34 C6.06,7.12999895 5.97250088,6.94000085 5.7975,6.77 C5.62249913,6.59999915 5.4050013,6.45250062 5.145,6.3275 C4.8849987,6.20249937 4.59750158,6.10500035 4.2825,6.035 C3.96749843,5.96499965 3.67500135,5.93 3.405,5.93 C3.07499835,5.93 2.74750163,5.97749952 2.4225,6.0725 C2.09749838,6.16750047 1.80750128,6.30999905 1.5525,6.5 C1.29749873,6.69000095 1.0900008,6.9249986 0.93,7.205 C0.7699992,7.4850014 0.69,7.80999815 0.69,8.18 L0.69,8.18 Z M13.15,13.385 C13.15,13.6050011 13.2099994,13.7774994 13.33,13.9025 C13.4500006,14.0275006 13.609999,14.09 13.81,14.09 C14.010001,14.09 14.1699994,14.0275006 14.29,13.9025 C14.4100006,13.7774994 14.47,13.6050011 14.47,13.385 L14.47,8.96 C14.47,8.3999972 14.3825009,7.92750192 14.2075,7.5425 C14.0324991,7.15749807 13.8100014,6.8450012 13.54,6.605 C13.2699987,6.3649988 12.9725016,6.19250052 12.6475,6.0875 C12.3224984,5.98249947 12.0050016,5.93 11.695,5.93 C11.294998,5.93 10.900002,6.0099992 10.51,6.17 C10.1199981,6.3300008 9.78000146,6.5999981 9.49000001,6.98 L9.46000001,6.95 L9.46000001,3.125 C9.46000001,2.9049989 9.40000061,2.73250062 9.28000001,2.6075 C9.15999941,2.48249937 9.00000101,2.42 8.80000001,2.42 C8.59999901,2.42 8.44000061,2.48249937 8.32000001,2.6075 C8.19999941,2.73250062 8.14000001,2.9049989 8.14000001,3.125 L8.14000001,13.385 C8.14000001,13.6050011 8.19999941,13.7774994 8.32000001,13.9025 C8.44000061,14.0275006 8.59999901,14.09 8.80000001,14.09 C9.00000101,14.09 9.15999941,14.0275006 9.28000001,13.9025 C9.40000061,13.7774994 9.46000001,13.6050011 9.46000001,13.385 L9.46000001,9.035 C9.46000001,8.68499825 9.51499946,8.38500125 9.62500001,8.135 C9.73500056,7.88499875 9.87749914,7.68250077 10.0525,7.5275 C10.2275009,7.37249922 10.4249989,7.25750037 10.645,7.1825 C10.8650011,7.10749962 11.0849989,7.07 11.305,7.07 C11.5250011,7.07 11.7449989,7.10749962 11.965,7.1825 C12.1850011,7.25750037 12.3824991,7.37249922 12.5575,7.5275 C12.7325009,7.68250077 12.8749995,7.88499875 12.985,8.135 C13.0950006,8.38500125 13.15,8.68499825 13.15,9.035 L13.15,13.385 Z M18.14,6.635 C18.14,6.4149989 18.0800006,6.24250062 17.96,6.1175 C17.8399994,5.99249937 17.680001,5.93 17.48,5.93 C17.279999,5.93 17.1200006,5.99249937 17,6.1175 C16.8799994,6.24250062 16.82,6.4149989 16.82,6.635 L16.82,13.385 C16.82,13.6050011 16.8799994,13.7774994 17,13.9025 C17.1200006,14.0275006 17.279999,14.09 17.48,14.09 C17.680001,14.09 17.8399994,14.0275006 17.96,13.9025 C18.0800006,13.7774994 18.14,13.6050011 18.14,13.385 L18.14,6.635 Z M16.67,4.04 C16.67,4.27000115 16.7474993,4.46249922 16.9025,4.6175 C17.0575008,4.77250077 17.2499989,4.85 17.48,4.85 C17.7100012,4.85 17.9024993,4.77250077 18.0575,4.6175 C18.2125008,4.46249922 18.29,4.27000115 18.29,4.04 C18.29,3.80999885 18.2125008,3.61750077 18.0575,3.4625 C17.9024993,3.30749922 17.7100012,3.23 17.48,3.23 C17.2499989,3.23 17.0575008,3.30749922 16.9025,3.4625 C16.7474993,3.61750077 16.67,3.80999885 16.67,4.04 L16.67,4.04 Z M22.23,7.16 L23.055,7.16 C23.4950022,7.16 23.715,6.9700019 23.715,6.59 C23.715,6.2099981 23.4950022,6.02 23.055,6.02 L22.23,6.02 L22.23,4.085 C22.23,3.91499915 22.2699996,3.78500045 22.35,3.695 C22.4300004,3.60499955 22.569999,3.56 22.77,3.56 L23.1,3.56 C23.5800024,3.56 23.82,3.3700019 23.82,2.99 C23.82,2.8099991 23.7375009,2.6700005 23.5725,2.57 C23.4074992,2.4699995 23.2400009,2.42 23.07,2.42 L22.665,2.42 C22.1849976,2.42 21.7725018,2.56249857 21.4275,2.8475 C21.0824983,3.13250142 20.91,3.5649971 20.91,4.145 L20.91,6.02 L20.37,6.02 C19.9299978,6.02 19.71,6.2099981 19.71,6.59 C19.71,6.9700019 19.9299978,7.16 20.37,7.16 L20.91,7.16 L20.91,13.385 C20.91,13.6050011 20.9699994,13.7774994 21.09,13.9025 C21.2100006,14.0275006 21.369999,14.09 21.57,14.09 C21.770001,14.09 21.9299994,14.0275006 22.05,13.9025 C22.1700006,13.7774994 22.23,13.6050011 22.23,13.385 L22.23,7.16 Z M25.4050001,6.02 L24.8650001,6.02 C24.4249979,6.02 24.2050001,6.2099981 24.2050001,6.59 C24.2050001,6.9700019 24.4249979,7.16 24.8650001,7.16 L25.4050001,7.16 L25.4050001,13.385 C25.4050001,13.6050011 25.4649995,13.7774994 25.5850001,13.9025 C25.7050007,14.0275006 25.8649991,14.09 26.0650001,14.09 C26.2650011,14.09 26.4249995,14.0275006 26.5450001,13.9025 C26.6650007,13.7774994 26.7250001,13.6050011 26.7250001,13.385 L26.7250001,7.16 L27.2650001,7.16 C27.7050023,7.16 27.9250001,6.9700019 27.9250001,6.59 C27.9250001,6.2099981 27.7050023,6.02 27.2650001,6.02 L26.7250001,6.02 L26.7250001,4.295 C26.7250001,4.0749989 26.6650007,3.90250062 26.5450001,3.7775 C26.4249995,3.65249937 26.2650011,3.59 26.0650001,3.59 C25.8649991,3.59 25.7050007,3.65249937 25.5850001,3.7775 C25.4649995,3.90250062 25.4050001,4.0749989 25.4050001,4.295 L25.4050001,6.02 Z M0.525,60.01 C0.525,60.5400026 0.597499275,61.0499975 0.7425,61.54 C0.887500725,62.0300024 1.1099985,62.4649981 1.41,62.845 C1.7100015,63.2250019 2.08499775,63.5274989 2.535,63.7525 C2.98500225,63.9775011 3.51499695,64.09 4.125,64.09 C4.81500345,64.09 5.33749823,63.9800011 5.6925,63.76 C6.04750178,63.5399989 6.225,63.3050012 6.225,63.055 C6.225,62.8749991 6.17750048,62.7375005 6.0825,62.6425 C5.98749953,62.5474995 5.86500075,62.5 5.715,62.5 C5.6149995,62.5 5.51750048,62.5224998 5.4225,62.5675 C5.32749953,62.6125002 5.22250058,62.6649997 5.1075,62.725 C4.99249943,62.7850003 4.85750078,62.8374998 4.7025,62.8825 C4.54749923,62.9275002 4.35500115,62.95 4.125,62.95 C3.71499795,62.95 3.36500145,62.8600009 3.075,62.68 C2.78499855,62.4999991 2.5500009,62.2675014 2.37,61.9825 C2.1899991,61.6974986 2.05750043,61.3825017 1.9725,61.0375 C1.88749958,60.6924983 1.845,60.3500017 1.845,60.01 C1.845,59.6699983 1.88749958,59.3275017 1.9725,58.9825 C2.05750043,58.6374983 2.1899991,58.3225014 2.37,58.0375 C2.5500009,57.7524986 2.78499855,57.5200009 3.075,57.34 C3.36500145,57.1599991 3.71499795,57.07 4.125,57.07 C4.35500115,57.07 4.54249928,57.0924998 4.6875,57.1375 C4.83250073,57.1825002 4.96249943,57.2299997 5.0775,57.28 C5.19250058,57.3300002 5.29749953,57.3774998 5.3925,57.4225 C5.48750048,57.4675002 5.59999935,57.49 5.73,57.49 C5.8900008,57.49 6.0199995,57.4325006 6.12,57.3175 C6.2200005,57.2024994 6.27,57.0750007 6.27,56.935 C6.27,56.6649987 6.08250188,56.430001 5.7075,56.23 C5.33249813,56.029999 4.8050034,55.93 4.125,55.93 C3.51499695,55.93 2.98500225,56.0424989 2.535,56.2675 C2.08499775,56.4925011 1.7100015,56.7949981 1.41,57.175 C1.1099985,57.5550019 0.887500725,57.9899975 0.7425,58.48 C0.597499275,58.9700024 0.525,59.4799973 0.525,60.01 L0.525,60.01 Z M7.79500001,60.01 C7.79500001,60.5400026 7.87249924,61.0499975 8.02750001,61.54 C8.18250079,62.0300024 8.40999851,62.4649981 8.71000001,62.845 C9.01000151,63.2250019 9.37749784,63.5274989 9.81250001,63.7525 C10.2475022,63.9775011 10.7449972,64.09 11.305,64.09 C11.8650028,64.09 12.3624978,63.9775011 12.7975,63.7525 C13.2325022,63.5274989 13.5999985,63.2250019 13.9,62.845 C14.2000015,62.4649981 14.4274992,62.0300024 14.5825,61.54 C14.7375008,61.0499975 14.815,60.5400026 14.815,60.01 C14.815,59.4799973 14.7375008,58.9700024 14.5825,58.48 C14.4274992,57.9899975 14.2000015,57.5550019 13.9,57.175 C13.5999985,56.7949981 13.2325022,56.4925011 12.7975,56.2675 C12.3624978,56.0424989 11.8650028,55.93 11.305,55.93 C10.7449972,55.93 10.2475022,56.0424989 9.81250001,56.2675 C9.37749784,56.4925011 9.01000151,56.7949981 8.71000001,57.175 C8.40999851,57.5550019 8.18250079,57.9899975 8.02750001,58.48 C7.87249924,58.9700024 7.79500001,59.4799973 7.79500001,60.01 L7.79500001,60.01 Z M9.11500001,60.01 C9.11500001,59.6699983 9.15249964,59.3275017 9.22750001,58.9825 C9.30250039,58.6374983 9.42749914,58.3225014 9.60250001,58.0375 C9.77750089,57.7524986 10.0049986,57.5200009 10.285,57.34 C10.5650014,57.1599991 10.904998,57.07 11.305,57.07 C11.7150021,57.07 12.0574986,57.1599991 12.3325,57.34 C12.6075014,57.5200009 12.8324991,57.7524986 13.0075,58.0375 C13.1825009,58.3225014 13.3074996,58.6374983 13.3825,58.9825 C13.4575004,59.3275017 13.495,59.6699983 13.495,60.01 C13.495,60.3500017 13.4575004,60.6924983 13.3825,61.0375 C13.3074996,61.3825017 13.1825009,61.6974986 13.0075,61.9825 C12.8324991,62.2675014 12.6075014,62.4999991 12.3325,62.68 C12.0574986,62.8600009 11.7150021,62.95 11.305,62.95 C10.904998,62.95 10.5650014,62.8600009 10.285,62.68 C10.0049986,62.4999991 9.77750089,62.2675014 9.60250001,61.9825 C9.42749914,61.6974986 9.30250039,61.3825017 9.22750001,61.0375 C9.15249964,60.6924983 9.11500001,60.3500017 9.11500001,60.01 L9.11500001,60.01 Z M16.82,63.385 C16.82,63.6050011 16.8799994,63.7774994 17,63.9025 C17.1200006,64.0275006 17.279999,64.09 17.48,64.09 C17.680001,64.09 17.8399994,64.0275006 17.96,63.9025 C18.0800006,63.7774994 18.14,63.6050011 18.14,63.385 L18.14,59.035 C18.14,58.6849982 18.1949995,58.3850012 18.305,58.135 C18.4150006,57.8849987 18.5574992,57.6825008 18.7325,57.5275 C18.9075009,57.3724992 19.1049989,57.2575004 19.325,57.1825 C19.5450011,57.1074996 19.7649989,57.07 19.985,57.07 C20.2050011,57.07 20.4249989,57.1074996 20.645,57.1825 C20.8650011,57.2575004 21.0624992,57.3724992 21.2375,57.5275 C21.4125009,57.6825008 21.5549995,57.8849987 21.665,58.135 C21.7750006,58.3850012 21.83,58.6849982 21.83,59.035 L21.83,63.385 C21.83,63.6050011 21.8899994,63.7774994 22.01,63.9025 C22.1300006,64.0275006 22.289999,64.09 22.49,64.09 C22.690001,64.09 22.8499994,64.0275006 22.97,63.9025 C23.0900006,63.7774994 23.15,63.6050011 23.15,63.385 L23.15,58.96 C23.15,58.3999972 23.0625009,57.9275019 22.8875,57.5425 C22.7124992,57.1574981 22.4900014,56.8450012 22.22,56.605 C21.9499987,56.3649988 21.6525017,56.1925005 21.3275,56.0875 C21.0024984,55.9824995 20.6850016,55.93 20.375,55.93 C19.974998,55.93 19.580002,56.0099992 19.19,56.17 C18.7999981,56.3300008 18.4600015,56.5999981 18.17,56.98 L18.14,56.95 L18.14,56.635 C18.14,56.4149989 18.0800006,56.2425006 17.96,56.1175 C17.8399994,55.9924994 17.680001,55.93 17.48,55.93 C17.279999,55.93 17.1200006,55.9924994 17,56.1175 C16.8799994,56.2425006 16.82,56.4149989 16.82,56.635 L16.82,63.385 Z M25.92,56.02 L25.38,56.02 C24.9399978,56.02 24.72,56.2099981 24.72,56.59 C24.72,56.9700019 24.9399978,57.16 25.38,57.16 L25.92,57.16 L25.92,63.385 C25.92,63.6050011 25.9799994,63.7774994 26.1,63.9025 C26.2200006,64.0275006 26.379999,64.09 26.58,64.09 C26.780001,64.09 26.9399994,64.0275006 27.06,63.9025 C27.1800006,63.7774994 27.24,63.6050011 27.24,63.385 L27.24,57.16 L27.78,57.16 C28.2200022,57.16 28.44,56.9700019 28.44,56.59 C28.44,56.2099981 28.2200022,56.02 27.78,56.02 L27.24,56.02 L27.24,54.295 C27.24,54.0749989 27.1800006,53.9025006 27.06,53.7775 C26.9399994,53.6524994 26.780001,53.59 26.58,53.59 C26.379999,53.59 26.2200006,53.6524994 26.1,53.7775 C25.9799994,53.9025006 25.92,54.0749989 25.92,54.295 L25.92,56.02 Z M30.0100001,63.385 C30.0100001,63.6050011 30.0699995,63.7774994 30.1900001,63.9025 C30.3100007,64.0275006 30.4699991,64.09 30.6700001,64.09 C30.8700011,64.09 31.0299995,64.0275006 31.1500001,63.9025 C31.2700007,63.7774994 31.3300001,63.6050011 31.3300001,63.385 L31.3300001,59.59 C31.3300001,59.199998 31.3849995,58.8700013 31.4950001,58.6 C31.6050006,58.3299986 31.7424992,58.1050009 31.9075001,57.925 C32.0725009,57.7449991 32.259999,57.6075005 32.4700001,57.5125 C32.6800011,57.4174995 32.8799991,57.3550001 33.0700001,57.325 C33.6200028,57.2249995 33.8950001,56.9850019 33.8950001,56.605 C33.8950001,56.414999 33.8300007,56.2550006 33.7000001,56.125 C33.5699994,55.9949993 33.3900012,55.93 33.1600001,55.93 C32.9699991,55.93 32.782501,55.9724996 32.5975001,56.0575 C32.4124991,56.1425004 32.2425008,56.2524993 32.0875001,56.3875 C31.9324993,56.5225007 31.7925007,56.6724992 31.6675001,56.8375 C31.5424994,57.0025008 31.4400005,57.1599992 31.3600001,57.31 L31.3300001,57.31 L31.3300001,56.635 C31.3300001,56.4149989 31.2700007,56.2425006 31.1500001,56.1175 C31.0299995,55.9924994 30.8700011,55.93 30.6700001,55.93 C30.4699991,55.93 30.3100007,55.9924994 30.1900001,56.1175 C30.0699995,56.2425006 30.0100001,56.4149989 30.0100001,56.635 L30.0100001,63.385 Z M35.0000001,60.01 C35.0000001,60.5400026 35.0774993,61.0499975 35.2325001,61.54 C35.3875008,62.0300024 35.6149986,62.4649981 35.9150001,62.845 C36.2150016,63.2250019 36.5824979,63.5274989 37.0175001,63.7525 C37.4525022,63.9775011 37.9499973,64.09 38.5100001,64.09 C39.0700029,64.09 39.5674979,63.9775011 40.0025001,63.7525 C40.4375022,63.5274989 40.8049986,63.2250019 41.1050001,62.845 C41.4050016,62.4649981 41.6324993,62.0300024 41.7875001,61.54 C41.9425008,61.0499975 42.0200001,60.5400026 42.0200001,60.01 C42.0200001,59.4799973 41.9425008,58.9700024 41.7875001,58.48 C41.6324993,57.9899975 41.4050016,57.5550019 41.1050001,57.175 C40.8049986,56.7949981 40.4375022,56.4925011 40.0025001,56.2675 C39.5674979,56.0424989 39.0700029,55.93 38.5100001,55.93 C37.9499973,55.93 37.4525022,56.0424989 37.0175001,56.2675 C36.5824979,56.4925011 36.2150016,56.7949981 35.9150001,57.175 C35.6149986,57.5550019 35.3875008,57.9899975 35.2325001,58.48 C35.0774993,58.9700024 35.0000001,59.4799973 35.0000001,60.01 L35.0000001,60.01 Z M36.3200001,60.01 C36.3200001,59.6699983 36.3574997,59.3275017 36.4325001,58.9825 C36.5075004,58.6374983 36.6324992,58.3225014 36.8075001,58.0375 C36.9825009,57.7524986 37.2099987,57.5200009 37.4900001,57.34 C37.7700015,57.1599991 38.1099981,57.07 38.5100001,57.07 C38.9200021,57.07 39.2624987,57.1599991 39.5375001,57.34 C39.8125014,57.5200009 40.0374992,57.7524986 40.2125001,58.0375 C40.3875009,58.3225014 40.5124997,58.6374983 40.5875001,58.9825 C40.6625004,59.3275017 40.7000001,59.6699983 40.7000001,60.01 C40.7000001,60.3500017 40.6625004,60.6924983 40.5875001,61.0375 C40.5124997,61.3825017 40.3875009,61.6974986 40.2125001,61.9825 C40.0374992,62.2675014 39.8125014,62.4999991 39.5375001,62.68 C39.2624987,62.8600009 38.9200021,62.95 38.5100001,62.95 C38.1099981,62.95 37.7700015,62.8600009 37.4900001,62.68 C37.2099987,62.4999991 36.9825009,62.2675014 36.8075001,61.9825 C36.6324992,61.6974986 36.5075004,61.3825017 36.4325001,61.0375 C36.3574997,60.6924983 36.3200001,60.3500017 36.3200001,60.01 L36.3200001,60.01 Z M45.3450001,53.125 C45.3450001,52.9049989 45.2850007,52.7325006 45.1650001,52.6075 C45.0449995,52.4824994 44.8850011,52.42 44.6850001,52.42 C44.4849991,52.42 44.3250007,52.4824994 44.2050001,52.6075 C44.0849995,52.7325006 44.0250001,52.9049989 44.0250001,53.125 L44.0250001,63.385 C44.0250001,63.6050011 44.0849995,63.7774994 44.2050001,63.9025 C44.3250007,64.0275006 44.4849991,64.09 44.6850001,64.09 C44.8850011,64.09 45.0449995,64.0275006 45.1650001,63.9025 C45.2850007,63.7774994 45.3450001,63.6050011 45.3450001,63.385 L45.3450001,53.125 Z M0.525,110.01 C0.525,110.540003 0.597499275,111.049998 0.7425,111.54 C0.887500725,112.030002 1.1099985,112.464998 1.41,112.845 C1.7100015,113.225002 2.08499775,113.527499 2.535,113.7525 C2.98500225,113.977501 3.51499695,114.09 4.125,114.09 C4.81500345,114.09 5.33749823,113.980001 5.6925,113.76 C6.04750178,113.539999 6.225,113.305001 6.225,113.055 C6.225,112.874999 6.17750048,112.7375 6.0825,112.6425 C5.98749953,112.5475 5.86500075,112.5 5.715,112.5 C5.6149995,112.5 5.51750048,112.5225 5.4225,112.5675 C5.32749953,112.6125 5.22250058,112.665 5.1075,112.725 C4.99249943,112.785 4.85750078,112.8375 4.7025,112.8825 C4.54749923,112.9275 4.35500115,112.95 4.125,112.95 C3.71499795,112.95 3.36500145,112.860001 3.075,112.68 C2.78499855,112.499999 2.5500009,112.267501 2.37,111.9825 C2.1899991,111.697499 2.05750043,111.382502 1.9725,111.0375 C1.88749958,110.692498 1.845,110.350002 1.845,110.01 C1.845,109.669998 1.88749958,109.327502 1.9725,108.9825 C2.05750043,108.637498 2.1899991,108.322501 2.37,108.0375 C2.5500009,107.752499 2.78499855,107.520001 3.075,107.34 C3.36500145,107.159999 3.71499795,107.07 4.125,107.07 C4.35500115,107.07 4.54249928,107.0925 4.6875,107.1375 C4.83250073,107.1825 4.96249943,107.23 5.0775,107.28 C5.19250058,107.33 5.29749953,107.3775 5.3925,107.4225 C5.48750048,107.4675 5.59999935,107.49 5.73,107.49 C5.8900008,107.49 6.0199995,107.432501 6.12,107.3175 C6.2200005,107.202499 6.27,107.075001 6.27,106.935 C6.27,106.664999 6.08250188,106.430001 5.7075,106.23 C5.33249813,106.029999 4.8050034,105.93 4.125,105.93 C3.51499695,105.93 2.98500225,106.042499 2.535,106.2675 C2.08499775,106.492501 1.7100015,106.794998 1.41,107.175 C1.1099985,107.555002 0.887500725,107.989998 0.7425,108.48 C0.597499275,108.970002 0.525,109.479997 0.525,110.01 L0.525,110.01 Z M7.79500001,110.01 C7.79500001,110.540003 7.87249924,111.049998 8.02750001,111.54 C8.18250079,112.030002 8.40999851,112.464998 8.71000001,112.845 C9.01000151,113.225002 9.37749784,113.527499 9.81250001,113.7525 C10.2475022,113.977501 10.7449972,114.09 11.305,114.09 C11.8650028,114.09 12.3624978,113.977501 12.7975,113.7525 C13.2325022,113.527499 13.5999985,113.225002 13.9,112.845 C14.2000015,112.464998 14.4274992,112.030002 14.5825,111.54 C14.7375008,111.049998 14.815,110.540003 14.815,110.01 C14.815,109.479997 14.7375008,108.970002 14.5825,108.48 C14.4274992,107.989998 14.2000015,107.555002 13.9,107.175 C13.5999985,106.794998 13.2325022,106.492501 12.7975,106.2675 C12.3624978,106.042499 11.8650028,105.93 11.305,105.93 C10.7449972,105.93 10.2475022,106.042499 9.81250001,106.2675 C9.37749784,106.492501 9.01000151,106.794998 8.71000001,107.175 C8.40999851,107.555002 8.18250079,107.989998 8.02750001,108.48 C7.87249924,108.970002 7.79500001,109.479997 7.79500001,110.01 L7.79500001,110.01 Z M9.11500001,110.01 C9.11500001,109.669998 9.15249964,109.327502 9.22750001,108.9825 C9.30250039,108.637498 9.42749914,108.322501 9.60250001,108.0375 C9.77750089,107.752499 10.0049986,107.520001 10.285,107.34 C10.5650014,107.159999 10.904998,107.07 11.305,107.07 C11.7150021,107.07 12.0574986,107.159999 12.3325,107.34 C12.6075014,107.520001 12.8324991,107.752499 13.0075,108.0375 C13.1825009,108.322501 13.3074996,108.637498 13.3825,108.9825 C13.4575004,109.327502 13.495,109.669998 13.495,110.01 C13.495,110.350002 13.4575004,110.692498 13.3825,111.0375 C13.3074996,111.382502 13.1825009,111.697499 13.0075,111.9825 C12.8324991,112.267501 12.6075014,112.499999 12.3325,112.68 C12.0574986,112.860001 11.7150021,112.95 11.305,112.95 C10.904998,112.95 10.5650014,112.860001 10.285,112.68 C10.0049986,112.499999 9.77750089,112.267501 9.60250001,111.9825 C9.42749914,111.697499 9.30250039,111.382502 9.22750001,111.0375 C9.15249964,110.692498 9.11500001,110.350002 9.11500001,110.01 L9.11500001,110.01 Z M21.545,113.385 C21.545,113.605001 21.6049994,113.777499 21.725,113.9025 C21.8450006,114.027501 22.004999,114.09 22.205,114.09 C22.405001,114.09 22.5649994,114.027501 22.685,113.9025 C22.8050006,113.777499 22.865,113.605001 22.865,113.385 L22.865,108.915 C22.865,108.344997 23.0124986,107.895002 23.3075,107.565 C23.6025015,107.234998 24.0199973,107.07 24.56,107.07 C25.1000027,107.07 25.5199985,107.234998 25.82,107.565 C26.1200015,107.895002 26.27,108.344997 26.27,108.915 L26.27,113.385 C26.27,113.605001 26.3299994,113.777499 26.45,113.9025 C26.5700006,114.027501 26.729999,114.09 26.93,114.09 C27.130001,114.09 27.2899994,114.027501 27.41,113.9025 C27.5300006,113.777499 27.59,113.605001 27.59,113.385 L27.59,108.96 C27.59,108.399997 27.5025009,107.927502 27.3275,107.5425 C27.1524992,107.157498 26.9300014,106.845001 26.66,106.605 C26.3899987,106.364999 26.0925017,106.192501 25.7675,106.0875 C25.4424984,105.982499 25.1250016,105.93 24.815,105.93 C24.2349971,105.93 23.7550019,106.049999 23.375,106.29 C22.9949981,106.530001 22.6600015,106.859998 22.37,107.28 C22.0699985,106.769997 21.727502,106.417501 21.3425,106.2225 C20.9574981,106.027499 20.570002,105.93 20.18,105.93 C19.8799985,105.93 19.6225011,105.9625 19.4075,106.0275 C19.192499,106.0925 19.0050008,106.1725 18.845,106.2675 C18.6849992,106.3625 18.5525006,106.467499 18.4475,106.5825 C18.3424995,106.697501 18.2500004,106.804999 18.17,106.905 L18.14,106.875 L18.14,106.635 C18.14,106.414999 18.0800006,106.242501 17.96,106.1175 C17.8399994,105.992499 17.680001,105.93 17.48,105.93 C17.279999,105.93 17.1200006,105.992499 17,106.1175 C16.8799994,106.242501 16.82,106.414999 16.82,106.635 L16.82,113.385 C16.82,113.605001 16.8799994,113.777499 17,113.9025 C17.1200006,114.027501 17.279999,114.09 17.48,114.09 C17.680001,114.09 17.8399994,114.027501 17.96,113.9025 C18.0800006,113.777499 18.14,113.605001 18.14,113.385 L18.14,108.915 C18.14,108.344997 18.2874986,107.895002 18.5825,107.565 C18.8775015,107.234998 19.2949973,107.07 19.835,107.07 C20.3750027,107.07 20.7949985,107.234998 21.095,107.565 C21.3950015,107.895002 21.545,108.344997 21.545,108.915 L21.545,113.385 Z M34.665,113.385 C34.665,113.605001 34.7249994,113.777499 34.845,113.9025 C34.9650006,114.027501 35.124999,114.09 35.325,114.09 C35.525001,114.09 35.6849994,114.027501 35.805,113.9025 C35.9250006,113.777499 35.985,113.605001 35.985,113.385 L35.985,108.915 C35.985,108.344997 36.1324986,107.895002 36.4275,107.565 C36.7225015,107.234998 37.1399973,107.07 37.68,107.07 C38.2200027,107.07 38.6399985,107.234998 38.94,107.565 C39.2400015,107.895002 39.39,108.344997 39.39,108.915 L39.39,113.385 C39.39,113.605001 39.4499994,113.777499 39.57,113.9025 C39.6900006,114.027501 39.849999,114.09 40.05,114.09 C40.250001,114.09 40.4099994,114.027501 40.53,113.9025 C40.6500006,113.777499 40.71,113.605001 40.71,113.385 L40.71,108.96 C40.71,108.399997 40.6225009,107.927502 40.4475,107.5425 C40.2724992,107.157498 40.0500014,106.845001 39.78,106.605 C39.5099987,106.364999 39.2125017,106.192501 38.8875,106.0875 C38.5624984,105.982499 38.2450016,105.93 37.935,105.93 C37.3549971,105.93 36.8750019,106.049999 36.495,106.29 C36.1149981,106.530001 35.7800015,106.859998 35.49,107.28 C35.1899985,106.769997 34.847502,106.417501 34.4625,106.2225 C34.0774981,106.027499 33.690002,105.93 33.3,105.93 C32.9999985,105.93 32.7425011,105.9625 32.5275,106.0275 C32.312499,106.0925 32.1250008,106.1725 31.965,106.2675 C31.8049992,106.3625 31.6725006,106.467499 31.5675,106.5825 C31.4624995,106.697501 31.3700004,106.804999 31.29,106.905 L31.26,106.875 L31.26,106.635 C31.26,106.414999 31.2000006,106.242501 31.08,106.1175 C30.9599994,105.992499 30.800001,105.93 30.6,105.93 C30.399999,105.93 30.2400006,105.992499 30.12,106.1175 C29.9999994,106.242501 29.94,106.414999 29.94,106.635 L29.94,113.385 C29.94,113.605001 29.9999994,113.777499 30.12,113.9025 C30.2400006,114.027501 30.399999,114.09 30.6,114.09 C30.800001,114.09 30.9599994,114.027501 31.08,113.9025 C31.2000006,113.777499 31.26,113.605001 31.26,113.385 L31.26,108.915 C31.26,108.344997 31.4074986,107.895002 31.7025,107.565 C31.9975015,107.234998 32.4149973,107.07 32.955,107.07 C33.4950027,107.07 33.9149985,107.234998 34.215,107.565 C34.5150015,107.895002 34.665,108.344997 34.665,108.915 L34.665,113.385 Z M49.6600001,106.575 C49.6600001,106.344999 49.5900008,106.18 49.4500001,106.08 C49.3099994,105.979999 49.1750007,105.93 49.0450001,105.93 C48.9049994,105.93 48.7675007,105.979999 48.6325001,106.08 C48.4974994,106.18 48.4300001,106.344999 48.4300001,106.575 L48.4300001,106.995 L48.4000001,106.995 C48.0899985,106.654998 47.7650018,106.392501 47.4250001,106.2075 C47.0849984,106.022499 46.6850024,105.93 46.2250001,105.93 C45.6649973,105.93 45.1675022,106.042499 44.7325001,106.2675 C44.2974979,106.492501 43.9300016,106.794998 43.6300001,107.175 C43.3299986,107.555002 43.1025008,107.989998 42.9475001,108.48 C42.7924993,108.970002 42.7150001,109.479997 42.7150001,110.01 C42.7150001,110.540003 42.7924993,111.049998 42.9475001,111.54 C43.1025008,112.030002 43.3299986,112.464998 43.6300001,112.845 C43.9300016,113.225002 44.2974979,113.527499 44.7325001,113.7525 C45.1675022,113.977501 45.6649973,114.09 46.2250001,114.09 C46.6550022,114.09 47.0524982,113.992501 47.4175001,113.7975 C47.7825019,113.602499 48.1099986,113.300002 48.4000001,112.89 L48.4300001,112.89 L48.4300001,113.445 C48.4300001,113.675001 48.4974994,113.839999 48.6325001,113.94 C48.7675007,114.04 48.9049994,114.09 49.0450001,114.09 C49.1750007,114.09 49.3099994,114.04 49.4500001,113.94 C49.5900008,113.839999 49.6600001,113.675001 49.6600001,113.445 L49.6600001,106.575 Z M44.0350001,110.01 C44.0350001,109.669998 44.0724997,109.327502 44.1475001,108.9825 C44.2225004,108.637498 44.3474992,108.322501 44.5225001,108.0375 C44.6975009,107.752499 44.9249987,107.520001 45.2050001,107.34 C45.4850015,107.159999 45.8249981,107.07 46.2250001,107.07 C46.6350021,107.07 46.9774987,107.159999 47.2525001,107.34 C47.5275014,107.520001 47.7524992,107.752499 47.9275001,108.0375 C48.1025009,108.322501 48.2274997,108.637498 48.3025001,108.9825 C48.3775004,109.327502 48.4150001,109.669998 48.4150001,110.01 C48.4150001,110.350002 48.3775004,110.692498 48.3025001,111.0375 C48.2274997,111.382502 48.1025009,111.697499 47.9275001,111.9825 C47.7524992,112.267501 47.5275014,112.499999 47.2525001,112.68 C46.9774987,112.860001 46.6350021,112.95 46.2250001,112.95 C45.8249981,112.95 45.4850015,112.860001 45.2050001,112.68 C44.9249987,112.499999 44.6975009,112.267501 44.5225001,111.9825 C44.3474992,111.697499 44.2225004,111.382502 44.1475001,111.0375 C44.0724997,110.692498 44.0350001,110.350002 44.0350001,110.01 L44.0350001,110.01 Z M52.0100001,113.385 C52.0100001,113.605001 52.0699995,113.777499 52.1900001,113.9025 C52.3100007,114.027501 52.4699991,114.09 52.6700001,114.09 C52.8700011,114.09 53.0299995,114.027501 53.1500001,113.9025 C53.2700007,113.777499 53.3300001,113.605001 53.3300001,113.385 L53.3300001,109.035 C53.3300001,108.684998 53.3849995,108.385001 53.4950001,108.135 C53.6050006,107.884999 53.7474992,107.682501 53.9225001,107.5275 C54.0975009,107.372499 54.294999,107.2575 54.5150001,107.1825 C54.7350012,107.1075 54.954999,107.07 55.1750001,107.07 C55.3950012,107.07 55.614999,107.1075 55.8350001,107.1825 C56.0550012,107.2575 56.2524992,107.372499 56.4275001,107.5275 C56.6025009,107.682501 56.7449995,107.884999 56.8550001,108.135 C56.9650006,108.385001 57.0200001,108.684998 57.0200001,109.035 L57.0200001,113.385 C57.0200001,113.605001 57.0799995,113.777499 57.2000001,113.9025 C57.3200007,114.027501 57.4799991,114.09 57.6800001,114.09 C57.8800011,114.09 58.0399995,114.027501 58.1600001,113.9025 C58.2800007,113.777499 58.3400001,113.605001 58.3400001,113.385 L58.3400001,108.96 C58.3400001,108.399997 58.2525009,107.927502 58.0775001,107.5425 C57.9024992,107.157498 57.6800014,106.845001 57.4100001,106.605 C57.1399987,106.364999 56.8425017,106.192501 56.5175001,106.0875 C56.1924984,105.982499 55.8750016,105.93 55.5650001,105.93 C55.1649981,105.93 54.770002,106.009999 54.3800001,106.17 C53.9899981,106.330001 53.6500015,106.599998 53.3600001,106.98 L53.3300001,106.95 L53.3300001,106.635 C53.3300001,106.414999 53.2700007,106.242501 53.1500001,106.1175 C53.0299995,105.992499 52.8700011,105.93 52.6700001,105.93 C52.4699991,105.93 52.3100007,105.992499 52.1900001,106.1175 C52.0699995,106.242501 52.0100001,106.414999 52.0100001,106.635 L52.0100001,113.385 Z M66.0450001,110.01 C66.0450001,110.350002 66.0075005,110.692498 65.9325001,111.0375 C65.8574997,111.382502 65.732501,111.697499 65.5575001,111.9825 C65.3824992,112.267501 65.1575015,112.499999 64.8825001,112.68 C64.6074987,112.860001 64.2650021,112.95 63.8550001,112.95 C63.4549981,112.95 63.1150015,112.860001 62.8350001,112.68 C62.5549987,112.499999 62.327501,112.267501 62.1525001,111.9825 C61.9774992,111.697499 61.8525005,111.382502 61.7775001,111.0375 C61.7024997,110.692498 61.6650001,110.350002 61.6650001,110.01 C61.6650001,109.669998 61.7024997,109.327502 61.7775001,108.9825 C61.8525005,108.637498 61.9774992,108.322501 62.1525001,108.0375 C62.327501,107.752499 62.5549987,107.520001 62.8350001,107.34 C63.1150015,107.159999 63.4549981,107.07 63.8550001,107.07 C64.2650021,107.07 64.6074987,107.159999 64.8825001,107.34 C65.1575015,107.520001 65.3824992,107.752499 65.5575001,108.0375 C65.732501,108.322501 65.8574997,108.637498 65.9325001,108.9825 C66.0075005,109.327502 66.0450001,109.669998 66.0450001,110.01 L66.0450001,110.01 Z M65.9100001,113.385 C65.9100001,113.605001 65.9699995,113.777499 66.0900001,113.9025 C66.2100007,114.027501 66.3699991,114.09 66.5700001,114.09 C66.7700011,114.09 66.9299995,114.027501 67.0500001,113.9025 C67.1700007,113.777499 67.2300001,113.605001 67.2300001,113.385 L67.2300001,103.125 C67.2300001,102.904999 67.1700007,102.732501 67.0500001,102.6075 C66.9299995,102.482499 66.7700011,102.42 66.5700001,102.42 C66.3699991,102.42 66.2100007,102.482499 66.0900001,102.6075 C65.9699995,102.732501 65.9100001,102.904999 65.9100001,103.125 L65.9100001,107.01 L65.8800001,107.01 C65.7899996,106.889999 65.6800007,106.765001 65.5500001,106.635 C65.4199994,106.504999 65.265001,106.387501 65.0850001,106.2825 C64.9049992,106.177499 64.7025012,106.0925 64.4775001,106.0275 C64.252499,105.9625 64.0100014,105.93 63.7500001,105.93 C63.2099974,105.93 62.7300022,106.042499 62.3100001,106.2675 C61.889998,106.492501 61.5325016,106.794998 61.2375001,107.175 C60.9424986,107.555002 60.7200008,107.989998 60.5700001,108.48 C60.4199993,108.970002 60.3450001,109.479997 60.3450001,110.01 C60.3450001,110.540003 60.4199993,111.049998 60.5700001,111.54 C60.7200008,112.030002 60.9424986,112.464998 61.2375001,112.845 C61.5325016,113.225002 61.889998,113.527499 62.3100001,113.7525 C62.7300022,113.977501 63.2099974,114.09 63.7500001,114.09 C64.7900053,114.09 65.4999982,113.725004 65.8800001,112.995 L65.9100001,112.995 L65.9100001,113.385 Z M7.47,156.575 C7.47,156.344999 7.4000007,156.180001 7.26,156.08 C7.1199993,155.98 6.98500065,155.93 6.855,155.93 C6.7149993,155.93 6.57750068,155.98 6.4425,156.08 C6.30749933,156.180001 6.24,156.344999 6.24,156.575 L6.24,156.995 L6.21,156.995 C5.89999845,156.654998 5.5750017,156.392501 5.235,156.2075 C4.8949983,156.022499 4.4950023,155.93 4.035,155.93 C3.4749972,155.93 2.97750218,156.042499 2.5425,156.2675 C2.10749783,156.492501 1.7400015,156.794998 1.44,157.175 C1.1399985,157.555002 0.912500775,157.989998 0.7575,158.48 C0.602499225,158.970002 0.525,159.479997 0.525,160.01 C0.525,160.540003 0.602499225,161.049998 0.7575,161.54 C0.912500775,162.030002 1.1399985,162.464998 1.44,162.845 C1.7400015,163.225002 2.10749783,163.527499 2.5425,163.7525 C2.97750218,163.977501 3.4749972,164.09 4.035,164.09 C4.46500215,164.09 4.86249818,163.992501 5.2275,163.7975 C5.59250183,163.602499 5.91999855,163.300002 6.21,162.89 L6.24,162.89 L6.24,163.445 C6.24,163.675001 6.30749933,163.84 6.4425,163.94 C6.57750068,164.040001 6.7149993,164.09 6.855,164.09 C6.98500065,164.09 7.1199993,164.040001 7.26,163.94 C7.4000007,163.84 7.47,163.675001 7.47,163.445 L7.47,156.575 Z M1.845,160.01 C1.845,159.669998 1.88249963,159.327502 1.9575,158.9825 C2.03250038,158.637498 2.15749913,158.322501 2.3325,158.0375 C2.50750088,157.752499 2.7349986,157.520001 3.015,157.34 C3.2950014,157.159999 3.634998,157.07 4.035,157.07 C4.44500205,157.07 4.78749863,157.159999 5.0625,157.34 C5.33750138,157.520001 5.56249913,157.752499 5.7375,158.0375 C5.91250088,158.322501 6.03749963,158.637498 6.1125,158.9825 C6.18750038,159.327502 6.225,159.669998 6.225,160.01 C6.225,160.350002 6.18750038,160.692498 6.1125,161.0375 C6.03749963,161.382502 5.91250088,161.697499 5.7375,161.9825 C5.56249913,162.267501 5.33750138,162.499999 5.0625,162.68 C4.78749863,162.860001 4.44500205,162.95 4.035,162.95 C3.634998,162.95 3.2950014,162.860001 3.015,162.68 C2.7349986,162.499999 2.50750088,162.267501 2.3325,161.9825 C2.15749913,161.697499 2.03250038,161.382502 1.9575,161.0375 C1.88249963,160.692498 1.845,160.350002 1.845,160.01 L1.845,160.01 Z M11.14,153.125 C11.14,152.904999 11.0800006,152.732501 10.96,152.6075 C10.8399994,152.482499 10.680001,152.42 10.48,152.42 C10.279999,152.42 10.1200006,152.482499 10,152.6075 C9.87999941,152.732501 9.82000001,152.904999 9.82000001,153.125 L9.82000001,163.385 C9.82000001,163.605001 9.87999941,163.777499 10,163.9025 C10.1200006,164.027501 10.279999,164.09 10.48,164.09 C10.680001,164.09 10.8399994,164.027501 10.96,163.9025 C11.0800006,163.777499 11.14,163.605001 11.14,163.385 L11.14,153.125 Z M13.91,156.02 L13.37,156.02 C12.9299978,156.02 12.71,156.209998 12.71,156.59 C12.71,156.970002 12.9299978,157.16 13.37,157.16 L13.91,157.16 L13.91,163.385 C13.91,163.605001 13.9699994,163.777499 14.09,163.9025 C14.2100006,164.027501 14.369999,164.09 14.57,164.09 C14.770001,164.09 14.9299994,164.027501 15.05,163.9025 C15.1700006,163.777499 15.23,163.605001 15.23,163.385 L15.23,157.16 L15.77,157.16 C16.2100022,157.16 16.43,156.970002 16.43,156.59 C16.43,156.209998 16.2100022,156.02 15.77,156.02 L15.23,156.02 L15.23,154.295 C15.23,154.074999 15.1700006,153.902501 15.05,153.7775 C14.9299994,153.652499 14.770001,153.59 14.57,153.59 C14.369999,153.59 14.2100006,153.652499 14.09,153.7775 C13.9699994,153.902501 13.91,154.074999 13.91,154.295 L13.91,156.02 Z M0.525,210.01 C0.525,210.540003 0.602499225,211.049998 0.7575,211.54 C0.912500775,212.030002 1.1399985,212.464998 1.44,212.845 C1.7400015,213.225002 2.10749783,213.527499 2.5425,213.7525 C2.97750218,213.977501 3.4749972,214.09 4.035,214.09 C4.5950028,214.09 5.09249783,213.977501 5.5275,213.7525 C5.96250218,213.527499 6.3299985,213.225002 6.63,212.845 C6.9300015,212.464998 7.15749923,212.030002 7.3125,211.54 C7.46750078,211.049998 7.545,210.540003 7.545,210.01 C7.545,209.479997 7.46750078,208.970002 7.3125,208.48 C7.15749923,207.989998 6.9300015,207.555002 6.63,207.175 C6.3299985,206.794998 5.96250218,206.492501 5.5275,206.2675 C5.09249783,206.042499 4.5950028,205.93 4.035,205.93 C3.4749972,205.93 2.97750218,206.042499 2.5425,206.2675 C2.10749783,206.492501 1.7400015,206.794998 1.44,207.175 C1.1399985,207.555002 0.912500775,207.989998 0.7575,208.48 C0.602499225,208.970002 0.525,209.479997 0.525,210.01 L0.525,210.01 Z M1.845,210.01 C1.845,209.669998 1.88249963,209.327502 1.9575,208.9825 C2.03250038,208.637498 2.15749913,208.322501 2.3325,208.0375 C2.50750088,207.752499 2.7349986,207.520001 3.015,207.34 C3.2950014,207.159999 3.634998,207.07 4.035,207.07 C4.44500205,207.07 4.78749863,207.159999 5.0625,207.34 C5.33750138,207.520001 5.56249913,207.752499 5.7375,208.0375 C5.91250088,208.322501 6.03749963,208.637498 6.1125,208.9825 C6.18750038,209.327502 6.225,209.669998 6.225,210.01 C6.225,210.350002 6.18750038,210.692498 6.1125,211.0375 C6.03749963,211.382502 5.91250088,211.697499 5.7375,211.9825 C5.56249913,212.267501 5.33750138,212.499999 5.0625,212.68 C4.78749863,212.860001 4.44500205,212.95 4.035,212.95 C3.634998,212.95 3.2950014,212.860001 3.015,212.68 C2.7349986,212.499999 2.50750088,212.267501 2.3325,211.9825 C2.15749913,211.697499 2.03250038,211.382502 1.9575,211.0375 C1.88249963,210.692498 1.845,210.350002 1.845,210.01 L1.845,210.01 Z M10.795,210.01 C10.795,209.669998 10.8324996,209.327502 10.9075,208.9825 C10.9825004,208.637498 11.1074991,208.322501 11.2825,208.0375 C11.4575009,207.752499 11.6849986,207.520001 11.965,207.34 C12.2450014,207.159999 12.584998,207.07 12.985,207.07 C13.3950021,207.07 13.7374986,207.159999 14.0125,207.34 C14.2875014,207.520001 14.5124991,207.752499 14.6875,208.0375 C14.8625009,208.322501 14.9874996,208.637498 15.0625,208.9825 C15.1375004,209.327502 15.175,209.669998 15.175,210.01 C15.175,210.350002 15.1375004,210.692498 15.0625,211.0375 C14.9874996,211.382502 14.8625009,211.697499 14.6875,211.9825 C14.5124991,212.267501 14.2875014,212.499999 14.0125,212.68 C13.7374986,212.860001 13.3950021,212.95 12.985,212.95 C12.584998,212.95 12.2450014,212.860001 11.965,212.68 C11.6849986,212.499999 11.4575009,212.267501 11.2825,211.9825 C11.1074991,211.697499 10.9825004,211.382502 10.9075,211.0375 C10.8324996,210.692498 10.795,210.350002 10.795,210.01 L10.795,210.01 Z M9.61000001,216.535 C9.61000001,216.755001 9.66999941,216.927499 9.79000001,217.0525 C9.91000061,217.177501 10.069999,217.24 10.27,217.24 C10.470001,217.24 10.6299994,217.177501 10.75,217.0525 C10.8700006,216.927499 10.93,216.755001 10.93,216.535 L10.93,213.01 L10.96,213.01 C11.0500005,213.130001 11.1599994,213.254999 11.29,213.385 C11.4200007,213.515001 11.5749991,213.632499 11.755,213.7375 C11.9350009,213.842501 12.1374989,213.9275 12.3625,213.9925 C12.5875011,214.0575 12.8299987,214.09 13.09,214.09 C13.6300027,214.09 14.1099979,213.977501 14.53,213.7525 C14.9500021,213.527499 15.3074985,213.225002 15.6025,212.845 C15.8975015,212.464998 16.1199993,212.030002 16.27,211.54 C16.4200008,211.049998 16.495,210.540003 16.495,210.01 C16.495,209.479997 16.4200008,208.970002 16.27,208.48 C16.1199993,207.989998 15.8975015,207.555002 15.6025,207.175 C15.3074985,206.794998 14.9500021,206.492501 14.53,206.2675 C14.1099979,206.042499 13.6300027,205.93 13.09,205.93 C12.0499948,205.93 11.3400019,206.294996 10.96,207.025 L10.93,207.025 L10.93,206.635 C10.93,206.414999 10.8700006,206.242501 10.75,206.1175 C10.6299994,205.992499 10.470001,205.93 10.27,205.93 C10.069999,205.93 9.91000061,205.992499 9.79000001,206.1175 C9.66999941,206.242501 9.61000001,206.414999 9.61000001,206.635 L9.61000001,216.535 Z M18.92,206.02 L18.38,206.02 C17.9399978,206.02 17.72,206.209998 17.72,206.59 C17.72,206.970002 17.9399978,207.16 18.38,207.16 L18.92,207.16 L18.92,213.385 C18.92,213.605001 18.9799994,213.777499 19.1,213.9025 C19.2200006,214.027501 19.379999,214.09 19.58,214.09 C19.780001,214.09 19.9399994,214.027501 20.06,213.9025 C20.1800006,213.777499 20.24,213.605001 20.24,213.385 L20.24,207.16 L20.78,207.16 C21.2200022,207.16 21.44,206.970002 21.44,206.59 C21.44,206.209998 21.2200022,206.02 20.78,206.02 L20.24,206.02 L20.24,204.295 C20.24,204.074999 20.1800006,203.902501 20.06,203.7775 C19.9399994,203.652499 19.780001,203.59 19.58,203.59 C19.379999,203.59 19.2200006,203.652499 19.1,203.7775 C18.9799994,203.902501 18.92,204.074999 18.92,204.295 L18.92,206.02 Z M24.33,206.635 C24.33,206.414999 24.2700006,206.242501 24.15,206.1175 C24.0299994,205.992499 23.870001,205.93 23.67,205.93 C23.469999,205.93 23.3100006,205.992499 23.19,206.1175 C23.0699994,206.242501 23.01,206.414999 23.01,206.635 L23.01,213.385 C23.01,213.605001 23.0699994,213.777499 23.19,213.9025 C23.3100006,214.027501 23.469999,214.09 23.67,214.09 C23.870001,214.09 24.0299994,214.027501 24.15,213.9025 C24.2700006,213.777499 24.33,213.605001 24.33,213.385 L24.33,206.635 Z M22.86,204.04 C22.86,204.270001 22.9374993,204.462499 23.0925,204.6175 C23.2475008,204.772501 23.4399989,204.85 23.67,204.85 C23.9000012,204.85 24.0924993,204.772501 24.2475,204.6175 C24.4025008,204.462499 24.48,204.270001 24.48,204.04 C24.48,203.809999 24.4025008,203.617501 24.2475,203.4625 C24.0924993,203.307499 23.9000012,203.23 23.67,203.23 C23.4399989,203.23 23.2475008,203.307499 23.0925,203.4625 C22.9374993,203.617501 22.86,203.809999 22.86,204.04 L22.86,204.04 Z M26.3350001,210.01 C26.3350001,210.540003 26.4124993,211.049998 26.5675001,211.54 C26.7225008,212.030002 26.9499986,212.464998 27.2500001,212.845 C27.5500016,213.225002 27.9174979,213.527499 28.3525001,213.7525 C28.7875022,213.977501 29.2849973,214.09 29.8450001,214.09 C30.4050029,214.09 30.9024979,213.977501 31.3375001,213.7525 C31.7725022,213.527499 32.1399986,213.225002 32.4400001,212.845 C32.7400016,212.464998 32.9674993,212.030002 33.1225001,211.54 C33.2775008,211.049998 33.3550001,210.540003 33.3550001,210.01 C33.3550001,209.479997 33.2775008,208.970002 33.1225001,208.48 C32.9674993,207.989998 32.7400016,207.555002 32.4400001,207.175 C32.1399986,206.794998 31.7725022,206.492501 31.3375001,206.2675 C30.9024979,206.042499 30.4050029,205.93 29.8450001,205.93 C29.2849973,205.93 28.7875022,206.042499 28.3525001,206.2675 C27.9174979,206.492501 27.5500016,206.794998 27.2500001,207.175 C26.9499986,207.555002 26.7225008,207.989998 26.5675001,208.48 C26.4124993,208.970002 26.3350001,209.479997 26.3350001,210.01 L26.3350001,210.01 Z M27.6550001,210.01 C27.6550001,209.669998 27.6924997,209.327502 27.7675001,208.9825 C27.8425004,208.637498 27.9674992,208.322501 28.1425001,208.0375 C28.3175009,207.752499 28.5449987,207.520001 28.8250001,207.34 C29.1050015,207.159999 29.4449981,207.07 29.8450001,207.07 C30.2550021,207.07 30.5974987,207.159999 30.8725001,207.34 C31.1475014,207.520001 31.3724992,207.752499 31.5475001,208.0375 C31.7225009,208.322501 31.8474997,208.637498 31.9225001,208.9825 C31.9975004,209.327502 32.0350001,209.669998 32.0350001,210.01 C32.0350001,210.350002 31.9975004,210.692498 31.9225001,211.0375 C31.8474997,211.382502 31.7225009,211.697499 31.5475001,211.9825 C31.3724992,212.267501 31.1475014,212.499999 30.8725001,212.68 C30.5974987,212.860001 30.2550021,212.95 29.8450001,212.95 C29.4449981,212.95 29.1050015,212.860001 28.8250001,212.68 C28.5449987,212.499999 28.3175009,212.267501 28.1425001,211.9825 C27.9674992,211.697499 27.8425004,211.382502 27.7675001,211.0375 C27.6924997,210.692498 27.6550001,210.350002 27.6550001,210.01 L27.6550001,210.01 Z M35.3600001,213.385 C35.3600001,213.605001 35.4199995,213.777499 35.5400001,213.9025 C35.6600007,214.027501 35.8199991,214.09 36.0200001,214.09 C36.2200011,214.09 36.3799995,214.027501 36.5000001,213.9025 C36.6200007,213.777499 36.6800001,213.605001 36.6800001,213.385 L36.6800001,209.035 C36.6800001,208.684998 36.7349995,208.385001 36.8450001,208.135 C36.9550006,207.884999 37.0974992,207.682501 37.2725001,207.5275 C37.4475009,207.372499 37.644999,207.2575 37.8650001,207.1825 C38.0850012,207.1075 38.304999,207.07 38.5250001,207.07 C38.7450012,207.07 38.964999,207.1075 39.1850001,207.1825 C39.4050012,207.2575 39.6024992,207.372499 39.7775001,207.5275 C39.9525009,207.682501 40.0949995,207.884999 40.2050001,208.135 C40.3150006,208.385001 40.3700001,208.684998 40.3700001,209.035 L40.3700001,213.385 C40.3700001,213.605001 40.4299995,213.777499 40.5500001,213.9025 C40.6700007,214.027501 40.8299991,214.09 41.0300001,214.09 C41.2300011,214.09 41.3899995,214.027501 41.5100001,213.9025 C41.6300007,213.777499 41.6900001,213.605001 41.6900001,213.385 L41.6900001,208.96 C41.6900001,208.399997 41.6025009,207.927502 41.4275001,207.5425 C41.2524992,207.157498 41.0300014,206.845001 40.7600001,206.605 C40.4899987,206.364999 40.1925017,206.192501 39.8675001,206.0875 C39.5424984,205.982499 39.2250016,205.93 38.9150001,205.93 C38.5149981,205.93 38.120002,206.009999 37.7300001,206.17 C37.3399981,206.330001 37.0000015,206.599998 36.7100001,206.98 L36.6800001,206.95 L36.6800001,206.635 C36.6800001,206.414999 36.6200007,206.242501 36.5000001,206.1175 C36.3799995,205.992499 36.2200011,205.93 36.0200001,205.93 C35.8199991,205.93 35.6600007,205.992499 35.5400001,206.1175 C35.4199995,206.242501 35.3600001,206.414999 35.3600001,206.635 L35.3600001,213.385 Z" id="mod-2" sketch:type="MSShapeGroup"></path>
            </g>
        </g>
    </g>
</svg>