<?xml version="1.0" encoding="UTF-8" standalone="no"?>
<svg width="120px" height="850px" viewBox="0 0 120 850" version="1.1" xmlns="http://www.w3.org/2000/svg" xmlns:xlink="http://www.w3.org/1999/xlink" xmlns:sketch="http://www.bohemiancoding.com/sketch/ns">
    <!-- Generator: Sketch 3.2.2 (9983) - http://www.bohemiancoding.com/sketch -->
    <title>keys-small</title>
    <desc>Created with Sketch.</desc>
    <defs></defs>
    <g id="Page-1" stroke="none" stroke-width="1" fill="none" fill-rule="evenodd" sketch:type="MSPage">
        <g id="keys-small" sketch:type="MSArtboardGroup">
            <path d="M57.365,519.055 L63.635,519.055 L64.509,521.487 C64.5723337,521.664334 64.6673327,521.813166 64.794,521.9335 C64.9206673,522.053834 65.0979989,522.114 65.326,522.114 C65.5413344,522.114 65.7281659,522.050667 65.8865,521.924 C66.0448341,521.797333 66.124,521.626334 66.124,521.411 C66.124,521.296999 66.0923337,521.151334 66.029,520.974 C65.9656663,520.796666 65.9213335,520.663667 65.896,520.575 L61.697,509.384 C61.5956662,509.092665 61.4531676,508.848834 61.2695,508.6525 C61.0858324,508.456166 60.829335,508.358 60.5,508.358 C60.170665,508.358 59.9141676,508.456166 59.7305,508.6525 C59.5468324,508.848834 59.4043338,509.092665 59.303,509.384 L55.104,520.575 C55.0786665,520.663667 55.0343337,520.796666 54.971,520.974 C54.9076663,521.151334 54.876,521.296999 54.876,521.411 C54.876,521.626334 54.9551659,521.797333 55.1135,521.924 C55.2718341,522.050667 55.4586656,522.114 55.674,522.114 C55.9020011,522.114 56.0793327,522.053834 56.206,521.9335 C56.3326673,521.813166 56.4276664,521.664334 56.491,521.487 L57.365,519.055 Z M63.122,517.611 L57.878,517.611 L60.481,510.296 L60.519,510.296 L63.122,517.611 Z M57.2415,565.236 C57.2415,564.589997 57.3206659,563.944003 57.479,563.298 C57.6373341,562.651997 57.8874983,562.069336 58.2295,561.55 C58.5715017,561.030664 59.011664,560.609502 59.55,560.2865 C60.088336,559.963498 60.7311629,559.802 61.4785,559.802 C61.9978359,559.802 62.422165,559.871666 62.7515,560.011 C63.080835,560.150334 63.3594989,560.302333 63.5875,560.467 C63.8155011,560.631667 64.0118325,560.783666 64.1765,560.923 C64.3411675,561.062334 64.5184991,561.132 64.7085,561.132 C64.9238344,561.132 65.0916661,561.052834 65.212,560.8945 C65.3323339,560.736166 65.3925,560.549334 65.3925,560.334 C65.3925,560.156666 65.3006676,559.957168 65.117,559.7355 C64.9333324,559.513832 64.6705017,559.298501 64.3285,559.0895 C63.9864983,558.880499 63.5748357,558.706334 63.0935,558.567 C62.6121643,558.427666 62.0738363,558.358 61.4785,558.358 C60.4778283,558.358 59.6006704,558.551165 58.847,558.9375 C58.0933296,559.323835 57.4663358,559.83683 56.966,560.4765 C56.4656642,561.11617 56.0888346,561.850829 55.8355,562.6805 C55.5821654,563.510171 55.4555,564.361996 55.4555,565.236 C55.4555,566.110004 55.5821654,566.961829 55.8355,567.7915 C56.0888346,568.621171 56.4624975,569.35583 56.9565,569.9955 C57.4505025,570.63517 58.0679963,571.148165 58.809,571.5345 C59.5500037,571.920835 60.4081618,572.114 61.3835,572.114 C61.9788363,572.114 62.5361641,572.057001 63.0555,571.943 C63.5748359,571.828999 64.0308314,571.680168 64.4235,571.4965 C64.8161686,571.312832 65.1233322,571.110168 65.345,570.8885 C65.5666678,570.666832 65.6775,570.448334 65.6775,570.233 C65.6775,569.992332 65.6173339,569.802334 65.497,569.663 C65.3766661,569.523666 65.2151677,569.454 65.0125,569.454 C64.8351658,569.454 64.642001,569.517333 64.433,569.644 C64.223999,569.770667 63.9770014,569.909999 63.692,570.062 C63.4069986,570.214001 63.0776685,570.353333 62.704,570.48 C62.3303315,570.606667 61.8901692,570.67 61.3835,570.67 C60.6614964,570.67 60.0408359,570.508502 59.5215,570.1855 C59.0021641,569.862498 58.5746683,569.441336 58.239,568.922 C57.9033317,568.402664 57.6531675,567.820003 57.4885,567.174 C57.3238325,566.527997 57.2415,565.882003 57.2415,565.236 L57.2415,565.236 Z M55.712,621.088 C55.712,621.341335 55.781666,621.556666 55.921,621.734 C56.060334,621.911334 56.2883317,622 56.605,622 L60.12,622 C61.0320046,622 61.8458298,621.832168 62.5615,621.4965 C63.2771702,621.160832 63.8819975,620.69217 64.376,620.0905 C64.8700025,619.48883 65.246832,618.770004 65.5065,617.934 C65.766168,617.097996 65.896,616.173338 65.896,615.16 C65.896,614.260662 65.7725012,613.408837 65.5255,612.6045 C65.2784988,611.800163 64.9048358,611.090836 64.4045,610.4765 C63.9041642,609.862164 63.2803371,609.374502 62.533,609.0135 C61.7856629,608.652498 60.9053384,608.472 59.892,608.472 L56.605,608.472 C56.2883317,608.472 56.060334,608.560666 55.921,608.738 C55.781666,608.915334 55.712,609.130665 55.712,609.384 L55.712,621.088 Z M57.384,609.916 L59.664,609.916 C60.462004,609.916 61.1428305,610.058499 61.7065,610.3435 C62.2701695,610.628501 62.7293316,611.011664 63.084,611.493 C63.4386684,611.974336 63.6983325,612.531663 63.863,613.165 C64.0276675,613.798337 64.11,614.46333 64.11,615.16 C64.11,615.844003 64.0308341,616.512163 63.8725,617.1645 C63.7141659,617.816837 63.4640017,618.393164 63.122,618.8935 C62.7799983,619.393836 62.3335028,619.795998 61.7825,620.1 C61.2314972,620.404002 60.5633373,620.556 59.778,620.556 L57.384,620.556 L57.384,609.916 Z M60.519,669.302 L60.481,669.302 L57.061,659.441 C56.9596662,659.149665 56.8456673,658.896334 56.719,658.681 C56.5923327,658.465666 56.364335,658.358 56.035,658.358 C55.8069989,658.358 55.6265007,658.427666 55.4935,658.567 C55.3604993,658.706334 55.294,658.864666 55.294,659.042 C55.294,659.244668 55.3319996,659.459999 55.408,659.688 L59.531,671.202 C59.6323338,671.480668 59.7463327,671.702333 59.873,671.867 C59.9996673,672.031667 60.2086652,672.114 60.5,672.114 C60.7913348,672.114 61.0003327,672.031667 61.127,671.867 C61.2536673,671.702333 61.3676662,671.480668 61.469,671.202 L65.592,659.688 C65.6680004,659.459999 65.706,659.244668 65.706,659.042 C65.706,658.864666 65.6395007,658.706334 65.5065,658.567 C65.3734993,658.427666 65.1930011,658.358 64.965,658.358 C64.635665,658.358 64.4076673,658.465666 64.281,658.681 C64.1543327,658.896334 64.0403338,659.149665 63.939,659.441 L60.519,669.302 Z M60.5,716.053 L64.376,721.582 C64.5533342,721.822668 64.7021661,721.9715 64.8225,722.0285 C64.9428339,722.0855 65.072666,722.114 65.212,722.114 C65.402001,722.114 65.5761659,722.047501 65.7345,721.9145 C65.8928341,721.781499 65.972,721.613668 65.972,721.411 C65.972,721.271666 65.9435003,721.145001 65.8865,721.031 C65.8294997,720.916999 65.7693336,720.815667 65.706,720.727 L61.469,714.742 L65.003,709.745 C65.1803342,709.491665 65.269,709.263668 65.269,709.061 C65.269,708.845666 65.1961674,708.674667 65.0505,708.548 C64.9048326,708.421333 64.7306677,708.358 64.528,708.358 C64.388666,708.358 64.2525007,708.389666 64.1195,708.453 C63.9864993,708.516334 63.8376675,708.661999 63.673,708.89 L60.5,713.526 L57.327,708.89 C57.1623325,708.661999 57.0135007,708.516334 56.8805,708.453 C56.7474993,708.389666 56.611334,708.358 56.472,708.358 C56.2693323,708.358 56.0951674,708.421333 55.9495,708.548 C55.8038326,708.674667 55.731,708.845666 55.731,709.061 C55.731,709.263668 55.8196658,709.491665 55.997,709.745 L59.531,714.742 L55.294,720.727 C55.2306663,720.815667 55.1705003,720.916999 55.1135,721.031 C55.0564997,721.145001 55.028,721.271666 55.028,721.411 C55.028,721.613668 55.1071659,721.781499 55.2655,721.9145 C55.4238341,722.047501 55.597999,722.114 55.788,722.114 C55.927334,722.114 56.0571661,722.0855 56.1775,722.0285 C56.2978339,721.9715 56.4466658,721.822668 56.624,721.582 L60.5,716.053 Z M59.664,771.221 C59.664,771.499668 59.7399992,771.718166 59.892,771.8765 C60.0440008,772.034834 60.2466654,772.114 60.5,772.114 C60.7533346,772.114 60.9559992,772.034834 61.108,771.8765 C61.2600008,771.718166 61.336,771.499668 61.336,771.221 L61.336,765.654 L64.965,759.745 C65.1423342,759.466332 65.231,759.232001 65.231,759.042 C65.231,758.826666 65.1581674,758.658834 65.0125,758.5385 C64.8668326,758.418166 64.6863344,758.358 64.471,758.358 C64.3189992,758.358 64.173334,758.392833 64.034,758.4625 C63.894666,758.532167 63.7616673,758.674666 63.635,758.89 L60.5,764.001 L57.365,758.89 C57.2383327,758.674666 57.105334,758.532167 56.966,758.4625 C56.826666,758.392833 56.6810008,758.358 56.529,758.358 C56.3136656,758.358 56.1331674,758.418166 55.9875,758.5385 C55.8418326,758.658834 55.769,758.826666 55.769,759.042 C55.769,759.232001 55.8576658,759.466332 56.035,759.745 L59.664,765.654 L59.664,771.221 Z M55.997,820.347 C55.857666,820.549668 55.7690002,820.714333 55.731,820.841 C55.6929998,820.967667 55.674,821.100666 55.674,821.24 C55.674,821.480668 55.7499992,821.667499 55.902,821.8005 C56.0540008,821.933501 56.3073316,822 56.662,822 L64.509,822 C64.7496679,822 64.9459992,821.939834 65.098,821.8195 C65.2500008,821.699166 65.326,821.518668 65.326,821.278 C65.326,821.037332 65.2500008,820.856834 65.098,820.7365 C64.9459992,820.616166 64.7496679,820.556 64.509,820.556 L57.688,820.556 L64.661,810.125 C64.8383342,809.871665 64.9523331,809.675334 65.003,809.536 C65.0536669,809.396666 65.079,809.238334 65.079,809.061 C65.079,808.908999 65.0030008,808.772834 64.851,808.6525 C64.6989992,808.532166 64.4836681,808.472 64.205,808.472 L56.814,808.472 C56.5733321,808.472 56.3770008,808.532166 56.225,808.6525 C56.0729992,808.772834 55.997,808.953332 55.997,809.194 C55.997,809.434668 56.0729992,809.615166 56.225,809.7355 C56.3770008,809.855834 56.5733321,809.916 56.814,809.916 L62.951,809.916 L55.997,820.347 Z" id="letter" fill="#FFFFFF" sketch:type="MSShapeGroup"></path>
            <path d="M14.2459999,269.752 C14.5166679,269.752 14.6986661,269.696001 14.7919999,269.584 C14.8853337,269.471999 14.9319999,269.308668 14.9319999,269.094 C14.9319999,268.645998 14.8596673,268.205002 14.7149999,267.771 C14.5703325,267.336998 14.3626679,266.949668 14.0919999,266.609 C13.8213319,266.268332 13.4853352,265.993001 13.0839999,265.783 C12.6826646,265.572999 12.2300024,265.468 11.7259999,265.468 C11.2033306,265.468 10.7343353,265.570666 10.3189999,265.776 C9.90366449,265.981334 9.55366799,266.258998 9.2689999,266.609 C8.98433181,266.959002 8.76500067,267.364998 8.6109999,267.827 C8.45699913,268.289002 8.3799999,268.771997 8.3799999,269.276 C8.3799999,269.770669 8.44533258,270.246664 8.5759999,270.704 C8.70666722,271.161336 8.9119985,271.567332 9.1919999,271.922 C9.4720013,272.276668 9.82666442,272.558999 10.2559999,272.769 C10.6853354,272.979001 11.1986636,273.084 11.7959999,273.084 C12.1600017,273.084 12.5193315,273.032667 12.8739999,272.93 C13.2286683,272.827333 13.5483318,272.699001 13.8329999,272.545 C14.117668,272.390999 14.3463324,272.225334 14.5189999,272.048 C14.6916674,271.870666 14.7779999,271.707334 14.7779999,271.558 C14.7779999,271.380666 14.7313337,271.245334 14.6379999,271.152 C14.5446661,271.058666 14.4420005,271.012 14.3299999,271.012 C14.2179993,271.012 14.0990005,271.063333 13.9729999,271.166 C13.8469993,271.268667 13.6930008,271.382999 13.5109999,271.509 C13.328999,271.635001 13.1026679,271.751666 12.8319999,271.859 C12.5613319,271.966334 12.2206686,272.02 11.8099999,272.02 C11.4646648,272.02 11.1566679,271.961667 10.8859999,271.845 C10.6153319,271.728333 10.3843342,271.567334 10.1929999,271.362 C10.0016656,271.156666 9.85700039,270.916335 9.7589999,270.641 C9.66099941,270.365665 9.6119999,270.069335 9.6119999,269.752 L14.2459999,269.752 Z M9.6119999,268.828 C9.62133328,268.547999 9.66566617,268.268001 9.7449999,267.988 C9.82433363,267.707999 9.94799906,267.458334 10.1159999,267.239 C10.2840007,267.019666 10.4986653,266.842334 10.7599999,266.707 C11.0213345,266.571666 11.3433313,266.513333 11.7259999,266.532 C12.0620016,266.532 12.3559986,266.601999 12.6079999,266.742 C12.8600012,266.882001 13.0653324,267.061666 13.2239999,267.281 C13.3826674,267.500334 13.5016662,267.745332 13.5809999,268.016 C13.6603336,268.286668 13.6999999,268.557332 13.6999999,268.828 L9.6119999,268.828 Z M16.5116669,267.568 C16.5116669,267.913335 16.6096659,268.204999 16.8056669,268.443 C17.0016679,268.681001 17.2466655,268.886332 17.5406669,269.059 C17.8346684,269.231668 18.1543319,269.385666 18.4996669,269.521 C18.845002,269.656334 19.1646655,269.793999 19.4586669,269.934 C19.7526684,270.074001 19.9976659,270.227999 20.1936669,270.396 C20.3896679,270.564001 20.4876669,270.769332 20.4876669,271.012 C20.4876669,271.264001 20.3593349,271.494999 20.1026669,271.705 C19.845999,271.915001 19.4936692,272.02 19.0456669,272.02 C18.7096652,272.02 18.4250014,271.973334 18.1916669,271.88 C17.9583324,271.786666 17.7530011,271.681667 17.5756669,271.565 C17.3983327,271.448333 17.2443342,271.343334 17.1136669,271.25 C16.9829996,271.156666 16.8476676,271.11 16.7076669,271.11 C16.5769996,271.11 16.4603341,271.161333 16.3576669,271.264 C16.2549997,271.366667 16.2036669,271.501999 16.2036669,271.67 C16.2036669,271.828667 16.2759995,271.991999 16.4206669,272.16 C16.5653343,272.328001 16.7636657,272.479666 17.0156669,272.615 C17.2676682,272.750334 17.5639986,272.862333 17.9046669,272.951 C18.2453353,273.039667 18.611665,273.084 19.0036669,273.084 C19.349002,273.084 19.6849986,273.037334 20.0116669,272.944 C20.3383352,272.850666 20.6276657,272.708334 20.8796669,272.517 C21.1316682,272.325666 21.3346662,272.087668 21.4886669,271.803 C21.6426677,271.518332 21.7196669,271.180002 21.7196669,270.788 C21.7196669,270.423998 21.6216679,270.120668 21.4256669,269.878 C21.2296659,269.635332 20.9846684,269.427668 20.6906669,269.255 C20.3966655,269.082332 20.077002,268.933001 19.7316669,268.807 C19.3863319,268.680999 19.0666684,268.555001 18.7726669,268.429 C18.4786655,268.302999 18.2336679,268.165334 18.0376669,268.016 C17.8416659,267.866666 17.7436669,267.684668 17.7436669,267.47 C17.7436669,267.152665 17.871999,266.917001 18.1286669,266.763 C18.3853349,266.608999 18.6909985,266.532 19.0456669,266.532 C19.3443351,266.532 19.5869993,266.571666 19.7736669,266.651 C19.9603345,266.730334 20.1189996,266.816666 20.2496669,266.91 C20.3803342,267.003334 20.4993331,267.089666 20.6066669,267.169 C20.7140008,267.248334 20.8329996,267.288 20.9636669,267.288 C21.1503345,267.288 21.2903331,267.236667 21.3836669,267.134 C21.4770007,267.031333 21.5236669,266.914667 21.5236669,266.784 C21.5236669,266.587999 21.4420011,266.410667 21.2786669,266.252 C21.1153328,266.093333 20.9123348,265.955667 20.6696669,265.839 C20.426999,265.722333 20.1586684,265.631334 19.8646669,265.566 C19.5706655,265.500666 19.2976682,265.468 19.0456669,265.468 C18.7376654,265.468 18.4320018,265.512333 18.1286669,265.601 C17.8253321,265.689667 17.5546681,265.822666 17.3166669,266 C17.0786657,266.177334 16.885001,266.396665 16.7356669,266.658 C16.5863328,266.919335 16.5116669,267.222665 16.5116669,267.568 L16.5116669,267.568 Z M23.1453339,269.276 C23.1453339,269.770669 23.2129999,270.246664 23.3483339,270.704 C23.4836679,271.161336 23.6913325,271.567332 23.9713339,271.922 C24.2513353,272.276668 24.6013318,272.558999 25.0213339,272.769 C25.441336,272.979001 25.9359978,273.084 26.5053339,273.084 C27.1493372,273.084 27.6369989,272.981334 27.9683339,272.776 C28.2996689,272.570666 28.4653339,272.351335 28.4653339,272.118 C28.4653339,271.949999 28.421001,271.821667 28.3323339,271.733 C28.2436668,271.644333 28.1293346,271.6 27.9893339,271.6 C27.8960001,271.6 27.805001,271.621 27.7163339,271.663 C27.6276668,271.705 27.5296678,271.754 27.4223339,271.81 C27.3150001,271.866 27.1890013,271.915 27.0443339,271.957 C26.8996665,271.999 26.7200017,272.02 26.5053339,272.02 C26.1226654,272.02 25.796002,271.936001 25.5253339,271.768 C25.2546659,271.599999 25.0353348,271.383001 24.8673339,271.117 C24.6993331,270.850999 24.5756677,270.557002 24.4963339,270.235 C24.4170002,269.912998 24.3773339,269.593335 24.3773339,269.276 C24.3773339,268.958665 24.4170002,268.639002 24.4963339,268.317 C24.5756677,267.994998 24.6993331,267.701001 24.8673339,267.435 C25.0353348,267.168999 25.2546659,266.952001 25.5253339,266.784 C25.796002,266.615999 26.1226654,266.532 26.5053339,266.532 C26.7200017,266.532 26.8949999,266.553 27.0303339,266.595 C27.1656679,266.637 27.2870001,266.681333 27.3943339,266.728 C27.5016678,266.774667 27.5996668,266.819 27.6883339,266.861 C27.777001,266.903 27.882,266.924 28.0033339,266.924 C28.152668,266.924 28.2740001,266.870334 28.3673339,266.763 C28.4606677,266.655666 28.5073339,266.536667 28.5073339,266.406 C28.5073339,266.153999 28.3323357,265.934668 27.9823339,265.748 C27.6323322,265.561332 27.1400038,265.468 26.5053339,265.468 C25.9359978,265.468 25.441336,265.572999 25.0213339,265.783 C24.6013318,265.993001 24.2513353,266.275332 23.9713339,266.63 C23.6913325,266.984668 23.4836679,267.390664 23.3483339,267.848 C23.2129999,268.305336 23.1453339,268.781331 23.1453339,269.276 L23.1453339,269.276 Z M9.2199999,315.552 L8.7159999,315.552 C8.30533118,315.552 8.0999999,315.729332 8.0999999,316.084 C8.0999999,316.438668 8.30533118,316.616 8.7159999,316.616 L9.2199999,316.616 L9.2199999,322.426 C9.2199999,322.631334 9.27599934,322.792333 9.3879999,322.909 C9.50000046,323.025667 9.6493323,323.084 9.8359999,323.084 C10.0226675,323.084 10.1719993,323.025667 10.2839999,322.909 C10.3960005,322.792333 10.4519999,322.631334 10.4519999,322.426 L10.4519999,316.616 L10.9559999,316.616 C11.3666686,316.616 11.5719999,316.438668 11.5719999,316.084 C11.5719999,315.729332 11.3666686,315.552 10.9559999,315.552 L10.4519999,315.552 L10.4519999,313.942 C10.4519999,313.736666 10.3960005,313.575667 10.2839999,313.459 C10.1719993,313.342333 10.0226675,313.284 9.8359999,313.284 C9.6493323,313.284 9.50000046,313.342333 9.3879999,313.459 C9.27599934,313.575667 9.2199999,313.736666 9.2199999,313.942 L9.2199999,315.552 Z M19.1996669,316.07 C19.1996669,315.855332 19.1343342,315.701334 19.0036669,315.608 C18.8729996,315.514666 18.7470009,315.468 18.6256669,315.468 C18.4949996,315.468 18.3666676,315.514666 18.2406669,315.608 C18.1146663,315.701334 18.0516669,315.855332 18.0516669,316.07 L18.0516669,316.462 L18.0236669,316.462 C17.7343321,316.144665 17.4310018,315.899668 17.1136669,315.727 C16.796332,315.554332 16.4230024,315.468 15.9936669,315.468 C15.4709976,315.468 15.006669,315.572999 14.6006669,315.783 C14.1946649,315.993001 13.8516683,316.275332 13.5716669,316.63 C13.2916655,316.984668 13.0793343,317.390664 12.9346669,317.848 C12.7899995,318.305336 12.7176669,318.781331 12.7176669,319.276 C12.7176669,319.770669 12.7899995,320.246664 12.9346669,320.704 C13.0793343,321.161336 13.2916655,321.567332 13.5716669,321.922 C13.8516683,322.276668 14.1946649,322.558999 14.6006669,322.769 C15.006669,322.979001 15.4709976,323.084 15.9936669,323.084 C16.3950023,323.084 16.7659986,322.993001 17.1066669,322.811 C17.4473353,322.628999 17.7529989,322.346669 18.0236669,321.964 L18.0516669,321.964 L18.0516669,322.482 C18.0516669,322.696668 18.1146663,322.850666 18.2406669,322.944 C18.3666676,323.037334 18.4949996,323.084 18.6256669,323.084 C18.7470009,323.084 18.8729996,323.037334 19.0036669,322.944 C19.1343342,322.850666 19.1996669,322.696668 19.1996669,322.482 L19.1996669,316.07 Z M13.9496669,319.276 C13.9496669,318.958665 13.9846666,318.639002 14.0546669,318.317 C14.1246673,317.994998 14.2413328,317.701001 14.4046669,317.435 C14.5680011,317.168999 14.7803323,316.952001 15.0416669,316.784 C15.3030016,316.615999 15.6203317,316.532 15.9936669,316.532 C16.3763355,316.532 16.695999,316.615999 16.9526669,316.784 C17.2093349,316.952001 17.4193328,317.168999 17.5826669,317.435 C17.7460011,317.701001 17.8626666,317.994998 17.9326669,318.317 C18.0026673,318.639002 18.0376669,318.958665 18.0376669,319.276 C18.0376669,319.593335 18.0026673,319.912998 17.9326669,320.235 C17.8626666,320.557002 17.7460011,320.850999 17.5826669,321.117 C17.4193328,321.383001 17.2093349,321.599999 16.9526669,321.768 C16.695999,321.936001 16.3763355,322.02 15.9936669,322.02 C15.6203317,322.02 15.3030016,321.936001 15.0416669,321.768 C14.7803323,321.599999 14.5680011,321.383001 14.4046669,321.117 C14.2413328,320.850999 14.1246673,320.557002 14.0546669,320.235 C13.9846666,319.912998 13.9496669,319.593335 13.9496669,319.276 L13.9496669,319.276 Z M22.5573339,319.276 C22.5573339,318.958665 22.5923336,318.639002 22.6623339,318.317 C22.7323343,317.994998 22.8489998,317.701001 23.0123339,317.435 C23.1756681,317.168999 23.3879993,316.952001 23.6493339,316.784 C23.9106686,316.615999 24.2279987,316.532 24.6013339,316.532 C24.9840025,316.532 25.303666,316.615999 25.5603339,316.784 C25.8170019,316.952001 26.0269998,317.168999 26.1903339,317.435 C26.3536681,317.701001 26.4703336,317.994998 26.5403339,318.317 C26.6103343,318.639002 26.6453339,318.958665 26.6453339,319.276 C26.6453339,319.593335 26.6103343,319.912998 26.5403339,320.235 C26.4703336,320.557002 26.3536681,320.850999 26.1903339,321.117 C26.0269998,321.383001 25.8170019,321.599999 25.5603339,321.768 C25.303666,321.936001 24.9840025,322.02 24.6013339,322.02 C24.2279987,322.02 23.9106686,321.936001 23.6493339,321.768 C23.3879993,321.599999 23.1756681,321.383001 23.0123339,321.117 C22.8489998,320.850999 22.7323343,320.557002 22.6623339,320.235 C22.5923336,319.912998 22.5573339,319.593335 22.5573339,319.276 L22.5573339,319.276 Z M21.4513339,322.426 C21.4513339,322.631334 21.5073334,322.792333 21.6193339,322.909 C21.7313345,323.025667 21.8806663,323.084 22.0673339,323.084 C22.2540015,323.084 22.4033334,323.025667 22.5153339,322.909 C22.6273345,322.792333 22.6833339,322.631334 22.6833339,322.426 L22.6833339,322.062 L22.7113339,322.062 C23.0660024,322.743337 23.7286624,323.084 24.6993339,323.084 C25.2033365,323.084 25.651332,322.979001 26.0433339,322.769 C26.4353359,322.558999 26.7689992,322.276668 27.0443339,321.922 C27.3196686,321.567332 27.5273332,321.161336 27.6673339,320.704 C27.8073346,320.246664 27.8773339,319.770669 27.8773339,319.276 C27.8773339,318.781331 27.8073346,318.305336 27.6673339,317.848 C27.5273332,317.390664 27.3196686,316.984668 27.0443339,316.63 C26.7689992,316.275332 26.4353359,315.993001 26.0433339,315.783 C25.651332,315.572999 25.2033365,315.468 24.6993339,315.468 C24.4566661,315.468 24.230335,315.498333 24.0203339,315.559 C23.8103329,315.619667 23.6213348,315.699 23.4533339,315.797 C23.2853331,315.895 23.1406679,316.004666 23.0193339,316.126 C22.898,316.247334 22.7953344,316.363999 22.7113339,316.476 L22.6833339,316.476 L22.6833339,312.85 C22.6833339,312.644666 22.6273345,312.483667 22.5153339,312.367 C22.4033334,312.250333 22.2540015,312.192 22.0673339,312.192 C21.8806663,312.192 21.7313345,312.250333 21.6193339,312.367 C21.5073334,312.483667 21.4513339,312.644666 21.4513339,312.85 L21.4513339,322.426 Z M13.8259999,369.276 C13.8259999,369.593335 13.7910003,369.912998 13.7209999,370.235 C13.6509996,370.557002 13.5343341,370.850999 13.3709999,371.117 C13.2076658,371.383001 12.9976679,371.599999 12.7409999,371.768 C12.484332,371.936001 12.1646685,372.02 11.7819999,372.02 C11.4086647,372.02 11.0913345,371.936001 10.8299999,371.768 C10.5686653,371.599999 10.3563341,371.383001 10.1929999,371.117 C10.0296658,370.850999 9.91300025,370.557002 9.8429999,370.235 C9.77299955,369.912998 9.7379999,369.593335 9.7379999,369.276 C9.7379999,368.958665 9.77299955,368.639002 9.8429999,368.317 C9.91300025,367.994998 10.0296658,367.701001 10.1929999,367.435 C10.3563341,367.168999 10.5686653,366.952001 10.8299999,366.784 C11.0913345,366.615999 11.4086647,366.532 11.7819999,366.532 C12.1646685,366.532 12.484332,366.615999 12.7409999,366.784 C12.9976679,366.952001 13.2076658,367.168999 13.3709999,367.435 C13.5343341,367.701001 13.6509996,367.994998 13.7209999,368.317 C13.7910003,368.639002 13.8259999,368.958665 13.8259999,369.276 L13.8259999,369.276 Z M13.6999999,372.426 C13.6999999,372.631334 13.7559993,372.792333 13.8679999,372.909 C13.9800005,373.025667 14.1293323,373.084 14.3159999,373.084 C14.5026675,373.084 14.6519993,373.025667 14.7639999,372.909 C14.8760005,372.792333 14.9319999,372.631334 14.9319999,372.426 L14.9319999,362.85 C14.9319999,362.644666 14.8760005,362.483667 14.7639999,362.367 C14.6519993,362.250333 14.5026675,362.192 14.3159999,362.192 C14.1293323,362.192 13.9800005,362.250333 13.8679999,362.367 C13.7559993,362.483667 13.6999999,362.644666 13.6999999,362.85 L13.6999999,366.476 L13.6719999,366.476 C13.5879995,366.363999 13.4853338,366.247334 13.3639999,366.126 C13.242666,366.004666 13.0980007,365.895 12.9299999,365.797 C12.7619991,365.699 12.573001,365.619667 12.3629999,365.559 C12.1529989,365.498333 11.9266678,365.468 11.6839999,365.468 C11.1799974,365.468 10.7320019,365.572999 10.3399999,365.783 C9.94799794,365.993001 9.61433461,366.275332 9.3389999,366.63 C9.06366519,366.984668 8.8560006,367.390664 8.7159999,367.848 C8.5759992,368.305336 8.5059999,368.781331 8.5059999,369.276 C8.5059999,369.770669 8.5759992,370.246664 8.7159999,370.704 C8.8560006,371.161336 9.06366519,371.567332 9.3389999,371.922 C9.61433461,372.276668 9.94799794,372.558999 10.3399999,372.769 C10.7320019,372.979001 11.1799974,373.084 11.6839999,373.084 C12.6546714,373.084 13.3173315,372.743337 13.6719999,372.062 L13.6999999,372.062 L13.6999999,372.426 Z M22.4301668,369.752 C22.7008348,369.752 22.882833,369.696001 22.9761668,369.584 C23.0695006,369.471999 23.1161668,369.308668 23.1161668,369.094 C23.1161668,368.645998 23.0438342,368.205002 22.8991668,367.771 C22.7544994,367.336998 22.5468348,366.949668 22.2761668,366.609 C22.0054988,366.268332 21.6695021,365.993001 21.2681668,365.783 C20.8668315,365.572999 20.4141693,365.468 19.9101668,365.468 C19.3874975,365.468 18.9185022,365.570666 18.5031668,365.776 C18.0878314,365.981334 17.7378349,366.258998 17.4531668,366.609 C17.1684987,366.959002 16.9491676,367.364998 16.7951668,367.827 C16.641166,368.289002 16.5641668,368.771997 16.5641668,369.276 C16.5641668,369.770669 16.6294995,370.246664 16.7601668,370.704 C16.8908341,371.161336 17.0961654,371.567332 17.3761668,371.922 C17.6561682,372.276668 18.0108313,372.558999 18.4401668,372.769 C18.8695023,372.979001 19.3828305,373.084 19.9801668,373.084 C20.3441686,373.084 20.7034984,373.032667 21.0581668,372.93 C21.4128352,372.827333 21.7324987,372.699001 22.0171668,372.545 C22.3018349,372.390999 22.5304993,372.225334 22.7031668,372.048 C22.8758343,371.870666 22.9621668,371.707334 22.9621668,371.558 C22.9621668,371.380666 22.9155006,371.245334 22.8221668,371.152 C22.728833,371.058666 22.6261674,371.012 22.5141668,371.012 C22.4021662,371.012 22.2831674,371.063333 22.1571668,371.166 C22.0311662,371.268667 21.8771677,371.382999 21.6951668,371.509 C21.5131659,371.635001 21.2868348,371.751666 21.0161668,371.859 C20.7454988,371.966334 20.4048355,372.02 19.9941668,372.02 C19.6488317,372.02 19.3408348,371.961667 19.0701668,371.845 C18.7994988,371.728333 18.5685011,371.567334 18.3771668,371.362 C18.1858325,371.156666 18.0411673,370.916335 17.9431668,370.641 C17.8451663,370.365665 17.7961668,370.069335 17.7961668,369.752 L22.4301668,369.752 Z M17.7961668,368.828 C17.8055002,368.547999 17.8498331,368.268001 17.9291668,367.988 C18.0085005,367.707999 18.132166,367.458334 18.3001668,367.239 C18.4681676,367.019666 18.6828322,366.842334 18.9441668,366.707 C19.2055014,366.571666 19.5274982,366.513333 19.9101668,366.532 C20.2461685,366.532 20.5401655,366.601999 20.7921668,366.742 C21.0441681,366.882001 21.2494993,367.061666 21.4081668,367.281 C21.5668343,367.500334 21.6858331,367.745332 21.7651668,368.016 C21.8445005,368.286668 21.8841668,368.557332 21.8841668,368.828 L17.7961668,368.828 Z M25.9243337,362.85 C25.9243337,362.644666 25.8683343,362.483667 25.7563337,362.367 C25.6443331,362.250333 25.4950013,362.192 25.3083337,362.192 C25.1216661,362.192 24.9723343,362.250333 24.8603337,362.367 C24.7483331,362.483667 24.6923337,362.644666 24.6923337,362.85 L24.6923337,372.426 C24.6923337,372.631334 24.7483331,372.792333 24.8603337,372.909 C24.9723343,373.025667 25.1216661,373.084 25.3083337,373.084 C25.4950013,373.084 25.6443331,373.025667 25.7563337,372.909 C25.8683343,372.792333 25.9243337,372.631334 25.9243337,372.426 L25.9243337,362.85 Z M33.3665006,369.752 C33.6371686,369.752 33.8191668,369.696001 33.9125006,369.584 C34.0058344,369.471999 34.0525006,369.308668 34.0525006,369.094 C34.0525006,368.645998 33.980168,368.205002 33.8355006,367.771 C33.6908332,367.336998 33.4831686,366.949668 33.2125006,366.609 C32.9418326,366.268332 32.6058359,365.993001 32.2045006,365.783 C31.8031653,365.572999 31.3505031,365.468 30.8465006,365.468 C30.3238313,365.468 29.854836,365.570666 29.4395006,365.776 C29.0241652,365.981334 28.6741687,366.258998 28.3895006,366.609 C28.1048325,366.959002 27.8855014,367.364998 27.7315006,367.827 C27.5774998,368.289002 27.5005006,368.771997 27.5005006,369.276 C27.5005006,369.770669 27.5658333,370.246664 27.6965006,370.704 C27.8271679,371.161336 28.0324992,371.567332 28.3125006,371.922 C28.592502,372.276668 28.9471651,372.558999 29.3765006,372.769 C29.8058361,372.979001 30.3191643,373.084 30.9165006,373.084 C31.2805024,373.084 31.6398322,373.032667 31.9945006,372.93 C32.349169,372.827333 32.6688325,372.699001 32.9535006,372.545 C33.2381687,372.390999 33.4668331,372.225334 33.6395006,372.048 C33.8121681,371.870666 33.8985006,371.707334 33.8985006,371.558 C33.8985006,371.380666 33.8518344,371.245334 33.7585006,371.152 C33.6651668,371.058666 33.5625012,371.012 33.4505006,371.012 C33.3385,371.012 33.2195012,371.063333 33.0935006,371.166 C32.9675,371.268667 32.8135015,371.382999 32.6315006,371.509 C32.4494997,371.635001 32.2231686,371.751666 31.9525006,371.859 C31.6818326,371.966334 31.3411693,372.02 30.9305006,372.02 C30.5851655,372.02 30.2771686,371.961667 30.0065006,371.845 C29.7358326,371.728333 29.5048349,371.567334 29.3135006,371.362 C29.1221663,371.156666 28.9775011,370.916335 28.8795006,370.641 C28.7815001,370.365665 28.7325006,370.069335 28.7325006,369.752 L33.3665006,369.752 Z M28.7325006,368.828 C28.741834,368.547999 28.7861669,368.268001 28.8655006,367.988 C28.9448343,367.707999 29.0684998,367.458334 29.2365006,367.239 C29.4045014,367.019666 29.619166,366.842334 29.8805006,366.707 C30.1418352,366.571666 30.463832,366.513333 30.8465006,366.532 C31.1825023,366.532 31.4764993,366.601999 31.7285006,366.742 C31.9805019,366.882001 32.1858331,367.061666 32.3445006,367.281 C32.5031681,367.500334 32.6221669,367.745332 32.7015006,368.016 C32.7808343,368.286668 32.8205006,368.557332 32.8205006,368.828 L28.7325006,368.828 Z M36.0206675,365.552 L35.5166675,365.552 C35.1059988,365.552 34.9006675,365.729332 34.9006675,366.084 C34.9006675,366.438668 35.1059988,366.616 35.5166675,366.616 L36.0206675,366.616 L36.0206675,372.426 C36.0206675,372.631334 36.0766669,372.792333 36.1886675,372.909 C36.3006681,373.025667 36.4499999,373.084 36.6366675,373.084 C36.8233351,373.084 36.9726669,373.025667 37.0846675,372.909 C37.1966681,372.792333 37.2526675,372.631334 37.2526675,372.426 L37.2526675,366.616 L37.7566675,366.616 C38.1673362,366.616 38.3726675,366.438668 38.3726675,366.084 C38.3726675,365.729332 38.1673362,365.552 37.7566675,365.552 L37.2526675,365.552 L37.2526675,363.942 C37.2526675,363.736666 37.1966681,363.575667 37.0846675,363.459 C36.9726669,363.342333 36.8233351,363.284 36.6366675,363.284 C36.4499999,363.284 36.3006681,363.342333 36.1886675,363.459 C36.0766669,363.575667 36.0206675,363.736666 36.0206675,363.942 L36.0206675,365.552 Z M45.0868344,369.752 C45.3575024,369.752 45.5395006,369.696001 45.6328344,369.584 C45.7261682,369.471999 45.7728344,369.308668 45.7728344,369.094 C45.7728344,368.645998 45.7005018,368.205002 45.5558344,367.771 C45.411167,367.336998 45.2035024,366.949668 44.9328344,366.609 C44.6621664,366.268332 44.3261697,365.993001 43.9248344,365.783 C43.5234991,365.572999 43.0708369,365.468 42.5668344,365.468 C42.0441651,365.468 41.5751698,365.570666 41.1598344,365.776 C40.744499,365.981334 40.3945025,366.258998 40.1098344,366.609 C39.8251663,366.959002 39.6058352,367.364998 39.4518344,367.827 C39.2978336,368.289002 39.2208344,368.771997 39.2208344,369.276 C39.2208344,369.770669 39.2861671,370.246664 39.4168344,370.704 C39.5475017,371.161336 39.752833,371.567332 40.0328344,371.922 C40.3128358,372.276668 40.6674989,372.558999 41.0968344,372.769 C41.5261699,372.979001 42.0394981,373.084 42.6368344,373.084 C43.0008362,373.084 43.360166,373.032667 43.7148344,372.93 C44.0695028,372.827333 44.3891663,372.699001 44.6738344,372.545 C44.9585025,372.390999 45.1871669,372.225334 45.3598344,372.048 C45.5325019,371.870666 45.6188344,371.707334 45.6188344,371.558 C45.6188344,371.380666 45.5721682,371.245334 45.4788344,371.152 C45.3855006,371.058666 45.282835,371.012 45.1708344,371.012 C45.0588338,371.012 44.939835,371.063333 44.8138344,371.166 C44.6878338,371.268667 44.5338353,371.382999 44.3518344,371.509 C44.1698335,371.635001 43.9435024,371.751666 43.6728344,371.859 C43.4021664,371.966334 43.0615031,372.02 42.6508344,372.02 C42.3054993,372.02 41.9975024,371.961667 41.7268344,371.845 C41.4561664,371.728333 41.2251687,371.567334 41.0338344,371.362 C40.8425001,371.156666 40.6978349,370.916335 40.5998344,370.641 C40.5018339,370.365665 40.4528344,370.069335 40.4528344,369.752 L45.0868344,369.752 Z M40.4528344,368.828 C40.4621678,368.547999 40.5065007,368.268001 40.5858344,367.988 C40.6651681,367.707999 40.7888336,367.458334 40.9568344,367.239 C41.1248352,367.019666 41.3394998,366.842334 41.6008344,366.707 C41.862169,366.571666 42.1841658,366.513333 42.5668344,366.532 C42.9028361,366.532 43.1968331,366.601999 43.4488344,366.742 C43.7008357,366.882001 43.9061669,367.061666 44.0648344,367.281 C44.2235019,367.500334 44.3425007,367.745332 44.4218344,368.016 C44.5011681,368.286668 44.5408344,368.557332 44.5408344,368.828 L40.4528344,368.828 Z M8.8279999,422.426 C8.8279999,422.631334 8.88399934,422.792333 8.9959999,422.909 C9.10800046,423.025667 9.2573323,423.084 9.4439999,423.084 C9.6306675,423.084 9.77999934,423.025667 9.8919999,422.909 C10.0040005,422.792333 10.0599999,422.631334 10.0599999,422.426 L10.0599999,418.884 C10.0599999,418.519998 10.1113327,418.212001 10.2139999,417.96 C10.3166671,417.707999 10.4449991,417.498001 10.5989999,417.33 C10.7530007,417.161999 10.9279989,417.033667 11.1239999,416.945 C11.3200009,416.856333 11.5066657,416.798 11.6839999,416.77 C12.1973358,416.676666 12.4539999,416.452668 12.4539999,416.098 C12.4539999,415.920666 12.3933338,415.771334 12.2719999,415.65 C12.150666,415.528666 11.9826676,415.468 11.7679999,415.468 C11.5906657,415.468 11.4156674,415.507666 11.2429999,415.587 C11.0703324,415.666334 10.9116673,415.768999 10.7669999,415.895 C10.6223325,416.021001 10.4916672,416.160999 10.3749999,416.315 C10.2583327,416.469001 10.1626669,416.615999 10.0879999,416.756 L10.0599999,416.756 L10.0599999,416.126 C10.0599999,415.920666 10.0040005,415.759667 9.8919999,415.643 C9.77999934,415.526333 9.6306675,415.468 9.4439999,415.468 C9.2573323,415.468 9.10800046,415.526333 8.9959999,415.643 C8.88399934,415.759667 8.8279999,415.920666 8.8279999,416.126 L8.8279999,422.426 Z M19.0561668,419.752 C19.3268348,419.752 19.508833,419.696001 19.6021668,419.584 C19.6955006,419.471999 19.7421668,419.308668 19.7421668,419.094 C19.7421668,418.645998 19.6698342,418.205002 19.5251668,417.771 C19.3804994,417.336998 19.1728348,416.949668 18.9021668,416.609 C18.6314988,416.268332 18.2955021,415.993001 17.8941668,415.783 C17.4928315,415.572999 17.0401693,415.468 16.5361668,415.468 C16.0134975,415.468 15.5445022,415.570666 15.1291668,415.776 C14.7138314,415.981334 14.3638349,416.258998 14.0791668,416.609 C13.7944987,416.959002 13.5751676,417.364998 13.4211668,417.827 C13.267166,418.289002 13.1901668,418.771997 13.1901668,419.276 C13.1901668,419.770669 13.2554995,420.246664 13.3861668,420.704 C13.5168341,421.161336 13.7221654,421.567332 14.0021668,421.922 C14.2821682,422.276668 14.6368313,422.558999 15.0661668,422.769 C15.4955023,422.979001 16.0088305,423.084 16.6061668,423.084 C16.9701686,423.084 17.3294984,423.032667 17.6841668,422.93 C18.0388352,422.827333 18.3584987,422.699001 18.6431668,422.545 C18.9278349,422.390999 19.1564993,422.225334 19.3291668,422.048 C19.5018343,421.870666 19.5881668,421.707334 19.5881668,421.558 C19.5881668,421.380666 19.5415006,421.245334 19.4481668,421.152 C19.354833,421.058666 19.2521674,421.012 19.1401668,421.012 C19.0281662,421.012 18.9091674,421.063333 18.7831668,421.166 C18.6571662,421.268667 18.5031677,421.382999 18.3211668,421.509 C18.1391659,421.635001 17.9128348,421.751666 17.6421668,421.859 C17.3714988,421.966334 17.0308355,422.02 16.6201668,422.02 C16.2748317,422.02 15.9668348,421.961667 15.6961668,421.845 C15.4254988,421.728333 15.1945011,421.567334 15.0031668,421.362 C14.8118325,421.156666 14.6671673,420.916335 14.5691668,420.641 C14.4711663,420.365665 14.4221668,420.069335 14.4221668,419.752 L19.0561668,419.752 Z M14.4221668,418.828 C14.4315002,418.547999 14.4758331,418.268001 14.5551668,417.988 C14.6345005,417.707999 14.758166,417.458334 14.9261668,417.239 C15.0941676,417.019666 15.3088322,416.842334 15.5701668,416.707 C15.8315014,416.571666 16.1534982,416.513333 16.5361668,416.532 C16.8721685,416.532 17.1661655,416.601999 17.4181668,416.742 C17.6701681,416.882001 17.8754993,417.061666 18.0341668,417.281 C18.1928343,417.500334 18.3118331,417.745332 18.3911668,418.016 C18.4705005,418.286668 18.5101668,418.557332 18.5101668,418.828 L14.4221668,418.828 Z M21.7103337,415.552 L21.2063337,415.552 C20.795665,415.552 20.5903337,415.729332 20.5903337,416.084 C20.5903337,416.438668 20.795665,416.616 21.2063337,416.616 L21.7103337,416.616 L21.7103337,422.426 C21.7103337,422.631334 21.7663331,422.792333 21.8783337,422.909 C21.9903343,423.025667 22.1396661,423.084 22.3263337,423.084 C22.5130013,423.084 22.6623331,423.025667 22.7743337,422.909 C22.8863343,422.792333 22.9423337,422.631334 22.9423337,422.426 L22.9423337,416.616 L23.4463337,416.616 C23.8570024,416.616 24.0623337,416.438668 24.0623337,416.084 C24.0623337,415.729332 23.8570024,415.552 23.4463337,415.552 L22.9423337,415.552 L22.9423337,413.942 C22.9423337,413.736666 22.8863343,413.575667 22.7743337,413.459 C22.6623331,413.342333 22.5130013,413.284 22.3263337,413.284 C22.1396661,413.284 21.9903343,413.342333 21.8783337,413.459 C21.7663331,413.575667 21.7103337,413.736666 21.7103337,413.942 L21.7103337,415.552 Z M25.3585006,420.116 C25.3585006,420.657336 25.4424998,421.116998 25.6105006,421.495 C25.7785014,421.873002 26.0001659,422.180999 26.2755006,422.419 C26.5508353,422.657001 26.8658322,422.827333 27.2205006,422.93 C27.575169,423.032667 27.9391654,423.084 28.3125006,423.084 C28.6858358,423.084 29.0498322,423.032667 29.4045006,422.93 C29.759169,422.827333 30.0741659,422.657001 30.3495006,422.419 C30.6248353,422.180999 30.8464998,421.873002 31.0145006,421.495 C31.1825014,421.116998 31.2665006,420.657336 31.2665006,420.116 L31.2665006,416.126 C31.2665006,415.920666 31.2105012,415.759667 31.0985006,415.643 C30.9865,415.526333 30.8371682,415.468 30.6505006,415.468 C30.463833,415.468 30.3145012,415.526333 30.2025006,415.643 C30.0905,415.759667 30.0345006,415.920666 30.0345006,416.126 L30.0345006,420.074 C30.0345006,421.37134 29.4605063,422.02 28.3125006,422.02 C27.1644949,422.02 26.5905006,421.37134 26.5905006,420.074 L26.5905006,416.126 C26.5905006,415.920666 26.5345012,415.759667 26.4225006,415.643 C26.3105,415.526333 26.1611682,415.468 25.9745006,415.468 C25.787833,415.468 25.6385012,415.526333 25.5265006,415.643 C25.4145,415.759667 25.3585006,415.920666 25.3585006,416.126 L25.3585006,420.116 Z M33.2906675,422.426 C33.2906675,422.631334 33.3466669,422.792333 33.4586675,422.909 C33.5706681,423.025667 33.7199999,423.084 33.9066675,423.084 C34.0933351,423.084 34.2426669,423.025667 34.3546675,422.909 C34.4666681,422.792333 34.5226675,422.631334 34.5226675,422.426 L34.5226675,418.884 C34.5226675,418.519998 34.5740003,418.212001 34.6766675,417.96 C34.7793347,417.707999 34.9076667,417.498001 35.0616675,417.33 C35.2156683,417.161999 35.3906665,417.033667 35.5866675,416.945 C35.7826685,416.856333 35.9693333,416.798 36.1466675,416.77 C36.6600034,416.676666 36.9166675,416.452668 36.9166675,416.098 C36.9166675,415.920666 36.8560014,415.771334 36.7346675,415.65 C36.6133336,415.528666 36.4453352,415.468 36.2306675,415.468 C36.0533333,415.468 35.878335,415.507666 35.7056675,415.587 C35.533,415.666334 35.3743349,415.768999 35.2296675,415.895 C35.0850001,416.021001 34.9543348,416.160999 34.8376675,416.315 C34.7210003,416.469001 34.6253345,416.615999 34.5506675,416.756 L34.5226675,416.756 L34.5226675,416.126 C34.5226675,415.920666 34.4666681,415.759667 34.3546675,415.643 C34.2426669,415.526333 34.0933351,415.468 33.9066675,415.468 C33.7199999,415.468 33.5706681,415.526333 33.4586675,415.643 C33.3466669,415.759667 33.2906675,415.920666 33.2906675,416.126 L33.2906675,422.426 Z M38.1008344,422.426 C38.1008344,422.631334 38.1568338,422.792333 38.2688344,422.909 C38.380835,423.025667 38.5301668,423.084 38.7168344,423.084 C38.903502,423.084 39.0528338,423.025667 39.1648344,422.909 C39.276835,422.792333 39.3328344,422.631334 39.3328344,422.426 L39.3328344,418.366 C39.3328344,418.039332 39.3841672,417.759335 39.4868344,417.526 C39.5895016,417.292665 39.7225002,417.103667 39.8858344,416.959 C40.0491685,416.814333 40.2335,416.707 40.4388344,416.637 C40.6441688,416.567 40.8495,416.532 41.0548344,416.532 C41.2601688,416.532 41.4655,416.567 41.6708344,416.637 C41.8761688,416.707 42.0605002,416.814333 42.2238344,416.959 C42.3871685,417.103667 42.5201672,417.292665 42.6228344,417.526 C42.7255016,417.759335 42.7768344,418.039332 42.7768344,418.366 L42.7768344,422.426 C42.7768344,422.631334 42.8328338,422.792333 42.9448344,422.909 C43.056835,423.025667 43.2061668,423.084 43.3928344,423.084 C43.579502,423.084 43.7288338,423.025667 43.8408344,422.909 C43.952835,422.792333 44.0088344,422.631334 44.0088344,422.426 L44.0088344,418.296 C44.0088344,417.773331 43.9271685,417.332335 43.7638344,416.973 C43.6005002,416.613665 43.3928357,416.322001 43.1408344,416.098 C42.8888331,415.873999 42.6111692,415.713 42.3078344,415.615 C42.0044995,415.517 41.7081692,415.468 41.4188344,415.468 C41.0454992,415.468 40.6768362,415.542666 40.3128344,415.692 C39.9488326,415.841334 39.6315024,416.093332 39.3608344,416.448 L39.3328344,416.42 L39.3328344,416.126 C39.3328344,415.920666 39.276835,415.759667 39.1648344,415.643 C39.0528338,415.526333 38.903502,415.468 38.7168344,415.468 C38.5301668,415.468 38.380835,415.526333 38.2688344,415.643 C38.1568338,415.759667 38.1008344,415.920666 38.1008344,416.126 L38.1008344,422.426 Z M10.0599999,468.59 L12.6499999,468.59 C12.8273341,468.59 12.9719993,468.543334 13.0839999,468.45 C13.1960005,468.356666 13.2519999,468.212001 13.2519999,468.016 C13.2519999,467.819999 13.1960005,467.675334 13.0839999,467.582 C12.9719993,467.488666 12.8273341,467.442 12.6499999,467.442 L10.0599999,467.442 L10.0599999,464.18 L12.9859999,464.18 C13.1633341,464.18 13.3079993,464.133334 13.4199999,464.04 C13.5320005,463.946666 13.5879999,463.802001 13.5879999,463.606 C13.5879999,463.409999 13.5320005,463.265334 13.4199999,463.172 C13.3079993,463.078666 13.1633341,463.032 12.9859999,463.032 L9.4859999,463.032 C9.2526654,463.032 9.08466708,463.097333 8.9819999,463.228 C8.87933272,463.358667 8.8279999,463.517332 8.8279999,463.704 L8.8279999,472.426 C8.8279999,472.631334 8.88399934,472.792333 8.9959999,472.909 C9.10800046,473.025667 9.2573323,473.084 9.4439999,473.084 C9.6306675,473.084 9.77999934,473.025667 9.8919999,472.909 C10.0040005,472.792333 10.0599999,472.631334 10.0599999,472.426 L10.0599999,468.59 Z M17.6619999,471.936 L21.0079999,467.484 C21.1666673,467.269332 21.2926661,467.068668 21.3859999,466.882 C21.4793337,466.695332 21.549333,466.518001 21.5959999,466.35 C21.6426668,466.181999 21.6706665,466.021001 21.6799999,465.867 C21.6893333,465.712999 21.6939999,465.566001 21.6939999,465.426 C21.6939999,465.099332 21.6310005,464.789001 21.5049999,464.495 C21.3789993,464.200999 21.1993344,463.937335 20.9659999,463.704 C20.7326654,463.470665 20.4503349,463.286334 20.1189999,463.151 C19.7876649,463.015666 19.4166686,462.948 19.0059999,462.948 C18.492664,462.948 18.0376685,463.031999 17.6409999,463.2 C17.2443312,463.368001 16.9130012,463.596665 16.6469999,463.886 C16.3809986,464.175335 16.1780006,464.508998 16.0379999,464.887 C15.8979992,465.265002 15.8279999,465.659331 15.8279999,466.07 C15.8279999,466.574003 16.0286645,466.826 16.4299999,466.826 C16.5606672,466.826 16.6843326,466.786334 16.8009999,466.707 C16.9176671,466.627666 16.9759999,466.480668 16.9759999,466.266 C16.9759999,465.957998 17.0156662,465.666335 17.0949999,465.391 C17.1743336,465.115665 17.2909991,464.875334 17.4449999,464.67 C17.5990007,464.464666 17.7879988,464.303667 18.0119999,464.187 C18.236001,464.070333 18.4973317,464.012 18.7959999,464.012 C19.2440021,464.012 19.619665,464.156665 19.9229999,464.446 C20.2263347,464.735335 20.3779999,465.108664 20.3779999,465.566 C20.3779999,465.864668 20.3103339,466.165665 20.1749999,466.469 C20.0396659,466.772335 19.8646676,467.059332 19.6499999,467.33 L16.2059999,471.936 C16.1033327,472.085334 16.0333334,472.197333 15.9959999,472.272 C15.9586664,472.346667 15.9399999,472.421333 15.9399999,472.496 C15.9399999,472.598667 15.9866661,472.708333 16.0799999,472.825 C16.1733337,472.941667 16.3506652,473 16.6119999,473 L21.4419999,473 C21.591334,473 21.7173327,472.948667 21.8199999,472.846 C21.9226671,472.743333 21.9739999,472.617334 21.9739999,472.468 C21.9739999,472.318666 21.9226671,472.192667 21.8199999,472.09 C21.7173327,471.987333 21.591334,471.936 21.4419999,471.936 L17.6619999,471.936 Z" id="func" fill="#FFFFFF" sketch:type="MSShapeGroup"></path>
            <path d="M7.4079999,17.568 C7.4079999,17.9133351 7.50599892,18.2049988 7.7019999,18.443 C7.89800088,18.6810012 8.14299843,18.8863325 8.4369999,19.059 C8.73100137,19.2316675 9.05066484,19.385666 9.3959999,19.521 C9.74133496,19.656334 10.0609984,19.7939993 10.3549999,19.934 C10.6490014,20.0740007 10.8939989,20.2279992 11.0899999,20.396 C11.2860009,20.5640008 11.3839999,20.7693321 11.3839999,21.012 C11.3839999,21.2640013 11.2556679,21.4949989 10.9989999,21.705 C10.742332,21.9150011 10.3900021,22.02 9.9419999,22.02 C9.60599822,22.02 9.3213344,21.9733338 9.0879999,21.88 C8.8546654,21.7866662 8.64933412,21.6816673 8.4719999,21.565 C8.29466568,21.4483327 8.14066722,21.3433338 8.0099999,21.25 C7.87933258,21.1566662 7.7440006,21.11 7.6039999,21.11 C7.47333258,21.11 7.35666708,21.1613328 7.2539999,21.264 C7.15133272,21.3666672 7.0999999,21.5019992 7.0999999,21.67 C7.0999999,21.8286675 7.17233251,21.9919992 7.3169999,22.16 C7.46166729,22.3280008 7.65999864,22.479666 7.9119999,22.615 C8.16400116,22.750334 8.46033153,22.8623329 8.8009999,22.951 C9.14166827,23.0396671 9.50799794,23.084 9.8999999,23.084 C10.245335,23.084 10.5813316,23.0373338 10.9079999,22.944 C11.2346682,22.8506662 11.5239986,22.7083343 11.7759999,22.517 C12.0280012,22.3256657 12.2309991,22.0876681 12.3849999,21.803 C12.5390007,21.5183319 12.6159999,21.180002 12.6159999,20.788 C12.6159999,20.4239982 12.5180009,20.1206679 12.3219999,19.878 C12.1259989,19.6353321 11.8810014,19.4276675 11.5869999,19.255 C11.2929984,19.0823325 10.973335,18.9330006 10.6279999,18.807 C10.2826648,18.6809994 9.96300137,18.5550006 9.6689999,18.429 C9.37499843,18.3029994 9.13000088,18.1653341 8.9339999,18.016 C8.73799892,17.8666659 8.6399999,17.6846677 8.6399999,17.47 C8.6399999,17.1526651 8.76833195,16.9170008 9.0249999,16.763 C9.28166785,16.6089992 9.58733146,16.532 9.9419999,16.532 C10.2406681,16.532 10.4833323,16.5716663 10.6699999,16.651 C10.8566675,16.7303337 11.0153326,16.8166662 11.1459999,16.91 C11.2766672,17.0033338 11.395666,17.0896663 11.5029999,17.169 C11.6103338,17.2483337 11.7293326,17.288 11.8599999,17.288 C12.0466675,17.288 12.1866661,17.2366672 12.2799999,17.134 C12.3733337,17.0313328 12.4199999,16.9146673 12.4199999,16.784 C12.4199999,16.587999 12.3383341,16.4106675 12.1749999,16.252 C12.0116658,16.0933325 11.8086678,15.9556673 11.5659999,15.839 C11.323332,15.7223327 11.0550014,15.6313337 10.7609999,15.566 C10.4669984,15.5006663 10.1940012,15.468 9.9419999,15.468 C9.63399836,15.468 9.32833475,15.5123329 9.0249999,15.601 C8.72166505,15.6896671 8.45100109,15.8226658 8.2129999,16 C7.97499871,16.1773342 7.78133398,16.3966654 7.6319999,16.658 C7.48266582,16.9193346 7.4079999,17.2226649 7.4079999,17.568 L7.4079999,17.568 Z M19.039667,22.426 C19.039667,22.6313344 19.0956664,22.7923328 19.207667,22.909 C19.3196675,23.0256673 19.4689994,23.084 19.655667,23.084 C19.8423346,23.084 19.9916664,23.0256673 20.103667,22.909 C20.2156675,22.7923328 20.271667,22.6313344 20.271667,22.426 L20.271667,18.296 C20.271667,17.7733307 20.1900011,17.3323351 20.026667,16.973 C19.8633328,16.6136649 19.6556682,16.3220011 19.403667,16.098 C19.1516657,15.8739989 18.8740018,15.7130005 18.570667,15.615 C18.2673321,15.5169995 17.9710018,15.468 17.681667,15.468 C17.3083318,15.468 16.9396688,15.5426659 16.575667,15.692 C16.2116652,15.8413341 15.894335,16.0933316 15.623667,16.448 L15.595667,16.42 L15.595667,12.85 C15.595667,12.6446656 15.5396675,12.4836672 15.427667,12.367 C15.3156664,12.2503328 15.1663346,12.192 14.979667,12.192 C14.7929994,12.192 14.6436675,12.2503328 14.531667,12.367 C14.4196664,12.4836672 14.363667,12.6446656 14.363667,12.85 L14.363667,22.426 C14.363667,22.6313344 14.4196664,22.7923328 14.531667,22.909 C14.6436675,23.0256673 14.7929994,23.084 14.979667,23.084 C15.1663346,23.084 15.3156664,23.0256673 15.427667,22.909 C15.5396675,22.7923328 15.595667,22.6313344 15.595667,22.426 L15.595667,18.366 C15.595667,18.0393317 15.6469998,17.7593345 15.749667,17.526 C15.8523342,17.2926655 15.9853328,17.1036674 16.148667,16.959 C16.3120011,16.8143326 16.4963326,16.7070003 16.701667,16.637 C16.9070013,16.5669997 17.1123326,16.532 17.317667,16.532 C17.5230013,16.532 17.7283326,16.5669997 17.933667,16.637 C18.1390013,16.7070003 18.3233328,16.8143326 18.486667,16.959 C18.6500011,17.1036674 18.7829998,17.2926655 18.885667,17.526 C18.9883342,17.7593345 19.039667,18.0393317 19.039667,18.366 L19.039667,22.426 Z M23.6993341,16.126 C23.6993341,15.9206656 23.6433346,15.7596673 23.5313341,15.643 C23.4193335,15.5263327 23.2700017,15.468 23.0833341,15.468 C22.8966665,15.468 22.7473346,15.5263327 22.6353341,15.643 C22.5233335,15.7596673 22.4673341,15.9206656 22.4673341,16.126 L22.4673341,22.426 C22.4673341,22.6313344 22.5233335,22.7923328 22.6353341,22.909 C22.7473346,23.0256673 22.8966665,23.084 23.0833341,23.084 C23.2700017,23.084 23.4193335,23.0256673 23.5313341,22.909 C23.6433346,22.7923328 23.6993341,22.6313344 23.6993341,22.426 L23.6993341,16.126 Z M22.3273341,13.704 C22.3273341,13.9186677 22.3996667,14.0983326 22.5443341,14.243 C22.6890014,14.3876674 22.8686663,14.46 23.0833341,14.46 C23.2980018,14.46 23.4776667,14.3876674 23.6223341,14.243 C23.7670014,14.0983326 23.8393341,13.9186677 23.8393341,13.704 C23.8393341,13.4893323 23.7670014,13.3096674 23.6223341,13.165 C23.4776667,13.0203326 23.2980018,12.948 23.0833341,12.948 C22.8686663,12.948 22.6890014,13.0203326 22.5443341,13.165 C22.3996667,13.3096674 22.3273341,13.4893323 22.3273341,13.704 L22.3273341,13.704 Z M27.5190011,16.616 L28.2890011,16.616 C28.6996699,16.616 28.9050011,16.4386684 28.9050011,16.084 C28.9050011,15.7293316 28.6996699,15.552 28.2890011,15.552 L27.5190011,15.552 L27.5190011,13.746 C27.5190011,13.5873325 27.5563341,13.4660004 27.6310011,13.382 C27.7056682,13.2979996 27.8363335,13.256 28.0230011,13.256 L28.3310011,13.256 C28.7790034,13.256 29.0030011,13.0786684 29.0030011,12.724 C29.0030011,12.5559992 28.9260019,12.4253338 28.7720011,12.332 C28.6180004,12.2386662 28.4616686,12.192 28.3030011,12.192 L27.9250011,12.192 C27.4769989,12.192 27.0920027,12.3249987 26.7700011,12.591 C26.4479995,12.8570013 26.2870011,13.260664 26.2870011,13.802 L26.2870011,15.552 L25.7830011,15.552 C25.3723324,15.552 25.1670011,15.7293316 25.1670011,16.084 C25.1670011,16.4386684 25.3723324,16.616 25.7830011,16.616 L26.2870011,16.616 L26.2870011,22.426 C26.2870011,22.6313344 26.3430006,22.7923328 26.4550011,22.909 C26.5670017,23.0256673 26.7163335,23.084 26.9030011,23.084 C27.0896687,23.084 27.2390006,23.0256673 27.3510011,22.909 C27.4630017,22.7923328 27.5190011,22.6313344 27.5190011,22.426 L27.5190011,16.616 Z M30.4846682,15.552 L29.9806682,15.552 C29.5699995,15.552 29.3646682,15.7293316 29.3646682,16.084 C29.3646682,16.4386684 29.5699995,16.616 29.9806682,16.616 L30.4846682,16.616 L30.4846682,22.426 C30.4846682,22.6313344 30.5406676,22.7923328 30.6526682,22.909 C30.7646688,23.0256673 30.9140006,23.084 31.1006682,23.084 C31.2873358,23.084 31.4366676,23.0256673 31.5486682,22.909 C31.6606688,22.7923328 31.7166682,22.6313344 31.7166682,22.426 L31.7166682,16.616 L32.2206682,16.616 C32.6313369,16.616 32.8366682,16.4386684 32.8366682,16.084 C32.8366682,15.7293316 32.6313369,15.552 32.2206682,15.552 L31.7166682,15.552 L31.7166682,13.942 C31.7166682,13.7366656 31.6606688,13.5756673 31.5486682,13.459 C31.4366676,13.3423328 31.2873358,13.284 31.1006682,13.284 C30.9140006,13.284 30.7646688,13.3423328 30.6526682,13.459 C30.5406676,13.5756673 30.4846682,13.7366656 30.4846682,13.942 L30.4846682,15.552 Z M7.2539999,69.276 C7.2539999,69.7706691 7.32166589,70.2466644 7.4569999,70.704 C7.59233391,71.1613356 7.7999985,71.5673316 8.0799999,71.922 C8.3600013,72.2766684 8.7099978,72.5589989 9.1299999,72.769 C9.550002,72.979001 10.0446637,73.084 10.6139999,73.084 C11.2580031,73.084 11.7456649,72.9813344 12.0769999,72.776 C12.4083349,72.5706656 12.5739999,72.3513345 12.5739999,72.118 C12.5739999,71.9499992 12.529667,71.8216671 12.4409999,71.733 C12.3523328,71.6443329 12.2380006,71.6 12.0979999,71.6 C12.0046661,71.6 11.913667,71.6209998 11.8249999,71.663 C11.7363328,71.7050002 11.6383338,71.7539997 11.5309999,71.81 C11.423666,71.8660003 11.2976673,71.9149998 11.1529999,71.957 C11.0083325,71.9990002 10.8286676,72.02 10.6139999,72.02 C10.2313313,72.02 9.90466792,71.9360008 9.6339999,71.768 C9.36333188,71.5999992 9.14400074,71.3830013 8.9759999,71.117 C8.80799906,70.8509987 8.68433363,70.5570016 8.6049999,70.235 C8.52566617,69.9129984 8.4859999,69.5933349 8.4859999,69.276 C8.4859999,68.9586651 8.52566617,68.6390016 8.6049999,68.317 C8.68433363,67.9949984 8.80799906,67.7010013 8.9759999,67.435 C9.14400074,67.1689987 9.36333188,66.9520008 9.6339999,66.784 C9.90466792,66.6159992 10.2313313,66.532 10.6139999,66.532 C10.8286676,66.532 11.0036659,66.5529998 11.1389999,66.595 C11.2743339,66.6370002 11.395666,66.6813331 11.5029999,66.728 C11.6103338,66.7746669 11.7083328,66.8189998 11.7969999,66.861 C11.885667,66.9030002 11.990666,66.924 12.1119999,66.924 C12.261334,66.924 12.3826661,66.8703339 12.4759999,66.763 C12.5693337,66.6556661 12.6159999,66.5366673 12.6159999,66.406 C12.6159999,66.1539987 12.4410017,65.9346676 12.0909999,65.748 C11.7409982,65.5613324 11.2486697,65.468 10.6139999,65.468 C10.0446637,65.468 9.550002,65.5729989 9.1299999,65.783 C8.7099978,65.9930011 8.3600013,66.2753316 8.0799999,66.63 C7.7999985,66.9846684 7.59233391,67.3906644 7.4569999,67.848 C7.32166589,68.3053356 7.2539999,68.7813309 7.2539999,69.276 L7.2539999,69.276 Z M14.041667,69.276 C14.041667,69.7706691 14.1139996,70.2466644 14.258667,70.704 C14.4033344,71.1613356 14.6156656,71.5673316 14.895667,71.922 C15.1756684,72.2766684 15.5186649,72.5589989 15.924667,72.769 C16.330669,72.979001 16.7949977,73.084 17.317667,73.084 C17.8403363,73.084 18.3046649,72.979001 18.710667,72.769 C19.116669,72.5589989 19.4596656,72.2766684 19.739667,71.922 C20.0196684,71.5673316 20.2319996,71.1613356 20.376667,70.704 C20.5213344,70.2466644 20.593667,69.7706691 20.593667,69.276 C20.593667,68.7813309 20.5213344,68.3053356 20.376667,67.848 C20.2319996,67.3906644 20.0196684,66.9846684 19.739667,66.63 C19.4596656,66.2753316 19.116669,65.9930011 18.710667,65.783 C18.3046649,65.5729989 17.8403363,65.468 17.317667,65.468 C16.7949977,65.468 16.330669,65.5729989 15.924667,65.783 C15.5186649,65.9930011 15.1756684,66.2753316 14.895667,66.63 C14.6156656,66.9846684 14.4033344,67.3906644 14.258667,67.848 C14.1139996,68.3053356 14.041667,68.7813309 14.041667,69.276 L14.041667,69.276 Z M15.273667,69.276 C15.273667,68.9586651 15.3086666,68.6390016 15.378667,68.317 C15.4486673,67.9949984 15.5653328,67.7010013 15.728667,67.435 C15.8920011,67.1689987 16.1043323,66.9520008 16.365667,66.784 C16.6270016,66.6159992 16.9443318,66.532 17.317667,66.532 C17.7003356,66.532 18.019999,66.6159992 18.276667,66.784 C18.5333349,66.9520008 18.7433328,67.1689987 18.906667,67.435 C19.0700011,67.7010013 19.1866666,67.9949984 19.256667,68.317 C19.3266673,68.6390016 19.361667,68.9586651 19.361667,69.276 C19.361667,69.5933349 19.3266673,69.9129984 19.256667,70.235 C19.1866666,70.5570016 19.0700011,70.8509987 18.906667,71.117 C18.7433328,71.3830013 18.5333349,71.5999992 18.276667,71.768 C18.019999,71.9360008 17.7003356,72.02 17.317667,72.02 C16.9443318,72.02 16.6270016,71.9360008 16.365667,71.768 C16.1043323,71.5999992 15.8920011,71.3830013 15.728667,71.117 C15.5653328,70.8509987 15.4486673,70.5570016 15.378667,70.235 C15.3086666,69.9129984 15.273667,69.5933349 15.273667,69.276 L15.273667,69.276 Z M22.4673341,72.426 C22.4673341,72.6313344 22.5233335,72.7923328 22.6353341,72.909 C22.7473346,73.0256672 22.8966665,73.084 23.0833341,73.084 C23.2700017,73.084 23.4193335,73.0256672 23.5313341,72.909 C23.6433346,72.7923328 23.6993341,72.6313344 23.6993341,72.426 L23.6993341,68.366 C23.6993341,68.0393317 23.7506669,67.7593345 23.8533341,67.526 C23.9560012,67.2926655 24.0889999,67.1036674 24.2523341,66.959 C24.4156682,66.8143326 24.5999997,66.7070003 24.8053341,66.637 C25.0106684,66.5669997 25.2159997,66.532 25.4213341,66.532 C25.6266684,66.532 25.8319997,66.5669997 26.0373341,66.637 C26.2426684,66.7070003 26.4269999,66.8143326 26.5903341,66.959 C26.7536682,67.1036674 26.8866669,67.2926655 26.9893341,67.526 C27.0920012,67.7593345 27.1433341,68.0393317 27.1433341,68.366 L27.1433341,72.426 C27.1433341,72.6313344 27.1993335,72.7923328 27.3113341,72.909 C27.4233346,73.0256672 27.5726665,73.084 27.7593341,73.084 C27.9460017,73.084 28.0953335,73.0256672 28.2073341,72.909 C28.3193346,72.7923328 28.3753341,72.6313344 28.3753341,72.426 L28.3753341,68.296 C28.3753341,67.7733307 28.2936682,67.3323351 28.1303341,66.973 C27.9669999,66.6136649 27.7593353,66.3220011 27.5073341,66.098 C27.2553328,65.8739989 26.9776689,65.7130005 26.6743341,65.615 C26.3709992,65.5169995 26.0746688,65.468 25.7853341,65.468 C25.4119989,65.468 25.0433359,65.5426659 24.6793341,65.692 C24.3153322,65.8413341 23.9980021,66.0933316 23.7273341,66.448 L23.6993341,66.42 L23.6993341,66.126 C23.6993341,65.9206656 23.6433346,65.7596673 23.5313341,65.643 C23.4193335,65.5263327 23.2700017,65.468 23.0833341,65.468 C22.8966665,65.468 22.7473346,65.5263327 22.6353341,65.643 C22.5233335,65.7596673 22.4673341,65.9206656 22.4673341,66.126 L22.4673341,72.426 Z M30.9630011,65.552 L30.4590011,65.552 C30.0483324,65.552 29.8430011,65.7293316 29.8430011,66.084 C29.8430011,66.4386684 30.0483324,66.616 30.4590011,66.616 L30.9630011,66.616 L30.9630011,72.426 C30.9630011,72.6313344 31.0190006,72.7923328 31.1310011,72.909 C31.2430017,73.0256672 31.3923335,73.084 31.5790011,73.084 C31.7656687,73.084 31.9150006,73.0256672 32.0270011,72.909 C32.1390017,72.7923328 32.1950011,72.6313344 32.1950011,72.426 L32.1950011,66.616 L32.6990011,66.616 C33.1096699,66.616 33.3150011,66.4386684 33.3150011,66.084 C33.3150011,65.7293316 33.1096699,65.552 32.6990011,65.552 L32.1950011,65.552 L32.1950011,63.942 C32.1950011,63.7366656 32.1390017,63.5756673 32.0270011,63.459 C31.9150006,63.3423327 31.7656687,63.284 31.5790011,63.284 C31.3923335,63.284 31.2430017,63.3423327 31.1310011,63.459 C31.0190006,63.5756673 30.9630011,63.7366656 30.9630011,63.942 L30.9630011,65.552 Z M34.7826682,72.426 C34.7826682,72.6313344 34.8386676,72.7923328 34.9506682,72.909 C35.0626688,73.0256672 35.2120006,73.084 35.3986682,73.084 C35.5853358,73.084 35.7346676,73.0256672 35.8466682,72.909 C35.9586688,72.7923328 36.0146682,72.6313344 36.0146682,72.426 L36.0146682,68.884 C36.0146682,68.5199982 36.066001,68.2120013 36.1686682,67.96 C36.2713354,67.7079987 36.3996674,67.4980008 36.5536682,67.33 C36.707669,67.1619992 36.8826672,67.0336671 37.0786682,66.945 C37.2746692,66.8563329 37.461334,66.7980001 37.6386682,66.77 C38.1520041,66.6766662 38.4086682,66.4526684 38.4086682,66.098 C38.4086682,65.9206658 38.3480021,65.7713339 38.2266682,65.65 C38.1053343,65.5286661 37.9373359,65.468 37.7226682,65.468 C37.545334,65.468 37.3703357,65.5076663 37.1976682,65.587 C37.0250007,65.6663337 36.8663356,65.7689994 36.7216682,65.895 C36.5770008,66.0210006 36.4463355,66.1609992 36.3296682,66.315 C36.213001,66.4690008 36.1173352,66.6159993 36.0426682,66.756 L36.0146682,66.756 L36.0146682,66.126 C36.0146682,65.9206656 35.9586688,65.7596673 35.8466682,65.643 C35.7346676,65.5263327 35.5853358,65.468 35.3986682,65.468 C35.2120006,65.468 35.0626688,65.5263327 34.9506682,65.643 C34.8386676,65.7596673 34.7826682,65.9206656 34.7826682,66.126 L34.7826682,72.426 Z M39.4423353,69.276 C39.4423353,69.7706691 39.5146679,70.2466644 39.6593353,70.704 C39.8040027,71.1613356 40.0163339,71.5673316 40.2963353,71.922 C40.5763367,72.2766684 40.9193333,72.5589989 41.3253353,72.769 C41.7313373,72.979001 42.195666,73.084 42.7183353,73.084 C43.2410046,73.084 43.7053333,72.979001 44.1113353,72.769 C44.5173373,72.5589989 44.8603339,72.2766684 45.1403353,71.922 C45.4203367,71.5673316 45.6326679,71.1613356 45.7773353,70.704 C45.9220027,70.2466644 45.9943353,69.7706691 45.9943353,69.276 C45.9943353,68.7813309 45.9220027,68.3053356 45.7773353,67.848 C45.6326679,67.3906644 45.4203367,66.9846684 45.1403353,66.63 C44.8603339,66.2753316 44.5173373,65.9930011 44.1113353,65.783 C43.7053333,65.5729989 43.2410046,65.468 42.7183353,65.468 C42.195666,65.468 41.7313373,65.5729989 41.3253353,65.783 C40.9193333,65.9930011 40.5763367,66.2753316 40.2963353,66.63 C40.0163339,66.9846684 39.8040027,67.3906644 39.6593353,67.848 C39.5146679,68.3053356 39.4423353,68.7813309 39.4423353,69.276 L39.4423353,69.276 Z M40.6743353,69.276 C40.6743353,68.9586651 40.7093349,68.6390016 40.7793353,68.317 C40.8493356,67.9949984 40.9660011,67.7010013 41.1293353,67.435 C41.2926694,67.1689987 41.5050006,66.9520008 41.7663353,66.784 C42.0276699,66.6159992 42.3450001,66.532 42.7183353,66.532 C43.1010039,66.532 43.4206673,66.6159992 43.6773353,66.784 C43.9340032,66.9520008 44.1440011,67.1689987 44.3073353,67.435 C44.4706694,67.7010013 44.5873349,67.9949984 44.6573353,68.317 C44.7273356,68.6390016 44.7623353,68.9586651 44.7623353,69.276 C44.7623353,69.5933349 44.7273356,69.9129984 44.6573353,70.235 C44.5873349,70.5570016 44.4706694,70.8509987 44.3073353,71.117 C44.1440011,71.3830013 43.9340032,71.5999992 43.6773353,71.768 C43.4206673,71.9360008 43.1010039,72.02 42.7183353,72.02 C42.3450001,72.02 42.0276699,71.9360008 41.7663353,71.768 C41.5050006,71.5999992 41.2926694,71.3830013 41.1293353,71.117 C40.9660011,70.8509987 40.8493356,70.5570016 40.7793353,70.235 C40.7093349,69.9129984 40.6743353,69.5933349 40.6743353,69.276 L40.6743353,69.276 Z M49.1000024,62.85 C49.1000024,62.6446656 49.0440029,62.4836672 48.9320024,62.367 C48.8200018,62.2503327 48.67067,62.192 48.4840024,62.192 C48.2973348,62.192 48.1480029,62.2503327 48.0360024,62.367 C47.9240018,62.4836672 47.8680024,62.6446656 47.8680024,62.85 L47.8680024,72.426 C47.8680024,72.6313344 47.9240018,72.7923328 48.0360024,72.909 C48.1480029,73.0256672 48.2973348,73.084 48.4840024,73.084 C48.67067,73.084 48.8200018,73.0256672 48.9320024,72.909 C49.0440029,72.7923328 49.1000024,72.6313344 49.1000024,72.426 L49.1000024,62.85 Z M7.2539999,119.276 C7.2539999,119.770669 7.32166589,120.246664 7.4569999,120.704 C7.59233391,121.161336 7.7999985,121.567332 8.0799999,121.922 C8.3600013,122.276668 8.7099978,122.558999 9.1299999,122.769 C9.550002,122.979001 10.0446637,123.084 10.6139999,123.084 C11.2580031,123.084 11.7456649,122.981334 12.0769999,122.776 C12.4083349,122.570666 12.5739999,122.351335 12.5739999,122.118 C12.5739999,121.949999 12.529667,121.821667 12.4409999,121.733 C12.3523328,121.644333 12.2380006,121.6 12.0979999,121.6 C12.0046661,121.6 11.913667,121.621 11.8249999,121.663 C11.7363328,121.705 11.6383338,121.754 11.5309999,121.81 C11.423666,121.866 11.2976673,121.915 11.1529999,121.957 C11.0083325,121.999 10.8286676,122.02 10.6139999,122.02 C10.2313313,122.02 9.90466792,121.936001 9.6339999,121.768 C9.36333188,121.599999 9.14400074,121.383001 8.9759999,121.117 C8.80799906,120.850999 8.68433363,120.557002 8.6049999,120.235 C8.52566617,119.912998 8.4859999,119.593335 8.4859999,119.276 C8.4859999,118.958665 8.52566617,118.639002 8.6049999,118.317 C8.68433363,117.994998 8.80799906,117.701001 8.9759999,117.435 C9.14400074,117.168999 9.36333188,116.952001 9.6339999,116.784 C9.90466792,116.615999 10.2313313,116.532 10.6139999,116.532 C10.8286676,116.532 11.0036659,116.553 11.1389999,116.595 C11.2743339,116.637 11.395666,116.681333 11.5029999,116.728 C11.6103338,116.774667 11.7083328,116.819 11.7969999,116.861 C11.885667,116.903 11.990666,116.924 12.1119999,116.924 C12.261334,116.924 12.3826661,116.870334 12.4759999,116.763 C12.5693337,116.655666 12.6159999,116.536667 12.6159999,116.406 C12.6159999,116.153999 12.4410017,115.934668 12.0909999,115.748 C11.7409982,115.561332 11.2486697,115.468 10.6139999,115.468 C10.0446637,115.468 9.550002,115.572999 9.1299999,115.783 C8.7099978,115.993001 8.3600013,116.275332 8.0799999,116.63 C7.7999985,116.984668 7.59233391,117.390664 7.4569999,117.848 C7.32166589,118.305336 7.2539999,118.781331 7.2539999,119.276 L7.2539999,119.276 Z M14.041667,119.276 C14.041667,119.770669 14.1139996,120.246664 14.258667,120.704 C14.4033344,121.161336 14.6156656,121.567332 14.895667,121.922 C15.1756684,122.276668 15.5186649,122.558999 15.924667,122.769 C16.330669,122.979001 16.7949977,123.084 17.317667,123.084 C17.8403363,123.084 18.3046649,122.979001 18.710667,122.769 C19.116669,122.558999 19.4596656,122.276668 19.739667,121.922 C20.0196684,121.567332 20.2319996,121.161336 20.376667,120.704 C20.5213344,120.246664 20.593667,119.770669 20.593667,119.276 C20.593667,118.781331 20.5213344,118.305336 20.376667,117.848 C20.2319996,117.390664 20.0196684,116.984668 19.739667,116.63 C19.4596656,116.275332 19.116669,115.993001 18.710667,115.783 C18.3046649,115.572999 17.8403363,115.468 17.317667,115.468 C16.7949977,115.468 16.330669,115.572999 15.924667,115.783 C15.5186649,115.993001 15.1756684,116.275332 14.895667,116.63 C14.6156656,116.984668 14.4033344,117.390664 14.258667,117.848 C14.1139996,118.305336 14.041667,118.781331 14.041667,119.276 L14.041667,119.276 Z M15.273667,119.276 C15.273667,118.958665 15.3086666,118.639002 15.378667,118.317 C15.4486673,117.994998 15.5653328,117.701001 15.728667,117.435 C15.8920011,117.168999 16.1043323,116.952001 16.365667,116.784 C16.6270016,116.615999 16.9443318,116.532 17.317667,116.532 C17.7003356,116.532 18.019999,116.615999 18.276667,116.784 C18.5333349,116.952001 18.7433328,117.168999 18.906667,117.435 C19.0700011,117.701001 19.1866666,117.994998 19.256667,118.317 C19.3266673,118.639002 19.361667,118.958665 19.361667,119.276 C19.361667,119.593335 19.3266673,119.912998 19.256667,120.235 C19.1866666,120.557002 19.0700011,120.850999 18.906667,121.117 C18.7433328,121.383001 18.5333349,121.599999 18.276667,121.768 C18.019999,121.936001 17.7003356,122.02 17.317667,122.02 C16.9443318,122.02 16.6270016,121.936001 16.365667,121.768 C16.1043323,121.599999 15.8920011,121.383001 15.728667,121.117 C15.5653328,120.850999 15.4486673,120.557002 15.378667,120.235 C15.3086666,119.912998 15.273667,119.593335 15.273667,119.276 L15.273667,119.276 Z M26.8773341,122.426 C26.8773341,122.631334 26.9333335,122.792333 27.0453341,122.909 C27.1573346,123.025667 27.3066665,123.084 27.4933341,123.084 C27.6800017,123.084 27.8293335,123.025667 27.9413341,122.909 C28.0533346,122.792333 28.1093341,122.631334 28.1093341,122.426 L28.1093341,118.254 C28.1093341,117.721997 28.2469993,117.302002 28.5223341,116.994 C28.7976688,116.685998 29.1873315,116.532 29.6913341,116.532 C30.1953366,116.532 30.5873327,116.685998 30.8673341,116.994 C31.1473355,117.302002 31.2873341,117.721997 31.2873341,118.254 L31.2873341,122.426 C31.2873341,122.631334 31.3433335,122.792333 31.4553341,122.909 C31.5673346,123.025667 31.7166665,123.084 31.9033341,123.084 C32.0900017,123.084 32.2393335,123.025667 32.3513341,122.909 C32.4633346,122.792333 32.5193341,122.631334 32.5193341,122.426 L32.5193341,118.296 C32.5193341,117.773331 32.4376682,117.332335 32.2743341,116.973 C32.1109999,116.613665 31.9033353,116.322001 31.6513341,116.098 C31.3993328,115.873999 31.1216689,115.713 30.8183341,115.615 C30.5149992,115.517 30.2186688,115.468 29.9293341,115.468 C29.387998,115.468 28.9400025,115.579999 28.5853341,115.804 C28.2306656,116.028001 27.9180021,116.335998 27.6473341,116.728 C27.3673327,116.251998 27.0476692,115.923001 26.6883341,115.741 C26.3289989,115.558999 25.9673359,115.468 25.6033341,115.468 C25.3233327,115.468 25.0830017,115.498333 24.8823341,115.559 C24.6816664,115.619667 24.5066681,115.694333 24.3573341,115.783 C24.208,115.871667 24.0843345,115.969666 23.9863341,116.077 C23.8883336,116.184334 23.8020011,116.284666 23.7273341,116.378 L23.6993341,116.35 L23.6993341,116.126 C23.6993341,115.920666 23.6433346,115.759667 23.5313341,115.643 C23.4193335,115.526333 23.2700017,115.468 23.0833341,115.468 C22.8966665,115.468 22.7473346,115.526333 22.6353341,115.643 C22.5233335,115.759667 22.4673341,115.920666 22.4673341,116.126 L22.4673341,122.426 C22.4673341,122.631334 22.5233335,122.792333 22.6353341,122.909 C22.7473346,123.025667 22.8966665,123.084 23.0833341,123.084 C23.2700017,123.084 23.4193335,123.025667 23.5313341,122.909 C23.6433346,122.792333 23.6993341,122.631334 23.6993341,122.426 L23.6993341,118.254 C23.6993341,117.721997 23.8369993,117.302002 24.1123341,116.994 C24.3876688,116.685998 24.7773315,116.532 25.2813341,116.532 C25.7853366,116.532 26.1773327,116.685998 26.4573341,116.994 C26.7373355,117.302002 26.8773341,117.721997 26.8773341,118.254 L26.8773341,122.426 Z M39.1250011,122.426 C39.1250011,122.631334 39.1810006,122.792333 39.2930011,122.909 C39.4050017,123.025667 39.5543335,123.084 39.7410011,123.084 C39.9276687,123.084 40.0770006,123.025667 40.1890011,122.909 C40.3010017,122.792333 40.3570011,122.631334 40.3570011,122.426 L40.3570011,118.254 C40.3570011,117.721997 40.4946664,117.302002 40.7700011,116.994 C41.0453358,116.685998 41.4349986,116.532 41.9390011,116.532 C42.4430037,116.532 42.8349997,116.685998 43.1150011,116.994 C43.3950025,117.302002 43.5350011,117.721997 43.5350011,118.254 L43.5350011,122.426 C43.5350011,122.631334 43.5910006,122.792333 43.7030011,122.909 C43.8150017,123.025667 43.9643335,123.084 44.1510011,123.084 C44.3376687,123.084 44.4870006,123.025667 44.5990011,122.909 C44.7110017,122.792333 44.7670011,122.631334 44.7670011,122.426 L44.7670011,118.296 C44.7670011,117.773331 44.6853353,117.332335 44.5220011,116.973 C44.358667,116.613665 44.1510024,116.322001 43.8990011,116.098 C43.6469999,115.873999 43.369336,115.713 43.0660011,115.615 C42.7626663,115.517 42.4663359,115.468 42.1770011,115.468 C41.6356651,115.468 41.1876696,115.579999 40.8330011,115.804 C40.4783327,116.028001 40.1656692,116.335998 39.8950011,116.728 C39.6149997,116.251998 39.2953363,115.923001 38.9360011,115.741 C38.576666,115.558999 38.215003,115.468 37.8510011,115.468 C37.5709997,115.468 37.3306688,115.498333 37.1300011,115.559 C36.9293335,115.619667 36.7543352,115.694333 36.6050011,115.783 C36.4556671,115.871667 36.3320016,115.969666 36.2340011,116.077 C36.1360006,116.184334 36.0496682,116.284666 35.9750011,116.378 L35.9470011,116.35 L35.9470011,116.126 C35.9470011,115.920666 35.8910017,115.759667 35.7790011,115.643 C35.6670006,115.526333 35.5176687,115.468 35.3310011,115.468 C35.1443335,115.468 34.9950017,115.526333 34.8830011,115.643 C34.7710006,115.759667 34.7150011,115.920666 34.7150011,116.126 L34.7150011,122.426 C34.7150011,122.631334 34.7710006,122.792333 34.8830011,122.909 C34.9950017,123.025667 35.1443335,123.084 35.3310011,123.084 C35.5176687,123.084 35.6670006,123.025667 35.7790011,122.909 C35.8910017,122.792333 35.9470011,122.631334 35.9470011,122.426 L35.9470011,118.254 C35.9470011,117.721997 36.0846664,117.302002 36.3600011,116.994 C36.6353358,116.685998 37.0249986,116.532 37.5290011,116.532 C38.0330037,116.532 38.4249997,116.685998 38.7050011,116.994 C38.9850025,117.302002 39.1250011,117.721997 39.1250011,118.254 L39.1250011,122.426 Z M53.1226682,116.07 C53.1226682,115.855332 53.0573355,115.701334 52.9266682,115.608 C52.7960009,115.514666 52.6700021,115.468 52.5486682,115.468 C52.4180009,115.468 52.2896688,115.514666 52.1636682,115.608 C52.0376676,115.701334 51.9746682,115.855332 51.9746682,116.07 L51.9746682,116.462 L51.9466682,116.462 C51.6573334,116.144665 51.3540031,115.899668 51.0366682,115.727 C50.7193333,115.554332 50.3460037,115.468 49.9166682,115.468 C49.3939989,115.468 48.9296702,115.572999 48.5236682,115.783 C48.1176662,115.993001 47.7746696,116.275332 47.4946682,116.63 C47.2146668,116.984668 47.0023356,117.390664 46.8576682,117.848 C46.7130008,118.305336 46.6406682,118.781331 46.6406682,119.276 C46.6406682,119.770669 46.7130008,120.246664 46.8576682,120.704 C47.0023356,121.161336 47.2146668,121.567332 47.4946682,121.922 C47.7746696,122.276668 48.1176662,122.558999 48.5236682,122.769 C48.9296702,122.979001 49.3939989,123.084 49.9166682,123.084 C50.3180035,123.084 50.6889998,122.993001 51.0296682,122.811 C51.3703366,122.628999 51.6760002,122.346669 51.9466682,121.964 L51.9746682,121.964 L51.9746682,122.482 C51.9746682,122.696668 52.0376676,122.850666 52.1636682,122.944 C52.2896688,123.037334 52.4180009,123.084 52.5486682,123.084 C52.6700021,123.084 52.7960009,123.037334 52.9266682,122.944 C53.0573355,122.850666 53.1226682,122.696668 53.1226682,122.482 L53.1226682,116.07 Z M47.8726682,119.276 C47.8726682,118.958665 47.9076679,118.639002 47.9776682,118.317 C48.0476686,117.994998 48.1643341,117.701001 48.3276682,117.435 C48.4910024,117.168999 48.7033336,116.952001 48.9646682,116.784 C49.2260028,116.615999 49.543333,116.532 49.9166682,116.532 C50.2993368,116.532 50.6190003,116.615999 50.8756682,116.784 C51.1323362,116.952001 51.3423341,117.168999 51.5056682,117.435 C51.6690024,117.701001 51.7856679,117.994998 51.8556682,118.317 C51.9256686,118.639002 51.9606682,118.958665 51.9606682,119.276 C51.9606682,119.593335 51.9256686,119.912998 51.8556682,120.235 C51.7856679,120.557002 51.6690024,120.850999 51.5056682,121.117 C51.3423341,121.383001 51.1323362,121.599999 50.8756682,121.768 C50.6190003,121.936001 50.2993368,122.02 49.9166682,122.02 C49.543333,122.02 49.2260028,121.936001 48.9646682,121.768 C48.7033336,121.599999 48.4910024,121.383001 48.3276682,121.117 C48.1643341,120.850999 48.0476686,120.557002 47.9776682,120.235 C47.9076679,119.912998 47.8726682,119.593335 47.8726682,119.276 L47.8726682,119.276 Z M55.3183353,122.426 C55.3183353,122.631334 55.3743347,122.792333 55.4863353,122.909 C55.5983358,123.025667 55.7476677,123.084 55.9343353,123.084 C56.1210029,123.084 56.2703347,123.025667 56.3823353,122.909 C56.4943358,122.792333 56.5503353,122.631334 56.5503353,122.426 L56.5503353,118.366 C56.5503353,118.039332 56.6016681,117.759334 56.7043353,117.526 C56.8070025,117.292665 56.9400011,117.103667 57.1033353,116.959 C57.2666694,116.814333 57.4510009,116.707 57.6563353,116.637 C57.8616696,116.567 58.0670009,116.532 58.2723353,116.532 C58.4776696,116.532 58.6830009,116.567 58.8883353,116.637 C59.0936696,116.707 59.2780011,116.814333 59.4413353,116.959 C59.6046694,117.103667 59.7376681,117.292665 59.8403353,117.526 C59.9430025,117.759334 59.9943353,118.039332 59.9943353,118.366 L59.9943353,122.426 C59.9943353,122.631334 60.0503347,122.792333 60.1623353,122.909 C60.2743358,123.025667 60.4236677,123.084 60.6103353,123.084 C60.7970029,123.084 60.9463347,123.025667 61.0583353,122.909 C61.1703358,122.792333 61.2263353,122.631334 61.2263353,122.426 L61.2263353,118.296 C61.2263353,117.773331 61.1446694,117.332335 60.9813353,116.973 C60.8180011,116.613665 60.6103365,116.322001 60.3583353,116.098 C60.106334,115.873999 59.8286701,115.713 59.5253353,115.615 C59.2220004,115.517 58.9256701,115.468 58.6363353,115.468 C58.2630001,115.468 57.8943371,115.542666 57.5303353,115.692 C57.1663335,115.841334 56.8490033,116.093332 56.5783353,116.448 L56.5503353,116.42 L56.5503353,116.126 C56.5503353,115.920666 56.4943358,115.759667 56.3823353,115.643 C56.2703347,115.526333 56.1210029,115.468 55.9343353,115.468 C55.7476677,115.468 55.5983358,115.526333 55.4863353,115.643 C55.3743347,115.759667 55.3183353,115.920666 55.3183353,116.126 L55.3183353,122.426 Z M68.4200024,119.276 C68.4200024,119.593335 68.3850027,119.912998 68.3150024,120.235 C68.245002,120.557002 68.1283365,120.850999 67.9650024,121.117 C67.8016682,121.383001 67.5916703,121.599999 67.3350024,121.768 C67.0783344,121.936001 66.7586709,122.02 66.3760024,122.02 C66.0026672,122.02 65.685337,121.936001 65.4240024,121.768 C65.1626677,121.599999 64.9503365,121.383001 64.7870024,121.117 C64.6236682,120.850999 64.5070027,120.557002 64.4370024,120.235 C64.367002,119.912998 64.3320024,119.593335 64.3320024,119.276 C64.3320024,118.958665 64.367002,118.639002 64.4370024,118.317 C64.5070027,117.994998 64.6236682,117.701001 64.7870024,117.435 C64.9503365,117.168999 65.1626677,116.952001 65.4240024,116.784 C65.685337,116.615999 66.0026672,116.532 66.3760024,116.532 C66.7586709,116.532 67.0783344,116.615999 67.3350024,116.784 C67.5916703,116.952001 67.8016682,117.168999 67.9650024,117.435 C68.1283365,117.701001 68.245002,117.994998 68.3150024,118.317 C68.3850027,118.639002 68.4200024,118.958665 68.4200024,119.276 L68.4200024,119.276 Z M68.2940024,122.426 C68.2940024,122.631334 68.3500018,122.792333 68.4620024,122.909 C68.5740029,123.025667 68.7233348,123.084 68.9100024,123.084 C69.09667,123.084 69.2460018,123.025667 69.3580024,122.909 C69.4700029,122.792333 69.5260024,122.631334 69.5260024,122.426 L69.5260024,112.85 C69.5260024,112.644666 69.4700029,112.483667 69.3580024,112.367 C69.2460018,112.250333 69.09667,112.192 68.9100024,112.192 C68.7233348,112.192 68.5740029,112.250333 68.4620024,112.367 C68.3500018,112.483667 68.2940024,112.644666 68.2940024,112.85 L68.2940024,116.476 L68.2660024,116.476 C68.1820019,116.363999 68.0793363,116.247334 67.9580024,116.126 C67.8366684,116.004666 67.6920032,115.895 67.5240024,115.797 C67.3560015,115.699 67.1670034,115.619667 66.9570024,115.559 C66.7470013,115.498333 66.5206702,115.468 66.2780024,115.468 C65.7739998,115.468 65.3260043,115.572999 64.9340024,115.783 C64.5420004,115.993001 64.2083371,116.275332 63.9330024,116.63 C63.6576676,116.984668 63.4500031,117.390664 63.3100024,117.848 C63.1700017,118.305336 63.1000024,118.781331 63.1000024,119.276 C63.1000024,119.770669 63.1700017,120.246664 63.3100024,120.704 C63.4500031,121.161336 63.6576676,121.567332 63.9330024,121.922 C64.2083371,122.276668 64.5420004,122.558999 64.9340024,122.769 C65.3260043,122.979001 65.7739998,123.084 66.2780024,123.084 C67.2486739,123.084 67.9113339,122.743337 68.2660024,122.062 L68.2940024,122.062 L68.2940024,122.426 Z M13.7359999,166.07 C13.7359999,165.855332 13.6706672,165.701334 13.5399999,165.608 C13.4093326,165.514666 13.2833338,165.468 13.1619999,165.468 C13.0313326,165.468 12.9030005,165.514666 12.7769999,165.608 C12.6509993,165.701334 12.5879999,165.855332 12.5879999,166.07 L12.5879999,166.462 L12.5599999,166.462 C12.2706651,166.144665 11.9673348,165.899668 11.6499999,165.727 C11.332665,165.554332 10.9593354,165.468 10.5299999,165.468 C10.0073306,165.468 9.54300193,165.572999 9.1369999,165.783 C8.73099787,165.993001 8.3880013,166.275332 8.1079999,166.63 C7.8279985,166.984668 7.61566729,167.390664 7.4709999,167.848 C7.32633251,168.305336 7.2539999,168.781331 7.2539999,169.276 C7.2539999,169.770669 7.32633251,170.246664 7.4709999,170.704 C7.61566729,171.161336 7.8279985,171.567332 8.1079999,171.922 C8.3880013,172.276668 8.73099787,172.558999 9.1369999,172.769 C9.54300193,172.979001 10.0073306,173.084 10.5299999,173.084 C10.9313352,173.084 11.3023315,172.993001 11.6429999,172.811 C11.9836683,172.628999 12.2893319,172.346669 12.5599999,171.964 L12.5879999,171.964 L12.5879999,172.482 C12.5879999,172.696668 12.6509993,172.850666 12.7769999,172.944 C12.9030005,173.037334 13.0313326,173.084 13.1619999,173.084 C13.2833338,173.084 13.4093326,173.037334 13.5399999,172.944 C13.6706672,172.850666 13.7359999,172.696668 13.7359999,172.482 L13.7359999,166.07 Z M8.4859999,169.276 C8.4859999,168.958665 8.52099955,168.639002 8.5909999,168.317 C8.66100025,167.994998 8.77766575,167.701001 8.9409999,167.435 C9.10433405,167.168999 9.31666526,166.952001 9.5779999,166.784 C9.83933454,166.615999 10.1566647,166.532 10.5299999,166.532 C10.9126685,166.532 11.232332,166.615999 11.4889999,166.784 C11.7456679,166.952001 11.9556658,167.168999 12.1189999,167.435 C12.2823341,167.701001 12.3989996,167.994998 12.4689999,168.317 C12.5390003,168.639002 12.5739999,168.958665 12.5739999,169.276 C12.5739999,169.593335 12.5390003,169.912998 12.4689999,170.235 C12.3989996,170.557002 12.2823341,170.850999 12.1189999,171.117 C11.9556658,171.383001 11.7456679,171.599999 11.4889999,171.768 C11.232332,171.936001 10.9126685,172.02 10.5299999,172.02 C10.1566647,172.02 9.83933454,171.936001 9.5779999,171.768 C9.31666526,171.599999 9.10433405,171.383001 8.9409999,171.117 C8.77766575,170.850999 8.66100025,170.557002 8.5909999,170.235 C8.52099955,169.912998 8.4859999,169.593335 8.4859999,169.276 L8.4859999,169.276 Z M17.163667,162.85 C17.163667,162.644666 17.1076675,162.483667 16.995667,162.367 C16.8836664,162.250333 16.7343346,162.192 16.547667,162.192 C16.3609994,162.192 16.2116675,162.250333 16.099667,162.367 C15.9876664,162.483667 15.931667,162.644666 15.931667,162.85 L15.931667,172.426 C15.931667,172.631334 15.9876664,172.792333 16.099667,172.909 C16.2116675,173.025667 16.3609994,173.084 16.547667,173.084 C16.7343346,173.084 16.8836664,173.025667 16.995667,172.909 C17.1076675,172.792333 17.163667,172.631334 17.163667,172.426 L17.163667,162.85 Z M19.7513341,165.552 L19.2473341,165.552 C18.8366653,165.552 18.6313341,165.729332 18.6313341,166.084 C18.6313341,166.438668 18.8366653,166.616 19.2473341,166.616 L19.7513341,166.616 L19.7513341,172.426 C19.7513341,172.631334 19.8073335,172.792333 19.9193341,172.909 C20.0313346,173.025667 20.1806665,173.084 20.3673341,173.084 C20.5540017,173.084 20.7033335,173.025667 20.8153341,172.909 C20.9273346,172.792333 20.9833341,172.631334 20.9833341,172.426 L20.9833341,166.616 L21.4873341,166.616 C21.8980028,166.616 22.1033341,166.438668 22.1033341,166.084 C22.1033341,165.729332 21.8980028,165.552 21.4873341,165.552 L20.9833341,165.552 L20.9833341,163.942 C20.9833341,163.736666 20.9273346,163.575667 20.8153341,163.459 C20.7033335,163.342333 20.5540017,163.284 20.3673341,163.284 C20.1806665,163.284 20.0313346,163.342333 19.9193341,163.459 C19.8073335,163.575667 19.7513341,163.736666 19.7513341,163.942 L19.7513341,165.552 Z M7.2539999,219.276 C7.2539999,219.770669 7.32633251,220.246664 7.4709999,220.704 C7.61566729,221.161336 7.8279985,221.567332 8.1079999,221.922 C8.3880013,222.276668 8.73099787,222.558999 9.1369999,222.769 C9.54300193,222.979001 10.0073306,223.084 10.5299999,223.084 C11.0526692,223.084 11.5169979,222.979001 11.9229999,222.769 C12.3290019,222.558999 12.6719985,222.276668 12.9519999,221.922 C13.2320013,221.567332 13.4443325,221.161336 13.5889999,220.704 C13.7336673,220.246664 13.8059999,219.770669 13.8059999,219.276 C13.8059999,218.781331 13.7336673,218.305336 13.5889999,217.848 C13.4443325,217.390664 13.2320013,216.984668 12.9519999,216.63 C12.6719985,216.275332 12.3290019,215.993001 11.9229999,215.783 C11.5169979,215.572999 11.0526692,215.468 10.5299999,215.468 C10.0073306,215.468 9.54300193,215.572999 9.1369999,215.783 C8.73099787,215.993001 8.3880013,216.275332 8.1079999,216.63 C7.8279985,216.984668 7.61566729,217.390664 7.4709999,217.848 C7.32633251,218.305336 7.2539999,218.781331 7.2539999,219.276 L7.2539999,219.276 Z M8.4859999,219.276 C8.4859999,218.958665 8.52099955,218.639002 8.5909999,218.317 C8.66100025,217.994998 8.77766575,217.701001 8.9409999,217.435 C9.10433405,217.168999 9.31666526,216.952001 9.5779999,216.784 C9.83933454,216.615999 10.1566647,216.532 10.5299999,216.532 C10.9126685,216.532 11.232332,216.615999 11.4889999,216.784 C11.7456679,216.952001 11.9556658,217.168999 12.1189999,217.435 C12.2823341,217.701001 12.3989996,217.994998 12.4689999,218.317 C12.5390003,218.639002 12.5739999,218.958665 12.5739999,219.276 C12.5739999,219.593335 12.5390003,219.912998 12.4689999,220.235 C12.3989996,220.557002 12.2823341,220.850999 12.1189999,221.117 C11.9556658,221.383001 11.7456679,221.599999 11.4889999,221.768 C11.232332,221.936001 10.9126685,222.02 10.5299999,222.02 C10.1566647,222.02 9.83933454,221.936001 9.5779999,221.768 C9.31666526,221.599999 9.10433405,221.383001 8.9409999,221.117 C8.77766575,220.850999 8.66100025,220.557002 8.5909999,220.235 C8.52099955,219.912998 8.4859999,219.593335 8.4859999,219.276 L8.4859999,219.276 Z M16.841667,219.276 C16.841667,218.958665 16.8766666,218.639002 16.946667,218.317 C17.0166673,217.994998 17.1333328,217.701001 17.296667,217.435 C17.4600011,217.168999 17.6723323,216.952001 17.933667,216.784 C18.1950016,216.615999 18.5123318,216.532 18.885667,216.532 C19.2683356,216.532 19.587999,216.615999 19.844667,216.784 C20.1013349,216.952001 20.3113328,217.168999 20.474667,217.435 C20.6380011,217.701001 20.7546666,217.994998 20.824667,218.317 C20.8946673,218.639002 20.929667,218.958665 20.929667,219.276 C20.929667,219.593335 20.8946673,219.912998 20.824667,220.235 C20.7546666,220.557002 20.6380011,220.850999 20.474667,221.117 C20.3113328,221.383001 20.1013349,221.599999 19.844667,221.768 C19.587999,221.936001 19.2683356,222.02 18.885667,222.02 C18.5123318,222.02 18.1950016,221.936001 17.933667,221.768 C17.6723323,221.599999 17.4600011,221.383001 17.296667,221.117 C17.1333328,220.850999 17.0166673,220.557002 16.946667,220.235 C16.8766666,219.912998 16.841667,219.593335 16.841667,219.276 L16.841667,219.276 Z M15.735667,225.366 C15.735667,225.571334 15.7916664,225.732333 15.903667,225.849 C16.0156675,225.965667 16.1649994,226.024 16.351667,226.024 C16.5383346,226.024 16.6876664,225.965667 16.799667,225.849 C16.9116675,225.732333 16.967667,225.571334 16.967667,225.366 L16.967667,222.076 L16.995667,222.076 C17.0796674,222.188001 17.182333,222.304666 17.303667,222.426 C17.4250009,222.547334 17.5696661,222.657 17.737667,222.755 C17.9056678,222.853 18.0946659,222.932333 18.304667,222.993 C18.514668,223.053667 18.7409991,223.084 18.983667,223.084 C19.4876695,223.084 19.935665,222.979001 20.327667,222.769 C20.7196689,222.558999 21.0533323,222.276668 21.328667,221.922 C21.6040017,221.567332 21.8116663,221.161336 21.951667,220.704 C22.0916677,220.246664 22.161667,219.770669 22.161667,219.276 C22.161667,218.781331 22.0916677,218.305336 21.951667,217.848 C21.8116663,217.390664 21.6040017,216.984668 21.328667,216.63 C21.0533323,216.275332 20.7196689,215.993001 20.327667,215.783 C19.935665,215.572999 19.4876695,215.468 18.983667,215.468 C18.0129955,215.468 17.3503354,215.808663 16.995667,216.49 L16.967667,216.49 L16.967667,216.126 C16.967667,215.920666 16.9116675,215.759667 16.799667,215.643 C16.6876664,215.526333 16.5383346,215.468 16.351667,215.468 C16.1649994,215.468 16.0156675,215.526333 15.903667,215.643 C15.7916664,215.759667 15.735667,215.920666 15.735667,216.126 L15.735667,225.366 Z M24.4273341,215.552 L23.9233341,215.552 C23.5126653,215.552 23.3073341,215.729332 23.3073341,216.084 C23.3073341,216.438668 23.5126653,216.616 23.9233341,216.616 L24.4273341,216.616 L24.4273341,222.426 C24.4273341,222.631334 24.4833335,222.792333 24.5953341,222.909 C24.7073346,223.025667 24.8566665,223.084 25.0433341,223.084 C25.2300017,223.084 25.3793335,223.025667 25.4913341,222.909 C25.6033346,222.792333 25.6593341,222.631334 25.6593341,222.426 L25.6593341,216.616 L26.1633341,216.616 C26.5740028,216.616 26.7793341,216.438668 26.7793341,216.084 C26.7793341,215.729332 26.5740028,215.552 26.1633341,215.552 L25.6593341,215.552 L25.6593341,213.942 C25.6593341,213.736666 25.6033346,213.575667 25.4913341,213.459 C25.3793335,213.342333 25.2300017,213.284 25.0433341,213.284 C24.8566665,213.284 24.7073346,213.342333 24.5953341,213.459 C24.4833335,213.575667 24.4273341,213.736666 24.4273341,213.942 L24.4273341,215.552 Z M29.4790011,216.126 C29.4790011,215.920666 29.4230017,215.759667 29.3110011,215.643 C29.1990006,215.526333 29.0496687,215.468 28.8630011,215.468 C28.6763335,215.468 28.5270017,215.526333 28.4150011,215.643 C28.3030006,215.759667 28.2470011,215.920666 28.2470011,216.126 L28.2470011,222.426 C28.2470011,222.631334 28.3030006,222.792333 28.4150011,222.909 C28.5270017,223.025667 28.6763335,223.084 28.8630011,223.084 C29.0496687,223.084 29.1990006,223.025667 29.3110011,222.909 C29.4230017,222.792333 29.4790011,222.631334 29.4790011,222.426 L29.4790011,216.126 Z M28.1070011,213.704 C28.1070011,213.918668 28.1793337,214.098333 28.3240011,214.243 C28.4686685,214.387667 28.6483334,214.46 28.8630011,214.46 C29.0776689,214.46 29.2573337,214.387667 29.4020011,214.243 C29.5466685,214.098333 29.6190011,213.918668 29.6190011,213.704 C29.6190011,213.489332 29.5466685,213.309667 29.4020011,213.165 C29.2573337,213.020333 29.0776689,212.948 28.8630011,212.948 C28.6483334,212.948 28.4686685,213.020333 28.3240011,213.165 C28.1793337,213.309667 28.1070011,213.489332 28.1070011,213.704 L28.1070011,213.704 Z M31.3526682,219.276 C31.3526682,219.770669 31.4250008,220.246664 31.5696682,220.704 C31.7143356,221.161336 31.9266668,221.567332 32.2066682,221.922 C32.4866696,222.276668 32.8296662,222.558999 33.2356682,222.769 C33.6416702,222.979001 34.1059989,223.084 34.6286682,223.084 C35.1513375,223.084 35.6156662,222.979001 36.0216682,222.769 C36.4276702,222.558999 36.7706668,222.276668 37.0506682,221.922 C37.3306696,221.567332 37.5430008,221.161336 37.6876682,220.704 C37.8323356,220.246664 37.9046682,219.770669 37.9046682,219.276 C37.9046682,218.781331 37.8323356,218.305336 37.6876682,217.848 C37.5430008,217.390664 37.3306696,216.984668 37.0506682,216.63 C36.7706668,216.275332 36.4276702,215.993001 36.0216682,215.783 C35.6156662,215.572999 35.1513375,215.468 34.6286682,215.468 C34.1059989,215.468 33.6416702,215.572999 33.2356682,215.783 C32.8296662,215.993001 32.4866696,216.275332 32.2066682,216.63 C31.9266668,216.984668 31.7143356,217.390664 31.5696682,217.848 C31.4250008,218.305336 31.3526682,218.781331 31.3526682,219.276 L31.3526682,219.276 Z M32.5846682,219.276 C32.5846682,218.958665 32.6196679,218.639002 32.6896682,218.317 C32.7596686,217.994998 32.8763341,217.701001 33.0396682,217.435 C33.2030024,217.168999 33.4153336,216.952001 33.6766682,216.784 C33.9380028,216.615999 34.255333,216.532 34.6286682,216.532 C35.0113368,216.532 35.3310003,216.615999 35.5876682,216.784 C35.8443362,216.952001 36.0543341,217.168999 36.2176682,217.435 C36.3810024,217.701001 36.4976679,217.994998 36.5676682,218.317 C36.6376686,218.639002 36.6726682,218.958665 36.6726682,219.276 C36.6726682,219.593335 36.6376686,219.912998 36.5676682,220.235 C36.4976679,220.557002 36.3810024,220.850999 36.2176682,221.117 C36.0543341,221.383001 35.8443362,221.599999 35.5876682,221.768 C35.3310003,221.936001 35.0113368,222.02 34.6286682,222.02 C34.255333,222.02 33.9380028,221.936001 33.6766682,221.768 C33.4153336,221.599999 33.2030024,221.383001 33.0396682,221.117 C32.8763341,220.850999 32.7596686,220.557002 32.6896682,220.235 C32.6196679,219.912998 32.5846682,219.593335 32.5846682,219.276 L32.5846682,219.276 Z M39.7783353,222.426 C39.7783353,222.631334 39.8343347,222.792333 39.9463353,222.909 C40.0583358,223.025667 40.2076677,223.084 40.3943353,223.084 C40.5810029,223.084 40.7303347,223.025667 40.8423353,222.909 C40.9543358,222.792333 41.0103353,222.631334 41.0103353,222.426 L41.0103353,218.366 C41.0103353,218.039332 41.0616681,217.759334 41.1643353,217.526 C41.2670025,217.292665 41.4000011,217.103667 41.5633353,216.959 C41.7266694,216.814333 41.9110009,216.707 42.1163353,216.637 C42.3216696,216.567 42.5270009,216.532 42.7323353,216.532 C42.9376696,216.532 43.1430009,216.567 43.3483353,216.637 C43.5536696,216.707 43.7380011,216.814333 43.9013353,216.959 C44.0646694,217.103667 44.1976681,217.292665 44.3003353,217.526 C44.4030025,217.759334 44.4543353,218.039332 44.4543353,218.366 L44.4543353,222.426 C44.4543353,222.631334 44.5103347,222.792333 44.6223353,222.909 C44.7343358,223.025667 44.8836677,223.084 45.0703353,223.084 C45.2570029,223.084 45.4063347,223.025667 45.5183353,222.909 C45.6303358,222.792333 45.6863353,222.631334 45.6863353,222.426 L45.6863353,218.296 C45.6863353,217.773331 45.6046694,217.332335 45.4413353,216.973 C45.2780011,216.613665 45.0703365,216.322001 44.8183353,216.098 C44.566334,215.873999 44.2886701,215.713 43.9853353,215.615 C43.6820004,215.517 43.3856701,215.468 43.0963353,215.468 C42.7230001,215.468 42.3543371,215.542666 41.9903353,215.692 C41.6263335,215.841334 41.3090033,216.093332 41.0383353,216.448 L41.0103353,216.42 L41.0103353,216.126 C41.0103353,215.920666 40.9543358,215.759667 40.8423353,215.643 C40.7303347,215.526333 40.5810029,215.468 40.3943353,215.468 C40.2076677,215.468 40.0583358,215.526333 39.9463353,215.643 C39.8343347,215.759667 39.7783353,215.920666 39.7783353,216.126 L39.7783353,222.426 Z" id="mod" fill="#000000" sketch:type="MSShapeGroup"></path>
        </g>
    </g>
</svg>