<?xml version="1.0" encoding="UTF-8" standalone="no"?>
<svg width="54px" height="17px" viewBox="0 0 54 17" version="1.1" xmlns="http://www.w3.org/2000/svg" xmlns:xlink="http://www.w3.org/1999/xlink" xmlns:sketch="http://www.bohemiancoding.com/sketch/ns">
    <!-- Generator: Sketch 3.2.2 (9983) - http://www.bohemiancoding.com/sketch -->
    <title>return</title>
    <desc>Created with Sketch.</desc>
    <defs></defs>
    <g id="Page-1" stroke="none" stroke-width="1" fill="none" fill-rule="evenodd" sketch:type="MSPage">
        <g id="return" sketch:type="MSArtboardGroup" fill="#FFFFFF">
            <path d="M1.29999995,15.06 C1.29999995,15.3533348 1.37999915,15.5833325 1.53999995,15.75 C1.70000075,15.9166675 1.91333195,16 2.17999995,16 C2.44666795,16 2.65999915,15.9166675 2.81999995,15.75 C2.98000075,15.5833325 3.05999995,15.3533348 3.05999995,15.06 L3.05999995,10 C3.05999995,9.4799974 3.13333255,9.0400018 3.27999995,8.68 C3.42666735,8.3199982 3.60999885,8.0200012 3.82999995,7.78 C4.05000105,7.5399988 4.29999855,7.3566673 4.57999995,7.23 C4.86000135,7.1033327 5.12666535,7.0200002 5.37999995,6.98 C6.11333695,6.846666 6.47999995,6.5266692 6.47999995,6.02 C6.47999995,5.7666654 6.39333415,5.5533342 6.21999995,5.38 C6.04666575,5.2066658 5.80666815,5.12 5.49999995,5.12 C5.24666535,5.12 4.99666785,5.1766661 4.74999995,5.29 C4.50333205,5.4033339 4.27666765,5.5499991 4.06999995,5.73 C3.86333225,5.9100009 3.67666745,6.1099989 3.50999995,6.33 C3.34333245,6.5500011 3.20666715,6.759999 3.09999995,6.96 L3.05999995,6.96 L3.05999995,6.06 C3.05999995,5.7666652 2.98000075,5.5366675 2.81999995,5.37 C2.65999915,5.2033325 2.44666795,5.12 2.17999995,5.12 C1.91333195,5.12 1.70000075,5.2033325 1.53999995,5.37 C1.37999915,5.5366675 1.29999995,5.7666652 1.29999995,6.06 L1.29999995,15.06 Z M16.1566672,11.24 C16.5433358,11.24 16.8033332,11.1600008 16.9366672,11 C17.0700012,10.8399992 17.1366672,10.6066682 17.1366672,10.3 C17.1366672,9.6599968 17.0333349,9.0300031 16.8266672,8.41 C16.6199995,7.7899969 16.3233358,7.2366691 15.9366672,6.75 C15.5499986,6.2633309 15.0700034,5.8700015 14.4966672,5.57 C13.923331,5.2699985 13.2766708,5.12 12.5566672,5.12 C11.8099968,5.12 11.1400035,5.2666652 10.5466672,5.56 C9.95333085,5.8533348 9.45333585,6.2499975 9.04666715,6.75 C8.63999845,7.2500025 8.32666825,7.8299967 8.10666715,8.49 C7.88666605,9.1500033 7.77666715,9.8399964 7.77666715,10.56 C7.77666715,11.2666702 7.86999955,11.9466634 8.05666715,12.6 C8.24333475,13.2533366 8.53666515,13.8333308 8.93666715,14.34 C9.33666915,14.8466692 9.84333075,15.2499985 10.4566672,15.55 C11.0700036,15.8500015 11.8033296,16 12.6566672,16 C13.1766698,16 13.689998,15.9266674 14.1966672,15.78 C14.7033364,15.6333326 15.1599985,15.4500011 15.5666672,15.23 C15.9733359,15.0099989 16.2999993,14.7733346 16.5466672,14.52 C16.7933351,14.2666654 16.9166672,14.0333344 16.9166672,13.82 C16.9166672,13.5666654 16.8500012,13.373334 16.7166672,13.24 C16.5833332,13.106666 16.436668,13.04 16.2766672,13.04 C16.1166664,13.04 15.9466681,13.1133326 15.7666672,13.26 C15.5866663,13.4066674 15.3666685,13.5699991 15.1066672,13.75 C14.8466659,13.9300009 14.5233358,14.0966659 14.1366672,14.25 C13.7499986,14.4033341 13.2633368,14.48 12.6766672,14.48 C12.1833314,14.48 11.7433358,14.3966675 11.3566672,14.23 C10.9699986,14.0633325 10.6400019,13.8333348 10.3666672,13.54 C10.0933325,13.2466652 9.88666785,12.9033353 9.74666715,12.51 C9.60666645,12.1166647 9.53666715,11.6933356 9.53666715,11.24 L16.1566672,11.24 Z M9.53666715,9.92 C9.55000055,9.519998 9.61333325,9.120002 9.72666715,8.72 C9.84000105,8.319998 10.016666,7.9633349 10.2566672,7.65 C10.4966684,7.3366651 10.803332,7.0833343 11.1766672,6.89 C11.5500024,6.6966657 12.0099978,6.6133332 12.5566672,6.64 C13.0366696,6.64 13.4566654,6.739999 13.8166672,6.94 C14.176669,7.140001 14.4699994,7.3966651 14.6966672,7.71 C14.923335,8.0233349 15.0933333,8.3733314 15.2066672,8.76 C15.3200011,9.1466686 15.3766672,9.5333314 15.3766672,9.92 L9.53666715,9.92 Z M20.1933344,5.24 L19.4733344,5.24 C18.8866648,5.24 18.5933344,5.4933308 18.5933344,6 C18.5933344,6.5066692 18.8866648,6.76 19.4733344,6.76 L20.1933344,6.76 L20.1933344,15.06 C20.1933344,15.3533348 20.2733336,15.5833325 20.4333344,15.75 C20.5933352,15.9166675 20.8066664,16 21.0733344,16 C21.3400024,16 21.5533336,15.9166675 21.7133344,15.75 C21.8733352,15.5833325 21.9533344,15.3533348 21.9533344,15.06 L21.9533344,6.76 L22.6733344,6.76 C23.260004,6.76 23.5533344,6.5066692 23.5533344,6 C23.5533344,5.4933308 23.260004,5.24 22.6733344,5.24 L21.9533344,5.24 L21.9533344,2.94 C21.9533344,2.6466652 21.8733352,2.4166675 21.7133344,2.25 C21.5533336,2.0833325 21.3400024,2 21.0733344,2 C20.8066664,2 20.5933352,2.0833325 20.4333344,2.25 C20.2733336,2.4166675 20.1933344,2.6466652 20.1933344,2.94 L20.1933344,5.24 Z M25.6500015,11.76 C25.6500015,12.5333372 25.7700003,13.1899973 26.0100015,13.73 C26.2500027,14.2700027 26.5666662,14.7099983 26.9600015,15.05 C27.3533368,15.3900017 27.8033323,15.6333326 28.3100015,15.78 C28.8166707,15.9266674 29.3366655,16 29.8700015,16 C30.4033375,16 30.9233323,15.9266674 31.4300015,15.78 C31.9366707,15.6333326 32.3866662,15.3900017 32.7800015,15.05 C33.1733368,14.7099983 33.4900003,14.2700027 33.7300015,13.73 C33.9700027,13.1899973 34.0900015,12.5333372 34.0900015,11.76 L34.0900015,6.06 C34.0900015,5.7666652 34.0100023,5.5366675 33.8500015,5.37 C33.6900007,5.2033325 33.4766695,5.12 33.2100015,5.12 C32.9433335,5.12 32.7300023,5.2033325 32.5700015,5.37 C32.4100007,5.5366675 32.3300015,5.7666652 32.3300015,6.06 L32.3300015,11.7 C32.3300015,13.5533426 31.5100097,14.48 29.8700015,14.48 C28.2299933,14.48 27.4100015,13.5533426 27.4100015,11.7 L27.4100015,6.06 C27.4100015,5.7666652 27.3300023,5.5366675 27.1700015,5.37 C27.0100007,5.2033325 26.7966695,5.12 26.5300015,5.12 C26.2633335,5.12 26.0500023,5.2033325 25.8900015,5.37 C25.7300007,5.5366675 25.6500015,5.7666652 25.6500015,6.06 L25.6500015,11.76 Z M37.2266687,15.06 C37.2266687,15.3533348 37.3066679,15.5833325 37.4666687,15.75 C37.6266695,15.9166675 37.8400007,16 38.1066687,16 C38.3733367,16 38.5866679,15.9166675 38.7466687,15.75 C38.9066695,15.5833325 38.9866687,15.3533348 38.9866687,15.06 L38.9866687,10 C38.9866687,9.4799974 39.0600013,9.0400018 39.2066687,8.68 C39.3533361,8.3199982 39.5366676,8.0200012 39.7566687,7.78 C39.9766698,7.5399988 40.2266673,7.3566673 40.5066687,7.23 C40.7866701,7.1033327 41.0533341,7.0200002 41.3066687,6.98 C42.0400057,6.846666 42.4066687,6.5266692 42.4066687,6.02 C42.4066687,5.7666654 42.3200029,5.5533342 42.1466687,5.38 C41.9733345,5.2066658 41.7333369,5.12 41.4266687,5.12 C41.1733341,5.12 40.9233366,5.1766661 40.6766687,5.29 C40.4300008,5.4033339 40.2033364,5.5499991 39.9966687,5.73 C39.790001,5.9100009 39.6033362,6.1099989 39.4366687,6.33 C39.2700012,6.5500011 39.1333359,6.759999 39.0266687,6.96 L38.9866687,6.96 L38.9866687,6.06 C38.9866687,5.7666652 38.9066695,5.5366675 38.7466687,5.37 C38.5866679,5.2033325 38.3733367,5.12 38.1066687,5.12 C37.8400007,5.12 37.6266695,5.2033325 37.4666687,5.37 C37.3066679,5.5366675 37.2266687,5.7666652 37.2266687,6.06 L37.2266687,15.06 Z M44.3433359,15.06 C44.3433359,15.3533348 44.4233351,15.5833325 44.5833359,15.75 C44.7433367,15.9166675 44.9566679,16 45.2233359,16 C45.4900039,16 45.7033351,15.9166675 45.8633359,15.75 C46.0233367,15.5833325 46.1033359,15.3533348 46.1033359,15.06 L46.1033359,9.26 C46.1033359,8.793331 46.1766685,8.393335 46.3233359,8.06 C46.4700033,7.726665 46.6600014,7.4566677 46.8933359,7.25 C47.1266704,7.0433323 47.3900011,6.8900005 47.6833359,6.79 C47.9766707,6.6899995 48.2700011,6.64 48.5633359,6.64 C48.8566707,6.64 49.1500011,6.6899995 49.4433359,6.79 C49.7366707,6.8900005 50.0000014,7.0433323 50.2333359,7.25 C50.4666704,7.4566677 50.6566685,7.726665 50.8033359,8.06 C50.9500033,8.393335 51.0233359,8.793331 51.0233359,9.26 L51.0233359,15.06 C51.0233359,15.3533348 51.1033351,15.5833325 51.2633359,15.75 C51.4233367,15.9166675 51.6366679,16 51.9033359,16 C52.1700039,16 52.3833351,15.9166675 52.5433359,15.75 C52.7033367,15.5833325 52.7833359,15.3533348 52.7833359,15.06 L52.7833359,9.16 C52.7833359,8.4133296 52.6666704,7.7833359 52.4333359,7.27 C52.2000014,6.7566641 51.9033377,6.3400016 51.5433359,6.02 C51.1833341,5.6999984 50.7866714,5.4700007 50.3533359,5.33 C49.9200004,5.1899993 49.4966713,5.12 49.0833359,5.12 C48.5499999,5.12 48.0233385,5.2266656 47.5033359,5.44 C46.9833333,5.6533344 46.5300045,6.0133308 46.1433359,6.52 L46.1033359,6.48 L46.1033359,6.06 C46.1033359,5.7666652 46.0233367,5.5366675 45.8633359,5.37 C45.7033351,5.2033325 45.4900039,5.12 45.2233359,5.12 C44.9566679,5.12 44.7433367,5.2033325 44.5833359,5.37 C44.4233351,5.5366675 44.3433359,5.7666652 44.3433359,6.06 L44.3433359,15.06 Z" sketch:type="MSShapeGroup"></path>
        </g>
    </g>
</svg>