<?xml version="1.0" encoding="UTF-8" standalone="no"?>
<svg width="30px" height="17px" viewBox="0 0 30 17" version="1.1" xmlns="http://www.w3.org/2000/svg" xmlns:xlink="http://www.w3.org/1999/xlink" xmlns:sketch="http://www.bohemiancoding.com/sketch/ns">
    <!-- Generator: Sketch 3.2.2 (9983) - http://www.bohemiancoding.com/sketch -->
    <title>tab</title>
    <desc>Created with Sketch.</desc>
    <defs></defs>
    <g id="Page-1" stroke="none" stroke-width="1" fill="none" fill-rule="evenodd" sketch:type="MSPage">
        <g id="tab" sketch:type="MSArtboardGroup" fill="#FFFFFF">
            <path d="M2.59977962,5.3 L1.87987879,5.3 C1.29329,5.3 1,5.5533308 1,6.06 C1,6.5666692 1.29329,6.82 1.87987879,6.82 L2.59977962,6.82 L2.59977962,15.12 C2.59977962,15.4133348 2.6797678,15.6433325 2.83974656,15.81 C2.99972532,15.9766675 3.21302714,16.06 3.47965841,16.06 C3.74628968,16.06 3.9595915,15.9766675 4.11957026,15.81 C4.27954902,15.6433325 4.3595372,15.4133348 4.3595372,15.12 L4.3595372,6.82 L5.07943803,6.82 C5.66602682,6.82 5.95931682,6.5666692 5.95931682,6.06 C5.95931682,5.5533308 5.66602682,5.3 5.07943803,5.3 L4.3595372,5.3 L4.3595372,3 C4.3595372,2.7066652 4.27954902,2.4766675 4.11957026,2.31 C3.9595915,2.1433325 3.74628968,2.06 3.47965841,2.06 C3.21302714,2.06 2.99972532,2.1433325 2.83974656,2.31 C2.6797678,2.4766675 2.59977962,2.7066652 2.59977962,3 L2.59977962,5.3 Z M16.7797619,6.04 C16.7797619,5.7333318 16.6864424,5.513334 16.4998005,5.38 C16.3131586,5.246666 16.1331852,5.18 15.9598748,5.18 C15.773233,5.18 15.5899267,5.246666 15.4099506,5.38 C15.2299745,5.513334 15.1399878,5.7333318 15.1399878,6.04 L15.1399878,6.6 L15.0999933,6.6 C14.6867148,6.1466644 14.2534455,5.7966679 13.8001724,5.55 C13.3468992,5.3033321 12.8136447,5.18 12.2003927,5.18 C11.4538252,5.18 10.7905899,5.3299985 10.2106668,5.63 C9.63074383,5.9300015 9.14081622,6.3333308 8.74086931,6.84 C8.34092241,7.3466692 8.03763389,7.9266634 7.83099466,8.58 C7.62435542,9.2333366 7.52103735,9.9133298 7.52103735,10.62 C7.52103735,11.3266702 7.62435542,12.0066634 7.83099466,12.66 C8.03763389,13.3133366 8.34092241,13.8933308 8.74086931,14.4 C9.14081622,14.9066692 9.63074383,15.3099985 10.2106668,15.61 C10.7905899,15.9100015 11.4538252,16.06 12.2003927,16.06 C12.77365,16.06 13.3035717,15.9300013 13.7901737,15.67 C14.2767758,15.4099987 14.713378,15.0066694 15.0999933,14.46 L15.1399878,14.46 L15.1399878,15.2 C15.1399878,15.5066682 15.2299745,15.726666 15.4099506,15.86 C15.5899267,15.993334 15.773233,16.06 15.9598748,16.06 C16.1331852,16.06 16.3131586,15.993334 16.4998005,15.86 C16.6864424,15.726666 16.7797619,15.5066682 16.7797619,15.2 L16.7797619,6.04 Z M9.28079494,10.62 C9.28079494,10.1666644 9.33078755,9.7100023 9.43077428,9.25 C9.530761,8.7899977 9.69740305,8.3700019 9.93070541,7.99 C10.1640078,7.6099981 10.4672963,7.3000012 10.8405801,7.06 C11.2138638,6.8199988 11.6671302,6.7 12.2003927,6.7 C12.7469868,6.7 13.203586,6.8199988 13.570204,7.06 C13.936822,7.3000012 14.2367777,7.6099981 14.4700801,7.99 C14.7033824,8.3700019 14.8700245,8.7899977 14.9700112,9.25 C15.0699979,9.7100023 15.1199905,10.1666644 15.1199905,10.62 C15.1199905,11.0733356 15.0699979,11.5299977 14.9700112,11.99 C14.8700245,12.4500023 14.7033824,12.8699981 14.4700801,13.25 C14.2367777,13.6300019 13.936822,13.9399988 13.570204,14.18 C13.203586,14.4200012 12.7469868,14.54 12.2003927,14.54 C11.6671302,14.54 11.2138638,14.4200012 10.8405801,14.18 C10.4672963,13.9399988 10.1640078,13.6300019 9.93070541,13.25 C9.69740305,12.8699981 9.530761,12.4500023 9.43077428,11.99 C9.33078755,11.5299977 9.28079494,11.0733356 9.28079494,10.62 L9.28079494,10.62 Z M21.5010472,10.62 C21.5010472,10.1666644 21.5510398,9.7100023 21.6510265,9.25 C21.7510133,8.7899977 21.9176553,8.3700019 22.1509577,7.99 C22.38426,7.6099981 22.6875485,7.3000012 23.0608323,7.06 C23.4341161,6.8199988 23.8873825,6.7 24.420645,6.7 C24.9672391,6.7 25.4238383,6.8199988 25.7904563,7.06 C26.1570743,7.3000012 26.45703,7.6099981 26.6903323,7.99 C26.9236347,8.3700019 27.0902767,8.7899977 27.1902635,9.25 C27.2902502,9.7100023 27.3402428,10.1666644 27.3402428,10.62 C27.3402428,11.0733356 27.2902502,11.5299977 27.1902635,11.99 C27.0902767,12.4500023 26.9236347,12.8699981 26.6903323,13.25 C26.45703,13.6300019 26.1570743,13.9399988 25.7904563,14.18 C25.4238383,14.4200012 24.9672391,14.54 24.420645,14.54 C23.8873825,14.54 23.4341161,14.4200012 23.0608323,14.18 C22.6875485,13.9399988 22.38426,13.6300019 22.1509577,13.25 C21.9176553,12.8699981 21.7510133,12.4500023 21.6510265,11.99 C21.5510398,11.5299977 21.5010472,11.0733356 21.5010472,10.62 L21.5010472,10.62 Z M19.9212648,15.12 C19.9212648,15.4133348 20.001253,15.6433325 20.1612318,15.81 C20.3212105,15.9766675 20.5345123,16.06 20.8011436,16.06 C21.0677749,16.06 21.2810767,15.9766675 21.4410555,15.81 C21.6010342,15.6433325 21.6810224,15.4133348 21.6810224,15.12 L21.6810224,14.6 L21.7210169,14.6 C22.2276163,15.5733382 23.1741431,16.06 24.5606257,16.06 C25.2805301,16.06 25.9204356,15.9100015 26.4803613,15.61 C27.0402869,15.3099985 27.5168832,14.9066692 27.9101643,14.4 C28.3034454,13.8933308 28.6000683,13.3133366 28.8000417,12.66 C29.0000152,12.0066634 29.1000004,11.3266702 29.1000004,10.62 C29.1000004,9.9133298 29.0000152,9.2333366 28.8000417,8.58 C28.6000683,7.9266634 28.3034454,7.3466692 27.9101643,6.84 C27.5168832,6.3333308 27.0402869,5.9300015 26.4803613,5.63 C25.9204356,5.3299985 25.2805301,5.18 24.5606257,5.18 C24.2140051,5.18 23.8907195,5.2233329 23.5907593,5.31 C23.2907991,5.3966671 23.020839,5.5099993 22.7808709,5.65 C22.5409027,5.7900007 22.3342666,5.9466658 22.1609563,6.12 C21.987646,6.2933342 21.841001,6.4599992 21.7210169,6.62 L21.6810224,6.62 L21.6810224,1.44 C21.6810224,1.1466652 21.6010342,0.9166675 21.4410555,0.75 C21.2810767,0.5833325 21.0677749,0.5 20.8011436,0.5 C20.5345123,0.5 20.3212105,0.5833325 20.1612318,0.75 C20.001253,0.9166675 19.9212648,1.1466652 19.9212648,1.44 L19.9212648,15.12 Z" sketch:type="MSShapeGroup"></path>
        </g>
    </g>
</svg>